<svg xmlns="http://www.w3.org/2000/svg" xmlns:xlink="http://www.w3.org/1999/xlink" width="438" height="143" viewBox="0 0 438 143">
  <defs>
    <path id="b" d="M3.8458278,-5.99465256e-16 L386.075416,1.32372657e-14 C387.177768,-7.5260212e-15 387.577431,0.0831447714 387.999773,0.253395348 C388.422114,0.423645925 388.777147,0.681002307 389.070334,1.02942553 C389.363522,1.37784875 389.566871,1.73181594 389.909797,2.77947109 L406.519152,53.5218127 C406.726963,54.1566866 406.780826,54.3737688 406.816552,54.6244049 C406.852279,54.8750409 406.852904,55.1074043 406.818528,55.358229 C406.784152,55.6090538 406.731459,55.8264229 406.527069,56.4624067 L389,111 L0,111 L1.03584031e-16,3.8458278 C-6.01853049e-17,2.50854969 0.139238417,2.02362033 0.400699056,1.53473144 C0.662159695,1.04584256 1.04584256,0.662159695 1.53473144,0.400699056 C2.02362033,0.139238417 2.50854969,-3.53811253e-16 3.8458278,-5.99465256e-16 Z"/>
    <filter id="a" width="112%" height="144.1%" x="-5.8%" y="-21.2%" filterUnits="objectBoundingBox">
      <feOffset dx="1" dy="1" in="SourceAlpha" result="shadowOffsetOuter1"/>
      <feGaussianBlur in="shadowOffsetOuter1" result="shadowBlurOuter1" stdDeviation="8"/>
      <feComposite in="shadowBlurOuter1" in2="SourceAlpha" operator="out" result="shadowBlurOuter1"/>
      <feColorMatrix in="shadowBlurOuter1" values="0 0 0 0 0 0 0 0 0 0 0 0 0 0 0 0 0 0 0.033033288 0"/>
    </filter>
  </defs>
  <g fill="none" fill-rule="evenodd" transform="translate(15 15)">
    <use fill="black" filter="url(#a)" xlink:href="#b"/>
    <use fill="#FFFFFF" xlink:href="#b"/>
    <path stroke="#F0F0F0" d="M0.5,110.5 L388.635502,110.5 L406.051048,56.3094248 C406.236919,55.731063 406.291461,55.521624 406.323159,55.2903376 C406.351238,55.0854566 406.350738,54.8996896 406.321556,54.6949628 C406.288613,54.4638505 406.232944,54.2547082 406.043961,53.6773557 L389.434606,2.93501406 C389.137051,2.02597086 388.967399,1.68367454 388.687759,1.35135111 C388.447209,1.06548241 388.15935,0.856819005 387.812834,0.717134538 C387.410008,0.55475083 387.031919,0.5 386.075416,0.5 L3.8458278,0.5 C2.70208522,0.5 2.24379883,0.588499184 1.77053087,0.841605655 C1.36877622,1.05646639 1.05646639,1.36877622 0.841605655,1.77053087 C0.588499184,2.24379883 0.5,2.70208522 0.5,3.8458278 L0.5,110.5 Z"/>
  </g>
</svg>
