<?xml version="1.0" encoding="UTF-8"?>
<svg width="198px" height="276px" viewBox="0 0 198 276" version="1.1" xmlns="http://www.w3.org/2000/svg" xmlns:xlink="http://www.w3.org/1999/xlink">
    <!-- Generator: Sketch 47.1 (45422) - http://www.bohemiancoding.com/sketch -->
    <title>illus/homme/2@3x</title>
    <desc>Created with Sketch.</desc>
    <defs>
        <polygon id="path-1" points="0.23624 0.1784 27.66024 0.1784 27.66024 47.61328 0.23624 47.61328"></polygon>
        <polygon id="path-3" points="0.667539196 0.261257353 76.0877003 0.261257353 76.0877003 55.5559318 0.667539196 55.5559318"></polygon>
    </defs>
    <g id="Web-Design-V1" stroke="none" stroke-width="1" fill="none" fill-rule="evenodd">
        <g id="Accueil-4" transform="translate(-1007.000000, -301.000000)">
            <g id="Header" transform="translate(0.000000, -88.000000)">
                <g id="illus/homme/2" transform="translate(994.000000, 388.000000)">
                    <g>
                        <g id="fond" opacity="0.519870924" transform="translate(113.790381, 151.786358) scale(-1, 1) rotate(-7.000000) translate(-113.790381, -151.786358) translate(16.290381, 14.786358)">
                            <g id="Group-3" transform="translate(29.600000, 0.621600)">
                                <mask id="mask-2" fill="white">
                                    <use xlink:href="#path-1"></use>
                                </mask>
                                <g id="Clip-2"></g>
                                <path d="M9.86824,47.61328 L0.23624,0.17808 L3.46344,4.18688 L27.66024,38.84048 C27.66024,38.84048 15.19944,38.97648 9.86824,47.61328" id="Fill-1" fill="#137F8B" mask="url(#mask-2)"></path>
                            </g>
                            <path d="M172.35776,225.9864 L181.98976,273.4216 L178.76256,269.4128 L154.56576,234.7592 C154.56576,234.7592 167.02656,234.6232 172.35776,225.9864" id="Fill-4" fill="#137F8B"></path>
                            <path d="M194.9528,141.55864 C194.9528,195.39304 151.3112,239.03464 97.4768,239.03464 C43.6416,239.03464 0,195.39304 0,141.55864 C0,87.72424 43.6416,44.08264 97.4768,44.08264 C151.3112,44.08264 194.9528,87.72424 194.9528,141.55864" id="Fill-6" fill="#137F8B"></path>
                        </g>
                        <g id="illus/gars/soin" transform="translate(35.071706, 0.380201)">
                            <path d="M22.0679821,168.788512 C20.8167904,198.465215 29.4462807,223.949359 28.8748914,253.647389 C53.0340875,256.82602 72.2542756,255.985375 96.6116363,255.280691 C111.240271,254.857703 107.84748,253.99662 122.353483,255.935612 C122.032688,225.803931 121.727887,227.064897 126.515828,195.857084 C127.868324,217.479241 127.192076,217.81692 127.868324,228.965678 L127.868324,253.627839 L155.10929,253.716702 C156.366702,252.637904 156.806575,238.509569 156.948755,236.859382 C157.466827,230.876233 155.868181,223.506821 155.845076,218.747316 C155.753547,200.234478 156.212969,208.688908 154.741397,189.077723 C154.185115,181.671876 152.159037,171.034081 152.532262,163.617572 C152.909041,156.149521 151.526332,142.509044 148.518318,133.608521 C146.850359,128.672179 139.668448,117.86821 134.512614,117.116429 C124.676363,115.680402 113.285898,116.112276 103.450536,114.675361" id="Fill-1" fill="#3C3C3B"></path>
                            <g id="Group-5" transform="translate(0.000000, 115.260702)" fill="#3C3C3B">
                                <path d="M71.7618854,1.08217417 C41.20455,0.575654808 59.5698756,-0.0730454232 29.1049578,2.33425447 C25.2562993,2.63905472 10.9617898,3.86269885 7.57610779,5.71727061 C2.46914858,8.51379064 0.797634695,28.1507464 0.00408770008,33.9188467 C0.00408770008,33.9188467 -0.224290326,71.9735572 2.71974236,81.1753255 L32.6577023,80.3604514 L32.6577023,54.1858414 L108.078435,7.51941317 L71.7618854,1.08217417 Z" id="Fill-3"></path>
                            </g>
                            <path d="M49.849858,111.742614 C46.1016147,116.768707 46.2206912,115.51485 44.6860264,116.280849 C50.4985582,119.379504 54.7364368,120.2317 66.4174841,125.13072 C67.3745391,125.53327 71.5315524,126.799568 72.5694728,126.831559 C75.1429466,126.912424 80.1663745,126.51254 81.1385362,126.141981 C91.2600371,122.277328 87.1998846,123.69647 91.8252061,121.706827 C98.4223985,118.868541 99.450544,117.723097 102.530537,115.100748 C99.450544,114.511586 98.1504776,115.602824 96.3545555,112.4784 C95.1549044,110.392784 95.3415168,107.670909 94.9265263,105.30182 C93.4976086,97.1601878 94.9816214,92.3100428 93.0364094,86.4361955 C94.150752,89.7996618 78.4761994,93.7522901 76.3763656,94.072197 C71.2880677,94.8470828 63.058461,93.7762831 59.5723638,90.3968215 C48.2983092,79.464001 54.928381,104.933927 49.849858,111.742614" id="Fill-6" fill="#F1D7C1"></path>
                            <path d="M72.8527682,5.79164898 C85.9760627,5.79164898 95.7074548,9.1684447 101.241845,21.0476566 C105.78097,30.7906009 104.855017,50.5599626 103.532735,64.3461754 C102.21223,78.1323883 103.274143,83.7414237 93.7018159,94.8866268 C90.2734796,98.8792435 88.3131608,99.7954215 83.6878393,102.831872 C78.3214,106.354403 76.5388073,104.265233 71.925038,105.093436 C67.9359759,105.810561 57.4332525,98.8614709 53.3757659,95.593088 C45.233245,89.033218 42.903256,81.8886292 41.9435351,72.8343735 C40.4781835,59.0099496 38.8608761,60.038095 38.1162038,42.3987805 C37.3279885,23.7179911 53.3615478,5.79164898 72.8527682,5.79164898" id="Fill-8" fill="#F1D7C1"></path>
                            <path d="M110.5666,59.5009179 C109.127907,64.9357817 106.196315,68.8741919 104.019171,68.2974707 C101.842026,67.7216382 101.242201,62.8492774 102.680893,57.4135249 C104.118697,51.9795497 107.050289,48.0411396 109.228323,48.6178607 C111.405467,49.1936933 112.004404,54.0669427 110.5666,59.5009179" id="Fill-10" fill="#F1D7C1"></path>
                            <path d="M40.9653307,57.6090236 C42.1338798,63.1069803 41.2967899,67.9455731 39.093875,68.4138813 C36.8900715,68.8830782 34.1557555,64.8051531 32.9863179,59.3063078 C31.8159916,53.8074626 32.6539701,48.9697584 34.8577736,48.5014501 C37.0606885,48.0331419 39.795893,52.111067 40.9653307,57.6090236" id="Fill-12" fill="#F1D7C1"></path>
                            <path d="M63.0717016,58.922064 C63.7541698,58.2022733 64.0740768,57.1572439 63.9114574,56.1797504 C63.7497267,55.2013683 63.1090241,54.3154037 62.2319458,53.8550932 C61.6552247,53.5529588 61.0029699,53.4321051 60.3587129,53.3387989 C58.7094147,53.0988686 57.0414554,53.0117829 55.3770505,52.9246971 C54.2369377,52.8651588 52.8657809,52.9202539 52.273953,53.8968588 C51.9887026,54.3669443 51.9673755,54.9454427 51.9531574,55.4972822 C51.9238326,56.6427269 51.8971737,57.8023896 52.1477675,58.9211754 C52.1842013,59.0837947 52.2348533,59.2579663 52.3681478,59.3574929 C52.5147718,59.4667945 52.7156023,59.453465 52.8977716,59.4356924 C56.2221381,59.1148968 59.569609,59.0304769 62.9055277,59.18421" id="Fill-14" fill="#FEFEFE"></path>
                            <path d="M83.0051934,59.0158145 C82.3236138,58.2969125 82.0037068,57.2518831 82.1663262,56.2735009 C82.328057,55.2960074 82.9687595,54.4100429 83.8458378,53.9497323 C84.4225589,53.6475979 85.0739251,53.5258556 85.7181821,53.433438 C87.3674803,53.1926192 89.1687342,53.7640085 90.8340277,53.6769228 C91.9732519,53.6173845 92.2229571,53.6440434 92.8147849,54.6206483 C93.0991467,55.0907338 94.1104081,55.0400819 94.1246262,55.5910327 C94.1530624,56.737366 94.1806099,57.8970288 93.9300162,59.0158145 C93.8935823,59.1784339 93.8429304,59.3526055 93.7096358,59.4512434 C93.5630118,59.560545 93.3612927,59.5481042 93.1791234,59.5303315 C89.8556455,59.209536 86.507286,59.1251161 83.1713673,59.2788491" id="Fill-16" fill="#FEFEFE"></path>
                            <path d="M52.652865,60.4953842 C52.3462875,60.4953842 52.0743666,60.2758925 52.0174942,59.9630946 C51.9552901,59.6120855 52.1889999,59.2761832 52.5391203,59.2130905 C55.9008093,58.6097104 59.3433637,58.3422326 62.7628137,58.430207 C63.1191545,58.4390933 63.401739,58.7350073 63.3928527,59.0913481 C63.3830777,59.4476889 63.0631708,59.7276075 62.7317116,59.7213871 C59.393127,59.642299 56.0429902,59.8964473 52.768387,60.4847207 C52.7292872,60.4918297 52.6910761,60.4953842 52.652865,60.4953842" id="Fill-18" fill="#3C3C3B"></path>
                            <path d="M57.358963,58.9124668 C57.0781558,58.9124668 56.7937941,58.8413764 56.534314,58.6778684 C56.4152375,58.604112 56.2899406,58.5028082 56.1744186,58.368625 C55.7567623,58.1677945 55.4110851,57.8496648 55.2049228,57.4435607 C55.0556329,57.1485353 54.995206,56.812633 55.0218649,56.4749535 C54.8423616,55.7098426 54.9356678,54.9936065 55.3000063,54.4497647 C55.8189665,53.6731016 56.7440308,53.4153988 57.3545199,53.2447818 C57.573123,53.181689 57.9081367,53.0901601 58.2715865,53.1790231 C58.7372289,53.2963223 59.1068991,53.6731016 59.3112841,54.237382 C59.4161425,54.5252982 59.4739035,54.8158804 59.5050056,55.0984649 C59.5236668,55.1562259 59.5378849,55.2148755 59.5494371,55.2753023 C59.59298,55.5152326 59.5698756,55.742722 59.52811,55.9435524 C59.5272213,55.9933158 59.5254441,56.0413018 59.5227782,56.0875106 C59.4916761,56.7388767 59.3974813,57.4871035 58.9327276,58.1055903 C58.5852731,58.5712327 57.9756726,58.9124668 57.358963,58.9124668" id="Fill-20" fill="#3C3C3B"></path>
                            <path d="M57.5724121,55.5618857 C57.5724121,55.9057857 57.8505534,56.1830384 58.1944534,56.1830384 C58.5383534,56.1830384 58.8156061,55.9057857 58.8156061,55.5618857 C58.8156061,55.2179857 58.5383534,54.9398444 58.1944534,54.9398444 C57.8505534,54.9398444 57.5724121,55.2179857 57.5724121,55.5618857" id="Fill-22" fill="#FEFEFE"></path>
                            <path d="M93.0369425,60.7565527 C92.9987314,60.7565527 92.9605203,60.7529982 92.9223092,60.7458891 C89.6397083,60.1585044 86.2869056,59.9043561 82.9580959,59.9834442 C82.6346345,60.0154349 82.3067298,59.709746 82.2969549,59.3534052 C82.2880686,58.9970644 82.5706531,58.7011505 82.9269939,58.6922642 C86.3411121,58.6069556 89.7836665,58.8708789 93.1497986,59.474259 C93.5008076,59.5373517 93.7345175,59.873254 93.6723133,60.2233744 C93.615441,60.537061 93.3444087,60.7565527 93.0369425,60.7565527" id="Fill-24" fill="#3C3C3B"></path>
                            <path d="M88.221543,59.1910524 C87.5666223,59.1910524 86.927697,58.792946 86.5926834,58.2739858 C86.1714725,57.6208424 86.1314842,56.8681724 86.1465909,56.2168063 C86.1483681,56.1705975 86.1492568,56.1235001 86.151034,56.0755141 C86.1243751,55.8729063 86.1163774,55.6454169 86.1768043,55.4054867 C86.1927997,55.3432826 86.2132382,55.284633 86.2372312,55.2259834 C86.2869945,54.947842 86.365194,54.661703 86.487825,54.3871162 C86.7339756,53.837054 87.1294162,53.4887108 87.5995017,53.4051796 C87.9709492,53.3394209 88.2944107,53.4567201 88.5094593,53.534031 C89.1101734,53.7499682 90.0147992,54.0743183 90.4751098,54.882972 C90.7994599,55.4499182 90.8421142,56.1714862 90.609293,56.9223789 C90.6110703,57.2591698 90.527539,57.5897404 90.3578106,57.8741021 C90.1249894,58.2650995 89.7562078,58.5592362 89.325222,58.7289646 C89.1999251,58.8551501 89.0675192,58.9466791 88.9431109,59.0124377 C88.7111784,59.136846 88.4650277,59.1910524 88.221543,59.1910524" id="Fill-26" fill="#3C3C3B"></path>
                            <path d="M88.6112074,55.823143 C88.6112074,56.167043 88.8893488,56.4451843 89.2332488,56.4451843 C89.5762601,56.4451843 89.8544014,56.167043 89.8544014,55.823143 C89.8544014,55.4801317 89.5762601,55.2019903 89.2332488,55.2019903 C88.8893488,55.2019903 88.6112074,55.4801317 88.6112074,55.823143" id="Fill-28" fill="#FEFEFE"></path>
                            <path d="M47.9094445,48.583915 C47.5095608,48.583915 47.1230066,48.3653119 46.9283965,47.9840895 C46.6520324,47.4438022 46.8661924,46.7808838 47.4082569,46.5036311 C51.0596395,44.6366186 55.5907662,43.8990553 59.8393084,44.4891059 C61.2904419,44.6890478 62.6935894,45.034725 64.0505281,45.3688501 L66.6808742,46.015773 C67.2709248,46.1606198 67.6308202,46.7577795 67.4850848,47.3478301 C67.340238,47.9387693 66.7421897,48.297776 66.1530277,48.1529293 L63.5235702,47.5051177 C62.2217266,47.1852107 60.8754515,46.8546402 59.5380626,46.6689164 C55.725838,46.1455131 51.6701286,46.7968792 48.4088548,48.4630613 C48.2489014,48.5457039 48.0773957,48.583915 47.9094445,48.583915" id="Fill-30" fill="#F1AD29"></path>
                            <path d="M97.8645163,48.583915 C97.6965652,48.583915 97.5250595,48.5457039 97.365106,48.4630613 C94.1056095,46.7968792 90.0516774,46.1455131 86.2350096,46.6689164 C84.8985094,46.8546402 83.5522343,47.1852107 82.249502,47.5051177 L79.6209331,48.1529293 C79.0353257,48.2986647 78.4346115,47.9387693 78.2888761,47.3478301 C78.1431407,46.7577795 78.503036,46.1606198 79.0930867,46.015773 L81.7225442,45.3688501 C83.0803715,45.034725 84.483519,44.6890478 85.9337639,44.4891059 C90.1840833,43.8999439 94.7143214,44.6375072 98.3657039,46.5036311 C98.9077685,46.7808838 99.1219284,47.4438022 98.8455644,47.9840895 C98.6509543,48.3653119 98.2644001,48.583915 97.8645163,48.583915" id="Fill-32" fill="#F1AD29"></path>
                            <path d="M94.2579208,55.7849319 C93.4075014,55.7849319 92.5944046,55.4277025 91.8541754,55.1024637 L91.4756188,54.9389557 C89.8423161,54.2467126 87.9815239,53.9472441 86.0860751,54.0814273 C84.641162,54.1809539 83.6316778,54.5817263 83.0860587,55.2713035 C82.8647898,55.5521107 82.4586856,55.5983195 82.1778784,55.3770505 C81.8988484,55.1557816 81.8508624,54.7496774 82.0721314,54.4697588 C82.8532376,53.4816018 84.1728538,52.9173214 85.9963235,52.7920245 C88.0890482,52.6436233 90.1595571,52.9768597 91.9803609,53.7481909 L92.3740242,53.9196966 C93.2253322,54.29381 94.0286541,54.6483736 94.726229,54.4208842 C95.0647972,54.3098054 95.4300244,54.4964178 95.5402145,54.8358746 C95.6504047,55.1744428 95.4646809,55.5396699 95.1261127,55.6498601 C94.8328647,55.7449435 94.5431712,55.7849319 94.2579208,55.7849319" id="Fill-34" fill="#3C3C3B"></path>
                            <path d="M63.1081355,54.581282 C63.0459313,54.581282 62.98195,54.571507 62.9188572,54.5528458 C61.0127449,53.9699042 59.0470943,53.3638582 57.0716688,53.5247004 C56.4985022,53.5700205 55.9262242,53.6802107 55.3210668,53.7957326 C54.1720676,54.0170016 52.9821915,54.244491 51.7629905,54.0143357 C51.4119815,53.9485771 51.1809375,53.6108975 51.2466962,53.2607771 C51.3124548,52.9088795 51.6554662,52.6840559 52.0011434,52.7444828 C52.9821915,52.929318 53.9987847,52.7329306 55.0784707,52.5267684 C55.6907371,52.4094691 56.3243306,52.2886154 56.967699,52.2361862 C59.1874979,52.0566828 61.3690857,52.7267102 63.2974138,53.3167608 C63.6386479,53.4207306 63.8297034,53.7832918 63.7257336,54.1236373 C63.6413137,54.4017786 63.3853882,54.581282 63.1081355,54.581282" id="Fill-36" fill="#3C3C3B"></path>
                            <path d="M96.4066292,220.497474 C101.375851,224.546963 93.9229071,227.147984 92.8476643,232.582848 C98.2798622,232.352693 100.907542,231.893271 106.352181,232.098544 C107.606927,232.145642 110.99883,232.364245 111.548004,233.492806 C111.987876,234.39832 111.73817,235.674393 111.096579,236.451056 C109.646334,238.207879 109.129151,237.812438 104.183923,237.547626 C101.185684,237.386784 96.9051509,238.207879 93.4128332,238.921449 C98.8361449,241.481593 106.178898,238.23276 110.817549,242.033433 C111.127681,242.28847 111.432482,242.596825 111.507127,242.991377 C111.584437,243.402812 111.397825,243.812471 111.215656,244.18925 L106.365511,254.230774 C106.081149,254.819048 105.77546,255.433091 105.240505,255.809871 C104.709104,256.184873 104.03019,256.267515 103.382378,256.332386 C98.2238785,256.8549 93.0307221,257.02996 87.849118,256.858455 C85.6542007,253.080887 84.1390858,248.841231 83.9738006,244.475389 C83.7987404,239.852734 85.434709,235.870781 87.6509534,231.927927 C88.428505,230.546107 89.6610355,227.944197 90.243977,226.461073 C90.7460532,225.184999 96.517708,221.565608 96.4066292,220.497474" id="Fill-38" fill="#F1D7C1"></path>
                            <path d="M72.8309967,122.926916 C71.3185477,122.926916 69.8007669,122.423952 68.6411041,121.45801 C68.4065057,121.262512 68.374515,120.914168 68.5700137,120.680459 C68.766401,120.44586 69.1138555,120.415647 69.3475653,120.609368 C70.9364366,121.932539 73.3384047,122.208903 75.1894219,121.28295 C75.4595656,121.145212 75.792802,121.255403 75.9305397,121.529989 C76.0673888,121.80191 75.9571986,122.133369 75.6843891,122.271107 C74.8037563,122.711868 73.8182651,122.926916 72.8309967,122.926916" id="Fill-40" fill="#3C3C3B"></path>
                            <path d="M3.27309255,130.115759 C3.25265405,130.115759 3.23221555,130.11487 3.21177705,130.112205 C2.90875406,130.079325 2.69015097,129.805627 2.72391893,129.503493 C2.93185845,127.616042 3.14779565,125.665498 3.96178115,123.858023 C5.15787774,121.202796 7.6167182,119.025651 10.8842124,117.727362 C13.8326882,116.556147 17.0850757,116.212247 19.9020342,115.98298 C26.3428277,115.455134 33.0040016,115.315619 40.2694442,115.555549 C42.1177955,115.615976 43.9199381,115.710171 45.6403267,116.198029 C47.7357173,116.791634 49.6009526,117.93619 51.4030951,119.043424 C52.1077791,119.476187 52.8133517,119.909838 53.5322537,120.309722 C58.4623755,123.056479 64.0909608,124.279234 69.5338223,125.461113 C74.1547006,126.465265 78.6005188,127.201051 82.2465695,125.24251 C82.5176018,125.095886 82.8508383,125.198078 82.9939078,125.467333 C83.1387545,125.734811 83.0383393,126.069825 82.7690843,126.213783 C78.7915743,128.352716 74.1271531,127.587605 69.3001125,126.540799 C63.7781628,125.341148 58.0678235,124.099731 52.9937437,121.274775 C52.2624008,120.866893 51.5434988,120.425244 50.8254854,119.984483 C49.0064588,118.867475 47.2878475,117.811782 45.3399696,117.259942 C43.7368802,116.805852 42.0786958,116.719655 40.2330104,116.659228 C33.0111107,116.420187 26.3899252,116.56059 19.9917859,117.083105 C17.1295072,117.316815 14.0992774,117.638499 11.2920938,118.752842 C8.29118872,119.944495 6.04561956,121.918143 4.96859945,124.311225 C4.22659302,125.960523 4.02043076,127.823093 3.82048891,129.624346 C3.78938684,129.906931 3.55034525,130.115759 3.27309255,130.115759" id="Fill-42" fill="#3C3C3B"></path>
                            <g id="Group-46" transform="translate(31.990696, 0.627373)">
                                <mask id="mask-4" fill="white">
                                    <use xlink:href="#path-3"></use>
                                </mask>
                                <g id="Clip-45"></g>
                                <path d="M72.037894,55.5559318 C75.7052719,48.2487236 76.7485241,49.6234349 75.7034947,26.9020429 C75.5933045,24.5062952 75.6004135,22.0572297 74.7908712,19.7992197 C73.839148,17.1466578 71.9605832,14.9517406 70.4739044,12.5568815 C68.9881143,10.162911 67.8595536,7.26775302 68.6477689,4.56187329 C66.5461578,3.72122889 64.7280199,2.18834135 63.5425869,0.260901901 C63.2395639,0.920265697 62.9356523,1.57962949 62.6308521,2.23810466 C58.6942192,3.19249377 54.6438415,1.63028143 50.6272319,1.10332357 C46.4062372,0.547929537 42.1283702,1.14597783 37.913596,1.74402613 C29.4262865,2.94812039 20.8039053,4.18953713 13.0026185,7.74405895 C10.6175344,8.83174262 8.27332724,10.172686 6.59737021,12.1880998 C4.63171965,14.5509682 3.49960445,17.8824438 0.667539196,19.0740972 C2.61275126,21.1721537 5.71407154,21.6129144 8.55768899,21.9292669 C16.1305977,22.7716885 23.7035064,23.6141102 31.2773038,24.4565319 C35.2432615,24.8972926 39.3593978,25.3238352 43.1422976,24.0566482 C43.0152234,25.2358608 42.8872607,26.415962 42.7601865,27.5951746 C45.161266,26.1884726 47.5614568,24.7817706 49.9625363,23.3759572 C50.3250975,23.1635746 50.7729673,22.9476374 51.1435262,23.145802 C51.4572127,23.3137531 51.5620711,23.6976415 51.7158042,24.0184371 C52.7546132,26.1831408 56.0603185,25.4713479 58.0073078,24.0655345 C59.9551858,22.6606097 62.2096412,20.7776018 64.4454354,21.6564573 C69.3426779,23.5803423 69.4901905,31.4918192 68.7943929,35.6408348 C68.3207529,38.4622364 68.7250797,40.8526524 69.6243737,43.5771933 C70.2108698,45.3544542 72.2529426,54.1074642 72.037894,55.5559318" id="Fill-44" fill="#F1AD29" mask="url(#mask-4)"></path>
                            </g>
                            <path d="M35.371402,47.5017409 C35.7979446,47.3711122 35.9045803,49.2247953 36.3302343,49.0950553 C37.9430985,51.8542528 39.5408561,52.8246373 40.4472592,55.8895237 C41.4256413,54.8178354 42.4520095,53.6483977 42.6315128,52.2079277 C42.7568097,51.2082185 42.4520095,50.2120638 42.2111906,49.232793 C40.8764677,43.8148131 41.4754046,37.9391886 43.8747068,32.9006539 C44.9268453,33.6222218 46.5876956,33.1405841 47.0888832,31.9675919 C47.543862,30.9030126 47.0977695,29.6393801 47.452333,28.538367 C48.0699312,26.6198139 50.5394352,26.23948 52.5157493,25.8449281 C55.1887497,25.3099726 57.7311215,24.1396463 59.8753868,22.4565802 C58.2367522,20.3345307 54.9488195,21.2782562 52.2687101,21.3138014 C49.7556632,21.3475694 47.3430315,20.3851826 44.8530889,20.0377281 C38.6566688,19.172202 36.7665518,22.4796846 36.0485384,27.7883629 C35.797056,29.6456005 35.364293,47.5035181 35.371402,47.5017409" id="Fill-47" fill="#F1AD29"></path>
                            <path d="M105.883073,63.9284302 C105.72312,63.9284302 105.565832,63.8982168 105.410322,63.8360127 C105.126849,63.7240452 104.989111,63.402361 105.101967,63.1188879 C105.2166,62.8363034 105.537396,62.6994543 105.81998,62.8105331 C105.985266,62.8834008 106.318502,62.6265866 106.587757,62.2231484 C108.330362,59.6052431 108.682259,56.1662432 107.506601,53.2479808 C107.392856,52.9653963 107.529705,52.6437121 107.81229,52.5299674 C108.096652,52.4188886 108.417447,52.5530718 108.530303,52.8356563 C109.841033,56.0862665 109.449147,59.918041 107.506601,62.8363034 C107.032961,63.5445419 106.451797,63.9284302 105.883073,63.9284302" id="Fill-49" fill="#3C3C3B"></path>
                            <path d="M38.7966281,63.6394476 C38.6997674,63.6394476 38.6002408,63.6136773 38.5113777,63.5594709 C34.937306,61.3921012 33.5012792,56.2407105 35.4367163,52.5368987 C35.5780086,52.2667551 35.9103564,52.1627853 36.1822773,52.3031889 C36.4515323,52.4444812 36.5563907,52.7777176 36.4150985,53.0487499 C34.7355869,56.2629262 35.9823354,60.733626 39.0836557,62.6157453 C39.3440244,62.7730329 39.4275557,63.1133784 39.2693795,63.3737471 C39.1654097,63.5452528 38.9832405,63.6394476 38.7966281,63.6394476" id="Fill-51" fill="#3C3C3B"></path>
                            <path d="M66.4292141,81.3834428 C67.1365639,82.9021122 67.8439137,84.419893 68.5512636,85.9376739 C68.6205768,86.0869638 68.696999,86.2442514 68.836514,86.3322258 C68.9911357,86.4299751 69.187523,86.4202002 69.3714695,86.4059821 C71.6899064,86.2255901 73.9941251,85.8541426 76.2521351,85.295194 C77.4384568,85.0028346 78.6265557,84.6518256 79.6733623,84.0244525 C80.7210576,83.3970794 81.6274607,82.4604629 82.0006855,81.2972456 C76.8572924,81.8473079 71.6516952,81.8126513 66.5154112,81.1950531" id="Fill-53" fill="#FEFEFE"></path>
                            <path d="M69.0422319,87.0718329 C68.7081069,87.0718329 68.4255224,86.8141301 68.3988635,86.4755619 C68.3704273,86.1201097 68.6370164,85.809089 68.9924686,85.7815415 C71.7836569,85.5620498 74.7445735,85.2154839 77.4939962,84.181118 C78.8598212,83.6674896 80.0959061,82.995685 81.1587081,82.202138 C80.3109547,82.5069383 79.3983312,82.5815832 78.5194757,82.6260147 C73.9199245,82.8543928 69.2999347,82.5104928 64.7883579,81.6014238 C64.4382375,81.531222 64.2116368,81.1899879 64.2827272,80.8398675 C64.352929,80.4897471 64.6977176,80.2613691 65.0433949,80.3342368 C69.4518906,81.2228673 73.964356,81.5587696 78.4554943,81.3348347 C79.4863056,81.2832941 80.5615485,81.1890993 81.375534,80.6665846 C81.6465663,80.4933017 81.9096009,80.2613691 82.1895195,80.0161071 C82.830222,79.453604 83.5562331,78.8155674 84.5594969,78.7897971 C84.7967612,78.7960175 85.0153643,78.9070963 85.1335522,79.109704 C85.2526286,79.3132004 85.2508514,79.5655715 85.1299976,79.7672906 C83.6735323,82.1994721 81.1231629,84.1971134 77.9480863,85.3905441 C75.0493738,86.4817823 71.9800442,86.8425662 69.0937725,87.069167 C69.0768885,87.0709443 69.0600045,87.0718329 69.0422319,87.0718329" id="Fill-55" fill="#3C3C3B"></path>
                            <path d="M38.4009209,195.644435 C40.026226,203.341752 38.8203545,211.170586 39.1864703,219.028745 C39.3375374,222.273135 39.7347553,226.131569 42.5961453,227.667122 C44.2721024,228.567305 46.3052888,228.342481 48.1918513,228.092776 C56.2206274,227.030863 83.0199446,225.969838 91.0487208,224.908813 C90.7776885,236.393473 90.5084335,247.879022 90.2382898,259.365459 C74.5646259,259.226833 40.1221981,259.088206 24.4494228,258.948691 C19.185176,258.902483 13.5530362,258.742529 9.25828524,255.698081 C2.55623436,250.947463 1.87198891,241.436451 1.8248915,233.221951 C1.78668039,226.618538 1.74935791,220.015125 1.7111468,213.411712 C1.68804241,209.290244 -0.25094924,199.688592 2.71974236,196.436205 C5.28077533,193.631687 38.3955892,195.599115 38.4009209,195.644435" id="Fill-57" fill="#FEFEFE"></path>
                            <path d="M51.608902,106.927214 C48.0552688,117.672533 48.0028396,129.214954 47.9859556,140.532552 C47.9406355,169.736503 47.8953153,198.941343 48.3129716,228.14174 C52.1998412,227.17491 57.0046661,227.381072 60.890647,226.414242 C62.0778573,216.409152 61.496693,207.626817 59.5728081,195.62142 C58.5304446,189.119311 57.5022991,176.386125 56.8331604,169.835141 C54.0384176,142.508866 52.6539314,128.296999 51.608902,106.927214 C49.5339499,110.828302 43.134922,112.362967 42.5333191,116.74036 C42.3298228,118.22615 42.7012703,119.722604 43.053168,121.180846 C46.8698358,136.994914 48.6177719,153.306615 48.2401039,169.570329" id="Fill-59" fill="#1F3A7D"></path>
                            <path d="M107.726271,114.497013 C95.5111563,155.40867 82.7548662,196.159485 69.4627318,236.73524 C67.0900885,243.97669 64.674791,251.271457 60.8661208,257.872204 C60.3524924,258.760835 59.766885,259.681456 58.8435979,260.128437 C58.0420533,260.516769 57.1098799,260.487444 56.2194722,260.449233 C51.9451597,260.267063 47.6708472,260.084006 43.3965348,259.901836 C46.7217899,249.573285 52.1308835,239.368252 56.2905626,226.38625 C58.5370204,219.374956 62.8273283,211.282198 64.7556563,204.176709 C68.1697745,191.597257 70.8463295,187.060798 75.4369944,174.861679 C76.9725478,170.781088 79.1959012,160.1584 80.9100693,156.149788 C83.8940904,149.17937 86.5990815,140.816469 88.4438783,136.400865 C91.6118459,128.81907 92.2898709,122.447589 94.8153587,114.675627 C97.9619991,104.987778 95.5209313,112.781067 107.726271,114.497013" id="Fill-61" fill="#244491"></path>
                            <path d="M89.4268813,258.023005 C89.2189418,258.023005 89.0252204,257.904817 88.9310255,257.71465 C86.2820182,252.338436 85.1890027,246.096696 85.8536983,240.140206 C85.8883549,239.836294 86.1691621,239.623023 86.4641874,239.653236 C86.7672104,239.687004 86.9849248,239.959814 86.9511569,240.263725 C86.3735471,245.439998 87.1715372,250.839316 89.2029465,255.652139 C89.908519,251.259639 89.8498694,246.709851 89.7912198,242.293357 C89.7254612,237.203282 89.656148,231.939924 90.7447203,226.872064 C90.8095903,226.573485 91.1081701,226.385095 91.4014182,226.449076 C91.6991094,226.513058 91.8892763,226.806306 91.8244063,227.104886 C90.7616043,232.049225 90.8300288,237.250379 90.8948988,242.278251 C90.9624348,247.330115 91.0299707,252.553485 89.96628,257.58491 C89.918294,257.815954 89.7290157,257.989237 89.4953059,258.018562 C89.4730901,258.022116 89.4490971,258.023005 89.4268813,258.023005" id="Fill-63" fill="#3C3C3B"></path>
                            <path d="M46.1365379,259.952133 C45.9179348,259.952133 45.6993317,259.938803 45.4816173,259.911256 C44.6329752,259.806397 44.0518109,259.423398 43.8465372,258.834236 C43.7247949,258.483227 43.7692264,258.128663 43.827876,257.828306 C44.1708873,256.065263 45.0595178,254.448844 45.9197121,252.884855 C47.0864839,250.761917 48.1892743,248.756278 47.8818081,246.566692 C47.8391539,246.265447 48.0497593,245.985528 48.3518936,245.942874 C48.6513621,245.901108 48.9321693,246.110825 48.9748236,246.413848 C49.3338303,248.966883 48.0897476,251.229336 46.8874306,253.417144 C46.0681134,254.9056 45.2221372,256.446486 44.9111165,258.040689 C44.8809031,258.197088 44.8542442,258.370371 44.8897894,258.472563 C44.9448845,258.632517 45.2310235,258.767588 45.6184664,258.816463 C47.1184746,259.003964 48.6940163,258.36415 49.6359646,257.184049 C50.2260152,256.445597 50.5841333,255.513424 50.9298106,254.610575 L55.7266378,242.106656 C55.8359393,241.822294 56.1558463,241.680113 56.440208,241.789415 C56.7245698,241.898717 56.8667506,242.217735 56.7574491,242.502097 L51.9606219,255.006904 C51.6016152,255.940855 51.1955111,257.000991 50.4988248,257.872738 C49.4582385,259.17547 47.7991655,259.952133 46.1365379,259.952133" id="Fill-65" fill="#3C3C3B"></path>
                            <path d="M52.4428816,260.996096 C52.4322181,260.996096 52.4233318,260.996096 52.4126682,260.995207 L50.9855277,260.918785 C50.7678132,260.907233 50.5776463,260.768606 50.4994468,260.56511 C49.989373,259.231276 49.6952363,257.832571 49.6259231,256.410763 C49.6099278,256.105962 49.8454148,255.847371 50.1502151,255.832264 C50.4230246,255.796719 50.7136068,256.052645 50.7278249,256.356556 C50.7873631,257.543767 51.0157411,258.713204 51.4085158,259.835544 L51.7017638,259.85154 C51.5524739,258.917589 51.7870724,257.919657 52.6037238,257.386479 C53.3244031,256.918171 54.2468015,257.216751 54.7488777,257.738377 C55.0590097,258.059172 55.2038565,258.443949 55.1763089,258.815397 C56.5279158,259.277485 58.1443346,258.569246 59.083617,257.571314 C60.2850454,256.297907 60.8768733,254.485101 61.399388,252.885566 C61.4953601,252.597649 61.8028262,252.439473 62.0960743,252.532779 C62.3857678,252.626974 62.543944,252.939772 62.4497492,253.229466 C61.8908006,254.938302 61.2580957,256.875516 59.8869389,258.329316 C58.5300002,259.768009 56.1520252,260.664637 54.2308061,259.599169 C54.0930684,259.523635 53.995319,259.392118 53.9606625,259.239273 C53.9260059,259.087318 53.9571079,258.926476 54.0477482,258.797624 C54.1001774,258.722091 54.0690754,258.624341 53.954442,258.504376 C53.7633865,258.3071 53.4097116,258.179137 53.2071038,258.311543 C52.6810346,258.654555 52.663262,259.555626 52.9502896,260.227431 C53.0249346,260.402491 53.0044961,260.605098 52.8951945,260.760609 C52.7921134,260.908121 52.622385,260.996096 52.4428816,260.996096" id="Fill-67" fill="#3C3C3B"></path>
                            <path d="M42.7555656,229.124298 C41.5496941,229.124298 40.2896161,228.846157 39.6266978,227.726483 C39.4311991,227.395912 39.3165658,227.032462 39.2063756,226.68323 C39.0233177,226.102066 38.8909118,225.741282 38.6038841,225.633758 C38.3195224,225.526234 38.1746756,225.208104 38.2813113,224.921965 C38.3879469,224.636715 38.7042994,224.494534 38.9931043,224.599392 C39.8035353,224.904192 40.0567949,225.706626 40.2594027,226.351771 C40.3553748,226.655683 40.4451264,226.942711 40.5775324,227.16398 C41.0254021,227.921093 42.1024222,228.166355 43.9632144,227.935311 L56.4289224,226.382873 C56.7337226,226.341108 57.0074208,226.558822 57.0447433,226.861845 C57.0829544,227.164868 56.8679058,227.440344 56.5657715,227.477666 L44.1009521,229.030992 C43.6859617,229.082533 43.2247625,229.124298 42.7555656,229.124298" id="Fill-69" fill="#3C3C3B"></path>
                            <path d="M93.1558413,132.524747 C93.1416232,132.524747 93.1291824,132.524747 93.1158529,132.523859 C92.8110527,132.502532 92.581786,132.23772 92.6040018,131.933808 C92.8563728,128.397059 93.8729661,124.878082 95.54448,121.753658 C95.8759391,121.13606 96.2322799,120.530014 96.5895094,119.923968 C97.3510657,118.632788 98.0699677,117.413587 98.5489395,116.0682 C99.3264912,113.879503 99.1780899,111.735238 98.1508331,110.332979 C98.0904062,110.251225 98.0504178,110.210348 98.0264248,110.189021 C98.0202044,110.217457 97.9517799,110.287659 97.8478101,110.454721 C96.8321055,112.099576 95.8670528,113.804858 94.9784224,115.522581 C94.8389074,115.793613 94.5065596,115.900249 94.2346387,115.759845 C93.9636064,115.62033 93.8578594,115.287094 93.9973743,115.016062 C94.8984456,113.272569 95.8777164,111.543294 96.9094163,109.875334 C97.040045,109.661174 97.4408173,109.008031 98.136615,109.08001 C98.5835961,109.122664 98.8670692,109.442571 99.0412408,109.680724 C100.284435,111.378009 100.489708,113.904385 99.5886372,116.43787 C99.0750087,117.882783 98.2947912,119.205954 97.5412326,120.485582 C97.1911122,121.07741 96.8418804,121.670126 96.5184189,122.274395 C94.9188841,125.262859 93.9467224,128.62988 93.7059036,132.012008 C93.6854651,132.30259 93.4419803,132.524747 93.1558413,132.524747" id="Fill-71" fill="#3C3C3B"></path>
                            <path d="M83.4894081,68.2283353 C83.4894081,68.5286924 83.246812,68.7712885 82.9464549,68.7712885 C82.6460978,68.7712885 82.4026131,68.5286924 82.4026131,68.2283353 C82.4026131,67.9288668 82.6460978,67.6853821 82.9464549,67.6853821 C83.246812,67.6853821 83.4894081,67.9288668 83.4894081,68.2283353" id="Fill-73" fill="#F8B133"></path>
                            <path d="M86.1682735,64.8977483 C86.1682735,65.1981054 85.9247887,65.4407016 85.6253203,65.4407016 C85.3249632,65.4407016 85.0814784,65.1981054 85.0814784,64.8977483 C85.0814784,64.5973913 85.3249632,64.3547951 85.6253203,64.3547951 C85.9247887,64.3547951 86.1682735,64.5973913 86.1682735,64.8977483" id="Fill-75" fill="#F8B133"></path>
                            <path d="M87.6887202,67.7067981 C87.6887202,68.0071552 87.4461241,68.2497513 87.145767,68.2497513 C86.8454099,68.2497513 86.6019251,68.0071552 86.6019251,67.7067981 C86.6019251,67.406441 86.8454099,67.1638449 87.145767,67.1638449 C87.4461241,67.1638449 87.6887202,67.406441 87.6887202,67.7067981" id="Fill-77" fill="#F8B133"></path>
                            <path d="M90.1402739,65.9234945 C90.1402739,66.2229629 89.8967891,66.4664477 89.5973207,66.4664477 C89.2969636,66.4664477 89.0534788,66.2229629 89.0534788,65.9234945 C89.0534788,65.6231374 89.2969636,65.3805413 89.5973207,65.3805413 C89.8967891,65.3805413 90.1402739,65.6231374 90.1402739,65.9234945" id="Fill-79" fill="#F8B133"></path>
                            <path d="M91.8099216,68.8592629 C91.8099216,69.15962 91.5664369,69.4022161 91.2669684,69.4022161 C90.9666113,69.4022161 90.7231266,69.15962 90.7231266,68.8592629 C90.7231266,68.5589058 90.9666113,68.3163097 91.2669684,68.3163097 C91.5664369,68.3163097 91.8099216,68.5589058 91.8099216,68.8592629" id="Fill-81" fill="#F8B133"></path>
                            <path d="M95.3236553,68.7316556 C95.3236553,69.031124 95.0810592,69.2746088 94.7807021,69.2746088 C94.4812336,69.2746088 94.2377489,69.031124 94.2377489,68.7316556 C94.2377489,68.4312985 94.4812336,68.1887024 94.7807021,68.1887024 C95.0810592,68.1887024 95.3236553,68.4312985 95.3236553,68.7316556" id="Fill-83" fill="#F8B133"></path>
                            <path d="M49.7440221,67.5445342 C49.7440221,67.8448912 49.501426,68.0874874 49.2010689,68.0874874 C48.9016004,68.0874874 48.657227,67.8448912 48.657227,67.5445342 C48.657227,67.2450657 48.9016004,67.0015809 49.2010689,67.0015809 C49.501426,67.0015809 49.7440221,67.2450657 49.7440221,67.5445342" id="Fill-85" fill="#F8B133"></path>
                            <path d="M53.7801816,68.5737459 C53.7801816,68.874103 53.5375855,69.1166991 53.2372284,69.1166991 C52.9377599,69.1166991 52.6933866,68.874103 52.6933866,68.5737459 C52.6933866,68.2742775 52.9377599,68.0307927 53.2372284,68.0307927 C53.5375855,68.0307927 53.7801816,68.2742775 53.7801816,68.5737459" id="Fill-87" fill="#F8B133"></path>
                            <path d="M55.9817636,66.673232 C55.9817636,66.9735891 55.7391674,67.2161852 55.4388104,67.2161852 C55.1384533,67.2161852 54.8949685,66.9735891 54.8949685,66.673232 C54.8949685,66.3737635 55.1384533,66.1302788 55.4388104,66.1302788 C55.7391674,66.1302788 55.9817636,66.3737635 55.9817636,66.673232" id="Fill-89" fill="#F8B133"></path>
                            <path d="M58.0132616,68.7377871 C58.0132616,69.0381442 57.7706655,69.2807403 57.4703084,69.2807403 C57.1699513,69.2807403 56.9264666,69.0381442 56.9264666,68.7377871 C56.9264666,68.43743 57.1699513,68.1948339 57.4703084,68.1948339 C57.7706655,68.1948339 58.0132616,68.43743 58.0132616,68.7377871" id="Fill-91" fill="#F8B133"></path>
                            <path d="M60.6748876,66.0345733 C60.6748876,66.3349304 60.4322915,66.5775265 60.1319344,66.5775265 C59.8324659,66.5775265 59.5880925,66.3349304 59.5880925,66.0345733 C59.5880925,65.7351048 59.8324659,65.4916201 60.1319344,65.4916201 C60.4322915,65.4916201 60.6748876,65.7351048 60.6748876,66.0345733" id="Fill-93" fill="#F8B133"></path>
                            <path d="M62.4859164,68.702153 C62.4859164,69.0016215 62.2433203,69.2451062 61.9429632,69.2451062 C61.6426061,69.2451062 61.3991214,69.0016215 61.3991214,68.702153 C61.3991214,68.4017959 61.6426061,68.1591998 61.9429632,68.1591998 C62.2433203,68.1591998 62.4859164,68.4017959 62.4859164,68.702153" id="Fill-95" fill="#F8B133"></path>
                        </g>
                    </g>
                </g>
            </g>
        </g>
    </g>
</svg>