<?xml version="1.0" encoding="UTF-8"?>
<svg width="307px" height="256px" viewBox="0 0 307 256" version="1.1" xmlns="http://www.w3.org/2000/svg" xmlns:xlink="http://www.w3.org/1999/xlink">
    <!-- Generator: Sketch 47.1 (45422) - http://www.bohemiancoding.com/sketch -->
    <title>illus/homme/1@3x</title>
    <desc>Created with Sketch.</desc>
    <defs>
        <polygon id="path-1" points="0.23624 0.178181373 27.66024 0.178181373 27.66024 47.5549304 0.23624 47.5549304"></polygon>
        <polygon id="path-3" points="0.445108317 0.302651633 76.6845427 0.302651633 76.6845427 52.6579227 0.445108317 52.6579227"></polygon>
        <polygon id="path-5" points="0 256.196826 197.538107 256.196826 197.538107 0.887541445 0 0.887541445"></polygon>
    </defs>
    <g id="Web-Design-V1" stroke="none" stroke-width="1" fill="none" fill-rule="evenodd">
        <g id="Accueil-4" transform="translate(-180.000000, -307.000000)">
            <g id="Header" transform="translate(0.000000, -88.000000)">
                <g id="illus/homme/1" transform="translate(171.000000, 376.000000)">
                    <g id="illus/homme">
                        <g id="fond" opacity="0.519870924" transform="translate(167.782645, 163.545399) rotate(130.000000) translate(-167.782645, -163.545399) translate(70.282645, 26.545399)">
                            <g id="Group-3" transform="translate(29.600000, 0.620838)">
                                <mask id="mask-2" fill="white">
                                    <use xlink:href="#path-1"></use>
                                </mask>
                                <g id="Clip-2"></g>
                                <path d="M9.86824,47.5549304 L0.23624,0.177861765 L3.46344,4.18174902 L27.66024,38.7928814 C27.66024,38.7928814 15.19944,38.9287147 9.86824,47.5549304" id="Fill-1" fill="#137F8B" mask="url(#mask-2)"></path>
                            </g>
                            <path d="M172.35776,225.709456 L181.98976,273.086525 L178.76256,269.082637 L154.56576,234.471505 C154.56576,234.471505 167.02656,234.335672 172.35776,225.709456" id="Fill-4" fill="#137F8B"></path>
                            <path d="M97.4768,238.741705 C43.6416,238.741705 0,195.153588 0,141.385161 C0,87.6167348 43.6416,44.0286172 97.4768,44.0286172 C151.3112,44.0286172 194.9528,87.6167348 194.9528,141.385161 C194.9528,195.153588 151.3112,238.741705 97.4768,238.741705 Z" id="Fill-6" fill="#137F8B"></path>
                        </g>
                        <g id="illus/gars/logement" transform="translate(68.917704, 18.422571)">
                            <path d="M94.7367149,113.274075 L126.535467,111.603722 C136.406374,113.042426 147.83505,112.610194 157.705069,114.048898 C162.879564,114.803308 170.085468,125.631314 171.759648,130.57847 C174.776548,139.498262 178.985991,147.580214 180.593523,154.039741 C182.393,161.261665 186.856591,166.252311 188.655179,173.475123 C192.901944,190.523019 197.4464,189.936354 197.537929,208.490408 C197.561033,213.260056 192.967702,215.69192 190.842098,217.63741 C189.616677,218.759263 180.124326,227.867213 178.862471,228.948239 L157.603765,211.999747 L166.526503,201.680303 C162.372156,188.999998 162.217534,184.422059 156.496531,168.867896 C151.691707,200.145744 145.371767,216.17918 145.69434,246.379553 C131.137684,244.434949 134.35186,252.09887 119.672574,252.523114 C95.231682,253.22871 75.9448467,254.070987 51.7012307,250.885601 C52.2752859,221.121011 43.6155822,195.58023 44.8721056,165.836942 C38.5059571,177.068779 41.5424073,173.694346 35.1771474,184.925295 C34.5542174,186.024959 26.1006759,196.113643 26.0358059,197.374839 C25.96827,198.729227 31.5186558,202.433825 32.4063976,203.460711 C38.1087393,210.055144 35.4561774,203.971935 39.3314948,211.999747 C33.4914154,218.033254 23.8204502,223.102891 20.8533131,230.056778 C16.2502074,226.327329 6.37130262,218.122896 2.89498029,210.055144 C2.10943097,208.230359 -0.00550950881,201.296885 0.000710904362,199.310567 C0.00515405663,197.476907 4.52917169,179.785543 4.98592775,178.009572 C10.107105,158.076279 13.2821817,156.849697 19.1115974,139.498262 C20.9706123,133.966216 25.2049364,120.72321 30.3287796,117.919466 C33.7269025,116.060955 48.0702866,114.834372 51.9322746,114.529946 C82.5029394,112.11672 64.0745211,112.767288 94.7367149,113.274075 Z" id="Fill-1" fill="#244491"></path>
                            <path d="M73.6777727,109.954403 C68.2908949,113.201917 69.1075463,112.444845 67.5684383,113.212568 C73.40052,116.317188 77.6535053,117.17189 89.3736524,122.08177 C90.3342619,122.484713 94.5054932,123.754785 95.5478568,123.786737 C98.1302169,123.867503 103.171417,123.467222 104.146245,123.095342 C114.302402,119.222111 110.22892,120.64484 114.870237,118.650534 C121.490534,115.805964 122.522234,114.657485 125.612002,112.029475 C122.522234,111.43926 120.352199,111.010578 118.549167,107.879331 C117.345962,105.790059 117.646319,103.760252 116.887428,101.470395 C114.935107,95.5851073 118.037316,89.1877085 116.085884,83.3015336 C117.202892,86.6724161 101.475022,90.632626 99.3671904,90.953916 C94.2611199,91.7314023 86.0039657,90.6583647 82.5063162,87.2697315 C71.1922733,76.3130323 82.6191723,104.566139 73.6777727,109.954403" id="Fill-3" fill="#84684E"></path>
                            <path d="M95.8310633,2.47615188 C109.000567,2.47615188 118.765727,5.56834627 124.319667,16.4504919 C128.874787,25.3747212 127.945279,43.4841168 126.618554,56.1120565 C125.292717,68.7399962 122.647264,73.875311 116.584139,80.9277153 C113.324642,84.7201799 110.252647,87.216834 106.070752,92.2420936 C102.174996,96.9238748 94.7718158,98.6625685 89.1556713,95.7771712 C85.6109244,93.9559362 80.6257076,87.7546841 77.3182251,84.0589615 C75.34902,81.8587463 65.0382408,72.5226978 64.075854,64.228623 C62.6051706,51.5660692 61.0349606,52.5547904 60.288511,36.3970984 C59.4967413,19.2852993 76.2731956,2.47615188 95.8310633,2.47615188" id="Fill-5" fill="#84684E"></path>
                            <path d="M133.675968,56.3058955 C132.232832,61.7527374 129.290577,65.6996342 127.105435,65.1227323 C124.920292,64.5440552 124.319578,59.6599147 125.763603,54.2139604 C127.206738,48.7671185 130.148105,44.8202217 132.333248,45.3980112 C134.51839,45.9749131 135.119104,50.8590537 133.675968,56.3058955" id="Fill-7" fill="#84684E"></path>
                            <path d="M63.8334357,54.409397 C65.0073165,59.9201418 64.1666721,64.7687807 61.9557595,65.2382902 C59.7439583,65.7077996 57.0016447,61.6215588 55.8268753,56.1099264 C54.6538831,50.5991816 55.4945275,45.7505426 57.70544,45.2810332 C59.9163526,44.8115238 62.6604435,48.8986522 63.8334357,54.409397" id="Fill-9" fill="#84684E"></path>
                            <path d="M127.927595,61.3251199 C127.666338,61.3251199 127.434406,61.1405113 127.384642,60.8742489 C127.326881,60.5742599 127.525046,60.2849214 127.826292,60.2290062 C128.871321,60.0310845 130.086079,58.3562938 130.651248,56.3326993 C131.243964,54.2088126 131.147992,51.7059457 130.421981,50.3808464 C130.275357,50.1128088 130.373106,49.7764306 130.642362,49.6299863 C130.909839,49.4826544 131.24663,49.5829466 131.393254,49.8500966 C132.25878,51.4290328 132.392075,54.2168005 131.719382,56.6300257 C131.014698,59.1506434 129.532462,61.0331188 128.030677,61.315357 C127.99602,61.3224573 127.962252,61.3251199 127.927595,61.3251199" id="Fill-11" fill="#3C3C3B"></path>
                            <path d="M61.7411553,62.0757137 C61.5980857,62.0757137 61.4541276,62.0206862 61.3457147,61.9097435 C58.4976541,59.0074829 57.314887,53.4479233 58.7100368,49.5170023 C58.8122293,49.2276638 59.1312476,49.0767817 59.4173866,49.1797365 C59.7061915,49.2818038 59.8563701,49.5977685 59.7550662,49.8862195 C58.4861019,53.4585738 59.5551243,58.5051345 62.1365958,61.1349198 C62.3516444,61.3541425 62.3480898,61.7038339 62.1294868,61.9177313 C62.0210738,62.0233488 61.8806702,62.0757137 61.7411553,62.0757137" id="Fill-13" fill="#3C3C3B"></path>
                            <path d="M85.9754407,56.1464043 C86.6570202,55.4274958 86.9769272,54.383747 86.8143078,53.4074514 C86.6525771,52.4302683 86.0118745,51.5453895 85.1347962,51.085643 C84.5580751,50.7838789 83.906709,50.6631733 83.2624519,50.5699814 C81.6131538,50.3303453 79.9451944,50.2433662 78.2799009,50.1563871 C77.1406767,50.0969219 75.7695199,50.1519494 75.177692,51.1273575 C74.891553,51.5977544 74.8702259,52.1746564 74.8560078,52.7258196 C74.8275716,53.8698605 74.8000241,55.0281021 75.0506179,56.1455168 C75.0870517,56.3088244 75.1377036,56.481895 75.2709982,56.5812997 C75.4176222,56.6904673 75.6193414,56.6771541 75.8015106,56.6594033 C79.1249885,56.3390008 82.473348,56.2546844 85.8092668,56.4082291" id="Fill-15" fill="#FEFEFE"></path>
                            <path d="M105.908844,56.2408388 C105.226375,55.5219302 104.906468,54.4781814 105.069088,53.5009983 C105.230818,52.5247027 105.87241,51.6398239 106.748599,51.1800774 C107.32532,50.8783133 107.977575,50.7576077 108.621832,50.6644159 C110.27113,50.4238921 112.072384,50.9945813 113.736789,50.9076022 C114.876902,50.8481369 115.125719,50.8747632 115.717546,51.8501712 C116.002797,52.3196807 117.014058,52.2690908 117.027388,52.8193665 C117.056713,53.9642949 117.083371,55.1225365 116.832778,56.2399512 C116.796344,56.4023713 116.745692,56.5763294 116.612397,56.6748465 C116.465773,56.7840141 116.264943,56.7715885 116.082774,56.7538377 C112.758407,56.4334353 109.410936,56.3491188 106.075017,56.5026635" id="Fill-17" fill="#FEFEFE"></path>
                            <path d="M75.5617581,57.301717 C75.2534033,57.301717 74.9805938,57.0816068 74.9246101,56.7683046 C74.8615173,56.4168382 75.0961157,56.0795725 75.4480134,56.0174446 C78.8256978,55.4121413 82.2824702,55.1458789 85.707252,55.2319704 C86.0653701,55.2408458 86.3488432,55.5381722 86.3399569,55.8949639 C86.3310706,56.2526431 86.0236044,56.5544071 85.6761499,56.5268934 C82.3375653,56.4399143 78.9696559,56.7008515 75.6772801,57.2910665 C75.6381803,57.2981669 75.5999692,57.301717 75.5617581,57.301717" id="Fill-19" fill="#3C3C3B"></path>
                            <path d="M80.2843846,55.7155917 C80.0026888,55.7155917 79.7174384,55.6445884 79.4570697,55.4812808 C79.3379932,55.4067273 79.2118077,55.3055476 79.0953971,55.1706413 C78.6768522,54.9691694 78.3293976,54.650542 78.1223467,54.2431605 C77.9730568,53.9476092 77.9117413,53.6103434 77.9392889,53.2730777 C77.7588969,52.5053543 77.8530917,51.7882208 78.2183188,51.2432704 C78.7390563,50.4648965 79.6667865,50.2075095 80.2799415,50.0353265 C80.4994332,49.9714235 80.8353355,49.8808943 81.199674,49.9687609 C81.6679823,50.0868039 82.0385412,50.464009 82.2438148,51.031148 C82.3486732,51.3187114 82.4073228,51.609825 82.4384249,51.8929507 C82.4561975,51.9515285 82.4713042,52.0092187 82.4828564,52.070459 C82.5255106,52.3100952 82.5032949,52.5381934 82.4615293,52.7405528 C82.459752,52.7893676 82.4570861,52.8381824 82.4553088,52.8852221 C82.4242068,53.537565 82.3300119,54.2875375 81.8643696,54.9070415 C81.5151378,55.3738883 80.9028714,55.7155917 80.2843846,55.7155917" id="Fill-21" fill="#3C3C3B"></path>
                            <path d="M80.4987223,52.3578449 C80.4987223,52.702211 80.7777523,52.980899 81.1225409,52.980899 C81.4673295,52.980899 81.7463595,52.702211 81.7463595,52.3578449 C81.7463595,52.0134789 81.4673295,51.7347908 81.1225409,51.7347908 C80.7777523,51.7347908 80.4987223,52.0134789 80.4987223,52.3578449" id="Fill-23" fill="#FEFEFE"></path>
                            <path d="M116.086417,57.563453 C116.048206,57.563453 116.009995,57.5599029 115.970895,57.5528025 C112.676742,56.963475 109.31061,56.7034254 105.972914,56.7895169 L105.956918,56.7895169 C105.605909,56.7895169 105.317105,56.5099413 105.308218,56.1584749 C105.299332,55.8007957 105.582805,55.5034693 105.940034,55.4945939 C109.366593,55.4102775 112.819811,55.6738773 116.200162,56.2791805 C116.552059,56.3413084 116.786658,56.6785742 116.723565,57.0300406 C116.667581,57.3433427 116.394772,57.563453 116.086417,57.563453" id="Fill-25" fill="#3C3C3B"></path>
                            <path d="M111.253689,55.9955223 C110.596103,55.9955223 109.9554,55.5952411 109.618609,55.0760294 C109.197398,54.4219113 109.15741,53.6666135 109.171628,53.0142706 C109.173405,52.9672309 109.174294,52.9201912 109.176071,52.872264 C109.149412,52.669017 109.141415,52.4409188 109.201841,52.2012826 C109.218725,52.1382672 109.238275,52.0796894 109.262268,52.0211117 C109.312032,51.7415362 109.39112,51.4557478 109.513751,51.1797224 C109.761679,50.6285592 110.158008,50.2797554 110.629871,50.1963265 C111.002207,50.1306484 111.327445,50.2478039 111.543383,50.32502 C112.145874,50.5406926 113.052277,50.8664203 113.515254,51.6776332 C113.840492,52.2447722 113.884035,52.969006 113.649437,53.7207536 C113.652103,54.0580193 113.567683,54.3899598 113.397954,54.6748606 C113.163356,55.0662664 112.792797,55.3609302 112.361811,55.5322257 C112.234737,55.6582566 112.10322,55.7496733 111.977923,55.8153514 C111.745102,55.9404947 111.498062,55.9955223 111.253689,55.9955223" id="Fill-27" fill="#3C3C3B"></path>
                            <path d="M111.645042,52.6195809 C111.645042,52.963947 111.924072,53.242635 112.268861,53.242635 C112.613649,53.242635 112.892679,52.963947 112.892679,52.6195809 C112.892679,52.2752148 112.613649,51.9965268 112.268861,51.9965268 C111.924072,51.9965268 111.645042,52.2752148 111.645042,52.6195809" id="Fill-29" fill="#FEFEFE"></path>
                            <path d="M70.8027866,45.3649946 C70.4011256,45.3649946 70.0136827,45.1457719 69.8190727,44.7632415 C69.5409313,44.2209537 69.7559799,43.5570727 70.2998217,43.2792722 C73.9645337,41.4083349 78.5072126,40.6743381 82.7735274,41.2592279 C84.2273268,41.4606998 85.6358061,41.8059534 86.9989652,42.1405566 L89.6381977,42.7902369 C90.2300255,42.9366812 90.5925868,43.5339966 90.4459627,44.1259868 C90.2993387,44.7179769 89.6995132,45.0765437 89.1094625,44.932762 L86.4711187,44.2830816 C85.1639433,43.9617916 83.8114478,43.6307387 82.4705044,43.4452425 C78.6502821,42.9162678 74.5768001,43.5730485 71.3039741,45.2434015 C71.1440207,45.3259428 70.9716264,45.3649946 70.8027866,45.3649946" id="Fill-31" fill="#3C3C3B"></path>
                            <path d="M120.930519,45.3649946 C120.76168,45.3649946 120.589285,45.3259428 120.429332,45.2434015 C117.156506,43.573936 113.086578,42.9162678 109.261024,43.4452425 C107.920969,43.6307387 106.568474,43.9617916 105.26041,44.2830816 L102.622955,44.932762 C102.032904,45.0765437 101.433967,44.7179769 101.286454,44.1259868 C101.13983,43.5339966 101.502392,42.9366812 102.09422,42.7902369 L104.731675,42.1405566 C106.096611,41.8059534 107.50509,41.4606998 108.958001,41.2592279 C113.225205,40.6752256 117.767884,41.4083349 121.433484,43.2792722 C121.977326,43.5570727 122.192375,44.2209537 121.914233,44.7632415 C121.719623,45.1457719 121.33218,45.3649946 120.930519,45.3649946" id="Fill-33" fill="#3C3C3B"></path>
                            <path d="M95.8363062,84.8718607 C90.443208,84.8718607 82.3415641,81.1779132 85.6917009,80.8149088 C92.2098053,80.1093133 91.366495,80.4465791 96.7595932,80.4465791 C102.15358,80.4465791 102.358854,79.6966066 107.100586,79.1552063 C110.447168,78.7726759 101.230293,84.8718607 95.8363062,84.8718607 M128.297977,44.2615144 C127.740805,44.1505717 124.272481,56.9160803 123.031064,60.636654 C122.062457,63.5415772 119.537858,66.2086392 117.653072,68.8890144 C117.315393,69.3682868 116.943057,69.8262581 116.487189,70.1084963 C115.87048,70.4919142 115.157798,70.5212031 114.470887,70.5283034 C107.483586,70.6001943 100.497173,69.1215502 93.5320874,69.8235955 C89.5785705,70.2229892 85.6810374,71.3217655 81.7230773,71.6528184 C77.7660059,71.9838714 73.6196562,71.4806354 70.2037608,68.9191908 C69.2671443,68.216258 68.3820684,67.3473549 67.7733565,66.2006513 C67.0615635,64.8631264 66.7709813,63.2451383 66.2378031,61.7798074 C65.7055134,60.315364 62.0799012,46.0729865 60.8198232,45.8759523 C60.8473707,48.9974355 63.5985706,64.9341297 63.6652179,68.055613 C63.6892109,69.1694775 63.7238675,70.3268315 64.1273057,71.3173278 C64.6160525,72.5146212 64.5822845,74.6882102 64.9990522,75.8349137 C66.8918351,81.044782 68.669096,82.3352673 70.7476026,85.7168002 C72.0841028,87.8939393 75.2725089,91.4902573 77.0568788,93.0665309 C80.651389,96.2439293 82.1860538,98.4681081 85.5823994,101.979222 C88.9778564,105.489448 90.5738367,106.635265 97.7122051,105.877304 C98.9136335,105.749498 102.430833,104.790066 103.592273,104.28328 C106.638498,102.953743 107.120136,102.453169 109.962865,99.995567 C110.673769,99.3813883 112.328399,97.7847012 112.892679,96.9601752 C113.48273,96.0974849 115.409281,93.937209 116.085528,93.0789565 C119.630275,88.5800089 120.129686,84.7014528 122.521879,80.2619705 C124.910517,75.8295885 125.145116,70.0934081 126.007087,64.737983 C126.302113,62.90521 129.752665,44.5517404 128.297977,44.2615144" id="Fill-35" fill="#3C3C3B"></path>
                            <path d="M117.310061,52.5815054 C116.457864,52.5815054 115.643879,52.2247137 114.90365,51.898986 L114.518873,51.7330158 C112.880238,51.0398459 111.008783,50.7425195 109.110668,50.8729881 C107.661312,50.9732803 106.648273,51.3753366 106.100877,52.0658438 C105.878719,52.348082 105.469949,52.3951217 105.19003,52.1723488 C104.909223,51.9504634 104.861237,51.5430819 105.083395,51.2635063 C105.866278,50.2738976 107.191226,49.7085337 109.020916,49.5816153 C111.126082,49.4342834 113.198368,49.7671115 115.025392,50.5401601 L115.425276,50.7141182 C116.278361,51.0877731 117.085238,51.438352 117.780147,51.213804 C118.121381,51.1046364 118.486608,51.289245 118.597687,51.6282859 C118.708765,51.9691018 118.523042,52.3338813 118.182696,52.444824 C117.88856,52.5406785 117.597089,52.5815054 117.310061,52.5815054" id="Fill-37" fill="#3C3C3B"></path>
                            <path d="M86.0535513,51.374094 C85.9913471,51.374094 85.9264771,51.3652186 85.8633844,51.3456927 C83.9528289,50.7608029 81.9756261,50.1492868 79.9957575,50.3161446 C79.4208136,50.3614092 78.8485356,50.4714643 78.2407123,50.5877323 C77.0863814,50.8078426 75.8911734,51.0377158 74.6693065,50.8060675 C74.3174089,50.7403894 74.0854763,50.4013486 74.1521236,50.0507697 C74.2178823,49.6984157 74.5635595,49.4667674 74.9092368,49.5342206 C75.8911734,49.7197167 76.9148757,49.5235701 77.9972276,49.3158854 C78.6112712,49.1987299 79.246642,49.0762492 79.8908991,49.0247718 C82.1151411,48.8454884 84.3100583,49.5155822 86.2437182,50.1075724 C86.5858409,50.2114147 86.7777851,50.5744192 86.6729267,50.9161226 C86.5885068,51.1948106 86.330804,51.374094 86.0535513,51.374094" id="Fill-39" fill="#3C3C3B"></path>
                            <g id="Group-43" transform="translate(55.095088, 0.584890)">
                                <mask id="mask-4" fill="white">
                                    <use xlink:href="#path-3"></use>
                                </mask>
                                <g id="Clip-42"></g>
                                <path d="M6.41431234,52.6579227 C8.05383552,52.5034905 7.48777792,44.698451 8.05739004,40.0246578 C8.22889572,38.6179046 8.29376574,37.3913223 8.98067708,36.1505394 C9.52807344,35.1627057 11.3071116,30.7365365 11.9353733,29.7966302 C13.6930844,27.1677324 11.8438444,22.0856701 14.1507291,19.9209565 C16.0523982,18.1378857 17.8625385,15.4282217 20.4671143,15.3101787 C36.8090284,14.5726317 50.5419234,14.5300298 66.8980555,14.7856417 C70.2499696,14.8388942 73.7840529,14.8016174 76.6845427,13.1232766 C74.7944257,12.7549469 72.9549607,12.1247924 71.2354607,11.2567769 C72.0165669,10.9763138 72.6910374,10.4091748 73.1006961,9.68937871 C71.6024651,10.3479345 69.6457009,9.63967639 68.9196898,8.17523301 C66.5559328,6.25548086 63.5212598,5.41231649 60.5781157,4.6224046 C50.0158541,1.78848477 39.0243841,-0.975319294 28.2559602,0.934669896 C23.6946201,1.74322015 19.3252242,3.3718587 14.9860417,4.99162184 C13.8583696,5.41320403 12.6978183,5.85342459 11.8216286,6.6761755 C10.12079,8.27375011 9.90574139,10.8387449 9.17173263,13.0513857 C8.45194197,15.2169868 7.17053685,17.1447269 5.90334983,19.043178 C4.50997728,21.131563 3.15481583,23.2501245 1.72234354,25.3109957 C0.36096169,27.2680246 0.328082363,28.0082341 0.544908194,30.4551859 C0.987446159,35.4520442 5.97355163,47.6610644 6.41431234,52.6579227" id="Fill-41" fill="#3C3C3B" mask="url(#mask-4)"></path>
                            </g>
                            <path d="M129.187673,47.0343713 C128.987732,40.870396 128.788678,34.7046456 128.588737,28.5397827 C128.527421,26.6306811 128.464328,24.7073788 128.044895,22.8426542 C127.694774,21.2885691 127.50283,19.5223616 126.409815,18.3605699 C125.355899,17.2422677 124.507257,15.879004 123.671944,14.6843732 C123.112107,13.8820357 120.801668,13.3184469 119.895265,14.1110214 C119.056398,14.8450182 120.0801,16.4328299 120.550185,17.4552776 C121.956887,20.5119703 123.355592,23.4089056 124.270881,26.6697329 C126.16011,33.397297 126.831025,40.4319505 129.187673,47.0343713" id="Fill-44" fill="#3C3C3B"></path>
                            <path d="M123.531363,31.9123514 C124.95406,36.1574622 125.561883,40.6235707 126.163486,45.0595029 C126.526936,47.7443157 126.890386,50.4282411 127.254724,53.1139415 C127.334701,51.5749446 127.425342,49.9951209 128.066933,48.5945805 C128.485478,47.6795252 129.12618,46.8754127 129.531396,45.9541447 C130.128555,44.5962062 130.180985,43.0678599 130.173876,41.5847781 C130.125001,32.2975444 128.050937,23.025399 124.13652,14.599968 C123.888592,14.0692182 123.620226,13.5207176 123.159027,13.1586007 C119.759127,10.4844383 112.89179,12.2240196 115.415501,17.3043068 C117.934768,22.3783812 121.67768,26.3820807 123.531363,31.9123514" id="Fill-46" fill="#3C3C3B"></path>
                            <path d="M139.490277,249.015906 C139.032633,242.394847 138.574988,235.773787 138.116455,229.152728 C138.062248,228.353941 138.015151,227.504564 138.327949,226.796306 C138.629194,226.115561 139.210359,225.691317 139.764864,225.300798 C145.62005,221.186156 151.614751,217.352865 157.726751,213.816012 C158.5905,213.315439 159.485351,212.81309 160.443295,212.747412 C161.464331,212.676409 162.456931,213.108641 163.406877,213.561288 C167.431485,215.479265 172.860128,218.619386 174.257055,224.039602 C175.55179,229.064862 171.895075,232.129542 168.806196,234.611996 C159.958102,241.723865 149.991223,246.760663 139.490277,249.015906" id="Fill-48" fill="#84684E"></path>
                            <path d="M154.280198,215.661122 C157.00385,218.952126 166.431331,221.202931 169.412686,224.261398 C171.946172,226.859232 172.469575,230.751102 172.863238,234.35452 C178.101715,231.144282 180.593435,230.057044 183.97023,226.474039 C183.472597,224.596002 182.974075,222.719739 182.476442,220.842589 C182.10144,219.42696 181.713998,217.985593 180.929337,216.749248 C179.201839,214.026271 175.921904,212.797913 172.873013,211.745289 C169.775247,210.675802 166.67837,209.606314 163.581493,208.537714 C161.586518,207.848095 159.453805,207.151375 157.403734,207.653723 C157.077607,207.732714 156.747036,207.84987 156.510661,208.086843 C156.143656,208.45251 156.417354,209.174081 156.043241,209.533536 C153.466213,212.000013 151.796476,212.660344 154.280198,215.661122" id="Fill-50" fill="#1F3A7D"></path>
                            <path d="M57.7692437,248.664883 C58.227777,242.043824 58.6854217,235.422765 59.1430664,228.801706 C59.1981615,228.002918 59.2452589,227.153541 58.932461,226.445283 C58.6303266,225.764539 58.0491623,225.339406 57.4946569,224.949776 C51.6403595,220.835134 45.6456584,217.001842 39.5336582,213.464989 C38.6690208,212.964416 37.7750585,212.462068 36.8171149,212.395502 C35.7960785,212.325386 34.8025897,212.756731 33.8535323,213.210265 C29.828925,215.128242 24.4002816,218.268364 23.0033545,223.688579 C21.7086199,228.713839 25.3644456,231.77852 28.4542137,234.260973 C37.3023071,241.372843 47.2691863,246.40964 57.7692437,248.664883" id="Fill-52" fill="#84684E"></path>
                            <path d="M42.9557741,216.461152 C40.0161845,219.561334 30.458964,221.173109 27.2767783,224.023892 C24.5753418,226.445105 23.7906811,230.292598 23.1553103,233.862289 C18.1452118,230.307686 15.7308029,229.05359 12.6046009,225.251362 C13.2275309,223.412376 13.8504608,221.57339 14.4742794,219.734405 C14.9452535,218.347177 15.4268913,216.935099 16.2941946,215.753781 C18.2020842,213.153285 21.5557755,212.149475 24.6704252,211.302761 C27.8312837,210.445396 30.9939195,209.586256 34.1565553,208.727116 C36.1941849,208.174177 38.367775,207.622126 40.3796344,208.261156 C40.6995413,208.362336 41.0212256,208.500793 41.2416059,208.752854 C41.58284,209.14426 41.2602672,209.845418 41.6094989,210.228836 C44.0141329,212.863059 45.6367721,213.634332 42.9557741,216.461152" id="Fill-54" fill="#1F3A7D"></path>
                            <path d="M135.691027,188.151686 C138.611955,189.625005 139.502363,201.760359 139.736072,207.87907 C140.011548,215.116083 139.950232,222.359308 139.890694,229.598984 C139.823158,237.586857 139.756511,245.57473 139.690752,253.562603 C139.688975,253.792476 139.675646,254.048088 139.51036,254.207846 C139.368179,254.344527 139.154019,254.367603 138.958521,254.384466 C136.708508,254.571738 134.456719,254.758121 132.205818,254.936517 C104.687599,257.111881 81.7955896,255.841809 54.196505,255.282658 C51.2373656,232.82786 52.2575133,211.035167 53.9627952,188.703737" id="Fill-56" fill="#F1AD29"></path>
                            <path d="M137.257415,146.1842 C140.120583,147.064641 140.992329,154.313192 141.221596,157.968088 C141.492628,162.290415 141.431313,166.617179 141.372663,170.943056 C141.307793,175.713591 141.242034,180.485014 141.177164,185.25555 C141.174499,185.394006 141.162946,185.546663 141.000327,185.64163 C140.860812,185.723284 140.651984,185.736597 140.46004,185.747248 C138.25357,185.859078 136.047989,185.970908 133.840631,186.076525 C106.869808,187.376774 84.4318896,186.617926 57.3810899,186.28421 C54.4814888,172.870796 55.481198,159.853226 57.1518233,146.514365" id="Fill-58" fill="#F1AD29"></path>
                            <mask id="mask-6" fill="white">
                                <use xlink:href="#path-5"></use>
                            </mask>
                            <g id="Clip-61"></g>
                            <path d="M105.768351,250.426032 L118.696147,250.426032 L118.696147,237.38361 L105.768351,237.38361 L105.768351,250.426032 Z M104.933038,236.553759 C109.609012,236.553759 114.063716,236.529795 118.516644,236.602574 C118.863209,236.607899 119.489694,237.290418 119.496803,237.666736 C119.566116,241.835518 119.566116,246.006963 119.491471,250.175745 C119.484362,250.528099 118.809892,251.163578 118.436667,251.169791 C114.266324,251.24257 110.095093,251.235469 105.92475,251.185767 C105.591514,251.182217 104.978359,250.710045 104.974804,250.449995 C104.917043,245.882707 104.933038,241.313644 104.933038,236.553759 L104.933038,236.553759 Z" id="Fill-60" fill="#1D1D1B" mask="url(#mask-6)"></path>
                            <path d="M105.633279,234.479574 L118.610838,234.479574 L118.610838,221.463779 L105.633279,221.463779 L105.633279,234.479574 Z M104.799744,220.743095 L119.286198,220.743095 L119.286198,235.299663 C118.174521,235.299663 117.122382,235.30055 116.071133,235.299663 C112.794752,235.297888 109.51926,235.338715 106.245546,235.248185 C105.755022,235.234872 104.869946,234.614481 104.861948,234.258577 C104.766865,229.808444 104.799744,225.353873 104.799744,220.743095 L104.799744,220.743095 Z" id="Fill-62" fill="#1D1D1B" mask="url(#mask-6)"></path>
                            <path d="M121.726377,234.529277 L134.783024,234.529277 L134.783024,221.43449 L121.726377,221.43449 L121.726377,234.529277 Z M135.536583,220.761734 C135.536583,225.403576 135.557021,229.910511 135.490374,234.416559 C135.485931,234.718323 134.827455,235.265049 134.46756,235.269486 C130.074171,235.328952 125.680782,235.308538 121.12744,235.308538 L121.12744,220.761734 L135.536583,220.761734 Z" id="Fill-63" fill="#1D1D1B" mask="url(#mask-6)"></path>
                            <path d="M121.954755,250.484609 L135.00607,250.484609 L135.00607,237.34012 L121.954755,237.34012 L121.954755,250.484609 Z M121.28295,251.053523 L135.663657,251.053523 L135.663657,236.742805 L121.28295,236.742805 L121.28295,251.053523 Z" id="Fill-64" fill="#1D1D1B" mask="url(#mask-6)"></path>
                            <path d="M110.223589,248.273921 C111.289945,249.200514 111.96175,249.225365 111.938645,247.630454 C111.928871,246.978111 111.93598,246.32488 111.93598,245.67165 C111.935091,244.742394 111.630291,244.469918 110.609254,244.691804 C109.871691,244.852449 109.019494,244.481456 108.212618,244.34655 C108.822218,242.755188 110.726554,241.323584 112.219453,241.304946 C113.6226,241.287195 115.597137,242.679747 116.424452,244.387377 C115.388309,244.463706 114.398375,244.450393 113.452872,244.650089 C113.092976,244.726418 112.637998,245.25628 112.573128,245.637035 C112.424726,246.505938 112.587346,247.428094 112.428281,248.292559 C112.351859,248.715029 111.87733,249.315895 111.511214,249.372697 C111.050015,249.444588 110.514171,249.043419 110.010317,248.846385 L110.223589,248.273921 Z" id="Fill-65" fill="#1D1D1B" mask="url(#mask-6)"></path>
                            <path d="M109.513751,233.646883 C110.18911,233.57588 110.86358,233.505764 111.606475,233.42766 C111.65535,233.073531 111.73977,232.730053 111.743324,232.383912 C111.757543,230.906155 111.749545,229.427511 111.749545,228.000344 C107.860009,226.550102 106.636365,225.089208 106.87363,222.163872 L111.302564,222.163872 C111.196817,222.776275 111.105288,223.29815 110.949777,224.192792 C112.396468,221.921573 114.141738,221.501766 117.473214,222.328955 C117.684708,225.499253 115.344055,227.342676 112.508435,227.930229 L112.508435,233.36642 C113.255774,233.460499 113.988894,233.553691 114.722014,233.645995 C114.720237,233.759601 114.718459,233.872319 114.716682,233.985924 L109.535966,233.985924 C109.528857,233.873206 109.521748,233.759601 109.513751,233.646883" id="Fill-66" fill="#1D1D1B" mask="url(#mask-6)"></path>
                            <path d="M126.494057,223.20265 C126.789971,223.891382 126.830848,224.446096 126.830848,225.189856 C126.829959,226.912574 126.861061,228.636179 126.800634,230.357122 C126.787305,230.721901 126.43363,231.074255 126.237243,231.431935 C126.015085,231.095556 125.632974,230.774266 125.59654,230.41925 C125.391266,228.387667 125.203765,226.348985 125.162888,224.310302 C125.153113,223.831917 125.731612,223.341994 126.038189,222.857397 C126.302113,222.891123 126.230134,223.168924 126.494057,223.20265" id="Fill-67" fill="#1D1D1B" mask="url(#mask-6)"></path>
                            <path d="M130.13442,222.836894 C131.206109,223.494563 131.284308,224.191283 131.052376,225.346862 C130.733357,226.939111 131.008833,228.644966 130.928856,230.29668 C130.910195,230.674773 130.477432,231.032452 130.234836,231.399894 C130.026896,231.053753 129.669667,230.720925 129.63501,230.358808 C129.44662,228.339651 129.27156,226.314282 129.24579,224.2898 C129.239569,223.807865 129.8234,223.319717 130.13442,222.836894" id="Fill-68" fill="#1D1D1B" mask="url(#mask-6)"></path>
                            <path d="M128.21489,233.244649 C127.151199,233.246424 126.083065,233.301452 125.025595,233.21536 C124.675475,233.186959 124.35379,232.795553 124.018777,232.570118 C124.322688,232.375746 124.623045,232.019842 124.9314,232.012742 C127.116542,231.96659 129.303462,231.962152 131.487716,232.022505 C131.828061,232.032268 132.157743,232.440537 132.492757,232.665085 C132.130195,232.856794 131.778298,233.189622 131.403296,233.216248 C130.344937,233.292576 129.277692,233.242874 128.21489,233.244649" id="Fill-69" fill="#1D1D1B" mask="url(#mask-6)"></path>
                            <path d="M133.317583,240.219305 C132.221014,241.040281 131.124444,241.862144 130.01099,242.694658 C131.002701,243.218307 131.690501,243.581312 132.377412,243.944316 C131.718049,244.278919 131.057796,244.613523 130.06253,245.118534 C131.131553,245.95371 132.235232,246.8164 133.338022,247.679091 C130.260695,247.871687 128.713589,246.456059 128.626503,244.08366 C128.53764,241.659785 130.027874,240.117238 132.811064,239.750683 C132.979904,239.906003 133.148744,240.063098 133.317583,240.219305" id="Fill-70" fill="#1D1D1B" mask="url(#mask-6)"></path>
                            <path d="M123.153873,243.839675 C123.200081,241.932349 124.713419,240.088038 126.567102,239.8271 C126.962543,239.772073 127.416633,240.127977 127.843176,240.295722 C127.545484,240.562872 127.286004,240.984454 126.942993,241.070546 C125.394999,241.460177 124.561463,242.442685 124.573016,243.982569 C124.584568,245.458551 125.466089,246.340767 126.888786,246.773 C127.254014,246.883942 127.505496,247.371203 127.809408,247.68628 C127.400638,247.804323 126.973206,248.066148 126.585763,248.01467 C124.677874,247.765271 123.105887,245.807355 123.153873,243.839675" id="Fill-71" fill="#1D1D1B" mask="url(#mask-6)"></path>
                            <path d="M115.38351,240.899694 C115.311531,241.042588 115.138248,241.094066 114.990736,241.154419 C114.843223,241.215659 114.685047,241.34169 114.711706,241.498785 C114.738365,241.657655 114.95519,241.723333 115.099149,241.650554 C115.243107,241.577776 115.321306,241.418906 115.365738,241.264474 C115.411058,241.110042 115.435051,240.946734 115.514139,240.806502" id="Fill-72" fill="#1D1D1B" mask="url(#mask-6)"></path>
                            <path d="M113.870972,240.11706 C113.798993,240.259954 113.626599,240.311432 113.479086,240.371785 C113.330685,240.433025 113.172509,240.559056 113.199168,240.716151 C113.226715,240.875021 113.443541,240.940699 113.586611,240.86792 C113.730569,240.795142 113.808768,240.636272 113.8532,240.48184 C113.89852,240.327407 113.923402,240.1641 114.00249,240.024756" id="Fill-73" fill="#1D1D1B" mask="url(#mask-6)"></path>
                            <path d="M111.724841,239.88914 C111.653751,240.032034 111.480468,240.083511 111.332955,240.143864 C111.185442,240.205104 111.026377,240.331135 111.053036,240.48823 C111.080584,240.6471 111.29741,240.712778 111.441368,240.64 C111.584437,240.567221 111.662637,240.408351 111.707957,240.253919 C111.753277,240.099487 111.77727,239.936179 111.856358,239.795948" id="Fill-74" fill="#1D1D1B" mask="url(#mask-6)"></path>
                            <path d="M109.78967,240.7931 C109.717691,240.935995 109.545297,240.987472 109.396896,241.048712 C109.249383,241.109065 109.091207,241.235096 109.117866,241.393078 C109.144525,241.551061 109.361351,241.616739 109.505309,241.543961 C109.649267,241.47207 109.727466,241.312312 109.771898,241.15788 C109.817218,241.003448 109.841211,240.84014 109.920299,240.700796" id="Fill-75" fill="#1D1D1B" mask="url(#mask-6)"></path>
                            <path d="M115.471218,239.030177 C115.400128,239.173071 115.226845,239.224548 115.079332,239.284901 C114.931819,239.346142 114.772755,239.472173 114.799413,239.629267 C114.826961,239.788137 115.043787,239.853815 115.187745,239.781037 C115.330814,239.708259 115.409014,239.549389 115.454334,239.394956 C115.499654,239.240524 115.523647,239.077217 115.602735,238.937873" id="Fill-76" fill="#1D1D1B" mask="url(#mask-6)"></path>
                            <path d="M113.162823,238.604601 C113.091732,238.747495 112.918449,238.798972 112.770937,238.860213 C112.623424,238.920566 112.464359,239.046596 112.491018,239.203691 C112.518566,239.362561 112.735392,239.428239 112.87935,239.355461 C113.022419,239.282682 113.100619,239.123813 113.145939,238.96938 C113.191259,238.814948 113.215252,238.65164 113.29434,238.512296" id="Fill-77" fill="#1D1D1B" mask="url(#mask-6)"></path>
                            <path d="M110.944712,238.896691 C110.872733,239.039585 110.700339,239.091062 110.551938,239.152303 C110.404425,239.212655 110.246249,239.338686 110.272908,239.496669 C110.299567,239.654651 110.516392,239.720329 110.660351,239.647551 C110.804309,239.574772 110.882508,239.415902 110.92694,239.26147 C110.97226,239.107038 110.996253,238.94373 111.075341,238.804386" id="Fill-78" fill="#1D1D1B" mask="url(#mask-6)"></path>
                            <polygon id="Fill-79" fill="#1D1D1B" mask="url(#mask-6)" points="126.001134 222.58643 124.127901 224.629551 127.701972 224.629551"></polygon>
                            <polygon id="Fill-80" fill="#1D1D1B" mask="url(#mask-6)" points="130.289753 222.58643 128.41652 224.629551 131.990592 224.629551"></polygon>
                            <path d="M105.768351,179.571823 L118.696147,179.571823 L118.696147,166.529401 L105.768351,166.529401 L105.768351,179.571823 Z M104.933038,165.700438 C109.609012,165.700438 114.063716,165.675586 118.516644,165.748365 C118.863209,165.754578 119.489694,166.437097 119.496803,166.813415 C119.566116,170.982197 119.566116,175.152754 119.491471,179.322424 C119.484362,179.67389 118.809892,180.30937 118.436667,180.31647 C114.266324,180.389249 110.095093,180.381261 105.92475,180.331558 C105.591514,180.328896 104.978359,179.855836 104.974804,179.595787 C104.917043,175.028498 104.933038,170.459435 104.933038,165.700438 L104.933038,165.700438 Z" id="Fill-81" fill="#1D1D1B" mask="url(#mask-6)"></path>
                            <path d="M105.633279,163.625366 L118.610838,163.625366 L118.610838,150.610458 L105.633279,150.610458 L105.633279,163.625366 Z M104.799744,149.888887 L119.286198,149.888887 L119.286198,164.446342 L116.071133,164.446342 C112.794752,164.444567 109.51926,164.485393 106.245546,164.393977 C105.755022,164.380664 104.869946,163.760272 104.861948,163.405255 C104.766865,158.954235 104.799744,154.499665 104.799744,149.888887 L104.799744,149.888887 Z" id="Fill-82" fill="#1D1D1B" mask="url(#mask-6)"></path>
                            <path d="M121.726377,163.675068 L134.783024,163.675068 L134.783024,150.580282 L121.726377,150.580282 L121.726377,163.675068 Z M135.536583,149.907525 C135.536583,154.550254 135.557021,159.05719 135.490374,163.56235 C135.485931,163.865002 134.827455,164.41084 134.46756,164.416165 C130.074171,164.474743 125.680782,164.454329 121.12744,164.454329 L121.12744,149.907525 L135.536583,149.907525 Z" id="Fill-83" fill="#1D1D1B" mask="url(#mask-6)"></path>
                            <path d="M121.954755,179.631288 L135.00607,179.631288 L135.00607,166.486799 L121.954755,166.486799 L121.954755,179.631288 Z M121.28295,180.200202 L135.663657,180.200202 L135.663657,165.889484 L121.28295,165.889484 L121.28295,180.200202 Z" id="Fill-84" fill="#1D1D1B" mask="url(#mask-6)"></path>
                            <path d="M110.223589,177.419712 C111.289945,178.347193 111.96175,178.372044 111.938645,176.776245 C111.928871,176.123902 111.93598,175.471559 111.93598,174.817441 C111.935091,173.888185 111.630291,173.61571 110.609254,173.838483 C109.871691,173.999128 109.019494,173.628135 108.212618,173.492342 C108.822218,171.901867 110.726554,170.470263 112.219453,170.450737 C113.6226,170.433874 115.597137,171.826426 116.424452,173.534056 C115.388309,173.610385 114.398375,173.597071 113.452872,173.796768 C113.092976,173.872209 112.637998,174.402071 112.573128,174.783714 C112.424726,175.65173 112.587346,176.573885 112.428281,177.438351 C112.351859,177.861708 111.87733,178.461686 111.511214,178.518489 C111.050015,178.59038 110.514171,178.189211 110.010317,177.993064 C110.081408,177.802243 110.152498,177.610534 110.223589,177.419712" id="Fill-85" fill="#1D1D1B" mask="url(#mask-6)"></path>
                            <path d="M109.513751,162.792586 C110.18911,162.72247 110.86358,162.651467 111.606475,162.573363 C111.65535,162.219234 111.73977,161.875755 111.743324,161.530502 C111.757543,160.051858 111.749545,158.573214 111.749545,157.146047 C107.860009,155.696692 106.636365,154.234911 106.87363,151.310462 L111.302564,151.310462 C111.196817,151.921978 111.105288,152.443852 110.949777,153.339382 C112.396468,151.068163 114.141738,150.647468 117.473214,151.474657 C117.684708,154.644955 115.344055,156.488379 112.508435,157.076819 L112.508435,162.512123 C113.255774,162.606202 113.988894,162.699394 114.722014,162.792586 C114.720237,162.905303 114.718459,163.018909 114.716682,163.132514 L109.535966,163.132514 C109.528857,163.018909 109.521748,162.906191 109.513751,162.792586" id="Fill-86" fill="#1D1D1B" mask="url(#mask-6)"></path>
                            <path d="M126.494057,152.34924 C126.789971,153.037973 126.830848,153.591798 126.830848,154.336446 C126.829959,156.059164 126.861061,157.782769 126.800634,159.503712 C126.787305,159.867604 126.43363,160.219958 126.237243,160.577637 C126.015085,160.242147 125.632974,159.920857 125.59654,159.564952 C125.391266,157.53337 125.203765,155.495575 125.162888,153.456005 C125.153113,152.978507 125.731612,152.488584 126.038189,152.003987 C126.302113,152.036826 126.230134,152.315514 126.494057,152.34924" id="Fill-87" fill="#1D1D1B" mask="url(#mask-6)"></path>
                            <path d="M130.13442,151.982686 C131.206109,152.640354 131.284308,153.337074 131.052376,154.492653 C130.733357,156.08579 131.008833,157.790757 130.928856,159.442472 C130.910195,159.821452 130.477432,160.178244 130.234836,160.545686 C130.026896,160.199545 129.669667,159.867604 129.63501,159.505487 C129.44662,157.485443 129.27156,155.460961 129.24579,153.435591 C129.239569,152.954544 129.8234,152.465508 130.13442,151.982686" id="Fill-88" fill="#1D1D1B" mask="url(#mask-6)"></path>
                            <path d="M128.21489,162.391328 C127.151199,162.393103 126.083065,162.447243 125.025595,162.362039 C124.675475,162.333638 124.35379,161.941345 124.018777,161.715909 C124.322688,161.522425 124.623045,161.165633 124.9314,161.158533 C127.116542,161.112381 129.303462,161.107943 131.487716,161.168296 C131.828061,161.178059 132.157743,161.587216 132.492757,161.810876 C132.130195,162.003473 131.778298,162.336301 131.403296,162.362927 C130.344937,162.438368 129.277692,162.388666 128.21489,162.391328" id="Fill-89" fill="#1D1D1B" mask="url(#mask-6)"></path>
                            <path d="M133.317583,169.365984 C132.221014,170.18696 131.124444,171.007935 130.01099,171.841337 C131.002701,172.364099 131.690501,172.727103 132.377412,173.090108 C131.718049,173.424711 131.057796,173.759314 130.06253,174.264325 C131.131553,175.099502 132.235232,175.963079 133.338022,176.824882 C130.260695,177.017479 128.713589,175.60185 128.626503,173.230339 C128.53764,170.806464 130.027874,169.263029 132.811064,168.896474 C132.979904,169.052682 133.148744,169.208889 133.317583,169.365984" id="Fill-90" fill="#1D1D1B" mask="url(#mask-6)"></path>
                            <path d="M123.153873,172.986354 C123.200081,171.07814 124.713419,169.233829 126.567102,168.973779 C126.962543,168.917864 127.416633,169.274656 127.843176,169.441514 C127.545484,169.709551 127.286004,170.130246 126.942993,170.217225 C125.394999,170.605968 124.561463,171.588476 124.573016,173.129248 C124.584568,174.604342 125.466089,175.486558 126.888786,175.919679 C127.254014,176.030621 127.505496,176.517882 127.809408,176.832959 C127.400638,176.950114 126.973206,177.211939 126.585763,177.161349 C124.677874,176.91195 123.105887,174.953146 123.153873,172.986354" id="Fill-91" fill="#1D1D1B" mask="url(#mask-6)"></path>
                            <path d="M115.38351,170.046373 C115.311531,170.18838 115.138248,170.239857 114.990736,170.301097 C114.843223,170.362338 114.685047,170.487481 114.711706,170.645464 C114.738365,170.804333 114.95519,170.869124 115.099149,170.797233 C115.243107,170.724455 115.321306,170.565585 115.365738,170.410265 C115.411058,170.255833 115.435051,170.092525 115.514139,169.953181" id="Fill-92" fill="#1D1D1B" mask="url(#mask-6)"></path>
                            <path d="M113.870972,169.263739 C113.798993,169.405746 113.626599,169.457223 113.479086,169.518463 C113.330685,169.579704 113.172509,169.704847 113.199168,169.86283 C113.226715,170.021699 113.443541,170.08649 113.586611,170.014599 C113.730569,169.941821 113.808768,169.782951 113.8532,169.627631 C113.89852,169.473199 113.923402,169.309891 114.00249,169.170547" id="Fill-93" fill="#1D1D1B" mask="url(#mask-6)"></path>
                            <path d="M111.724841,169.034842 C111.653751,169.177736 111.480468,169.229214 111.332955,169.290454 C111.185442,169.351694 111.026377,169.476838 111.053036,169.63482 C111.080584,169.792802 111.29741,169.858481 111.441368,169.78659 C111.584437,169.713811 111.662637,169.554941 111.707957,169.399622 C111.753277,169.245189 111.77727,169.081882 111.856358,168.942538" id="Fill-94" fill="#1D1D1B" mask="url(#mask-6)"></path>
                            <path d="M109.78967,169.939779 C109.717691,170.082674 109.545297,170.133263 109.396896,170.194504 C109.249383,170.255744 109.091207,170.380887 109.117866,170.53887 C109.144525,170.69774 109.361351,170.763418 109.505309,170.690639 C109.649267,170.617861 109.727466,170.458991 109.771898,170.304559 C109.817218,170.149239 109.841211,169.986819 109.920299,169.846588" id="Fill-95" fill="#1D1D1B" mask="url(#mask-6)"></path>
                            <path d="M115.471218,168.176767 C115.400128,168.318774 115.226845,168.370251 115.079332,168.431491 C114.931819,168.492732 114.772755,168.617875 114.799413,168.775858 C114.826961,168.934727 115.043787,168.999518 115.187745,168.927627 C115.330814,168.854849 115.409014,168.695979 115.454334,168.540659 C115.499654,168.386227 115.523647,168.222919 115.602735,168.083575" id="Fill-96" fill="#1D1D1B" mask="url(#mask-6)"></path>
                            <path d="M113.162823,167.75128 C113.091732,167.893286 112.918449,167.944764 112.770937,168.006004 C112.623424,168.067244 112.464359,168.192388 112.491018,168.35037 C112.518566,168.50924 112.735392,168.574031 112.87935,168.50214 C113.022419,168.429361 113.100619,168.270491 113.145939,168.115172 C113.191259,167.960739 113.215252,167.797432 113.29434,167.658088" id="Fill-97" fill="#1D1D1B" mask="url(#mask-6)"></path>
                            <path d="M110.944712,168.04337 C110.872733,168.186264 110.700339,168.236854 110.551938,168.298094 C110.404425,168.359334 110.246249,168.484478 110.272908,168.64246 C110.299567,168.80133 110.516392,168.867008 110.660351,168.79423 C110.804309,168.721451 110.882508,168.562581 110.92694,168.408149 C110.97226,168.252829 110.996253,168.090409 111.075341,167.950178" id="Fill-98" fill="#1D1D1B" mask="url(#mask-6)"></path>
                            <polygon id="Fill-99" fill="#1D1D1B" mask="url(#mask-6)" points="126.001134 151.732133 124.127901 153.776141 127.701972 153.776141"></polygon>
                            <polygon id="Fill-100" fill="#1D1D1B" mask="url(#mask-6)" points="130.289753 151.732133 128.41652 153.776141 131.990592 153.776141"></polygon>
                            <path d="M140.183587,212.188083 C139.749935,216.355091 139.72061,220.5647 140.094724,224.737919 C134.157784,224.48497 131.28573,223.985284 125.33546,224.208945 C123.964304,224.26131 120.257826,224.498283 119.657112,225.731078 C119.175474,226.718912 119.449172,228.112352 120.150302,228.959954 C121.73473,230.877931 122.299899,230.445699 127.705438,230.157248 C130.982707,229.981514 135.661346,230.877931 139.477125,231.65808 C133.54996,234.451173 125.525627,230.905445 120.455991,235.054701 C120.115645,235.332502 119.783297,235.66888 119.701543,236.100225 C119.616235,236.548434 119.821508,236.995754 120.020562,237.407574 C121.787159,241.060694 123.553756,244.713815 125.321242,248.367823 C125.632263,249.009515 125.966388,249.680497 126.550218,250.091428 C127.131383,250.501473 127.873389,250.592002 128.581627,250.663005 C134.219099,251.231919 139.894782,251.424516 145.558024,251.236357 C147.956437,247.112839 149.611956,242.484311 149.793236,237.719988 C149.985181,232.673428 148.197256,228.327137 145.773961,224.023449 C144.92443,222.513741 144.12644,221.067048 143.488403,219.448172 C142.941007,218.054732 140.061844,213.353425 140.183587,212.188083" id="Fill-101" fill="#84684E" mask="url(#mask-6)"></path>
                            <path d="M57.076734,211.837061 C57.5103857,216.004068 57.5397105,220.213677 57.165597,224.386897 C63.1016485,224.133948 65.9745907,223.634262 71.9248602,223.857922 C73.296017,223.910287 77.0024947,224.147261 77.6032088,225.380056 C78.0848465,226.367889 77.8102597,227.761329 77.1100189,228.608932 C75.5255908,230.526909 74.9595332,230.094676 69.5548828,229.806225 C66.2776137,229.630492 61.5989744,230.526909 57.7823066,231.307058 C63.7103603,234.10015 71.7346933,230.554422 76.8043301,234.703679 C77.1446755,234.981479 77.4770233,235.317857 77.5587773,235.749202 C77.6431972,236.197411 77.4388122,236.644732 77.239759,237.056551 C75.4731616,240.709672 73.7056757,244.362792 71.9390783,248.0168 C71.6280577,248.658493 71.2939326,249.329474 70.7101024,249.740406 C70.1289381,250.15045 69.3869317,250.240979 68.6786932,250.311982 C63.0412216,250.880897 57.3646503,251.073493 51.7014084,250.885334 C49.3038834,246.761817 47.6483649,242.133288 47.4670843,237.368966 C47.2751401,232.322405 49.0630646,227.976114 51.4863598,223.672426 C52.3358905,222.162718 53.1338807,220.715138 53.7710287,219.09715 C54.3193137,217.70371 57.1984764,213.002403 57.076734,211.837061" id="Fill-102" fill="#84684E" mask="url(#mask-6)"></path>
                            <path d="M67.8001043,185.492523 C66.6182258,185.492523 65.4399018,185.491636 64.2598005,185.488085 C63.9541117,185.487198 63.7070724,185.239574 63.707961,184.933372 C63.7088497,184.628058 63.9558889,184.382209 64.2615778,184.382209 L64.2633551,184.382209 C88.3612357,184.438124 112.765694,183.899386 136.820032,182.773096 C137.130164,182.789072 137.386089,182.994981 137.399419,183.299408 C137.413637,183.604722 137.177261,183.863885 136.872461,183.878973 C113.976897,184.950235 90.7560948,185.492523 67.8001043,185.492523" id="Fill-103" fill="#3C3C3B" mask="url(#mask-6)"></path>
                            <path d="M26.2158424,224.88676 C26.0203437,224.88676 25.8319541,224.784693 25.7306502,224.602747 C25.5822489,224.335597 25.6791097,223.999219 25.9456988,223.850112 C28.7519938,222.290701 31.7742259,221.184825 34.9279754,220.564433 L35.3785111,220.477454 C35.9890002,220.362074 36.5648327,220.252906 37.122004,220.072735 C38.1083838,219.75322 39.036114,219.202945 39.9336308,218.669532 L44.4612029,215.981169 C44.7517851,215.808099 45.0663603,215.607514 45.1179008,215.387404 C45.17033,215.162856 44.9632791,214.833578 44.802437,214.60548 C44.5251843,214.211412 44.2257158,213.832432 43.9253587,213.454339 C43.4303916,212.82951 42.9185404,212.183379 42.50355,211.466246 C41.825525,210.292916 41.5500495,209.103611 41.6993395,208.043886 C35.9347937,207.930281 30.0733872,209.001543 24.7282751,211.173357 C20.3882039,212.93779 17.8111756,215.24451 17.0700578,218.028727 C16.9918583,218.323391 16.689724,218.503562 16.3920328,218.421908 C16.0961188,218.342917 15.92017,218.040265 15.9992581,217.744714 C16.8345708,214.606368 19.6310908,212.050248 24.3097301,210.149135 C30.0094059,207.830876 36.2618097,206.721449 42.4155756,206.958423 C42.5915244,206.965523 42.7532552,207.054277 42.8536704,207.199834 C42.9523084,207.344504 42.9754128,207.528225 42.9176518,207.694195 C42.486666,208.926102 43.0740508,210.239664 43.4632709,210.913308 C43.8373843,211.560325 44.3030267,212.14699 44.7935507,212.767382 C45.1072373,213.162338 45.4191465,213.557294 45.7097287,213.969113 C46.0163062,214.405783 46.348654,214.990673 46.1958096,215.639466 C46.0340788,216.336186 45.4040398,216.709841 45.0272605,216.932614 L40.4987997,219.620977 C39.5497424,220.184566 38.5678057,220.76768 37.4641267,221.12536 C36.8403081,221.327719 36.2013829,221.448425 35.5846733,221.564693 L35.1412467,221.649897 C32.1021306,222.248099 29.1891999,223.314924 26.4842088,224.817532 C26.3989003,224.864572 26.3073714,224.88676 26.2158424,224.88676" id="Fill-104" fill="#3C3C3B" mask="url(#mask-6)"></path>
                            <path d="M171.53909,234.041218 C171.456447,234.041218 171.373805,234.034117 171.292939,234.021692 C170.878838,233.956014 170.544712,233.733241 170.35188,233.395088 C170.199924,233.1306 170.292341,232.792447 170.558042,232.641565 C170.823742,232.490683 171.163199,232.5821 171.313378,232.847474 C171.343591,232.899839 171.412904,232.920253 171.466222,232.929128 C171.611069,232.950429 171.780797,232.904277 171.881213,232.81286 C172.16202,232.559023 172.231333,232.076201 172.241108,231.716747 C172.281096,230.190175 171.563083,228.557099 170.108395,226.862782 C167.537587,223.868218 163.965293,221.852611 160.510297,219.901795 C159.29554,219.216613 158.039016,218.507467 156.838476,217.76282 C155.785449,217.111365 154.596462,216.31879 153.795806,215.160549 C152.884959,213.837224 152.706345,212.204148 153.339938,210.997092 C153.434133,210.816921 153.619857,210.702428 153.822465,210.700653 L156.774495,210.666039 L155.204285,208.28654 C155.063881,208.074418 154.634673,207.426512 154.978573,206.810559 C155.215837,206.385426 155.685034,206.260283 155.885865,206.207918 C158.893879,205.409131 162.239572,206.174191 166.420579,208.612268 C167.052395,208.980597 167.680657,209.36579 168.308918,209.751871 C170.661123,211.195901 173.092416,212.688746 175.767194,213.237246 C176.067551,213.297599 176.259495,213.590488 176.198179,213.889589 C176.136864,214.188691 175.836507,214.379512 175.545036,214.320047 C172.678314,213.733382 170.162601,212.18906 167.728643,210.69444 C167.10749,210.312797 166.486337,209.932042 165.86163,209.567262 C161.953433,207.288056 158.870774,206.561159 156.170226,207.277405 C156.019159,207.317345 155.963175,207.346634 155.941848,207.359947 C155.959621,207.359947 155.982725,207.457576 156.128461,207.677687 L158.258508,210.9039 C158.370475,211.072533 158.379362,211.288205 158.285167,211.467489 C158.190083,211.646772 158.005248,211.75949 157.801752,211.760377 L154.194801,211.802979 C153.915771,212.616855 154.103272,213.653503 154.709318,214.533057 C155.386454,215.514678 156.464363,216.230036 157.421418,216.823801 C158.603296,217.555135 159.850934,218.258956 161.055916,218.938812 C164.593554,220.934893 168.252046,223.00109 170.949928,226.142099 C172.589451,228.0512 173.396328,229.936338 173.348342,231.745148 C173.327903,232.582987 173.08353,233.218467 172.624996,233.632949 C172.33708,233.893886 171.937196,234.041218 171.53909,234.041218" id="Fill-105" fill="#3C3C3B" mask="url(#mask-6)"></path>
                            <path d="M167.718157,199.746971 L167.755479,199.784248 C167.759034,199.771822 167.763477,199.761172 167.767031,199.748746 C167.750147,199.747859 167.735041,199.747859 167.718157,199.746971 M171.712551,200.03276 C172.060005,200.103763 172.404794,200.180091 172.748694,200.257308 C174.169614,200.572385 175.538105,200.877699 176.740422,200.694866 C175.073351,200.419728 173.394728,200.19873 171.712551,200.03276 M175.983309,201.857545 C174.849416,201.857545 173.668426,201.594833 172.508764,201.337446 C171.197145,201.045444 169.852647,200.746343 168.610342,200.842197 C168.605899,200.862611 168.600567,200.882137 168.596124,200.90255 C168.554358,201.085384 168.422841,201.233603 168.246892,201.298394 C168.070943,201.361409 167.873667,201.333895 167.724377,201.221178 C167.650621,201.16615 167.578642,201.109347 167.507551,201.051657 C167.506663,201.052545 167.504885,201.052545 167.503997,201.053432 C167.214303,201.147512 166.900617,200.985979 166.806422,200.695753 C166.772654,200.591023 166.771765,200.483631 166.798424,200.384226 C165.225548,198.688134 164.499537,196.310411 163.847282,194.174099 C161.572389,186.724076 158.691449,179.359257 155.872713,172.219873 C153.774656,175.555254 152.835374,179.621081 153.28591,183.533364 C153.320566,183.836903 153.102852,184.112041 152.79894,184.146655 C152.50036,184.182157 152.219553,183.964709 152.185785,183.660283 C151.665048,179.133821 152.890469,174.416538 155.551029,170.715491 C155.668328,170.550408 155.862938,170.466091 156.069989,170.48828 C156.269931,170.513131 156.442325,170.646262 156.51697,170.835309 C159.473443,178.319058 162.517891,186.028243 164.90031,193.83062 C165.42549,195.549788 165.959557,197.300907 166.882844,198.699672 C167.468452,197.910648 168.266442,197.284044 169.164847,196.876662 C169.612717,196.211006 170.129011,195.593277 170.703955,195.042114 C170.832806,194.918746 171.011421,194.863718 171.186481,194.896557 C171.36243,194.928509 171.51172,195.042114 171.587254,195.202759 L172.287495,196.668978 C172.370137,196.844711 172.355919,197.051508 172.248395,197.21304 C172.139982,197.375461 171.966699,197.458889 171.760537,197.459777 C171.140273,197.426938 170.49957,197.537881 169.909519,197.761541 C169.712243,198.073956 169.531851,198.397908 169.369232,198.729849 C172.526536,198.939309 175.688283,199.344027 178.794047,199.937793 C179.009095,199.979507 179.179712,200.142815 179.229476,200.356712 C179.279239,200.57061 179.197485,200.792495 179.022425,200.923851 C178.089363,201.621459 177.057663,201.857545 175.983309,201.857545" id="Fill-106" fill="#3C3C3B" mask="url(#mask-6)"></path>
                            <path d="M26.0709957,197.514183 C25.9963507,197.514183 25.9217058,197.499095 25.8506153,197.468919 C24.6651823,196.956807 23.3926635,196.70297 22.0988176,196.718946 C21.3106023,197.094376 20.4637375,197.310049 19.5706639,197.000297 C19.33962,196.920418 19.1885528,196.69942 19.1983278,196.456234 C19.2072141,196.21216 19.3760539,196.003588 19.6115409,195.942347 C20.3384406,195.752413 21.083113,195.645021 21.8304512,195.617507 C22.1325855,195.45775 22.4453834,195.265153 22.7723994,195.062794 C23.4690857,194.634111 24.2288648,194.166377 25.0472934,193.974668 C22.8346036,191.776228 19.2107686,190.982766 16.3262741,192.188935 C16.0472442,192.308753 15.7193395,192.173846 15.6020403,191.891608 C15.4838525,191.610258 15.6162584,191.285417 15.8997315,191.168262 C19.6337567,189.606189 24.2581896,190.888686 26.6548259,194.146851 C26.7898977,194.329685 26.798784,194.574646 26.6797075,194.767242 C26.5588538,194.959839 26.332253,195.060131 26.1100954,195.018417 C25.3583141,194.88351 24.5932032,195.258053 23.7969904,195.734663 C24.516781,195.846493 25.2250195,196.034652 25.9065991,196.296476 L32.7872646,188.141746 C32.983652,187.90921 33.3328837,187.878146 33.5674822,188.07518 C33.801192,188.272214 33.8305168,188.62013 33.6341295,188.854441 L26.4948724,197.317149 C26.3864595,197.445843 26.2309492,197.514183 26.0709957,197.514183" id="Fill-107" fill="#3C3C3B" mask="url(#mask-6)"></path>
                            <path d="M95.8093807,119.873389 C94.2924885,119.873389 92.7693759,119.368378 91.6061587,118.40007 C91.3715602,118.204811 91.3395695,117.856007 91.5350682,117.620809 C91.7296783,117.386498 92.0789101,117.353659 92.3152858,117.550693 C93.9094888,118.87668 96.3212318,119.155368 98.1766922,118.226112 C98.4495018,118.090318 98.7836268,118.199486 98.9204759,118.472849 C99.057325,118.745324 98.9462462,119.078152 98.6734366,119.215721 C97.7892493,119.657716 96.8002037,119.873389 95.8093807,119.873389" id="Fill-108" fill="#3C3C3B" mask="url(#mask-6)"></path>
                            <path d="M26.011102,127.07774 C25.9906635,127.07774 25.970225,127.076853 25.9497865,127.07419 C25.6449862,127.041351 25.4263832,126.767101 25.4601511,126.464449 C25.6689793,124.573986 25.8858051,122.618732 26.7024565,120.806372 C27.9029962,118.144636 30.3689457,115.962171 33.6488807,114.661923 C36.6053543,113.487706 39.8701825,113.144227 42.6978046,112.913466 C49.1634798,112.384492 55.8468695,112.246035 63.1354164,112.485671 C65.0637445,112.548687 66.7992398,112.640104 68.5258488,113.128251 C70.6274598,113.723792 72.4980269,114.870495 74.3055012,115.979035 C75.0137397,116.413042 75.7219782,116.848825 76.4444347,117.249994 C81.3905518,120.00226 87.0395756,121.227955 92.501987,122.412823 C97.1361948,123.416632 101.599786,124.155954 105.259166,122.1936 C105.527532,122.047155 105.864323,122.149223 106.008281,122.419035 C106.154017,122.68796 106.052713,123.024339 105.783458,123.16812 C101.792618,125.309758 97.1122018,124.544697 92.2673886,123.494736 C86.7250004,122.292117 80.9951113,121.048671 75.9041474,118.217414 C75.16925,117.80737 74.4476821,117.365374 73.7252255,116.922491 C71.9017559,115.803301 70.1778128,114.74624 68.2237144,114.192414 C66.6179592,113.739768 64.9526657,113.651901 63.0989826,113.591548 C55.8539785,113.351024 49.2114659,113.492143 42.7884449,114.015793 C39.9146141,114.250991 36.872832,114.572281 34.0585394,115.689696 C31.0469708,116.884327 28.7942926,118.861769 27.7128293,121.259906 C26.968157,122.914283 26.7611061,124.779896 26.5602756,126.585155 C26.5291735,126.869168 26.2892433,127.07774 26.011102,127.07774" id="Fill-109" fill="#3C3C3B" mask="url(#mask-6)"></path>
                            <path d="M81.1539095,256.196826 C76.5419175,256.196826 71.9370345,256.178188 67.3437037,256.142686 C63.1369271,256.110735 58.3685361,256.073458 53.8569593,254.997758 C53.5592681,254.926754 53.3753216,254.62854 53.446412,254.331214 C53.5175024,254.033888 53.8223027,253.852829 54.1137735,253.922057 C58.5036079,254.968469 63.204463,255.004858 67.35259,255.036809 C91.0585846,255.22053 115.076488,254.928529 138.749604,254.170569 L138.767376,254.170569 C139.065068,254.170569 139.311218,254.405767 139.320993,254.705756 C139.330768,255.011071 139.090838,255.266683 138.785149,255.276446 C119.684037,255.887962 100.357214,256.196826 81.1539095,256.196826" id="Fill-110" fill="#3C3C3B" mask="url(#mask-6)"></path>
                            <polygon id="Fill-111" fill="#C48F21" mask="url(#mask-6)" points="104.83369 188.455935 104.83369 205.281946 102.306425 204.440557 100.45363 205.449691 98.5999469 204.440557 96.9159922 205.449691 95.0631977 204.608302 92.8727236 205.618324 91.693511 204.104178 90.1775075 205.78607 90.1775075 188.623681"></polygon>
                            <polygon id="Fill-112" fill="#C48F21" mask="url(#mask-6)" points="113.097775 146.223163 113.097775 163.049174 110.571399 162.207785 108.717716 163.216919 106.864921 162.207785 105.180078 163.216919 103.327283 162.37553 101.136809 163.385552 99.9584851 161.871406 98.441593 163.553297 98.441593 146.390908"></polygon>
                        </g>
                    </g>
                </g>
            </g>
        </g>
    </g>
</svg>