<?xml version="1.0" encoding="UTF-8"?>
<svg width="225px" height="254px" viewBox="0 0 225 254" version="1.1" xmlns="http://www.w3.org/2000/svg" xmlns:xlink="http://www.w3.org/1999/xlink">
    <!-- Generator: Sketch 47.1 (45422) - http://www.bohemiancoding.com/sketch -->
    <title>illus/femme/1@3x</title>
    <desc>Created with Sketch.</desc>
    <defs>
        <polygon id="path-1" points="0.23624 0.178266467 27.66024 0.178266467 27.66024 47.5776413 0.23624 47.5776413"></polygon>
        <polygon id="path-3" points="66.6606389 89.6550102 0.108999108 89.6550102 0.108999108 0.751326739 66.6606389 0.751326739 66.6606389 89.6550102"></polygon>
    </defs>
    <g id="Web-Design-V1" stroke="none" stroke-width="1" fill="none" fill-rule="evenodd">
        <g id="Accueil-4" transform="translate(-602.000000, -300.000000)">
            <g id="Header" transform="translate(0.000000, -88.000000)">
                <g id="illus/femme/1" transform="translate(558.000000, 388.000000)">
                    <g id="illus/femme">
                        <g id="fond" opacity="0.519870924" transform="translate(158.485225, 137.130084) scale(-1, 1) rotate(75.000000) translate(-158.485225, -137.130084) translate(60.985225, 0.130084)">
                            <g id="Group-3" transform="translate(29.600000, 0.621135)">
                                <mask id="mask-2" fill="white">
                                    <use xlink:href="#path-1"></use>
                                </mask>
                                <g id="Clip-2"></g>
                                <path d="M9.86824,47.5776413 L0.23624,0.177946707 L3.46344,4.18374611 L27.66024,38.8114078 C27.66024,38.8114078 15.19944,38.947306 9.86824,47.5776413" id="Fill-1" fill="#137F8B" mask="url(#mask-2)"></path>
                            </g>
                            <path d="M172.35776,225.817249 L181.98976,273.216943 L178.76256,269.211144 L154.56576,234.583482 C154.56576,234.583482 167.02656,234.447584 172.35776,225.817249" id="Fill-4" fill="#137F8B"></path>
                            <path d="M194.9528,141.452683 C194.9528,195.246788 151.3112,238.855722 97.4768,238.855722 C43.6416,238.855722 0,195.246788 0,141.452683 C0,87.6585781 43.6416,44.049644 97.4768,44.049644 C151.3112,44.049644 194.9528,87.6585781 194.9528,141.452683" id="Fill-6" fill="#137F8B"></path>
                        </g>
                        <g id="illus/fille/emploi" transform="translate(89.080427, 0.793902)">
                            <path d="M30.1800498,188.555849 C31.1634403,201.302838 32.0855354,214.576218 27.9201172,226.501222 C56.7777866,226.760423 85.6319026,227.640995 114.459369,229.143826 C114.909756,221.537353 110.905127,214.447505 110.333926,206.850797 C109.846228,200.374332 111.872527,194.042558 113.336509,187.750729 C115.808754,177.126166 116.717524,166.052441 116.017514,155.105653 C94.3989132,155.097664 72.7803126,155.088787 51.1617119,155.079023 C45.0570512,155.077248 32.2978483,151.857656 29.0971654,159.610595 C25.8191971,167.553497 30.1800498,180.159346 30.1800498,188.555849" id="Fill-1" fill="#F1AD29"></path>
                            <path d="M5.26411505,129.439732 C2.42942756,133.594931 1.77472224,138.818001 1.3190047,143.826254 C-1.11060053,170.494625 -0.179622003,197.467468 4.08262512,223.905044 C10.0158366,229.143204 27.9202948,226.501488 36.8125611,226.390529 C38.5021806,216.575525 38.5288307,210.378677 40.0425592,201.323521 C37.9371974,199.270332 32.5289939,201.952881 29.7795869,200.908977 C24.6520983,198.961422 24.6138997,191.824528 25.4986847,186.416822 C26.6659612,179.277265 27.8332377,172.137708 29.0014025,164.998151 C44.3376748,164.073196 59.6739471,163.14824 75.0111077,162.223284 C87.017888,161.498055 99.1623608,160.781703 110.997692,162.928985 C113.30293,184.912216 115.243949,207.046351 114.678077,229.143204 C122.641142,229.143204 129.149997,229.073966 137.777538,229.143204 C135.998196,194.122715 136.324217,169.064583 131.767041,137.414589 C130.6504,129.662538 129.322334,127.863224 122.118799,124.777671 C114.627442,121.56962 104.235661,121.715198 95.901271,121.163065 C88.380599,120.664193 80.9922894,123.255311 73.4565157,123.400002 C59.7254707,123.663641 45.9935374,123.804781 32.2598274,123.848277 C22.7928062,123.878458 11.8005082,119.915884 5.26411505,129.439732" id="Fill-3" fill="#F1AD29"></path>
                            <path d="M46.6064908,115.709377 C41.4150418,118.839314 26.3870229,122.661635 20.3392159,123.085055 C32.5032321,124.408576 47.2958413,126.157293 58.5910627,130.892143 C59.5167112,131.280056 60.4796699,131.441613 61.4834922,131.472681 C63.9717277,131.550796 67.6183564,130.825567 68.5582183,130.466947 C78.3450413,126.733393 79.6322435,126.008164 84.5722927,124.777849 C91.311227,123.099258 97.2941854,121.930192 104.235661,121.715375 C98.4712336,119.385233 90.9132514,121.014114 86.6741011,116.468338 C85.0875289,114.767556 84.3128979,112.487123 83.5817955,110.281255 C81.7011834,104.606359 79.8196829,98.9323508 77.9390707,93.257455 C79.0148484,96.5063395 69.6624228,100.325998 67.6316815,100.635796 C62.7111757,101.384105 57.919479,101.230537 54.5482351,97.9647869 C43.6465476,87.4014738 55.2224839,110.512938 46.6064908,115.709377" id="Fill-5" fill="#E8CBAB"></path>
                            <path d="M92.0409969,79.6321126 C89.2676048,90.1936504 89.1423491,101.439584 91.6812199,112.060596 C93.1460897,118.194419 95.4948562,124.196866 95.7258241,130.499347 C95.9576804,136.800941 93.4578965,143.769176 87.7672014,146.496109 C89.5358829,138.803532 88.0559113,131.94803 83.5165027,125.488431 C79.7588317,120.142862 73.895799,114.376536 71.9743232,108.130866 C69.3332935,99.54884 74.8001273,90.6516898 80.8097359,83.9772738 C83.8833864,80.563282 87.8968988,77.0800517 92.4487442,77.7111875 C93.4818816,85.8049932 92.2666348,94.1739777 88.9744531,101.641086" id="Fill-7" fill="#3C3C3B"></path>
                            <path d="M63.1040877,15.3338473 C76.5650779,15.3338473 83.757953,20.3997992 92.2238169,28.8069537 C101.747692,38.2642257 95.9299643,54.8690437 94.57436,67.0443717 C93.2187558,79.2188119 90.5146541,84.1693663 84.3176061,90.9689443 C80.9854492,94.6252709 77.8451733,97.0317534 73.5704895,101.876675 C69.5889573,106.391381 62.020315,108.067309 56.279873,105.28534 C52.6563411,103.529522 47.5608326,97.5501546 44.1798171,93.9870337 C42.1677309,91.866382 31.627597,82.8653741 30.6433182,74.8692124 C29.1411382,62.6610406 27.5350225,63.6144018 26.7728283,48.0375095 C25.9635521,31.5401 43.1120345,15.3338473 63.1040877,15.3338473" id="Fill-9" fill="#E8CBAB"></path>
                            <path d="M62.15934,9.50414121 C73.6286756,10.224932 83.1321187,14.7662689 90.6225872,23.1601083 C98.113944,31.5539477 100.932641,43.2543703 99.9456975,54.2801612 C98.9125601,52.4515541 92.617795,59.104666 91.557119,60.9874212 C88.0695029,67.1780553 88.2205204,55.2992103 78.5687249,52.476409 C75.6203301,51.6144781 70.3240572,45.3128849 67.419191,44.3515346 C64.5134364,43.391072 53.8862454,34.8498789 53.924444,31.8930389 C54.3872682,34.1992143 47.9139471,39.7835675 45.9400594,41.2073955 C37.152617,47.5471587 32.3138384,65.6175255 30.4669831,64.0250395 C28.7702569,62.5621538 29.2632847,53.6099678 27.2600818,52.3388196 C25.5393706,51.7707086 25.1120798,49.65272 25.0250227,47.9040034 C24.5311066,37.8972616 26.8567762,26.5013109 35.6495486,21.1459774 C37.7860022,19.845536 41.453951,16.1785573 43.8240376,15.3334922 C51.899921,12.4583182 54.0825682,12.3793153 62.15934,9.50414121" id="Fill-11" fill="#3C3C3B"></path>
                            <path d="M100.69279,67.2306943 C99.3025406,72.4821699 96.4669648,76.2876257 94.361603,75.7301668 C92.2562413,75.1735956 91.6770447,70.4653761 93.0672941,65.2147881 C94.4575436,59.9624248 97.2931194,56.156969 99.3984811,56.7144279 C101.503843,57.2709991 102.083039,61.9801063 100.69279,67.2306943" id="Fill-13" fill="#E8CBAB"></path>
                            <path d="M31.2549391,65.4024422 C32.3857938,70.7151673 31.5756292,75.3896553 29.445394,75.8432564 C27.3142705,76.2950821 24.6705757,72.3555877 23.5388327,67.0428626 C22.4088664,61.7292498 23.2190309,57.0556496 25.3492662,56.6020485 C27.4795014,56.149335 30.1240845,60.0897171 31.2549391,65.4024422" id="Fill-15" fill="#E8CBAB"></path>
                            <path d="M24.7684706,51.5438193 C24.6769717,52.4545722 24.5863612,53.3777525 24.7400438,54.2805163 C24.906163,55.2551817 25.3494438,56.1561701 25.7971663,57.0376298 C26.7459116,58.9017439 27.7364088,60.7436661 28.7704346,62.5625088 C29.0626979,63.0773594 29.8648674,62.9060384 29.9075076,62.3157356 C30.0354283,60.5288491 30.63861,58.702905 30.9104415,56.9062541 C31.3173005,54.2183792 31.2471217,46.8080819 28.6771591,45.0398365 C24.4993041,42.1637748 25.0154286,49.079638 24.7684706,51.5438193" id="Fill-17" fill="#3C3C3B"></path>
                            <path d="M99.9171819,51.5438193 C100.008681,52.4545722 100.099291,53.3777525 99.9456087,54.2805163 C99.7794894,55.2551817 99.3362086,56.1561701 98.8875978,57.0376298 C97.9397408,58.9017439 96.9483553,60.7436661 95.9152179,62.5625088 C95.6220662,63.0773594 94.4130378,63.4146753 94.3712859,62.8234848 C94.2433652,61.037486 94.0470424,58.702905 93.7743226,56.9062541 C93.3674636,54.2183792 93.4385307,46.8080819 96.0084934,45.0398365 C100.186348,42.1637748 99.6693355,49.079638 99.9171819,51.5438193" id="Fill-19" fill="#3C3C3B"></path>
                            <path d="M64.7523994,0.584976749 C65.9552095,0.164219573 67.2797219,-0.256537603 68.4700952,0.194400468 C69.8319178,0.710138694 70.5345934,2.16414767 71.3394279,3.37759716 C73.3666158,6.4329689 76.8169218,8.50302319 80.4697688,8.85454184 C82.3095174,13.5902793 81.0240919,19.0601226 78.4496875,23.4407906 C77.9069128,24.3648586 77.2886294,25.2773868 76.4171695,25.9023089 C74.9620714,26.9435497 73.0530324,27.0252157 71.2639191,27.0642733 C66.0173932,27.1787832 60.1285986,27.0092376 56.4713099,23.2481655 C54.1189901,20.8310309 52.8948599,17.5137955 50.7282028,14.930666 C49.4756458,13.4384871 46.5174793,11.6959843 46.6080898,9.47147483 C46.8150726,4.46144635 61.1039941,1.8632264 64.7523994,0.584976749" id="Fill-21" fill="#3C3C3B"></path>
                            <path d="M56.399088,86.2636541 C56.4133014,87.2072508 56.3804329,87.4655638 56.6424927,88.3736536 C56.8343737,89.033195 57.4766423,90.0753235 58.0309654,90.4818779 C58.5195515,90.8404979 58.9601673,91.2559291 59.5606839,91.3411457 C60.9775835,91.5426476 62.3962598,91.7450371 63.8184894,91.9163581 C65.490342,92.1187476 67.328314,92.2403588 68.7185634,91.2905483 C69.8165495,90.541352 70.6986694,89.4734809 71.2449975,88.2626945 C71.3595931,88.0088199 71.4581987,87.3723581 71.4111168,87.0971793 C71.3116229,86.5175286 70.3308974,86.4704819 69.7472591,86.3852653 C65.4157216,85.7443651 60.9740302,85.106128 56.6904629,86.0124425" id="Fill-23" fill="#FEFEFE"></path>
                            <path d="M60.0868467,92.4322738 C60.7264503,92.7385211 61.4264609,92.8903133 62.1193647,93.0394424 C63.5815696,93.3545664 65.1166181,93.6679151 66.5530611,93.2507087 C67.8598068,92.8707845 68.9275894,91.9254123 69.8132627,90.8930482 C70.3453773,90.2734522 70.8419584,89.5828423 70.9965293,88.7821609 C70.9032538,89.0768685 70.583452,89.227773 70.2938537,89.3360691 C65.7126931,91.0608185 61.27722,90.4589759 56.8071017,88.8345337 C56.6525309,89.412409 57.6385864,90.3054084 57.9877033,90.7101875 C58.58289,91.399022 59.2571388,92.0354838 60.0868467,92.4322738" id="Fill-25" fill="#C8989C"></path>
                            <path d="M74.7886678,86.6112669 C75.0995862,86.5517928 75.5002267,86.355617 75.4105046,86.0520327 C72.8689687,86.3742582 70.3345396,85.5904426 67.7921154,85.2779815 C65.8537612,85.0400851 63.894087,85.078255 61.9424077,85.116425 C61.2548339,85.1306278 60.5654834,85.1439429 59.8832396,85.2291595 C58.9282759,85.3489954 57.993744,85.608196 57.0387804,85.7280319 C56.2668144,85.8247883 55.4868534,85.8265637 54.7148874,85.7431224 C54.3675471,85.7049524 53.9704599,85.5602617 53.6471048,85.695188 C53.8665243,86.2579729 54.8508032,86.6050532 55.3695927,86.836736 C56.5359809,87.3560249 57.7272425,87.5424363 58.9922363,87.6800257 C62.350155,88.0466348 65.745384,87.9108208 69.0953077,87.5131431 C71.0034583,87.2867864 72.9018372,86.9734377 74.7886678,86.6112669" id="Fill-27" fill="#C8989C"></path>
                            <g id="Group-31" transform="translate(39.086885, 148.919635)">
                                <mask id="mask-4" fill="white">
                                    <use xlink:href="#path-3"></use>
                                </mask>
                                <g id="Clip-30"></g>
                                <path d="M2.71094196,89.6553652 L64.0604727,89.6553652 C65.4969157,89.6553652 66.6606389,88.4907378 66.6606389,87.0553699 L66.6606389,3.34954669 C66.6606389,1.91417885 65.4969157,0.751326739 64.0604727,0.751326739 L2.71094196,0.751326739 C1.27449895,0.751326739 0.108999108,1.91417885 0.108999108,3.34954669 L0.108999108,87.0553699 C0.108999108,88.4907378 1.27449895,89.6553652 2.71094196,89.6553652" id="Fill-29" fill="#FFFFFF" mask="url(#mask-4)"></path>
                            </g>
                            <path d="M116.452977,228.736916 C116.25932,228.736916 116.072769,228.629508 115.98127,228.443984 C112.522969,221.457995 108.219858,212.763234 109.397795,203.827914 C109.554142,202.639319 109.809095,201.458714 110.054277,200.31539 C110.250599,199.409076 110.452252,198.470805 110.600605,197.546737 C110.745404,196.643973 110.845786,195.711029 110.942615,194.809152 C111.077642,193.555758 111.216223,192.259754 111.479171,190.993045 C111.956209,188.692195 112.838329,186.404661 113.692022,184.192579 C115.368316,179.847418 116.952223,175.743704 115.650808,171.62845 C115.562862,171.351496 115.716545,171.055901 115.993706,170.968021 C116.272645,170.879254 116.567573,171.033709 116.655518,171.311551 C118.067088,175.777435 116.341935,180.247758 114.673636,184.571615 C113.835933,186.742864 112.968915,188.989566 112.510532,191.206974 C112.258244,192.423086 112.122328,193.692459 111.989966,194.921887 C111.89136,195.837078 111.789201,196.783338 111.63996,197.71362 C111.487166,198.666093 111.282848,199.616791 111.083861,200.537309 C110.843121,201.659328 110.59261,202.819517 110.441592,203.965503 C109.392465,211.935035 112.756602,219.554823 116.924685,227.977955 C117.054382,228.238044 116.947782,228.553168 116.68661,228.68188 C116.61199,228.719163 116.532039,228.736916 116.452977,228.736916" id="Fill-32" fill="#3C3C3B"></path>
                            <path d="M38.2401208,202.546202 C52.8044271,204.352618 67.2141625,205.936227 81.7535953,202.766345 C83.7283713,202.335824 85.8426165,201.80677 87.136037,200.305715 C88.56182,198.650204 90.4699706,195.533583 92.0165676,193.982817 C96.3027999,189.684703 98.8478891,184.743025 100.701851,186.364804 C101.933976,188.164118 98.1007966,192.141783 97.2950737,196.302308 C99.5105894,198.147781 105.451796,196.35113 109.436882,195.704904 C111.031449,203.732134 110.74718,206.791056 108.807938,214.730407 C108.467704,216.128492 105.624134,218.834121 104.17703,219.158122 C103.417501,219.32678 87.4833773,216.928286 87.4833773,216.928286 C76.0629002,213.773495 63.1464615,222.071466 44.0836101,223.673716 C41.6495631,223.877881 38.8770593,224.023459 35.9126745,224.102462 C35.9126745,224.102462 33.2369995,217.593153 33.503501,211.992822 C33.7708908,206.391603 38.2401208,202.546202 38.2401208,202.546202" id="Fill-34" fill="#E8CBAB"></path>
                            <path d="M24.9862023,195.079005 C24.2932984,197.555614 23.37298,199.450796 22.2145868,200.781419 C23.9201963,200.050864 25.5138752,199.065546 26.9361048,197.85476 C26.135712,197.043426 25.4694583,196.114032 24.9862023,195.079005 L24.9862023,195.079005 Z M37.1768687,225.234157 C35.8781181,225.234157 34.4043649,224.017157 33.8340517,222.86762 C30.5845102,216.327242 32.7316239,207.486016 38.6204184,203.160383 C39.1649698,202.759155 39.7290646,202.176841 39.5238584,201.855504 C39.3648459,201.604292 38.7980861,201.636248 38.3192717,201.689509 C34.7383801,202.111154 30.7364161,201.018428 27.8955102,198.722904 C27.6085769,201.836862 26.8819162,204.887796 25.7324065,207.799364 C25.6249175,208.073656 25.3139991,208.20947 25.0403909,208.099398 C24.7658944,207.99199 24.6317553,207.681304 24.7401326,207.4079 C25.7599449,204.822996 26.4359704,202.123581 26.7548838,199.368243 C24.2995168,201.227031 21.4310725,202.488415 18.3876255,203.03966 C18.1051339,203.086707 17.821754,202.901183 17.7675653,202.610914 C17.7133767,202.32242 17.9034811,202.045466 18.1930794,201.989542 C21.1583526,201.427645 23.1793222,198.552471 24.3492637,193.214003 C24.3172836,193.071976 24.2888567,192.928173 24.2639833,192.782594 C23.9068713,190.747159 24.2275614,188.723264 24.5367031,186.765056 C25.2100635,182.517539 25.9065208,178.124444 27.8075647,174.126363 C27.9221604,173.885803 28.1957685,173.764192 28.4524983,173.847633 C28.7065631,173.929299 28.8620223,174.186725 28.8158287,174.449476 L25.6782178,192.001442 C25.6044857,192.413322 25.526312,192.813663 25.4445849,193.202464 C26.7646556,198.406005 32.9634802,201.234132 38.1957927,200.630514 C38.7430091,200.566602 39.8836354,200.434339 40.4246335,201.282067 C40.6689265,201.666429 41.0438053,202.701456 39.2529153,204.019651 C33.7620963,208.052351 31.7606701,216.295286 34.7899037,222.393602 C35.2456212,223.311457 36.3995727,224.167174 37.1759803,224.167174 L37.1919704,224.167174 C37.4735737,224.162735 37.653018,224.041124 37.7747203,223.773934 C37.8981994,223.504969 38.2153361,223.386909 38.482726,223.510295 C38.7510041,223.633682 38.8691531,223.949694 38.7465624,224.217771 C38.4516341,224.862222 37.9053061,225.222617 37.2088489,225.234157 L37.1768687,225.234157 Z" id="Fill-36" fill="#3C3C3B"></path>
                            <path d="M62.1081717,139.582998 C62.295611,139.59365 62.4750554,139.551041 62.6074178,139.453397 C62.6740432,139.405463 62.7308968,139.342438 62.7779787,139.267874 C62.6251846,139.189758 62.4572886,139.140049 62.2831743,139.118744 C62.2840626,139.243906 62.3080478,139.365518 62.3551297,139.475589 L62.1081717,139.582998 Z M62.169467,140.652644 C61.9313923,140.652644 61.6870993,140.609148 61.4490247,140.523044 C60.8209695,140.293136 60.3599219,139.803141 60.2160111,139.21195 L60.1431674,138.913692 L60.3652519,138.70065 C60.672617,138.405943 61.0537141,138.208879 61.4605731,138.111235 C61.7199678,137.599935 62.1534769,137.21646 62.6642714,137.050466 L62.8979044,136.975013 L63.1066639,137.103726 C63.6263418,137.421513 63.952362,138.01004 63.9790121,138.676683 C64.0065506,139.344213 63.7285007,139.956708 63.2372496,140.315328 C62.9316613,140.538134 62.5585592,140.652644 62.169467,140.652644 L62.169467,140.652644 Z" id="Fill-38" fill="#3C3C3B"></path>
                            <path d="M61.5052565,146.11654 C61.8277233,146.11654 62.1235399,146.210633 62.3553962,146.379291 C62.3225277,146.132518 62.1297583,145.917701 61.9476489,145.79609 C61.7610979,145.67004 61.4786063,145.570621 61.2369783,145.642522 C61.2121048,145.808517 61.2636285,145.982501 61.3409139,146.124529 C61.3951025,146.119203 61.4510678,146.11654 61.5052565,146.11654 M62.0480312,147.677957 C61.6242938,147.677957 61.2032214,147.510187 60.8585462,147.205715 L60.1931808,146.990898 C60.2375977,146.854196 60.3059998,146.728147 60.3930569,146.618075 C60.1167837,146.104112 60.0839152,145.521799 60.3202132,145.030028 L60.3850619,144.895101 L60.5112059,144.813435 C61.0939558,144.435287 61.892572,144.472569 62.5437239,144.911079 C63.1939876,145.348702 63.5297794,146.072156 63.3991937,146.755665 L62.5899175,146.600322 C62.669868,146.697966 62.7338283,146.809813 62.7791336,146.931424 L62.9941114,147.505749 L62.3953714,147.639787 C62.2807758,147.664642 62.1644035,147.677957 62.0480312,147.677957" id="Fill-40" fill="#3C3C3B"></path>
                            <path d="M114.202639,222.920259 C113.927254,222.920259 113.694509,222.70988 113.671412,222.430263 C113.206812,216.71631 113.53905,210.966849 114.657468,205.341663 C114.702773,205.110868 114.895543,204.936884 115.130064,204.914692 L118.822886,204.560511 L117.434413,204.285332 C116.636686,204.125551 115.546695,203.908071 114.829806,203.121592 C114.384748,202.634259 114.189314,201.89394 114.332336,201.236174 C114.44782,200.699131 114.76851,200.293465 115.233111,200.093738 C115.504943,199.979228 115.818526,200.102615 115.93401,200.373355 C116.051271,200.644096 115.925127,200.957444 115.655072,201.07373 C115.512049,201.134979 115.417886,201.265467 115.375245,201.461643 C115.305955,201.782093 115.405449,202.170006 115.619538,202.403464 C116.063707,202.891685 116.798363,203.070107 117.642285,203.238765 L122.588552,204.223195 C122.848835,204.27468 123.030945,204.509026 123.018508,204.773552 C123.004295,205.037191 122.799977,205.252008 122.53614,205.277751 L115.628422,205.939067 C114.590843,211.343223 114.289696,216.860113 114.735642,222.344159 C114.759627,222.637979 114.541096,222.895404 114.247056,222.918484 C114.231954,222.920259 114.217741,222.920259 114.202639,222.920259" id="Fill-42" fill="#3C3C3B"></path>
                            <path d="M94.3703087,70.9591 C94.1206857,70.9591 93.8968244,70.782453 93.8470775,70.5276907 C93.7911122,70.2383092 93.9803282,69.9586921 94.2699265,69.9027687 C96.3379781,69.5006526 98.0613543,67.7776786 98.4611066,65.7102874 C98.8608588,63.6428961 97.9041185,61.4006332 96.1327719,60.2590852 C95.8858139,60.1001917 95.8147468,59.7699772 95.9746477,59.5214286 C96.1345486,59.2746554 96.4650104,59.2027539 96.7128568,59.3634228 C98.8395387,60.7348781 99.9899368,63.4289668 99.5093458,65.9126769 C99.0296431,68.396387 96.9580382,70.4673289 94.4724676,70.9493356 C94.4387108,70.956437 94.4040656,70.9591 94.3703087,70.9591" id="Fill-44" fill="#3C3C3B"></path>
                            <path d="M29.0149941,71.6395904 C28.87286,71.6395904 28.7316142,71.583667 28.6267903,71.4727078 C24.983715,67.6042273 24.6701315,61.0443211 27.9285564,56.8491767 C28.1088891,56.6139433 28.4446809,56.573998 28.6774256,56.7541957 C28.9110585,56.935281 28.9528104,57.2708216 28.7724778,57.5025043 C25.8223063,61.3017463 26.1065746,67.2393935 29.403198,70.7403773 C29.6057391,70.9551942 29.595079,71.2925101 29.3809895,71.4948996 C29.2779423,71.591656 29.1455798,71.6395904 29.0149941,71.6395904" id="Fill-46" fill="#3C3C3B"></path>
                            <path d="M30.1549098,197.840024 C30.1362547,197.840024 30.1167113,197.839137 30.0980562,197.837361 C29.8040162,197.806293 29.5917033,197.543541 29.6227952,197.250609 C30.1433614,192.373732 30.0092223,187.445369 29.2248196,182.600448 C28.8632659,180.367949 28.3533598,178.094618 27.860332,175.895851 C26.6539686,170.513887 25.4058533,164.948175 26.1760426,159.393115 C26.2160178,159.101959 26.4914027,158.900457 26.7774476,158.937739 C27.0697109,158.978572 27.2740287,159.247537 27.2340535,159.539582 C26.4905144,164.903792 27.7164212,170.373635 28.9023528,175.663281 C29.3980456,177.877138 29.9123935,180.166448 30.2783888,182.430902 C31.0787816,187.368142 31.2146974,192.392373 30.6852478,197.363344 C30.6550443,197.636747 30.4240763,197.840024 30.1549098,197.840024" id="Fill-48" fill="#3C3C3B"></path>
                            <path d="M5.86001238,130.621314 C5.61749602,130.621314 5.39718813,130.455319 5.34033447,130.207658 C4.94235892,128.476695 5.75252344,126.511386 7.40483266,125.202068 C8.83949901,124.063183 10.5984088,123.547445 12.2773682,123.116923 C17.7219936,121.71795 22.100613,121.289203 26.0581601,121.764109 C28.3971548,122.046389 30.6961743,122.66421 32.9187967,123.261614 L34.2308724,123.612245 C41.151916,125.431975 48.2755008,126.653414 55.4061923,127.241053 C55.6993439,127.265908 55.9187635,127.523334 55.89389,127.817153 C55.8699048,128.110086 55.6238351,128.341768 55.3182468,128.304486 C48.1253716,127.712408 40.9396032,126.480317 33.9590409,124.643721 L32.6416352,124.291315 C30.4554347,123.703675 28.1946137,123.095619 25.9302394,122.823991 C22.1112731,122.365064 17.8561327,122.785821 12.542093,124.150175 C10.9759526,124.552291 9.33874513,125.028971 8.06842137,126.037368 C6.97754195,126.90285 6.03146167,128.453615 6.38146695,129.968874 C6.44720399,130.255592 6.26775965,130.541423 5.98082638,130.607999 C5.94085116,130.616875 5.8999876,130.621314 5.86001238,130.621314" id="Fill-50" fill="#3C3C3B"></path>
                            <path d="M55.3666612,66.5302312 C55.3115842,65.6904922 55.2156437,64.8534163 55.0788396,64.0234417 C54.9020603,62.9431432 54.617792,61.8051459 53.8165109,61.0586126 C52.8881974,60.1940187 51.505943,60.0715198 50.2373959,60.0475526 C49.3312908,60.0306868 48.4260741,60.0404513 47.5217457,60.0768459 C46.7826483,60.1070268 46.0062406,60.1673885 45.3915105,60.5757183 C44.7714504,60.9875987 44.4116734,61.690636 44.1656037,62.391898 C43.6636925,63.8228275 43.5260001,65.3798066 43.7702931,66.8764239 C43.8102684,67.1223094 43.8733404,67.3903867 44.0732165,67.5421789 C44.2606559,67.6842066 44.5164973,67.6850943 44.751907,67.6762176 C48.3008184,67.5421789 51.805313,66.6580562 55.3560011,66.7397222" id="Fill-52" fill="#FEFEFE"></path>
                            <path d="M73.4353732,66.5111463 C73.4931152,65.6722949 73.5917208,64.835219 73.7311899,64.0052444 C73.9115225,62.9258335 74.1993442,61.788724 75.0032903,61.0457413 C75.9342688,60.1829228 77.3165232,60.0648623 78.5859586,60.0453335 C79.490287,60.0311307 80.3963921,60.0444458 81.3007205,60.0835034 C82.0398179,60.1154597 82.8162256,60.1784845 83.4300673,60.5885896 C84.0483508,61.0022453 84.4063511,61.707058 84.6497558,62.4092076 C85.1472253,63.8410248 85.2795877,65.3980039 85.0308529,66.8946212 C84.9899894,67.1405067 84.9251407,67.408584 84.7252646,67.5594885 C84.5378252,67.7006286 84.2819838,67.7006286 84.0465741,67.6908642 C80.4976626,67.5461734 76.9958331,66.650511 73.4451449,66.7215249" id="Fill-54" fill="#FEFEFE"></path>
                            <path d="M44.6918553,68.1911569 C44.3951503,68.1911569 44.1322022,67.9798906 44.0780135,67.677194 C44.0167182,67.3381028 44.2423561,67.0132143 44.5825897,66.9519649 C47.8356845,66.3696511 51.1598464,66.1175519 54.4689065,66.1956672 C54.8135818,66.2045439 55.0863016,66.4903747 55.0774183,66.8356797 C55.0685349,67.1792092 54.7611698,67.451725 54.4378147,67.4437359 C51.2202534,67.364733 47.9742653,67.6132815 44.8028976,68.1813925 C44.7655874,68.1884939 44.7282772,68.1911569 44.6918553,68.1911569" id="Fill-56" fill="#3C3C3B"></path>
                            <path d="M45.1430423,61.4954367 L45.139489,61.4954367 C44.7086449,61.4927737 44.1534334,61.3250034 43.6630707,60.6627991 C42.9230849,60.3103927 42.3261216,59.6481884 42.1075904,58.8554961 C42.0622851,58.6948272 42.0862702,58.5279446 42.1626673,58.3885799 C42.1075904,58.3246674 42.0542901,58.2589796 42.0036548,58.1906287 C41.8393122,57.9749241 41.8339822,57.6775535 41.9894414,57.4556352 C42.1466772,57.2337168 42.4265038,57.1387358 42.6867869,57.2177387 C43.2473284,57.3917227 43.6097704,57.7982771 43.8700535,58.2501028 C44.4759002,58.6548819 45.202561,58.8963291 45.932775,58.937162 C45.9496535,58.931836 45.9665319,58.9256223 45.982522,58.9202962 C46.1353162,58.8661482 46.2987704,58.8732495 46.4400162,58.9336113 C46.7402746,58.9114195 47.0360912,58.8537207 47.3194711,58.757852 C47.6419379,58.6477805 48.0008266,58.8217645 48.1118689,59.1484283 C48.2229112,59.4750921 48.0479085,59.8292738 47.7201117,59.9402329 C47.3114761,60.07871 46.8877387,60.1594883 46.460448,60.1852308 L45.6387351,61.2522142 C45.5196977,61.404894 45.3367001,61.4954367 45.1430423,61.4954367" id="Fill-58" fill="#3C3C3B"></path>
                            <path d="M49.2429012,66.661962 C48.9701813,66.661962 48.6965731,66.5936111 48.4460617,66.4364929 C48.3305778,66.3645914 48.2088754,66.2669473 48.0969448,66.1355717 C47.6936392,65.9420589 47.3587357,65.6349239 47.1597479,65.2416846 C47.0158371,64.9567414 46.9572068,64.6327407 46.9829686,64.3078522 C46.8088543,63.5675326 46.8994648,62.8751474 47.2512467,62.3505324 C47.7522695,61.6004484 48.6468262,61.3518999 49.2384595,61.185905 C49.449884,61.1246555 49.7741275,61.0367758 50.1250211,61.1219925 C50.5754086,61.2356147 50.9316323,61.5986731 51.1306201,62.1454799 C51.2318906,62.4233216 51.2878559,62.7038264 51.3180594,62.9772298 C51.3349379,63.0331532 51.3491513,63.0890767 51.3606997,63.1476631 C51.4033399,63.3793459 51.3802431,63.5986012 51.3402679,63.7938893 C51.3384912,63.840936 51.3367145,63.8879827 51.3349379,63.933254 C51.3047344,64.5626145 51.2141239,65.2851806 50.765513,65.8825848 C50.4279445,66.3326352 49.8389762,66.661962 49.2429012,66.661962" id="Fill-60" fill="#3C3C3B"></path>
                            <path d="M49.449351,63.4242621 C49.449351,63.756252 49.7185175,64.025217 50.050756,64.025217 C50.3829946,64.025217 50.6521611,63.756252 50.6521611,63.4242621 C50.6521611,63.09316 50.3829946,62.8233073 50.050756,62.8233073 C49.7185175,62.8233073 49.449351,63.09316 49.449351,63.4242621" id="Fill-62" fill="#FEFEFE"></path>
                            <path d="M83.7423183,68.4434337 C83.7058964,68.4434337 83.6685862,68.4407706 83.631276,68.4336692 C80.4607966,67.8655583 77.2121435,67.6178974 73.9963589,67.6969004 C73.6561253,67.6818099 73.3647503,67.4323737 73.3567553,67.0888441 C73.3478719,66.7435392 73.6205918,66.4577083 73.965267,66.4488316 C77.2698855,66.3707163 80.5976007,66.6210402 83.8515839,67.2042416 C84.1918174,67.2654911 84.4174554,67.5903795 84.35616,67.9294708 C84.3019714,68.2321674 84.0390232,68.4434337 83.7423183,68.4434337" id="Fill-64" fill="#3C3C3B"></path>
                            <path d="M85.5016722,62.5642842 C85.3080145,62.5642842 85.1250168,62.4746292 85.0068678,62.3219493 L84.1851549,61.2540783 C83.7569758,61.2283358 83.3332385,61.1475575 82.9237145,61.0090804 C82.596806,60.8981213 82.4218034,60.5439396 82.5328457,60.2163881 C82.643888,59.890612 82.9992233,59.7157403 83.3261318,59.8266995 C83.6086233,59.9225682 83.90444,59.9811547 84.20381,60.0024588 C84.3450558,59.942097 84.5102867,59.9358833 84.6621926,59.9891437 C84.6781826,59.9944698 84.6959494,60.0006835 84.7128278,60.0068972 C85.4430419,59.9651766 86.1697026,59.7237294 86.7755493,59.3180627 C87.0367208,58.8653493 87.3991628,58.4605702 87.9597043,58.2865862 C88.2164341,58.2049203 88.5007023,58.3016767 88.6561615,58.5244827 C88.8116207,58.746401 88.8062907,59.0437716 88.6419481,59.2603639 C88.5904245,59.3278271 88.5371242,59.3944026 88.4820472,59.4583151 C88.5584443,59.5967921 88.5824294,59.7645624 88.5371242,59.9243436 C88.318593,60.7179236 87.719853,61.3810156 86.9789788,61.7325342 C86.4877277,62.3956262 85.9351813,62.5616212 85.5052256,62.5642842 L85.5016722,62.5642842 Z" id="Fill-66" fill="#3C3C3B"></path>
                            <path d="M79.0854713,66.9315484 C78.4520861,66.9315484 77.8346909,66.5462981 77.5104475,66.0447627 C77.1044769,65.4145146 77.06539,64.6866224 77.0796034,64.0581497 C77.0804917,64.0128783 77.0822684,63.9667193 77.0840451,63.9205603 C77.0582833,63.7252722 77.0502882,63.5051292 77.1089186,63.2734464 C77.1240203,63.2139723 77.1435638,63.1562735 77.1666605,63.1003501 C77.2155192,62.8304974 77.2901396,62.5553187 77.4091769,62.2899043 C77.6481399,61.758188 78.029237,61.4208721 78.4840662,61.3409815 C78.8438432,61.277069 79.1565383,61.3906912 79.3644095,61.4652558 C79.9453827,61.673859 80.8195076,61.9872077 81.2654534,62.769248 C81.5790368,63.3160547 81.6207887,64.013766 81.3951508,64.7389952 C81.3978158,65.0638836 81.3152004,65.3843337 81.1517461,65.6577371 C80.9261082,66.0367736 80.5689962,66.3208291 80.1532539,66.4850487 C80.0315515,66.6075476 79.9045192,66.6945396 79.7837052,66.7584521 C79.5589556,66.8791756 79.3217692,66.9315484 79.0854713,66.9315484" id="Fill-68" fill="#3C3C3B"></path>
                            <path d="M79.4628374,63.6773378 C79.4628374,64.0093276 79.7320039,64.2782927 80.0642424,64.2782927 C80.3964809,64.2782927 80.6656474,64.0093276 80.6656474,63.6773378 C80.6656474,63.345348 80.3964809,63.0763829 80.0642424,63.0763829 C79.7320039,63.0763829 79.4628374,63.345348 79.4628374,63.6773378" id="Fill-70" fill="#FEFEFE"></path>
                            <path d="M74.8650649,61.4252217 C74.5879033,61.4252217 74.3347269,61.2405856 74.2609948,60.9609685 C74.1730493,60.6272034 74.3720371,60.2854491 74.705164,60.1975694 C74.9903206,60.1221172 75.2799189,60.0413389 75.5721821,59.9614483 C76.8425059,59.6081543 78.1545816,59.2433206 79.484424,59.1873971 C80.6108369,59.1403505 82.3368782,59.8762317 82.7224171,60.1167912 C82.8343477,60.1869174 83.123946,60.1301063 83.3797874,60.0786212 C83.6187504,60.0324622 83.9056837,59.9818648 84.1695201,59.9854155 C84.5141954,59.9934046 84.7878036,60.2783477 84.7798085,60.6236527 C84.7718135,60.9627439 84.494652,61.2334843 84.1553067,61.2334843 C84.1446467,61.2325966 84.1339866,61.2325966 84.1233265,61.2334843 C83.9829691,61.2334843 83.8061898,61.2681035 83.6196387,61.3044981 C83.1603678,61.3950408 82.5873896,61.506 82.0614934,61.1766732 C81.7336965,60.9716206 80.3096903,60.4186001 79.5368359,60.4354659 C78.3517927,60.4842879 77.1081191,60.8295929 75.9070857,61.1633581 C75.608604,61.2467994 75.314564,61.3284653 75.0249658,61.4048052 C74.9707771,61.419008 74.9174768,61.4252217 74.8650649,61.4252217" id="Fill-72" fill="#3C3C3B"></path>
                            <path d="M53.9248882,61.4252217 C53.8724762,61.4252217 53.8191759,61.419008 53.7649873,61.4048052 C53.4762773,61.329353 53.1822373,61.2467994 52.884644,61.1642457 C51.6836106,60.8304806 50.439937,60.4842879 49.2540054,60.4354659 C48.4980295,60.3893069 47.0571448,60.9716206 46.7284597,61.1766732 C46.19901,61.5068877 45.6269202,61.3941531 45.1703143,61.3044981 C44.9748799,61.2663282 44.7972122,61.2272705 44.6488597,61.2334843 C44.3414947,61.2618898 44.0190279,60.9671823 44.0101445,60.6236527 C44.0021494,60.2783477 44.2757576,59.9934046 44.6204329,59.9854155 C44.8798277,59.9809771 45.1703143,60.0324622 45.4101656,60.0786212 C45.6660071,60.1301063 45.9564937,60.1869174 46.067536,60.1167912 C46.4548515,59.8762317 48.1879995,59.166093 49.3064174,59.1873971 C50.6362598,59.2433206 51.9492238,59.6081543 53.2195476,59.9614483 C53.5118109,60.0422266 53.7996325,60.1221172 54.084789,60.1975694 C54.4179159,60.2854491 54.6169037,60.6272034 54.5289582,60.9609685 C54.4552261,61.2405856 54.2020497,61.4252217 53.9248882,61.4252217" id="Fill-74" fill="#3C3C3B"></path>
                            <path d="M38.8196727,53.3503234 C38.6126899,53.3503234 38.4092604,53.2482409 38.2902231,53.0600542 C38.106337,52.7680097 38.1933942,52.3827594 38.4847691,52.1981234 C41.6294867,50.2132857 45.5363985,49.4321331 49.2025706,50.0579429 C50.4657877,50.2736475 51.6810345,50.6429196 52.856306,51.0015397 L55.1499955,51.6983632 C55.479569,51.7986703 55.66612,52.147526 55.5657378,52.4777405 C55.4662439,52.8070673 55.1206803,52.9943664 54.7857768,52.8922839 L52.4920873,52.1954603 C51.3532376,51.8492677 50.1770777,51.4906477 48.9920345,51.2891458 C45.6234557,50.7112705 42.039899,51.4311736 39.1527995,53.2544547 C39.048864,53.3192548 38.93338,53.3503234 38.8196727,53.3503234" id="Fill-76" fill="#3C3C3B"></path>
                            <path d="M87.4136427,53.0201089 C87.3905459,53.0201089 87.3674492,53.0192212 87.3443524,53.0165582 L83.5742446,52.6002394 C82.4824769,52.4795158 81.24591,52.3419264 80.1568072,51.7569497 C80.0670851,51.7090153 79.9791396,51.6584179 79.8903058,51.6069329 C79.6620028,51.4746696 79.4461366,51.3495076 79.2507022,51.313113 C78.9664339,51.2616279 78.619982,51.3663734 78.2833018,51.4693435 L73.9544293,52.7866508 C73.6213024,52.8869579 73.2748505,52.7023218 73.1744683,52.3721073 C73.0731977,52.0418928 73.2597487,51.6930372 73.5893222,51.5927301 L77.9190831,50.2745352 C78.3552572,50.1431595 78.8971435,49.9789399 79.4781168,50.0854607 C79.8849757,50.1600253 80.2207676,50.3553134 80.5165842,50.5266344 L80.7484405,50.6580101 C81.6234538,51.1275893 82.6859064,51.2456498 83.7110487,51.359272 L87.4811565,51.7755908 C87.824055,51.8137608 88.0719014,52.1217834 88.0337029,52.4644254 C87.9981693,52.7839878 87.7281145,53.0201089 87.4136427,53.0201089" id="Fill-78" fill="#3C3C3B"></path>
                            <path d="M83.3513328,166.113326 C83.3513328,166.262455 83.2971441,166.408033 83.1905435,166.550061 C83.0768362,166.69919 82.9311488,166.773755 82.7543694,166.773755 C82.6326671,166.773755 82.5127414,166.741799 82.3919274,166.677886 C82.0428105,166.514554 81.6670434,166.432888 81.2610728,166.432888 C80.7644917,166.432888 80.3309826,166.537634 79.9614338,166.747125 C79.5918851,166.956615 79.3067285,167.251323 79.1086291,167.631247 C78.9096413,168.011171 78.8101474,168.446131 78.8101474,168.936127 C78.8101474,169.774091 79.0357853,170.409665 79.4861729,170.842849 C79.9374487,171.276034 80.529082,171.492626 81.2610728,171.492626 C81.6954702,171.492626 82.0721256,171.41096 82.3919274,171.247629 C82.5189598,171.190817 82.6326671,171.161524 82.7330493,171.161524 C82.9178237,171.161524 83.0741712,171.240527 83.2020919,171.396758 C83.3078042,171.531684 83.3619928,171.677262 83.3619928,171.833493 C83.3619928,171.947115 83.3326777,172.050085 83.2767123,172.142403 C83.2198587,172.234721 83.1381316,172.305735 83.031531,172.355445 C82.4772079,172.632399 81.8873513,172.770876 81.2610728,172.770876 C80.5646155,172.770876 79.9259003,172.623522 79.3422621,172.328815 C78.7604005,172.034107 78.2949112,171.599147 77.9466826,171.023935 C77.5975656,170.448722 77.4243397,169.752787 77.4243397,168.936127 C77.4243397,168.211786 77.5895706,167.562009 77.9200324,166.985909 C78.2504943,166.411584 78.7062118,165.962421 79.2898501,165.639308 C79.8726,165.316195 80.529082,165.154639 81.2610728,165.154639 C81.8935696,165.154639 82.4807612,165.293116 83.0208709,165.57007 C83.2411788,165.683692 83.3513328,165.864777 83.3513328,166.113326" id="Fill-80" fill="#1A4D9E"></path>
                            <path d="M91.9380107,165.367858 C92.0694848,165.488581 92.1361101,165.63416 92.1361101,165.804593 C92.1361101,165.896911 92.1139017,165.99278 92.0712614,166.091311 L89.4391151,172.249102 C89.3742664,172.38314 89.2863209,172.486998 89.1726136,172.558012 C89.058018,172.629026 88.9372039,172.664533 88.8101716,172.664533 C88.6884692,172.657431 88.5765386,172.620149 88.4743797,172.552686 C88.3704441,172.485223 88.291382,172.387579 88.23364,172.259754 L85.6006053,166.081547 C85.5650718,166.010533 85.5481934,165.921766 85.5481934,165.815245 C85.5481934,165.623508 85.6183721,165.468165 85.7605062,165.350992 C85.9026403,165.234707 86.0483278,165.17612 86.1975687,165.17612 C86.3183827,165.17612 86.4329783,165.211627 86.5386906,165.281753 C86.6452912,165.352767 86.7270183,165.456625 86.7838719,165.591551 L88.9265439,170.629985 L90.8879948,165.591551 C90.9448485,165.462839 91.0274639,165.364307 91.1340645,165.293293 C91.2397768,165.222279 91.3534841,165.186772 91.4751864,165.186772 C91.6519658,165.186772 91.807425,165.247134 91.9380107,165.367858" id="Fill-82" fill="#1A4D9E"></path>
                            <path d="M84.8253525,179.274859 C82.2838166,179.233138 79.5939283,179.044951 77.1421146,177.968204 C74.4468962,176.782272 72.3992765,174.539121 71.6646207,171.969307 C71.2879653,170.651112 71.2044615,169.124314 71.415886,167.42797 C71.8751569,163.753002 73.9805186,159.555195 77.6520208,158.463357 C77.7683931,158.425187 77.8927605,158.495313 77.9274057,158.612486 C77.9629392,158.729659 77.8963138,158.853045 77.7781648,158.887665 C74.2994321,159.922692 72.2971176,163.950953 71.8565018,167.483893 C71.652184,169.119875 71.7321344,170.5872 72.0919114,171.847696 C72.7901453,174.292348 74.7453779,176.42809 77.3215589,177.562537 C79.7005289,178.607328 82.3371169,178.790189 84.8324592,178.831022 C87.5143525,178.87363 89.7440816,178.728052 91.8156865,177.868784 C94.9124338,176.584321 97.3695775,173.548478 98.0740298,170.135374 C98.8220106,166.516329 97.5614586,162.543991 95.0110393,160.474825 C92.5787691,158.500639 89.4607017,158.299137 85.9313337,158.251203 C82.7191024,158.201493 79.2003944,158.535258 77.5951671,161.327879 C77.5347601,161.436175 77.3988444,161.471682 77.2922438,161.410432 C77.1856432,161.35007 77.1492213,161.214256 77.2105167,161.107736 C78.9294513,158.115389 82.5769683,157.75233 85.9384404,157.807366 C89.5504239,157.857076 92.7484417,158.066567 95.2899776,160.12952 C97.9647642,162.298993 99.2883882,166.450642 98.5093155,170.225916 C97.7639997,173.832533 95.2651041,176.918974 91.9853591,178.278002 C90.0585534,179.078683 88.0269237,179.28196 85.6364054,179.28196 C85.3707922,179.28196 85.099849,179.279297 84.8253525,179.274859 Z" id="Fill-110" fill="#1A4D9E"></path>
                        </g>
                    </g>
                </g>
            </g>
        </g>
    </g>
</svg>