<?xml version="1.0" encoding="utf-8"?>
<!-- Generator: Adobe Illustrator 21.1.0, SVG Export Plug-In . SVG Version: 6.00 Build 0)  -->
<svg version="1.1" id="Layer_1" xmlns="http://www.w3.org/2000/svg" xmlns:xlink="http://www.w3.org/1999/xlink" x="0px" y="0px"
	 viewBox="0 0 64 64" style="enable-background:new 0 0 64 64;" xml:space="preserve">
<style type="text/css">
	.st0{fill:#CCCCCC;}
	.st1{fill:#29B297;}
</style>
<g id="Days_3_">
	<g>
		<path class="st0" d="M60,20v38c0,1.1-0.9,2-2,2H6c-1.1,0-2-0.9-2-2V20H0v40c0,2.2,1.8,4,4,4h56c2.2,0,4-1.8,4-4V20H60z M12,52h8
			c1.1,0,2-0.9,2-2v-6c0-1.1-0.9-2-2-2h-8c-1.1,0-2,0.9-2,2v6C10,51.1,10.9,52,12,52z M12,38h8c1.1,0,2-0.9,2-2v-6c0-1.1-0.9-2-2-2
			h-8c-1.1,0-2,0.9-2,2v6C10,37.1,10.9,38,12,38z M28,52h8c1.1,0,2-0.9,2-2v-6c0-1.1-0.9-2-2-2h-8c-1.1,0-2,0.9-2,2v6
			C26,51.1,26.9,52,28,52z M28,38h8c1.1,0,2-0.9,2-2v-6c0-1.1-0.9-2-2-2h-8c-1.1,0-2,0.9-2,2v6C26,37.1,26.9,38,28,38z M44,52h8
			c1.1,0,2-0.9,2-2v-6c0-1.1-0.9-2-2-2h-8c-1.1,0-2,0.9-2,2v6C42,51.1,42.9,52,44,52z M44,38h8c1.1,0,2-0.9,2-2v-6c0-1.1-0.9-2-2-2
			h-8c-1.1,0-2,0.9-2,2v6C42,37.1,42.9,38,44,38z"/>
	</g>
</g>
<g id="Header_3_">
	<g>
		<path class="st1" d="M60,0H4C1.8,0,0,1.8,0,4v16h64V4C64,1.8,62.2,0,60,0z M24,12c-1.1,0-2-0.9-2-2s0.9-2,2-2s2,0.9,2,2
			S25.1,12,24,12z M40,12c-1.1,0-2-0.9-2-2s0.9-2,2-2s2,0.9,2,2S41.1,12,40,12z"/>
	</g>
</g>
</svg>
