<?xml version="1.0" encoding="utf-8"?>
<!-- Generator: Adobe Illustrator 21.1.0, SVG Export Plug-In . SVG Version: 6.00 Build 0)  -->
<svg version="1.1" id="Layer_1" xmlns="http://www.w3.org/2000/svg" xmlns:xlink="http://www.w3.org/1999/xlink" x="0px" y="0px"
	 viewBox="0 0 68 60" style="enable-background:new 0 0 68 60;" xml:space="preserve">
<style type="text/css">
	.st0{fill:#CCCCCC;}
	.st1{fill:#FFFFFF;}
	.st2{fill:#999999;}
	.st3{fill:#29B297;}
</style>
<g id="Bubble_6_">
	<g>
		<path class="st0" d="M36,44c0-8.8,7.2-16,16-16c4.8,0,9.1,2.1,12,5.4V4c0-2.2-1.8-4-4-4H4C1.8,0,0,1.8,0,4v38v2v12l8-8h28.5
			C36.2,46.7,36,45.4,36,44z"/>
	</g>
</g>
<g id="Container_77_">
	<g>
		<path class="st1" d="M52,28c2.9,0,5.6,0.8,8,2.2V6c0-1.1-0.9-2-2-2H6C4.9,4,4,4.9,4,6v34v2v6l4-4h28C36,35.2,43.2,28,52,28z"/>
	</g>
</g>
<g id="Dots_4_">
	<g>
		<path class="st2" d="M20,20c-2.2,0-4,1.8-4,4c0,2.2,1.8,4,4,4s4-1.8,4-4C24,21.8,22.2,20,20,20z M32,20c-2.2,0-4,1.8-4,4
			c0,2.2,1.8,4,4,4s4-1.8,4-4C36,21.8,34.2,20,32,20z M44,20c-2.2,0-4,1.8-4,4c0,2.2,1.8,4,4,4s4-1.8,4-4C48,21.8,46.2,20,44,20z"/>
	</g>
</g>
<g id="Elipse_9_">
	<g>
		<circle class="st3" cx="52" cy="44" r="12"/>
	</g>
</g>
<g id="Plus_4_">
	<g>
		<path class="st1" d="M56,42h-2v-2c0-1.1-0.9-2-2-2s-2,0.9-2,2v2h-2c-1.1,0-2,0.9-2,2c0,1.1,0.9,2,2,2h2v2c0,1.1,0.9,2,2,2
			s2-0.9,2-2v-2h2c1.1,0,2-0.9,2-2C58,42.9,57.1,42,56,42z"/>
	</g>
</g>
</svg>
