<?xml version="1.0" encoding="utf-8"?>
<!-- Generator: Adobe Illustrator 22.0.0, SVG Export Plug-In . SVG Version: 6.00 Build 0)  -->
<svg version="1.1" id="Calque_1" xmlns="http://www.w3.org/2000/svg" xmlns:xlink="http://www.w3.org/1999/xlink" x="0px" y="0px"
	 viewBox="0 0 42 42" style="enable-background:new 0 0 42 42;" xml:space="preserve">
<style type="text/css">
	.st0{fill:#137F8B;}
	.st1{enable-background:new    ;}
	.st2{fill:#FFFFFF;}
</style>
<path class="st0" d="M17,0h8c9.4,0,17,7.6,17,17v8c0,9.4-7.6,17-17,17h-8C7.6,42,0,34.4,0,25v-8C0,7.6,7.6,0,17,0z"/>
<g class="st1">
	<path class="st2" d="M24.3,18.4c1.2,1.2,1.8,2.7,1.8,4.2c0,1.5-0.6,3-1.8,4.2c-1.2,1.2-2.7,1.8-4.2,1.8c-1.5,0-3-0.6-4.2-1.8
		c-0.5-0.5-0.5-1.4,0-1.9c0.5-0.5,1.4-0.5,1.9,0c0.6,0.6,1.4,0.9,2.3,0.9c0.8,0,1.7-0.3,2.3-0.9c0.6-0.6,1-1.5,1-2.3
		c0-0.8-0.3-1.7-1-2.3c-0.6-0.6-1.4-0.9-2.3-1c-0.4,0-0.7-0.1-1-0.4c0,0,0,0,0,0c-0.6-0.5-0.6-1.4,0-1.9l2.4-2.5h-3.9
		c-0.7,0-1.3-0.6-1.3-1.4c0-0.7,0.6-1.3,1.3-1.3h7.1c0.8,0,1.4,0.6,1.4,1.3c0,0.2-0.1,0.5-0.2,0.6c-0.1,0.1-0.1,0.2-0.2,0.3l-3,3.1
		C23.2,17.5,23.8,17.9,24.3,18.4z"/>
</g>
</svg>
