<?xml version="1.0" encoding="utf-8"?>
<!-- Generator: Adobe Illustrator 22.0.0, SVG Export Plug-In . SVG Version: 6.00 Build 0)  -->
<svg version="1.1" id="Calque_1" xmlns="http://www.w3.org/2000/svg" xmlns:xlink="http://www.w3.org/1999/xlink" x="0px" y="0px"
	 viewBox="0 0 42 42" style="enable-background:new 0 0 42 42;" xml:space="preserve">
<style type="text/css">
	.st0{fill:#137F8B;}
	.st1{enable-background:new    ;}
	.st2{fill:#FFFFFF;}
</style>
<path class="st0" d="M17,0h8c9.4,0,17,7.6,17,17v8c0,9.4-7.6,17-17,17h-8C7.6,42,0,34.4,0,25v-8C0,7.6,7.6,0,17,0z"/>
<g class="st1">
	<path class="st2" d="M26.4,27.3c0,0.7-0.6,1.3-1.3,1.3h-8.5c0,0,0,0,0,0h0c-0.4,0-0.7-0.1-1-0.4c-0.5-0.6-0.5-1.4,0.1-1.9l7.1-6.4
		c0.7-0.6,1-1.4,1-2.3c0-0.8-0.3-1.5-0.8-2.1c-0.6-0.7-1.5-1-2.3-1c-0.7,0-1.5,0.3-2.1,0.8L17.8,16c-0.6,0.5-1.4,0.5-1.9-0.1
		c-0.5-0.6-0.5-1.4,0.1-1.9l0.7-0.7c1.1-1,2.5-1.5,3.9-1.5c1.6,0,3.1,0.6,4.3,1.9c1,1.1,1.5,2.5,1.5,3.9c0,1.6-0.6,3.1-1.9,4.3
		L20,26h5.1C25.8,26,26.4,26.6,26.4,27.3z"/>
</g>
</svg>
