<?xml version="1.0" encoding="UTF-8"?>
<svg width="34px" height="34px" viewBox="0 0 34 34" version="1.1" xmlns="http://www.w3.org/2000/svg" xmlns:xlink="http://www.w3.org/1999/xlink">
    <!-- Generator: Sketch 47.1 (45422) - http://www.bohemiancoding.com/sketch -->
    <title>ico/facebook@3x</title>
    <desc>Created with Sketch.</desc>
    <defs></defs>
    <g id="Web-Design-V1" stroke="none" stroke-width="1" fill="none" fill-rule="evenodd" opacity="0.32959692">
        <g id="Page4-4" transform="translate(-863.000000, -1217.000000)" fill="#4460A0">
            <g id="Contenu-Pages" transform="translate(46.000000, 172.000000)">
                <g id="Social-Stuff" transform="translate(337.000000, 1039.000000)">
                    <g id="ico/facebook" style="mix-blend-mode: luminosity;" transform="translate(480.000000, 6.000000)">
                        <path d="M18.1605016,34 L1.87653899,34 C0.839851465,34 0,33.1596273 0,32.1233436 L0,1.87652443 C0,0.839976874 0.839983393,0 1.87653899,0 L32.1235929,0 C33.1598847,0 34,0.839976874 34,1.87652443 L34,32.1233436 C34,33.1597593 33.1597528,34 32.1235929,34 L23.4595079,34 L23.4595079,20.8333262 L27.8789525,20.8333262 L28.5407016,15.7020398 L23.4595079,15.7020398 L23.4595079,12.4260377 C23.4595079,10.9404118 23.8720457,9.92800686 26.0024135,9.92800686 L28.7195955,9.92681952 L28.7195955,5.3373558 C28.2496692,5.27482258 26.6367217,5.13511227 24.7601827,5.13511227 C20.8425909,5.13511227 18.1605016,7.52641443 18.1605016,11.9178563 L18.1605016,15.7020398 L13.7297113,15.7020398 L13.7297113,20.8333262 L18.1605016,20.8333262 L18.1605016,34 L18.1605016,34 Z"></path>
                    </g>
                </g>
            </g>
        </g>
    </g>
</svg>