<?xml version="1.0" encoding="UTF-8"?>
<svg width="46px" height="29px" viewBox="0 0 46 29" version="1.1" xmlns="http://www.w3.org/2000/svg" xmlns:xlink="http://www.w3.org/1999/xlink">
    <!-- Generator: Sketch 47.1 (45422) - http://www.bohemiancoding.com/sketch -->
    <title>ico/googleplus@3x</title>
    <desc>Created with Sketch.</desc>
    <defs></defs>
    <g id="Web-Design-V1" stroke="none" stroke-width="1" fill="none" fill-rule="evenodd" opacity="0.32959692">
        <g id="Page4-4" transform="translate(-770.000000, -1219.000000)" fill="#F93F2D">
            <g id="Contenu-Pages" transform="translate(46.000000, 172.000000)">
                <g id="Social-Stuff" transform="translate(337.000000, 1039.000000)">
                    <g id="ico/googleplus" style="mix-blend-mode: luminosity;" transform="translate(387.000000, 8.000000)">
                        <path d="M40.9371069,11.9158416 L40.9371069,6.89108911 L37.3207547,6.89108911 L37.3207547,11.9158416 L32.1132075,11.9158416 L32.1132075,15.5049505 L37.3207547,15.5049505 L37.3207547,20.6732673 L40.9371069,20.6732673 L40.9371069,15.5049505 L46,15.5049505 L46,11.9158416 L40.9371069,11.9158416 L40.9371069,11.9158416 Z M14.6100629,11.6287129 L14.6100629,17.3712871 C14.6100629,17.3712871 20.2232201,17.3638218 22.5087547,17.3638218 C21.2710943,21.0865891 19.3466164,23.1138614 14.6100629,23.1138614 C9.81666038,23.1138614 6.0754717,19.2572921 6.0754717,14.5 C6.0754717,9.74270792 9.81666038,5.88613861 14.6100629,5.88613861 C17.1444025,5.88613861 18.7811635,6.77020792 20.2825283,8.00242079 C21.4843145,6.80968812 21.3839245,6.63970792 24.441478,3.7740198 C21.8459497,1.42932673 18.396239,0 14.6100629,0 C6.54111321,0 0,6.49183663 0,14.5 C0,22.5080198 6.54111321,29 14.6100629,29 C26.6708868,29 29.6187925,18.5772277 28.6415094,11.6287129 L14.6100629,11.6287129 L14.6100629,11.6287129 Z"></path>
                    </g>
                </g>
            </g>
        </g>
    </g>
</svg>