<?xml version="1.0" encoding="UTF-8"?>
<svg width="248px" height="213px" viewBox="0 0 248 213" version="1.1" xmlns="http://www.w3.org/2000/svg" xmlns:xlink="http://www.w3.org/1999/xlink">
    <!-- Generator: Sketch 47.1 (45422) - http://www.bohemiancoding.com/sketch -->
    <title>logo/boussole/home@3x</title>
    <desc>Created with Sketch.</desc>
    <defs>
        <polygon id="path-1" points="23.4165669 0.520535912 23.4165669 23.7033789 0.448550112 23.7033789 0.448550112 0.520535912 23.4165669 0.520535912"></polygon>
    </defs>
    <g id="Web-Design-V1" stroke="none" stroke-width="1" fill="none" fill-rule="evenodd">
        <g id="Accueil-4" transform="translate(-584.000000, -27.000000)">
            <g id="Header" transform="translate(0.000000, -88.000000)">
                <g id="logo/boussole/home" transform="translate(308.000000, 0.000000)">
                    <g id="logo/boussole">
                        <path d="M403.315555,165.509942 L413.487746,115.836926 L414.957298,121.023247 L424.08891,164.346979 C424.08891,164.346979 412.00616,159.369921 403.315555,165.509942 L0,0" id="Fill-1" fill="#137F8B"></path>
                        <path d="M422.080168,278.050196 L411.907977,327.723212 L410.438425,322.536892 L401.306813,279.213159 C401.306813,279.213159 413.389563,284.190217 422.080168,278.050196" id="Fill-3" fill="#137F8B"></path>
                        <path d="M287.178373,186.436985 C286.987247,187.388565 286.811693,188.340851 286.653837,189.292431 C286.494564,190.24401 286.351573,191.16519 286.225571,192.052435 C287.113957,190.721214 287.907487,189.19699 288.608285,187.484712 C289.306959,185.770314 289.861935,184.105403 290.275335,182.487153 C290.688735,180.868902 290.942863,179.392752 291.038426,178.060116 C291.133282,176.727481 291.085854,175.808422 290.895435,175.300112 C290.640599,174.729588 290.307189,174.98339 289.894497,176.062223 C289.481097,177.141057 289.084686,178.441172 288.70314,179.963982 C288.194177,181.742008 287.686629,183.899676 287.178373,186.436985 M286.701972,210.232836 C287.654775,210.172036 288.560149,209.568285 289.418096,208.425117 C290.275335,207.283363 291.053291,206.046169 291.752674,204.713533 C292.515057,203.127803 293.245586,201.349777 293.945676,199.381577 L294.70806,199.381577 C294.071678,201.858088 293.245586,204.080089 292.229783,206.046169 C291.339274,207.696233 290.228615,209.202783 288.893559,210.567232 C287.559211,211.931681 285.939589,212.549571 284.033277,212.423731 C283.206476,212.359397 282.522667,212.056814 281.983265,211.518811 C281.443155,210.980808 280.983743,210.377057 280.602197,209.711093 C280.220652,209.044422 279.918388,208.37775 279.696823,207.711786 C279.474549,207.045115 279.331558,206.521251 279.267142,206.140195 C279.141139,205.634006 279.062565,205.110142 279.029295,204.570725 C278.998148,204.031309 278.950013,203.476338 278.886304,202.903694 C278.824011,202.714226 278.79074,202.428611 278.79074,202.047555 L278.79074,201.191416 C278.728447,200.557973 278.695885,199.938668 278.695885,199.334917 L278.695885,197.6693 C278.695885,196.336664 278.743313,194.924848 278.838876,193.433852 C278.933732,191.942855 279.109285,190.372678 279.362705,188.721907 C280.251798,182.123064 281.521729,177.332646 283.17533,174.348532 C284.826806,171.365832 286.827974,170.001383 289.179541,170.255892 C290.195345,170.382439 291.005864,171.127584 291.610391,172.492033 C292.212794,173.857896 292.451348,175.650061 292.325346,177.870649 C292.19722,180.092651 291.641537,182.582593 290.65688,185.342598 C289.670808,188.102603 288.131176,190.910681 286.034444,193.766127 C285.906319,194.591159 285.810755,195.400638 285.748462,196.193857 C285.684045,196.987075 285.58919,197.76474 285.463188,198.525438 C285.463188,199.035163 285.446199,199.525799 285.415052,200.000882 C285.38249,200.478085 285.334354,200.968721 285.272061,201.477032 C285.207644,201.984635 285.160924,202.475978 285.12907,202.952475 C285.096508,203.427558 285.081642,203.888501 285.081642,204.332477 L285.081642,204.80756 L285.081642,205.094589 C285.017225,206.490145 285.096508,207.696233 285.320197,208.710733 C285.541762,209.726646 286.001882,210.232836 286.701972,210.232836" id="Fill-5" fill="#137F8B"></path>
                        <path d="M310.242842,195.861369 C310.433969,194.84687 310.448835,194.100311 310.290978,193.623814 C310.131706,193.148731 309.924298,192.783229 309.671586,192.529427 C309.416042,192.276332 309.066351,192.148371 308.622512,192.148371 C307.478583,192.212705 306.397655,192.657388 305.381852,193.481007 C304.365341,194.306039 303.443685,195.321952 302.618301,196.52592 C301.7915,197.733422 301.076545,199.04909 300.473434,200.477873 C299.868907,201.904535 299.440641,203.253431 299.186514,204.521733 C298.932386,205.792155 298.836822,206.855435 298.901239,207.711574 C298.963532,208.567713 299.282785,209.028656 299.854041,209.091576 C300.679426,209.220245 301.474372,208.821515 302.236755,207.901042 C302.999138,206.98269 303.633396,205.887596 304.143067,204.61788 C304.777325,203.222325 305.34929,201.57226 305.858253,199.668394 C306.04938,198.970616 306.334654,198.304652 306.7162,197.669088 C307.033329,197.161484 307.478583,196.701955 308.051256,196.289792 C308.622512,195.876923 309.352333,195.734115 310.242842,195.861369 M313.387939,210.233331 C314.340742,210.171824 315.246824,209.568073 316.104063,208.424905 C316.96201,207.283858 317.739258,206.045956 318.439349,204.713321 C319.201732,203.128298 319.931553,201.349565 320.631643,199.382072 L321.394027,199.382072 C320.758353,201.857876 319.931553,204.079877 318.916458,206.045956 C318.471203,206.870989 317.977813,207.680468 317.438411,208.472272 C316.897593,209.266905 316.29519,209.964683 315.627662,210.56702 C314.960134,211.170771 314.212616,211.647267 313.387939,211.994389 C312.561847,212.342217 311.672754,212.485025 310.719244,212.423519 C309.194477,212.359185 308.017985,212.074276 307.192601,211.565966 C306.366509,211.059777 305.763398,210.471579 305.381852,209.804908 C305.001014,209.138943 304.777325,208.410766 304.715032,207.616133 C304.650615,206.824329 304.619469,206.045956 304.619469,205.283845 C304.048212,207.061163 303.380684,208.378245 302.618301,209.234384 C301.855209,210.090523 301.123973,210.709827 300.425298,211.090883 C299.599914,211.534859 298.741967,211.757554 297.852874,211.757554 C296.518526,211.757554 295.374597,211.534859 294.421086,211.090883 C293.532701,210.709827 292.785891,210.043156 292.181364,209.091576 C291.578961,208.139997 291.404115,206.712628 291.657535,204.807348 C291.847954,203.413206 292.293209,201.904535 292.991883,200.286285 C293.691973,198.668034 294.612213,197.145931 295.756142,195.717148 C296.900071,194.289778 298.248577,193.052584 299.805906,192.005563 C301.363235,190.957836 303.094702,190.308839 305.001014,190.054331 C305.381852,189.992117 306.128662,189.94475 307.240737,189.91223 C308.351395,189.880416 309.29004,190.087558 310.051716,190.53012 C310.495554,190.783922 310.893381,191.307786 311.24378,192.101004 C311.592056,192.894223 311.512774,194.180198 311.005226,195.955396 L311.100789,195.955396 C311.481627,196.01973 311.798756,196.178091 312.054299,196.431893 C312.625556,196.875869 312.815975,197.637981 312.625556,198.716815 C312.49743,199.351672 312.339574,200.319512 312.149155,201.619627 C311.958028,202.921156 311.846891,204.205011 311.815037,205.474019 C311.782475,206.743734 311.878038,207.854382 312.101019,208.805961 C312.323293,209.758248 312.751558,210.233331 313.387939,210.233331" id="Fill-7" fill="#137F8B"></path>
                        <path d="M353.291525,210.069667 C354.626581,210.51435 356.18391,210.421031 357.962804,209.793243 C359.743115,209.164041 361.411581,208.144592 362.968202,206.737018 C364.525531,205.331565 365.841474,203.591716 366.916739,201.516056 C367.990588,199.444639 368.52999,197.184461 368.52999,194.739764 C366.230806,194.66836 363.969848,194.705122 361.744991,194.851465 C359.520841,195.001342 357.499853,195.351292 355.682733,195.906969 C353.864905,196.461939 352.326689,197.259399 351.067376,198.295108 C349.805231,199.332938 349.026567,200.701629 348.731382,202.405423 C348.509109,203.591716 348.545918,204.665601 348.842519,205.626371 C349.0655,206.442919 349.490934,207.275021 350.121652,208.126211 C350.750955,208.978815 351.807107,209.624984 353.291525,210.069667 M346.061978,157.305078 C347.169098,156.267956 351.028443,153.973136 353.847916,152.861782 C356.664558,151.751134 359.779216,151.269689 363.190475,151.418152 C365.860587,151.566616 368.269492,152.123 370.420022,153.08377 C371.310531,153.528453 372.200332,154.084837 373.090133,154.750802 C373.979934,155.416766 374.775588,156.249575 375.481341,157.250642 C376.184971,158.249588 376.777464,159.435174 377.261652,160.804572 C377.7423,162.174677 378.021203,163.748389 378.094823,165.525707 C378.094823,167.96899 377.575949,170.190285 376.538201,172.190299 C375.647692,173.894093 374.163982,175.506688 372.088487,177.023842 C370.012992,178.540289 366.934436,179.484799 362.857065,179.854544 C365.304195,180.077946 367.490119,180.74391 369.419792,181.854557 C371.050032,182.817448 372.626474,184.28158 374.146285,186.243417 C375.665389,188.204548 376.611113,190.92779 376.982748,194.406782 C378.317804,194.630184 379.725771,194.87126 381.210189,195.129303 C382.692483,195.389468 384.212295,195.704069 385.769624,196.073813 L385.659195,197.184461 C384.916632,197.036704 384.101866,196.851479 383.212065,196.628077 C382.394467,196.481734 381.468564,196.315596 380.431524,196.128957 C379.391653,195.945852 378.242769,195.779007 376.982748,195.62913 C376.982748,195.779007 377.000445,195.92535 377.03867,196.073813 C377.07548,196.222277 377.094593,196.370033 377.094593,196.518496 C377.166796,200.443585 376.499976,203.701296 375.092009,206.292335 C373.682626,208.885495 371.903024,210.920857 369.753202,212.402663 C367.601964,213.883055 365.26597,214.882708 362.746636,215.40233 C360.224471,215.919831 357.889185,216.068294 355.738655,215.847013 C353.291525,215.623611 351.326459,215.069348 349.844165,214.179982 C348.359747,213.292029 347.229975,212.290962 346.451311,211.180315 C345.672646,210.069667 345.153065,208.903876 344.893982,207.681528 C344.633483,206.45918 344.577561,205.368327 344.726923,204.406143 C344.874869,202.777288 345.395158,201.258013 346.28496,199.851146 C347.174053,198.443571 348.545918,197.223344 350.399848,196.185514 C352.252362,195.147685 354.662682,194.390521 357.629394,193.906955 C360.594691,193.42551 364.192121,193.296134 368.418146,193.518829 L368.418146,193.407835 C368.195872,190.891028 367.601964,188.891014 366.639251,187.408501 C365.674415,185.928109 364.525531,184.762318 363.190475,183.909714 C361.856127,183.058524 360.371709,182.466085 358.742177,182.133103 C357.109813,181.800121 355.515674,181.448757 353.959761,181.076892 C352.401724,180.707147 351.345571,180.116122 350.78918,179.30028 C350.233497,178.485853 349.880266,177.671425 349.73232,176.854876 C349.73232,176.633595 349.749309,176.33879 349.788242,175.967631 C349.825052,175.597887 349.916368,175.264904 350.066438,174.968685 C350.288003,174.524002 350.695033,174.487239 351.289649,174.856984 C351.882142,175.449423 352.51286,175.876432 353.180388,176.134476 C353.847916,176.393933 354.477219,176.596833 355.071835,176.745296 C355.812274,176.89376 356.51732,176.930522 357.18414,176.854876 C360.299506,176.708534 362.690714,176.005807 364.35918,174.745283 C366.026938,173.488293 367.267846,172.154243 368.084736,170.746669 C368.974537,169.117814 369.456601,167.302319 369.530928,165.302305 C369.60384,162.711266 369.121775,160.76781 368.084736,159.471937 C367.04628,158.176064 365.860587,157.269023 364.525531,156.748694 C362.968202,156.157669 361.188599,155.899625 359.187431,155.97315 C356.812504,156.121613 354.626581,156.527413 352.624705,157.193377 C350.622829,157.860049 348.057483,159.449314 347.214402,160.150626 C346.012427,161.148866 342.438357,163.780202 340.412413,175.933697 C338.570518,186.981492 344.179026,226.323579 310.008394,235.460439 C299.159473,238.36113 289.186195,236.009046 283.282502,232.359675 C280.411354,230.58377 277.046815,226.851684 276.508121,222.209022 L278.100844,223.21221 C278.100844,223.21221 280.751842,227.424328 284.849742,229.229926 C289.699406,231.367091 297.339521,231.988517 304.734711,231.035523 C310.085552,230.345522 316.69783,225.768608 319.694273,223.099095 C329.649853,214.23159 331.658808,200.122621 335.56912,179.696183 C339.066739,161.42317 344.954859,158.342908 346.061978,157.305078" id="Fill-9" fill="#137F8B"></path>
                        <path d="M388.77718,207.316944 C389.478686,206.298203 390.069055,205.008692 390.54758,203.446999 C391.026105,201.88672 391.105387,200.276953 390.78755,198.619112 C389.701667,198.175136 389.14386,197.61663 389.112006,196.947131 C389.080151,196.277632 389.126871,195.752355 389.255705,195.369178 C388.681617,195.816689 388.234946,196.103011 387.916402,196.230972 C387.724567,196.358227 387.516451,196.485481 387.294178,196.613442 C387.069781,196.740697 386.799372,196.868658 386.480828,196.994498 C386.352702,197.123167 386.049731,197.441302 385.571206,197.95032 C385.092681,198.462165 384.597875,199.130957 384.088204,199.957403 C384.023787,200.086778 383.95937,200.181512 383.897077,200.244432 C383.83266,200.308766 383.768243,200.404914 383.705242,200.530754 C383.640826,200.66013 383.610387,200.75557 383.610387,200.817077 C383.610387,200.882118 383.577117,200.977558 383.514116,201.10552 C383.322281,201.423655 383.114873,201.837939 382.891892,202.347663 C382.668203,202.858094 382.428232,203.462552 382.174813,204.163158 C382.109688,204.482708 382.045271,204.76903 381.982978,205.022832 C381.918561,205.278047 381.854852,205.565784 381.791143,205.883919 L381.791143,206.170949 C381.663018,206.998809 381.600017,207.764455 381.600017,208.465061 C381.600017,209.165667 381.791143,209.740432 382.174813,210.184408 C382.557066,210.631212 383.002321,210.8532 383.514116,210.8532 C384.023787,210.8532 384.582302,210.710393 385.188952,210.423364 C385.794187,210.137041 386.416411,209.722758 387.054916,209.18122 C387.692005,208.639682 388.266093,208.018964 388.77718,207.316944 L388.77718,207.316944 Z M406.577452,197.376968 C405.683403,197.696518 404.759624,197.98284 403.802575,198.236642 C402.907818,198.428937 401.935903,198.619112 400.88329,198.811407 C399.830677,199.001582 398.761783,199.097729 397.677316,199.097729 C397.869151,199.861255 397.979579,200.691236 398.01285,201.582723 C398.043996,202.475625 397.931444,203.462552 397.677316,204.545628 C397.230646,206.521605 396.49587,208.209845 395.476527,209.611057 C395.029149,210.184408 394.503196,210.757053 393.897254,211.331818 C393.289895,211.905169 392.572816,212.382373 391.743892,212.764843 C390.91426,213.147313 389.957211,213.401115 388.873451,213.529783 C387.787568,213.65633 386.576391,213.592703 385.23638,213.338194 C383.897077,213.082979 382.683776,212.573962 381.600017,211.809022 C380.705968,211.108416 379.892618,210.105228 379.159257,208.79875 C378.427312,207.492979 378.059216,205.660517 378.059216,203.303485 C378.187342,201.136626 378.602158,199.130957 379.302956,197.28082 C379.940753,195.689435 380.94523,194.175815 382.317804,192.741376 C383.688961,191.309058 385.682342,190.336977 388.298655,189.827252 C388.809035,189.699291 389.286851,189.668184 389.73423,189.731105 C390.052774,189.795439 390.371319,189.921279 390.691279,190.113575 C391.009824,190.304456 391.169804,190.655112 391.169804,191.165544 C391.04097,191.5466 391.009824,191.832922 391.074241,192.025217 C391.074241,191.897963 391.200951,191.897963 391.457202,192.025217 C391.519495,192.089551 391.792028,192.248619 392.270553,192.502421 C392.749077,192.75905 393.289895,193.123846 393.897254,193.60105 C394.503196,194.079667 395.12542,194.686246 395.763925,195.417959 C396.400306,196.150378 396.912101,197.058832 397.294355,198.141908 C398.251404,198.141908 399.256589,198.078988 400.308494,197.95032 C401.361815,197.824479 402.33373,197.66329 403.227779,197.473116 C404.247829,197.219314 405.238149,196.962685 406.195198,196.707469 L406.577452,197.376968 Z" id="Fill-11" fill="#137F8B"></path>
                        <path d="M426.004212,209.993598 C426.961262,209.866343 427.854603,209.228658 428.683526,208.081955 C429.511742,206.934545 430.246519,205.691695 430.885023,204.353403 C431.585822,202.824938 432.287328,201.10559 432.990957,199.192534 L433.756172,199.192534 C433.117667,201.678235 432.287328,203.909427 431.267277,205.88399 C430.820607,206.712557 430.325801,207.524864 429.784983,208.320203 C429.241333,209.118371 428.636099,209.818976 427.966447,210.423434 C427.296088,211.029306 426.545738,211.508631 425.717522,211.856459 C424.887183,212.205702 423.99455,212.349216 423.038208,212.28771 C422.590122,212.223376 422.191588,212.174595 421.841189,212.144195 C421.490082,212.111675 421.154548,212.031081 420.836003,211.90524 L420.741148,211.90524 L420.645585,211.90524 L420.549313,211.90524 C420.549313,211.840199 420.516043,211.809092 420.45375,211.809092 C420.389333,211.809092 420.341905,211.793539 420.310759,211.761726 C420.277489,211.728498 420.229353,211.712945 420.16706,211.712945 C418.571505,211.013753 417.487038,209.88331 416.91295,208.320203 C416.338154,206.759217 415.987755,205.152278 415.859629,203.49373 C415.157415,205.469707 414.295929,207.254095 413.276586,208.845481 C412.25512,210.438988 411.106944,211.331889 409.83135,211.52277 L409.448388,211.52277 C408.362505,211.58569 407.486861,211.347442 406.816502,210.805904 C406.14685,210.264366 405.603909,209.626681 405.189801,208.894262 C404.774985,208.162549 404.488295,207.413163 404.328315,206.647516 C404.16975,205.88399 404.057906,205.309225 403.993489,204.928169 L403.993489,204.545699 C403.931196,204.035268 403.88306,203.574324 403.84979,203.160041 C403.817936,202.745757 403.802362,202.378841 403.802362,202.061412 L403.802362,201.009443 C403.802362,200.373171 403.817936,199.767299 403.84979,199.192534 C403.88306,198.619182 403.897926,198.079059 403.897926,197.569334 C404.026051,196.550593 404.13648,195.498624 404.232751,194.413427 C404.328315,193.331766 404.440867,192.215462 404.567577,191.069467 C404.631994,190.941505 404.727557,190.686997 404.854975,190.30382 C404.854975,190.2409 404.917976,190.129199 405.046102,189.970131 C405.17352,189.811063 405.396501,189.764403 405.716461,189.827323 C405.969881,189.890243 406.353551,189.970131 406.86393,190.064864 C407.374309,190.161012 407.917251,190.30382 408.491339,190.496115 C409.066135,190.686997 409.606245,190.910399 410.11804,191.165614 C410.628419,191.42083 411.041819,191.738259 411.361779,192.121436 C411.745449,192.63116 411.903305,193.171284 411.840304,193.744635 C411.712178,194.574616 411.60175,195.369249 411.506186,196.134895 C411.409915,196.899835 411.29807,197.632254 411.17136,198.33286 C411.041819,198.844705 410.963245,199.337462 410.93139,199.813959 C410.898828,200.293284 410.819546,200.786041 410.692836,201.295765 C410.692836,201.615315 410.659566,201.998492 410.596564,202.442468 C410.468439,203.271742 410.372875,204.353403 410.309874,205.691695 L410.309874,205.787842 L410.309874,206.265046 L410.309874,207.220867 C410.309874,207.922887 410.341021,208.448871 410.40473,208.798821 C410.468439,209.149477 410.563294,209.38914 410.692836,209.51498 C410.819546,209.707275 410.979526,209.770195 411.17136,209.707275 C411.616615,209.707275 412.09514,209.165737 412.606935,208.081955 C413.116606,206.998879 413.626277,205.724922 414.137365,204.259377 C414.647744,202.793124 415.10928,201.328992 415.524803,199.861326 C415.939619,198.397194 416.243298,197.280891 416.434425,196.517365 L416.434425,196.421218 L416.434425,196.32507 C416.496718,196.071975 416.641125,195.594771 416.864814,194.892045 C417.087795,194.191439 417.391475,193.47528 417.773728,192.741447 C418.156689,192.009028 418.667069,191.324682 419.305574,190.686997 C419.942663,190.050725 420.741148,189.635028 421.698197,189.444146 C422.463412,189.316892 423.100502,189.444146 423.611589,189.827323 C424.121968,190.146873 424.473075,190.57671 424.664909,191.116833 C424.856036,191.658371 424.967173,192.233137 424.999027,192.837595 C425.030882,193.443467 424.983454,194.032371 424.856036,194.605723 C424.727203,195.179074 424.600493,195.657692 424.473075,196.038748 C424.344949,196.421218 424.104979,197.314119 423.755288,198.71533 C423.403473,200.117955 423.148637,201.615315 422.990073,203.207408 C422.830093,204.800914 422.894509,206.28272 423.1812,207.652118 C423.468598,209.022223 424.186385,209.801302 425.333853,209.993598 C425.461979,209.993598 425.573823,210.009151 425.669387,210.040964 C425.765658,210.074192 425.875379,210.057932 426.004212,209.993598" id="Fill-13" fill="#137F8B"></path>
                        <path d="M433.181447,211.331959 C433.818536,211.650095 434.568886,211.728569 435.430372,211.569501 C436.29115,211.412554 436.78454,210.790422 436.914082,209.707346 C436.210452,209.643719 435.445237,209.563831 434.617021,209.467684 C433.786682,209.371536 432.958466,209.165101 432.128126,208.845551 C431.682872,208.719711 431.331057,208.784045 431.076221,209.037847 C430.821385,209.293062 430.948803,209.675532 431.459182,210.183843 C431.905853,210.695688 432.479941,211.076744 433.181447,211.331959 L433.181447,211.331959 Z M444.045941,204.803106 C444.747447,204.037459 445.285433,203.579344 445.871556,202.912672 C446.834976,201.818992 447.358097,201.01022 447.731148,200.492719 C448.926044,198.834878 449.191498,197.541833 449.459076,196.580356 L450.320562,196.580356 C450.12094,197.608288 450.021838,199.166447 448.428407,201.288059 C447.084856,203.076689 446.868246,203.349579 446.071177,204.272173 C445.272692,205.196887 443.931265,206.425599 442.847506,207.317086 C442.335711,209.357397 441.411931,210.821528 440.07192,211.713015 L439.975649,211.809163 L439.401561,212.095485 C438.890474,212.413621 438.349656,212.653283 437.77486,212.812351 C437.200772,212.970712 436.465996,213.051307 435.574071,213.051307 C434.105226,212.986973 432.974747,212.68439 432.176262,212.144266 C431.379192,211.601314 430.884386,211.204705 430.692552,210.94949 C429.991754,210.183843 429.800627,209.548278 430.119172,209.037847 C430.439132,208.527416 430.917657,208.209987 431.554746,208.082026 C432.511087,208.082026 433.420001,208.176759 434.282195,208.369055 C435.143682,208.559229 436.052595,208.592457 437.009645,208.464495 C437.072646,207.88973 437.088219,207.126204 437.057073,206.170383 C437.02451,205.215269 436.914082,204.1633 436.722247,203.016597 C436.53112,201.869187 436.258588,200.691378 435.908896,199.480341 C435.557082,198.270011 435.062276,197.155122 434.425187,196.134966 C434.297061,196.772652 434.153362,197.456997 433.994797,198.189416 C433.834817,198.92325 433.691118,199.543261 433.5637,200.053692 L432.798485,200.053692 C432.926611,199.225125 433.085176,198.270011 433.27701,197.186228 C433.468137,196.103152 433.595555,195.020077 433.659972,193.936294 C433.340011,192.788884 433.100041,191.785696 432.941477,190.926023 C432.78362,190.064935 432.702922,189.444217 432.702922,189.061747 C432.702922,188.105926 433.100041,187.118998 433.898526,186.098842 C434.695595,185.080101 435.860761,184.506749 437.392606,184.379495 C438.284531,184.316575 439.097882,184.459382 439.83195,184.809332 C440.565311,185.159988 441.091971,185.621639 441.411931,186.19499 C441.60235,186.51454 441.713487,186.863782 441.746049,187.246252 C441.777904,187.628722 441.760915,187.978671 441.698621,188.296807 C441.634205,188.616357 441.490506,188.887126 441.267524,189.109114 C441.043835,189.33393 440.741572,189.41311 440.35861,189.348776 C440.230485,189.348776 440.32534,189.157895 440.645301,188.775425 C440.963845,188.392955 440.932699,187.78779 440.550445,186.95993 C440.421612,186.641794 440.182349,186.433945 439.83195,186.337798 C439.481551,186.24165 439.210434,186.259324 439.0186,186.385164 C438.316386,186.767634 438.124551,187.437133 438.444511,188.392955 C438.507512,188.712505 438.828181,189.41311 439.401561,190.496186 C439.975649,191.579261 440.581592,192.917553 441.220097,194.509646 C441.857186,196.103152 442.383846,197.840174 442.79937,199.718589 C443.21277,201.598418 443.32603,203.527028 443.134196,205.501591 L444.045941,204.803106 Z" id="Fill-15" fill="#137F8B"></path>
                        <path d="M447.630488,211.331959 C448.267577,211.650095 449.017927,211.728569 449.879413,211.569501 C450.740191,211.412554 451.233581,210.790422 451.363123,209.707346 C450.659493,209.643719 449.894278,209.563831 449.066062,209.467684 C448.235723,209.371536 447.407507,209.165101 446.577167,208.845551 C446.131913,208.719711 445.780098,208.784045 445.525262,209.037847 C445.270426,209.293062 445.397844,209.675532 445.908224,210.183843 C446.354894,210.695688 446.928982,211.076744 447.630488,211.331959 M448.109013,193.936294 C447.789052,192.788884 447.549082,191.785696 447.390518,190.926023 C447.232661,190.064935 447.151963,189.444217 447.151963,189.061747 C447.151963,188.105926 447.549082,187.118998 448.347567,186.098842 C449.144637,185.080101 450.309802,184.506749 451.841647,184.379495 C452.733572,184.316575 453.546923,184.459382 454.280991,184.809332 C455.014352,185.159988 455.541012,185.621639 455.860972,186.19499 C456.051391,186.51454 456.162528,186.863782 456.19509,187.246252 C456.226945,187.628722 456.209956,187.978671 456.147663,188.296807 C456.083246,188.616357 455.939547,188.887126 455.716565,189.109114 C455.492876,189.33393 455.190613,189.41311 454.807652,189.348776 C454.679526,189.348776 454.774381,189.157895 455.094342,188.775425 C455.412886,188.392955 455.38174,187.78779 454.999486,186.95993 C454.870653,186.641794 454.63139,186.433945 454.280991,186.337798 C453.930592,186.24165 453.659475,186.259324 453.467641,186.385164 C452.765427,186.767634 452.573592,187.437133 452.893553,188.392955 C452.956554,188.712505 453.277222,189.41311 453.850602,190.496186 C454.42469,191.579261 455.030633,192.917553 455.669138,194.509646 C456.306227,196.103152 456.832887,197.840174 457.248411,199.718589 C457.661811,201.598418 457.775071,203.527028 457.583237,205.501591 L458.157325,204.928239 C458.858831,204.1633 459.480347,203.43088 460.023996,202.728861 C460.564814,202.029669 461.027766,201.423797 461.411435,200.913366 C461.856689,200.277094 462.272921,199.703743 462.655175,199.192605 L463.516661,199.192605 C463.133699,200.08692 462.655175,201.009513 462.081086,201.965335 C461.569291,202.793195 460.915921,203.670543 460.118852,204.593136 C459.320367,205.517144 458.380306,206.425599 457.296547,207.317086 C456.784752,209.357397 455.860972,210.821528 454.520961,211.713015 L454.42469,211.809163 L453.850602,212.095485 C453.338807,212.413621 452.798697,212.653283 452.223901,212.812351 C451.649813,212.970712 450.915037,213.051307 450.023112,213.051307 C448.554267,212.986973 447.423788,212.68439 446.625303,212.144266 C445.828233,211.601314 445.333428,211.204705 445.141593,210.94949 C444.440795,210.183843 444.249668,209.548278 444.568213,209.037847 C444.888173,208.527416 445.366698,208.209987 446.003787,208.082026 C446.960129,208.082026 447.869042,208.176759 448.731237,208.369055 C449.592723,208.559229 450.501637,208.592457 451.458686,208.464495 C451.521687,207.88973 451.53726,207.126204 451.506114,206.170383 C451.473552,205.215269 451.363123,204.1633 451.171288,203.016597 C450.980161,201.869187 450.707629,200.691378 450.357938,199.480341 C450.006123,198.270011 449.511317,197.155122 448.874228,196.134966" id="Fill-17" fill="#137F8B"></path>
                        <path d="M471.936148,207.316944 C472.637654,206.298203 473.228024,205.008692 473.706548,203.446999 C474.185073,201.88672 474.264355,200.276953 473.946519,198.619112 C472.860635,198.175136 472.302828,197.61663 472.270974,196.947131 C472.23912,196.277632 472.285839,195.752355 472.414673,195.369178 C471.840585,195.816689 471.393915,196.103011 471.07537,196.230972 C470.883535,196.358227 470.67542,196.485481 470.453146,196.613442 C470.228749,196.740697 469.95834,196.868658 469.639796,196.994498 C469.51167,197.123167 469.208699,197.441302 468.730174,197.95032 C468.251649,198.462165 467.756843,199.130957 467.247172,199.957403 C467.182755,200.086778 467.118338,200.181512 467.056045,200.244432 C466.991628,200.308766 466.927212,200.404914 466.86421,200.530754 C466.799794,200.66013 466.769355,200.75557 466.769355,200.817077 C466.769355,200.882118 466.736085,200.977558 466.673084,201.10552 C466.481249,201.423655 466.273841,201.837939 466.05086,202.347663 C465.827171,202.858094 465.587201,203.462552 465.333781,204.163158 C465.268656,204.482708 465.204239,204.76903 465.141946,205.022832 C465.077529,205.278047 465.01382,205.565784 464.950819,205.883919 L464.950819,206.170949 C464.821986,206.998809 464.758985,207.764455 464.758985,208.465061 C464.758985,209.165667 464.950819,209.740432 465.333781,210.184408 C465.716034,210.631212 466.161289,210.8532 466.673084,210.8532 C467.182755,210.8532 467.74127,210.710393 468.34792,210.423364 C468.953155,210.137041 469.575379,209.722758 470.213884,209.18122 C470.850973,208.639682 471.425061,208.018964 471.936148,207.316944 L471.936148,207.316944 Z M489.73642,197.376968 C488.842372,197.696518 487.918592,197.98284 486.961543,198.236642 C486.066786,198.428937 485.094871,198.619112 484.042259,198.811407 C482.989646,199.001582 481.920752,199.097729 480.836284,199.097729 C481.028119,199.861255 481.138548,200.691236 481.171818,201.582723 C481.202964,202.475625 481.090412,203.462552 480.836284,204.545628 C480.389614,206.521605 479.654838,208.209845 478.635495,209.611057 C478.188117,210.184408 477.662164,210.757053 477.056222,211.331818 C476.448863,211.905169 475.731784,212.382373 474.90286,212.764843 C474.073229,213.147313 473.116179,213.401115 472.03242,213.529783 C470.946536,213.65633 469.735359,213.592703 468.395348,213.338194 C467.056045,213.082979 465.842744,212.573962 464.758985,211.809022 C463.864936,211.108416 463.051586,210.105228 462.318225,208.79875 C461.586281,207.492979 461.218185,205.660517 461.218185,203.303485 C461.34631,201.136626 461.761126,199.130957 462.461924,197.28082 C463.099721,195.689435 464.104199,194.175815 465.476772,192.741376 C466.847929,191.309058 468.841311,190.336977 471.457623,189.827252 C471.968003,189.699291 472.44582,189.668184 472.893198,189.731105 C473.211742,189.795439 473.530287,189.921279 473.850247,190.113575 C474.168792,190.304456 474.328772,190.655112 474.328772,191.165544 C474.199938,191.5466 474.168792,191.832922 474.233209,192.025217 C474.233209,191.897963 474.359919,191.897963 474.61617,192.025217 C474.678463,192.089551 474.950996,192.248619 475.429521,192.502421 C475.908045,192.75905 476.448863,193.123846 477.056222,193.60105 C477.662164,194.079667 478.284388,194.686246 478.922893,195.417959 C479.559274,196.150378 480.071069,197.058832 480.453323,198.141908 C481.410372,198.141908 482.415557,198.078988 483.467462,197.95032 C484.520783,197.824479 485.492698,197.66329 486.386747,197.473116 C487.406797,197.219314 488.397117,196.962685 489.354167,196.707469 L489.73642,197.376968 Z" id="Fill-19" fill="#137F8B"></path>
                        <path d="M495.574139,186.194707 C495.382304,187.150528 495.206043,188.10635 495.047479,189.062171 C494.887498,190.017992 494.743799,190.942 494.61709,191.83278 C495.509722,190.49661 496.306792,188.966023 497.009713,187.246676 C497.711219,185.525208 498.268318,183.853228 498.683842,182.228614 C499.098658,180.603294 499.354202,179.122195 499.449765,177.783904 C499.545328,176.444906 499.497193,175.522312 499.306774,175.012587 C499.050522,174.439236 498.715697,174.694452 498.301589,175.777527 C497.886065,176.860603 497.488238,178.166374 497.105277,179.694839 C496.59419,181.480642 496.08381,183.646793 495.574139,186.194707 M495.095614,210.088119 C496.052664,210.026613 496.961578,209.420741 497.823064,208.272624 C498.683842,207.126628 499.465338,205.884485 500.167552,204.545487 C500.932767,202.954101 501.666127,201.168298 502.369049,199.192322 L503.134264,199.192322 C502.495759,201.67873 501.666127,203.909922 500.646077,205.884485 C499.752028,207.540205 498.636414,209.053824 497.296403,210.423222 C495.956393,211.793327 494.330399,212.414045 492.4163,212.287498 C491.585961,212.223164 490.900028,211.919167 490.357794,211.379044 C489.815561,210.83892 489.354025,210.233048 488.971064,209.563549 C488.587394,208.894756 488.284423,208.225257 488.06215,207.556465 C487.839168,206.886966 487.695469,206.360982 487.631053,205.978512 C487.503635,205.470201 487.425061,204.944217 487.39179,204.402679 C487.360644,203.861141 487.312508,203.303343 487.248091,202.728578 C487.18509,202.538403 487.152528,202.251374 487.152528,201.868904 L487.152528,201.009231 C487.090235,200.372959 487.056965,199.751534 487.056965,199.144955 L487.056965,197.472975 C487.056965,196.134683 487.1051,194.717919 487.200664,193.220559 C487.295519,191.7232 487.472488,190.146661 487.726616,188.48882 C488.619249,181.863112 489.894843,177.052898 491.554814,174.056766 C493.21337,171.062048 495.222324,169.691943 497.583801,169.947159 C498.603144,170.074413 499.417203,170.822386 500.023853,172.19249 C500.629088,173.564009 500.869058,175.363244 500.742348,177.593022 C500.613515,179.824215 500.055708,182.324762 499.066804,185.095371 C498.077192,187.866687 496.531189,190.686785 494.425963,193.554248 C494.297129,194.382109 494.200858,195.194415 494.138565,195.991169 C494.074148,196.787922 493.978585,197.569122 493.851875,198.332648 C493.851875,198.844493 493.834886,199.33725 493.803739,199.814454 C493.770469,200.293072 493.722333,200.785829 493.66004,201.29626 C493.595623,201.805984 493.548195,202.298741 493.517049,202.777359 C493.483779,203.254562 493.468913,203.717627 493.468913,204.163017 L493.468913,204.64022 L493.468913,204.928664 C493.403789,206.329875 493.483779,207.540205 493.708176,208.558946 C493.930449,209.579809 494.392693,210.088119 495.095614,210.088119" id="Fill-21" fill="#137F8B"></path>
                        <g id="Group-25" transform="translate(500.197212, 189.157541)">
                            <mask id="mask-2" fill="white">
                                <use xlink:href="#path-1"></use>
                            </mask>
                            <g id="Clip-24"></g>
                            <path d="M13.4638889,2.38898772 C13.0158028,2.26314734 12.5379859,2.48513543 12.0283146,3.05848683 C11.5165196,3.63113125 11.0231294,4.41374531 10.5446047,5.3992593 C10.0667878,6.38830813 9.6194096,7.51875066 9.20459375,8.79270777 C8.78907003,10.0680788 8.45424427,11.3731425 8.20011647,12.7114338 C9.15645812,12.3289639 9.98538194,11.78884 10.6883037,11.0868203 C11.1986829,10.5778031 11.6602186,10.0525255 12.0757423,9.51028073 C12.4905582,8.96874291 12.825384,8.47457197 13.0809275,8.02918186 C13.2076375,7.77396626 13.3201899,7.56753148 13.4157533,7.40704964 C13.5113166,7.24939568 13.5905988,7.10658806 13.6543078,6.97721284 C14.037977,6.02139152 14.2609582,5.0655702 14.3246672,4.10974888 C14.3876682,3.15392756 14.1009781,2.58128313 13.4638889,2.38898772 M18.0573019,19.2113015 C18.7588079,18.4456547 19.3803238,17.5393212 19.9232653,16.4873522 C20.4647911,15.4353831 20.9277426,14.4321949 21.3114119,13.4770806 C21.7566664,12.3289639 22.1721902,11.182968 22.5551516,10.0348513 L23.4166377,10.0348513 C23.0336763,11.6283581 22.5218813,13.1589448 21.8847922,14.6230764 C21.3737051,15.8984475 20.7040535,17.2035112 19.8758376,18.5418024 C19.045498,19.8800937 18.0573019,20.9638763 16.9084177,21.7917363 C15.8232425,22.6181824 14.7076286,23.1441669 13.5594523,23.3682759 C12.4105681,23.5916779 11.2935384,23.7033789 10.2097789,23.7033789 C8.99647795,23.7033789 7.78459275,23.5428971 6.57341542,23.2247613 C5.61636589,22.9695457 4.70674411,22.5870758 3.84596583,22.0787655 C2.98447968,21.5683343 2.26669253,20.8691425 1.69260439,19.9748274 C1.11851625,19.0833402 0.735554857,17.969158 0.544428102,16.6308668 C0.35259347,15.2918686 0.448864724,13.7004826 0.831118235,11.8517602 C1.53403997,8.47457197 2.60151829,6.00725215 4.03709259,4.44343798 C5.47266688,2.88315865 6.92310659,1.81563632 8.39124323,1.2429919 C10.0497987,0.54238618 11.8683344,0.351504704 13.8461424,0.669640498 C14.4832316,0.859815006 15.0580276,1.14684419 15.5684068,1.52931411 C15.9513682,1.91178403 16.2869019,2.43776854 16.573592,3.10726765 C16.8602821,3.77605978 16.9402722,4.7163278 16.8135622,5.92524381 L16.8135622,6.02139152 C16.7484376,6.212273 16.7003019,6.48445584 16.6698632,6.83369825 C16.636593,7.18506156 16.5573108,7.51875066 16.429893,7.83688645 L16.1432028,8.697974 C16.0787861,9.01752373 15.9188059,9.43039329 15.6646781,9.94011753 C15.1528831,10.8959389 14.4209384,11.6926923 13.4638889,12.3289639 C12.4424226,13.0309835 11.4209562,13.5096011 10.4016135,13.7634028 C9.38014722,14.0186184 8.54980764,14.1791002 7.91271846,14.2406065 C7.91271846,14.6874105 7.87944825,15.0055463 7.81715508,15.1964278 C7.68902937,16.6633873 7.80087391,17.8256434 8.15268872,18.685317 C8.50237989,19.5449906 9.02833241,20.2003504 9.73125414,20.6443265 L9.82681752,20.6443265 C9.95423536,20.7729948 10.0816532,20.8691425 10.2097789,20.9306488 C11.612083,21.6326684 12.8728117,21.8391032 13.9898414,21.552781 C15.1047475,21.2657518 16.0150771,20.8691425 16.717291,20.3572974 L16.8135622,20.3572974 C17.5143603,19.8489871 17.9284683,19.4665171 18.0573019,19.2113015" id="Fill-23" fill="#137F8B" mask="url(#mask-2)"></path>
                        </g>
                        <path d="M346.361481,235.907667 C346.268041,236.325485 346.186636,236.756029 346.117264,237.197177 C346.047184,237.639739 345.96507,238.068869 345.873046,238.486688 C346.571013,237.605098 347.15218,236.628775 347.617963,235.559838 C348.08233,234.490902 348.455381,233.445296 348.734284,232.422312 C349.013896,231.400036 349.176,230.470373 349.222719,229.634029 C349.268731,228.796978 349.222719,228.169897 349.083268,227.752079 C348.897096,227.333554 348.652879,227.520193 348.350615,228.309877 C348.046936,229.100268 347.757414,230.051847 347.477803,231.167443 C347.104752,232.469679 346.733116,234.049754 346.361481,235.907667 M340.149154,246.712972 C340.055714,245.225511 340.045096,243.91267 340.114468,242.773744 C340.184548,241.635525 340.219234,241.020462 340.219234,240.927143 C339.287668,241.624213 338.450249,242.599123 337.706271,243.854699 C336.961584,245.109568 336.380417,246.36373 335.961354,247.618599 C335.542291,248.874175 335.321433,249.989064 335.298074,250.965387 C335.274714,251.940297 335.518223,252.452142 336.031434,252.498095 C336.495801,252.592122 336.938224,252.44083 337.357287,252.044928 C337.77635,251.65044 338.16002,251.138595 338.509003,250.511514 C338.857986,249.884433 339.172284,249.222003 339.451187,248.524932 C339.730091,247.827861 339.962274,247.224817 340.149154,246.712972 M345.942418,253.334439 C346.640385,253.289193 347.303665,252.847337 347.931552,252.010287 C348.560147,251.173943 349.12928,250.268316 349.641783,249.291993 C350.200297,248.131151 350.734037,246.828915 351.247247,245.387406 L351.805762,245.387406 C351.386699,247.20078 350.804824,248.804185 350.060846,250.198327 C349.408891,251.407243 348.594833,252.510113 347.617963,253.50906 C346.640385,254.508006 345.476635,254.983089 344.12813,254.93855 L343.98797,254.93855 C343.243284,254.844523 342.638049,254.484676 342.173682,253.858302 C341.707899,253.229807 341.336263,252.532736 341.056652,251.76709 C340.777041,250.999322 340.578835,250.268316 340.463451,249.571246 C340.346651,248.874175 340.265246,248.410403 340.219234,248.177104 C340.172514,248.410403 340.079074,248.710865 339.94033,249.08273 C339.80017,249.455303 339.636651,249.825754 339.451187,250.198327 C339.264308,250.570192 339.102204,250.906709 338.962752,251.208584 C338.8233,251.511874 338.729153,251.685081 338.683141,251.731034 C338.217358,252.522132 337.752283,253.102553 337.287208,253.474418 C336.821425,253.846284 336.380417,254.101499 335.961354,254.241479 C335.448851,254.426705 334.984484,254.496695 334.565421,254.450742 C333.588551,254.450742 332.750425,254.287432 332.052458,253.962227 C331.401919,253.683681 330.855438,253.195166 330.412307,252.498095 C329.970592,251.801024 329.843174,250.756125 330.028638,249.360569 C330.16809,248.339707 330.494421,247.235422 331.005508,246.049836 C331.518719,244.864957 332.192618,243.750068 333.030036,242.703754 C333.867454,241.658855 334.85565,240.752521 335.99604,239.985461 C337.13643,239.2184 338.404237,238.743317 339.80017,238.556677 C339.892902,238.556677 339.997668,238.545366 340.114468,238.521329 C340.229852,238.498706 340.358685,238.486688 340.498137,238.486688 C340.543441,238.348122 340.568217,238.197537 340.568217,238.033521 C340.568217,237.871625 340.590869,237.719627 340.638297,237.581061 C341.288835,232.748225 342.218986,229.240247 343.430163,227.055008 C344.639217,224.870476 346.10523,223.871529 347.826786,224.057462 C348.617485,224.150782 349.258113,224.649901 349.746548,225.556235 C350.234983,226.462568 350.455841,227.647448 350.409829,229.111579 C350.363109,230.574297 349.978732,232.237794 349.258113,234.095707 C348.536079,235.955034 347.361003,237.836984 345.732886,239.742264 C345.639447,240.393381 345.558749,241.031774 345.488669,241.658855 C345.419297,242.285936 345.337183,242.925742 345.244451,243.575446 C345.05828,245.574753 344.91812,247.36409 344.826096,248.942751 L344.826096,249.360569 C344.731949,250.384259 344.766635,251.302611 344.930154,252.114918 C345.092966,252.928639 345.429915,253.334439 345.942418,253.334439" id="Fill-26" fill="#137F8B"></path>
                        <path d="M359.482474,239.810981 C359.156143,239.719075 358.808576,239.880971 358.436232,240.298789 C358.063889,240.717314 357.702164,241.287838 357.353181,242.006825 C357.005613,242.727933 356.679282,243.552258 356.377727,244.481214 C356.074047,245.411585 355.828414,246.363871 355.644366,247.339488 C356.340917,247.060942 356.946152,246.666454 357.458654,246.154609 C357.830998,245.78345 358.167239,245.400273 358.470918,245.005078 C358.771766,244.609883 359.018107,244.249329 359.204279,243.924123 C359.296303,243.73819 359.379124,243.588313 359.447789,243.470956 C359.51716,243.355721 359.574498,243.251796 359.622634,243.157062 C359.90083,242.459992 360.064349,241.762921 360.110361,241.06585 C360.156373,240.368779 359.946842,239.950961 359.482474,239.810981 M362.832856,252.080418 C363.343943,251.521913 363.799108,250.860897 364.194811,250.093837 C364.589806,249.326776 364.928171,248.595064 365.206367,247.897993 C365.530574,247.060942 365.834254,246.224598 366.112449,245.387548 L366.74246,245.387548 C366.46214,246.549804 366.089797,247.666107 365.624722,248.733629 C365.252379,249.664 364.762528,250.616286 364.160125,251.591903 C363.552766,252.568226 362.832856,253.358617 361.996145,253.962368 C361.202615,254.565412 360.39068,254.948589 359.55397,255.111899 C358.714428,255.275208 357.90037,255.35651 357.108963,255.35651 C356.226241,255.35651 355.340687,255.239153 354.457964,255.007267 C353.758582,254.821335 353.096009,254.542082 352.468123,254.171631 C351.840236,253.799058 351.316407,253.289334 350.897344,252.637509 C350.478989,251.987098 350.199377,251.174084 350.059925,250.197761 C349.920474,249.222145 349.990553,248.060595 350.269457,246.712407 C350.78196,244.249329 351.560624,242.450094 352.607574,241.309754 C353.655232,240.171535 354.7128,239.393162 355.784526,238.974637 C356.992164,238.464206 358.318725,238.324933 359.762794,238.556819 C360.227869,238.696092 360.646224,238.904647 361.018567,239.1839 C361.296763,239.463152 361.543104,239.846329 361.751928,240.334844 C361.961459,240.822653 362.018797,241.508412 361.92465,242.390002 L361.92465,242.459992 C361.878638,242.599264 361.843952,242.797922 361.8213,243.053138 C361.795816,243.309061 361.738478,243.552258 361.646454,243.784143 L361.436923,244.412638 C361.390911,244.645938 361.274111,244.9464 361.087939,245.318265 C360.714888,246.015336 360.181857,246.596464 359.482474,247.060942 C358.73708,247.572787 357.992394,247.92203 357.249123,248.106548 C356.504436,248.293188 355.899202,248.409838 355.434835,248.455084 C355.434835,248.780996 355.409351,249.012882 355.364047,249.152155 C355.272023,250.222505 355.352013,251.069453 355.60968,251.696534 C355.865224,252.323615 356.248893,252.801526 356.759272,253.125317 L356.830768,253.125317 C356.922792,253.219344 357.014816,253.289334 357.108963,253.33458 C358.132553,253.846425 359.052085,253.997009 359.866852,253.787747 C360.68091,253.579191 361.342775,253.289334 361.855986,252.916055 L361.92465,252.916055 C362.43786,252.545603 362.738708,252.266351 362.832856,252.080418" id="Fill-28" fill="#137F8B"></path>
                        <path d="M365.231001,253.891035 C365.911979,254.011219 365.742088,254.055758 366.252467,254.241691 C366.717542,254.473577 367.265439,254.530841 367.893326,254.414898 C368.521213,254.30037 368.881522,253.846496 368.97567,253.056105 L369.044334,252.150479 C369.090346,251.731246 369.103087,251.174155 369.080435,250.477084 C369.056368,249.780013 368.97567,249.012953 368.83551,248.176609 C368.696058,247.339558 368.497145,246.480592 368.242309,245.597588 C367.986766,244.714585 367.625748,243.901571 367.161381,243.157133 C367.066526,243.622318 366.962468,244.122145 366.846376,244.655906 C366.730284,245.191081 366.625518,245.643541 366.532079,246.015406 L365.974272,246.015406 C366.067711,245.411655 366.183803,244.714585 366.323255,243.924194 C366.463415,243.13451 366.555439,242.344119 366.602158,241.554436 C366.368559,240.716678 366.194421,239.985673 366.079037,239.358592 C365.962946,238.730097 365.904192,238.277637 365.904192,237.999091 C365.904192,237.302021 366.194421,236.58162 366.777004,235.837889 C367.357463,235.094865 368.207623,234.67634 369.323945,234.583727 C369.9759,234.537774 370.568393,234.642405 371.104255,234.896914 C371.638702,235.152837 372.02308,235.489354 372.255971,235.907879 C372.395423,236.140471 372.476121,236.395687 372.500189,236.67494 C372.522841,236.953485 372.511515,237.208701 372.465503,237.440586 C372.418075,237.673886 372.313309,237.87113 372.151205,238.033026 C371.986978,238.19775 371.767536,238.255014 371.487925,238.207647 C371.393777,238.207647 371.463857,238.069081 371.697456,237.789829 C371.92964,237.510576 371.90628,237.069428 371.627376,236.465677 C371.533937,236.233791 371.359091,236.0825 371.104255,236.011803 C370.847296,235.941813 370.651214,235.954539 370.510347,236.046445 C369.997844,236.325697 369.858392,236.813505 370.091991,237.510576 C370.138003,237.743876 370.371603,238.255014 370.789958,239.044698 C371.208313,239.835088 371.650028,240.811412 372.115811,241.972254 C372.580179,243.13451 372.964556,244.400691 373.268235,245.770795 C373.570498,247.142314 373.651904,248.549181 373.511745,249.989276 L373.302213,251.313428 C372.92987,252.801596 372.255971,253.869119 371.279101,254.51953 L371.208313,254.58952 L370.789958,254.798075 C370.417615,255.030668 370.021912,255.205289 369.603556,255.321232 C369.185201,255.437175 368.649338,255.495146 367.998092,255.495146 C366.927782,255.448486 366.103105,255.227912 365.520523,254.834131 C364.939356,254.437521 364.578338,254.148371 364.438179,253.962439" id="Fill-30" fill="#137F8B"></path>
                        <path d="M408.980057,247.19159 L409.124464,248.295168 C406.707064,249.005671 396.660876,256.225939 391.682378,260.196274 C389.931798,261.592537 388.949265,263.026976 388.949265,263.026976 C388.351109,263.743842 388.004249,264.472019 387.908686,265.214336 C387.812415,265.954532 387.836483,266.540609 387.979474,266.971153 C388.123881,267.258182 388.266872,267.4731 388.411279,267.615908 C388.506842,267.760129 388.661867,267.926974 388.877769,268.118562 C389.092964,268.309444 389.369744,268.452958 389.703154,268.549813 L389.775357,268.549813 L389.918348,268.62051 C390.015328,268.62051 390.062755,268.64384 390.062755,268.692621 L390.133543,268.692621 C390.612776,268.788061 391.139436,268.835428 391.714232,268.835428 C392.193465,268.739988 392.52829,268.64384 392.720125,268.549813 C392.960095,268.452958 393.139188,268.370243 393.258112,268.298132 C393.377743,268.226022 393.48534,268.141892 393.581611,268.047159 L393.724602,267.902937 C394.491233,267.186071 395.078063,266.098047 395.485092,264.639571 C395.892121,263.180388 396.191553,261.61516 396.381972,259.941766 L396.526379,258.866467 C396.621942,257.719057 396.70618,256.416114 396.776967,254.957638 C396.849171,253.499869 396.933408,252.124816 397.028972,250.833184 C397.124535,249.304012 397.196738,247.749388 397.244166,246.171434 C397.244166,245.788964 397.2562,245.417806 397.27956,245.06008 C397.304336,244.70094 397.340437,238.436493 397.387157,238.102097 C397.436001,237.337864 398.351286,228.712142 398.423489,227.898421 C398.495693,227.086822 398.60329,226.249064 398.746989,225.388683 C398.746989,225.292536 398.795124,225.101654 398.890688,224.814625 C398.938116,224.767258 399.010319,224.683129 399.10659,224.563651 C399.200738,224.444174 399.369213,224.408825 399.609183,224.456192 C399.895165,224.503559 400.302194,224.588395 400.83027,224.707166 C401.355515,224.827351 400.709931,224.627278 401.238008,224.842197 C401.76396,225.057115 402.206383,225.344144 402.566692,225.702577 C402.924878,226.061717 403.079903,226.50428 403.033891,227.02885 C402.936912,227.651689 402.840641,228.248371 402.746493,228.823136 C402.649514,229.397194 402.156832,236.764512 402.06056,237.290497 C401.963581,237.674381 402.095954,244.954035 402.072594,245.311761 C402.047819,245.670901 402.012425,246.040645 401.964997,246.423822 C401.868726,246.806292 401.90412,247.209971 401.880052,247.569111 C401.855276,247.927544 401.819882,248.274665 401.772455,248.609062 L401.772455,248.967495 C401.772455,249.015568 401.760421,249.052331 401.737061,249.075661 C401.712285,249.099698 401.701667,249.13646 401.701667,249.18312 L401.701667,249.613664 L401.628756,250.406882 C401.579912,251.171115 401.604688,252.351752 401.772455,252.854407 L401.768207,255.065097 C401.625216,256.212507 401.410022,257.456065 401.122624,258.794356 L400.907429,260.013876 C400.379353,262.022374 399.69696,263.887356 398.860249,265.608824 C398.022831,267.330293 396.884565,268.549813 395.448283,269.266679 C395.353427,269.361413 394.970466,269.540983 394.299398,269.804682 C393.629747,270.066967 392.744901,270.174427 391.642029,270.12706 C391.068648,270.078279 390.566056,269.994857 390.133543,269.876793 C389.703154,269.755901 389.3209,269.600368 388.985367,269.409487 C388.603113,269.169824 388.256254,268.882795 387.94408,268.549813 C387.632614,268.214003 387.405386,267.784166 387.260979,267.258182 C386.974996,266.397094 386.938187,265.524695 387.153381,264.639571 C387.369284,263.754446 387.949035,263.041115 388.518876,262.201237 C390.641091,259.07078 408.980057,247.19159 408.980057,247.19159" id="Fill-32" fill="#137F8B"></path>
                        <path d="M417.567524,239.500551 C417.231282,239.405817 416.873096,239.572662 416.489427,240.002499 C416.106466,240.433042 415.736246,241.019826 415.376645,241.760022 C415.017751,242.501632 414.682217,243.349994 414.372167,244.305815 C414.059994,245.263051 413.807989,246.242909 413.616863,247.246804 C414.335358,246.959775 414.957582,246.554682 415.484242,246.027284 C415.867203,245.646228 416.214063,245.251032 416.526237,244.844525 C416.836287,244.438019 417.088291,244.067567 417.280126,243.733171 C417.375689,243.541583 417.459926,243.386756 417.530714,243.266572 C417.602917,243.147801 417.662379,243.040342 417.710515,242.943487 C417.997913,242.226621 418.164972,241.509048 418.213815,240.792182 C418.260535,240.074609 418.04534,239.644773 417.567524,239.500551 M421.014176,252.124179 C421.540129,251.550121 422.007327,250.870017 422.414356,250.080334 C422.821386,249.291357 423.169661,248.538435 423.455643,247.821569 C423.790469,246.959775 424.102643,246.099394 424.389333,245.238307 L425.036332,245.238307 C424.748934,246.43379 424.365265,247.582614 423.887448,248.681243 C423.503071,249.638478 423.000479,250.618337 422.378963,251.622232 C421.756031,252.626834 421.014176,253.439848 420.15269,254.061273 C419.337216,254.681284 418.501213,255.075772 417.639727,255.244031 C416.777533,255.411583 415.939407,255.495712 415.125348,255.495712 C414.215727,255.495712 413.306105,255.37482 412.396483,255.136572 C411.677988,254.944983 410.996303,254.657954 410.349303,254.276191 C409.703719,253.893014 409.165025,253.368444 408.73322,252.697531 C408.302831,252.028739 408.015433,251.192395 407.871734,250.187793 C407.728743,249.183898 407.800238,247.989121 408.087636,246.602049 C408.615005,244.067567 409.416321,242.216017 410.49371,241.042449 C411.570391,239.871709 412.659105,239.070714 413.76127,238.64017 C415.005009,238.114893 416.370504,237.971378 417.854922,238.210334 C418.332738,238.353141 418.763835,238.56806 419.146797,238.855089 C419.434195,239.142825 419.686199,239.537313 419.902101,240.039261 C420.117296,240.541209 420.17605,241.246763 420.080486,242.15451 L420.080486,242.226621 C420.033059,242.369429 419.996249,242.573743 419.972889,242.836028 C419.948113,243.099727 419.888652,243.349994 419.793796,243.588949 L419.577894,244.235119 C419.530466,244.474781 419.409419,244.784433 419.219,245.16761 C418.836039,245.884476 418.285311,246.482571 417.567524,246.959775 C416.800893,247.487173 416.034262,247.846313 415.269047,248.036488 C414.503125,248.227369 413.879485,248.348261 413.401668,248.394214 C413.401668,248.730024 413.376892,248.968272 413.329465,249.111787 C413.233901,250.212537 413.318139,251.084936 413.581469,251.729691 C413.844091,252.375153 414.239794,252.866496 414.765747,253.199478 L414.83795,253.199478 C414.934222,253.296333 415.028369,253.368444 415.125348,253.415104 C416.178669,253.941795 417.123685,254.096621 417.962519,253.881703 C418.799229,253.666784 419.481623,253.368444 420.009699,252.98456 L420.080486,252.98456 C420.607147,252.602797 420.917905,252.315768 421.014176,252.124179" id="Fill-34" fill="#137F8B"></path>
                        <path d="M440.260499,253.343841 C440.978286,253.2484 441.647937,252.769783 442.271577,251.909402 C442.893093,251.048315 443.444529,250.115823 443.923054,249.111221 C444.449714,247.963811 444.976374,246.673594 445.503035,245.238448 L446.077831,245.238448 C445.598598,247.104138 444.976374,248.778239 444.21116,250.260045 C443.874918,250.88147 443.503283,251.490877 443.097669,252.087558 C442.69064,252.687068 442.234767,253.212345 441.732175,253.666219 C441.23029,254.121507 440.666112,254.480646 440.045304,254.741518 C439.42308,255.003803 438.752013,255.111262 438.034226,255.065309 C437.6994,255.017236 437.399968,254.980473 437.137346,254.95785 C436.873308,254.933106 436.621304,254.873014 436.382041,254.77828 L436.309838,254.77828 L436.23905,254.77828 L436.166847,254.77828 C436.166847,254.729499 436.142071,254.706169 436.094643,254.706169 C436.047216,254.706169 436.011114,254.694151 435.987046,254.670821 C435.96227,254.646077 435.926877,254.634059 435.879449,254.634059 C434.682429,254.109488 433.869078,253.261126 433.437274,252.087558 C433.006884,250.916819 432.742846,249.71073 432.648699,248.466466 C432.120623,249.948979 431.475039,251.287977 430.709116,252.482754 C429.942485,253.678237 429.081707,254.348443 428.123242,254.491251 L427.836552,254.491251 C427.021785,254.538618 426.364168,254.359755 425.860867,253.953248 C425.358275,253.546741 424.951246,253.068831 424.63978,252.518809 C424.330438,251.969495 424.114535,251.407455 423.994196,250.832689 C423.875981,250.260045 423.790328,249.828794 423.743608,249.542472 L423.743608,249.255443 C423.69618,248.872973 423.65937,248.526558 423.635303,248.215492 C423.611943,247.905133 423.599201,247.629415 423.599201,247.391167 L423.599201,246.601483 C423.599201,246.12428 423.611943,245.669699 423.635303,245.238448 C423.65937,244.807904 423.671404,244.402811 423.671404,244.020342 C423.768383,243.255402 423.851205,242.466425 423.921993,241.651997 C423.994196,240.840398 424.078433,240.00264 424.173997,239.142259 C424.222132,239.046819 424.293628,238.85523 424.389191,238.568201 C424.389191,238.520834 424.436619,238.437412 424.532183,238.317934 C424.628454,238.198457 424.794805,238.163108 425.035483,238.210475 C425.22661,238.257135 425.5133,238.317934 425.897677,238.388631 C426.279931,238.460742 426.68696,238.568201 427.118765,238.712423 C427.549154,238.85523 427.955475,239.022782 428.339852,239.21437 C428.722106,239.405959 429.032864,239.644914 429.272834,239.931943 C429.560232,240.314413 429.679155,240.720213 429.631727,241.15005 C429.535456,241.772889 429.451927,242.36957 429.380431,242.943629 C429.308936,243.517687 429.224698,244.067001 429.128427,244.592986 C429.032864,244.97687 428.972694,245.346614 428.950042,245.705047 C428.925266,246.064187 428.865097,246.433932 428.770241,246.817109 C428.770241,247.056771 428.745466,247.3438 428.698038,247.676782 C428.602475,248.299621 428.530271,249.111221 428.482843,250.115823 L428.482843,250.187934 L428.482843,250.54566 L428.482843,251.263233 C428.482843,251.789925 428.506203,252.184413 428.555047,252.446698 C428.602475,252.710398 428.673262,252.889968 428.770241,252.984701 C428.865097,253.128923 428.985436,253.17629 429.128427,253.128923 C429.463253,253.128923 429.822146,252.722416 430.206524,251.909402 C430.588777,251.096389 430.971738,250.140567 431.355408,249.040524 C431.737661,247.940482 432.085229,246.841853 432.396695,245.740396 C432.707453,244.641767 432.936097,243.804009 433.079088,243.230658 L433.079088,243.158547 L433.079088,243.086436 C433.126516,242.896262 433.234113,242.538536 433.40188,242.011137 C433.568939,241.48586 433.797583,240.947857 434.084981,240.397128 C434.372379,239.847814 434.754632,239.333848 435.233865,238.85523 C435.711682,238.378027 436.309838,238.066253 437.029749,237.922739 C437.603129,237.827298 438.080946,237.922739 438.466031,238.210475 C438.847576,238.450137 439.111615,238.772515 439.254606,239.177608 C439.399013,239.584115 439.481834,240.015365 439.50661,240.469239 C439.530678,240.924527 439.493868,241.366382 439.399013,241.796219 C439.302033,242.226056 439.20647,242.585903 439.111615,242.871518 C439.014635,243.158547 438.83625,243.828753 438.573628,244.880015 C438.30959,245.932691 438.117755,247.056771 437.998124,248.251548 C437.877785,249.447031 437.925921,250.559093 438.141823,251.587025 C438.357018,252.614957 438.89642,253.19962 439.757906,253.343841 C439.85347,253.343841 439.937707,253.35586 440.00991,253.37919 C440.080698,253.403934 440.164935,253.392622 440.260499,253.343841" id="Fill-36" fill="#137F8B"></path>
                        <path d="M461.517121,253.343841 C462.236324,253.2484 462.905975,252.769783 463.528199,251.909402 C464.150423,251.048315 464.701151,250.115823 465.179676,249.111221 C465.706336,247.963811 466.232997,246.673594 466.760365,245.238448 L467.334453,245.238448 C466.85522,247.104138 466.232997,248.778239 465.467782,250.260045 C465.132956,250.88147 464.761321,251.490877 464.354291,252.087558 C463.947262,252.687068 463.492805,253.212345 462.990213,253.666219 C462.486912,254.121507 461.92415,254.480646 461.301926,254.741518 C460.679703,255.003803 460.010051,255.111262 459.291556,255.065309 C458.956022,255.017236 458.656591,254.980473 458.393968,254.95785 C458.12993,254.933106 457.879342,254.873014 457.640079,254.77828 L457.567876,254.77828 L457.495672,254.77828 L457.423469,254.77828 L457.352681,254.706169 C457.303838,254.706169 457.268444,254.694151 457.245084,254.670821 C457.220308,254.646077 457.184914,254.634059 457.137487,254.634059 C456.418992,254.348443 455.832162,253.906588 455.376997,253.307079 C454.921124,252.710398 454.587714,252.05221 454.37252,251.335344 C454.157325,250.617771 454.024244,249.865557 453.977524,249.075873 C453.928681,248.286896 453.905321,247.558719 453.905321,246.889219 C453.952749,246.650264 453.977524,246.411309 453.977524,246.171647 C453.977524,245.932691 454.000884,245.694443 454.049728,245.454781 C454.09574,244.880015 454.167943,244.378068 454.264922,243.948231 C454.310934,243.613835 454.347744,243.338117 454.37252,243.123199 C454.39588,242.90828 454.407914,242.72871 454.407914,242.585903 L454.407914,242.513792 L454.407914,242.36957 C454.407914,242.274837 454.39588,242.215451 454.37252,242.190707 C454.347744,242.167377 454.33571,242.130615 454.33571,242.083248 L454.33571,242.011137 C454.240147,242.011137 454.143875,242.035881 454.049728,242.083248 C453.952749,242.130615 453.856477,242.179396 453.761622,242.226056 L453.761622,242.298166 C453.283097,242.585903 452.624064,243.302769 451.785938,244.450178 C450.948519,245.597588 450.266126,247.391167 449.739466,249.828794 L449.739466,250.617771 C449.739466,250.9048 449.715398,251.21728 449.668678,251.550262 L449.668678,252.769783 C449.668678,253.19962 449.571699,253.60754 449.380572,253.989303 C449.189445,254.371773 448.950183,254.729499 448.662785,255.065309 C448.422815,255.304265 448.183552,255.506458 447.944998,255.675423 C447.70432,255.841561 447.489125,255.973057 447.298706,256.068498 C447.106164,256.163938 446.927071,256.115864 446.759304,255.92569 C446.591537,255.734102 446.459872,255.519183 446.364309,255.280228 C446.172474,255.040565 446.029483,254.729499 445.933212,254.348443 C445.885076,254.156855 445.81358,253.893156 445.718017,253.55876 C445.622454,253.320511 445.538216,252.997427 445.467429,252.590213 C445.395225,252.184413 445.312404,251.717814 445.215424,251.192536 C445.120569,250.617771 445.060399,250.056438 445.035624,249.506417 C445.012972,248.956395 444.976162,248.466466 444.928026,248.035922 C444.881307,247.510645 444.856531,247.032027 444.856531,246.601483 C444.856531,246.12428 444.868565,245.669699 444.891925,245.238448 C444.917408,244.807904 444.928026,244.402811 444.928026,244.020342 C444.976162,243.255402 445.048366,242.466425 445.143221,241.651997 C445.2402,240.840398 445.335764,240.00264 445.430619,239.142259 C445.478755,239.046819 445.502822,238.952085 445.502822,238.85523 C445.502822,238.759789 445.55025,238.665056 445.645814,238.568201 C445.645814,238.520834 445.693241,238.437412 445.79022,238.317934 C445.885076,238.198457 446.052843,238.163108 446.292813,238.210475 C446.580211,238.257135 446.986532,238.342678 447.513901,238.460742 C448.039145,238.580926 448.565806,238.747771 449.093174,238.962689 C449.619834,239.177608 450.063673,239.465344 450.421859,239.82307 C450.78146,240.18221 450.935777,240.625479 450.889058,241.15005 C450.792078,241.724108 450.709257,242.286855 450.637053,242.836169 C450.565558,243.386898 450.481321,243.924194 450.386465,244.450178 C450.960553,243.445576 451.690374,242.466425 452.576636,241.50919 C453.461482,240.553368 454.527545,239.669658 455.771992,238.85523 C456.155662,238.616982 456.75311,238.353283 457.567876,238.066253 C458.381934,237.779224 459.099721,237.827298 459.722653,238.210475 C460.104199,238.450137 460.368237,238.772515 460.512644,239.177608 C460.655635,239.584115 460.738456,240.015365 460.763232,240.469239 C460.7873,240.924527 460.751906,241.366382 460.655635,241.796219 C460.560071,242.226056 460.464508,242.585903 460.368237,242.871518 C460.272673,243.158547 460.092873,243.828753 459.83025,244.880015 C459.566212,245.932691 459.374378,247.056771 459.254746,248.251548 C459.135823,249.447031 459.183959,250.559093 459.399153,251.587025 C459.614348,252.614957 460.153042,253.19962 461.015236,253.343841 C461.110092,253.343841 461.194329,253.35586 461.266533,253.37919 C461.338736,253.403934 461.421558,253.392622 461.517121,253.343841" id="Fill-38" fill="#137F8B"></path>
                        <path d="M475.233934,239.500551 C474.897693,239.405817 474.539507,239.572662 474.155838,240.002499 C473.772876,240.433042 473.402657,241.019826 473.043055,241.760022 C472.684162,242.501632 472.348628,243.349994 472.038578,244.305815 C471.726404,245.263051 471.4744,246.242909 471.283273,247.246804 C472.001768,246.959775 472.623992,246.554682 473.150653,246.027284 C473.533614,245.646228 473.880474,245.251032 474.192647,244.844525 C474.502697,244.438019 474.754702,244.067567 474.946536,243.733171 C475.0421,243.541583 475.126337,243.386756 475.197125,243.266572 C475.269328,243.147801 475.32879,243.040342 475.376925,242.943487 C475.664323,242.226621 475.831382,241.509048 475.880226,240.792182 C475.926946,240.074609 475.711751,239.644773 475.233934,239.500551 M478.680587,252.124179 C479.206539,251.550121 479.673738,250.870017 480.080767,250.080334 C480.487796,249.291357 480.836072,248.538435 481.122054,247.821569 C481.45688,246.959775 481.769054,246.099394 482.055744,245.238307 L482.702743,245.238307 C482.415345,246.43379 482.031676,247.582614 481.553859,248.681243 C481.169482,249.638478 480.666889,250.618337 480.045373,251.622232 C479.422442,252.626834 478.680587,253.439848 477.819101,254.061273 C477.003626,254.681284 476.167624,255.075772 475.306138,255.244031 C474.443944,255.411583 473.605817,255.495712 472.791759,255.495712 C471.882137,255.495712 470.972515,255.37482 470.062894,255.136572 C469.344399,254.944983 468.662713,254.657954 468.015714,254.276191 C467.37013,253.893014 466.831436,253.368444 466.399631,252.697531 C465.969242,252.028739 465.681844,251.192395 465.538145,250.187793 C465.395154,249.183898 465.466649,247.989121 465.754047,246.602049 C466.281415,244.067567 467.082732,242.216017 468.160121,241.042449 C469.236801,239.871709 470.325516,239.070714 471.42768,238.64017 C472.67142,238.114893 474.036914,237.971378 475.521332,238.210334 C475.999149,238.353141 476.430246,238.56806 476.813208,238.855089 C477.100606,239.142825 477.35261,239.537313 477.568512,240.039261 C477.783707,240.541209 477.842461,241.246763 477.746897,242.15451 L477.746897,242.226621 C477.699469,242.369429 477.66266,242.573743 477.6393,242.836028 C477.614524,243.099727 477.555063,243.349994 477.460207,243.588949 L477.244305,244.235119 C477.196877,244.474781 477.07583,244.784433 476.885411,245.16761 C476.50245,245.884476 475.951721,246.482571 475.233934,246.959775 C474.467304,247.487173 473.700673,247.846313 472.935458,248.036488 C472.169535,248.227369 471.545896,248.348261 471.068079,248.394214 C471.068079,248.730024 471.043303,248.968272 470.995875,249.111787 C470.900312,250.212537 470.984549,251.084936 471.24788,251.729691 C471.510502,252.375153 471.906205,252.866496 472.432158,253.199478 L472.504361,253.199478 C472.600632,253.296333 472.69478,253.368444 472.791759,253.415104 C473.84508,253.941795 474.790095,254.096621 475.62893,253.881703 C476.46564,253.666784 477.148033,253.368444 477.676109,252.98456 L477.746897,252.98456 C478.273558,252.602797 478.584315,252.315768 478.680587,252.124179" id="Fill-40" fill="#137F8B"></path>
                        <path d="M480.914221,253.951905 C481.413982,254.051587 481.673773,254.156926 482.199018,254.348514 C482.676835,254.586762 483.241013,254.646148 483.887304,254.52667 C484.532888,254.408606 484.903108,253.942007 485.000087,253.128994 L485.071582,252.196502 C485.11901,251.765251 485.131752,251.1919 485.107684,250.475034 C485.082908,249.757461 485.000087,248.968484 484.856388,248.108104 C484.712689,247.247016 484.508112,246.363306 484.24549,245.454144 C483.982868,244.54569 483.611232,243.709346 483.133415,242.943699 C483.036436,243.422317 482.928839,243.936283 482.809208,244.485597 C482.689577,245.036326 482.581979,245.501511 482.486416,245.884688 L481.912328,245.884688 C482.008599,245.263263 482.127522,244.54569 482.271221,243.732676 C482.415628,242.919662 482.509776,242.107356 482.558619,241.294342 C482.318649,240.432547 482.138141,239.680333 482.019925,239.034871 C481.901002,238.388702 481.840124,237.92281 481.840124,237.63578 C481.840124,236.918914 482.138141,236.178011 482.73842,235.412365 C483.335868,234.647425 484.210096,234.217588 485.35898,234.122147 C486.02934,234.07478 486.638822,234.18224 487.190258,234.444525 C487.740278,234.708224 488.135273,235.053932 488.375952,235.484475 C488.518943,235.724138 488.601764,235.986423 488.62654,236.273452 C488.6499,236.560481 488.638574,236.822767 488.591146,237.061722 C488.542303,237.301384 488.434705,237.504991 488.268354,237.671129 C488.099172,237.840094 487.872651,237.89948 487.585253,237.850699 C487.488274,237.850699 487.560477,237.707891 487.800448,237.420862 C488.03971,237.133833 488.01635,236.679959 487.728244,236.058534 C487.632681,235.819578 487.45288,235.664045 487.190258,235.591935 C486.92622,235.519824 486.724475,235.532549 486.580068,235.627283 C486.051992,235.914312 485.909001,236.41626 486.148971,237.133833 C486.196399,237.373495 486.436369,237.89948 486.867466,238.712493 C487.297855,239.525507 487.752312,240.529402 488.231545,241.724179 C488.709362,242.919662 489.104357,244.223312 489.416531,245.633007 C489.727996,247.043409 489.812234,248.491281 489.667827,249.973086 L489.452632,251.335415 C489.068963,252.866708 488.375952,253.965337 487.370058,254.634129 L487.297855,254.70624 L486.867466,254.921159 C486.483797,255.160114 486.076767,255.339684 485.646378,255.459161 C485.215989,255.577932 484.664553,255.638731 483.994902,255.638731 C482.893445,255.589951 482.044701,255.363014 481.445129,254.957921 C480.847681,254.55 480.476046,254.252366 480.331639,254.060778" id="Fill-42" fill="#137F8B"></path>
                        <path d="M383.88391,236.510075 C383.88391,236.510075 393.989561,235.328023 398.8909,224.813989 L401.372716,229.994653 C401.372716,229.994653 392.139878,238.963962 384.491977,237.525988 C384.491977,237.525988 384.225815,237.288447 383.88391,236.510075" id="Fill-44" fill="#137F8B"></path>
                    </g>
                </g>
            </g>
        </g>
    </g>
</svg>