<svg xmlns="http://www.w3.org/2000/svg" width="71" height="46" viewBox="0 0 71 46">
  <path fill="#E5E5E6" fill-rule="evenodd" d="M7.2,75.3 C9.333344,70.966645 12.033317,67.300015 15.3,64.3 C18.566683,61.299985 21.933316,59.8 25.4,59.8 C30.600026,59.8 33.2,61.999978 33.2,66.4 C33.2,68.133342 32.766671,69.366663 31.9,70.1 C31.033329,70.833337 29.93334,71.399998 28.6,71.8 C27.26666,72.200002 26.26667,72.533332 25.6,72.8 C21.866648,74.933344 20,77.933314 20,81.8 C20,83.266674 20.566661,84.499995 21.7,85.5 C22.833339,86.500005 24.333324,87 26.2,87 C28.466678,87 30.333326,86.533338 31.8,85.6 C33.13334,86.26667 34.13333,87.099995 34.8,88.1 C35.46667,89.100005 35.733334,90.399992 35.6,92 C35.6,95.33335 33.900017,98.233321 30.5,100.7 C27.099983,103.166679 23.533352,104.4 19.8,104.4 C14.999976,104.4 11.166681,102.866682 8.3,99.8 C5.433319,96.733318 4,92.400028 4,86.8 C4,83.46665 5.066656,79.633355 7.2,75.3 Z M46.4,75.3 C48.533344,70.966645 51.233317,67.300015 54.5,64.3 C57.766683,61.299985 61.133316,59.8 64.6,59.8 C69.800026,59.8 72.4,61.999978 72.4,66.4 C72.4,68.133342 71.966671,69.366663 71.1,70.1 C70.233329,70.833337 69.13334,71.399998 67.8,71.8 C66.46666,72.200002 65.46667,72.533332 64.8,72.8 C61.066648,74.933344 59.2,77.933314 59.2,81.8 C59.2,83.266674 59.766661,84.499995 60.9,85.5 C62.033339,86.500005 63.533324,87 65.4,87 C67.666678,87 69.533326,86.533338 71,85.6 C72.33334,86.26667 73.33333,87.099995 74,88.1 C74.66667,89.100005 74.933334,90.399992 74.8,92 C74.8,95.33335 73.100017,98.233321 69.7,100.7 C66.299983,103.166679 62.733352,104.4 59,104.4 C54.199976,104.4 50.366681,102.866682 47.5,99.8 C44.633319,96.733318 43.2,92.400028 43.2,86.8 C43.2,83.46665 44.266656,79.633355 46.4,75.3 Z" transform="translate(-4 -59)"/>
</svg>
