<?xml version="1.0" encoding="UTF-8"?>
<svg width="22px" height="23px" viewBox="0 0 22 23" version="1.1" xmlns="http://www.w3.org/2000/svg" xmlns:xlink="http://www.w3.org/1999/xlink">
    <!-- Generator: Sketch 47.1 (45422) - http://www.bohemiancoding.com/sketch -->
    <title>ico/edit@3x</title>
    <desc>Created with Sketch.</desc>
    <defs></defs>
    <g id="Web-Design-V1" stroke="none" stroke-width="1" fill="none" fill-rule="evenodd">
        <g id="Page2-4" transform="translate(-162.000000, -293.000000)" fill="#FFFFFF">
            <g id="Ville-:-Grenoble" transform="translate(136.000000, 271.000000)">
                <g id="ico/edit" transform="translate(25.000000, 22.000000)">
                    <g id="Fill-1464-+-Fill-1465-+-Fill-1466" transform="translate(1.000000, 0.000000)">
                        <path d="M21.6992,5.5835 L17.4132,1.2985 C17.0232,0.9075 16.3902,0.9075 15.9992,1.2985 L15.2782,2.0195 L13.8422,0.5835 C13.6552,0.3965 13.4002,0.2905 13.1352,0.2905 C12.8702,0.2905 12.6162,0.3965 12.4282,0.5835 L5.9992,7.0125 L7.4132,8.4265 L13.1352,2.7055 L19.5632,9.1335 L21.6992,6.9975 C22.0902,6.6075 22.0902,5.9745 21.6992,5.5835" id="Fill-1464"></path>
                        <polygon id="Fill-1465" points="9.5479 19.1499 18.1499 10.5479 12.4499 4.8479 3.8479 13.4499"></polygon>
                        <path d="M7.8652,20.2939 L2.0222,22.2419 C1.6632,22.3609 1.2652,22.2679 1.0002,21.9999 C0.7312,21.7339 0.6382,21.3359 0.7582,20.9779 L2.7052,15.1349 L7.8652,20.2939 Z" id="Fill-1466"></path>
                    </g>
                </g>
            </g>
        </g>
    </g>
</svg>