<svg xmlns="http://www.w3.org/2000/svg" xmlns:xlink="http://www.w3.org/1999/xlink" width="241" height="160" viewBox="0 0 241 160">
  <defs>
    <polygon id="a" points=".181 .137 21.221 .137 21.221 36.569 .181 36.569"/>
    <polygon id="b" points="51.143 68.911 .084 68.911 .084 .577 51.143 .577 51.143 68.911"/>
  </defs>
  <g fill="none" fill-rule="evenodd" transform="translate(0 25)">
    <path fill="#1A70A4" d="M21.9720567,80.0252201 L12.3400567,32.6255255 L15.5672567,36.6313249 L39.7640567,71.2589865 C39.7640567,71.2589865 27.3032567,71.3948848 21.9720567,80.0252201" transform="rotate(-38 26.052 56.325)"/>
    <path fill="#137F8B" d="M199.20054,219.343977 L208.83254,266.743672 L205.60534,262.737872 L181.40854,228.110211 C181.40854,228.110211 193.86934,227.974313 199.20054,219.343977"/>
    <path fill="#196EA0" d="M240.791879,120.403039 C240.791879,174.197144 197.150279,217.806078 143.315879,217.806078 C89.4806793,217.806078 45.8390793,174.197144 45.8390793,120.403039 C45.8390793,66.6089341 89.4806793,23 143.315879,23 C197.150279,23 240.791879,66.6089341 240.791879,120.403039" opacity=".99"/>
    <g transform="translate(51.55)">
      <g opacity=".52" transform="scale(-1 1) rotate(75 -21.344 9.798)"/>
      <g transform="translate(40.724 .61)">
        <path fill="#F1AD29" d="M23.15453,144.929201 C23.9090001,154.726887 24.6164436,164.929171 21.4206801,174.095057 C43.5606625,174.294286 65.6979187,174.971117 87.8147286,176.126235 C88.1602719,170.279691 85.087868,164.830239 84.6496347,158.991201 C84.2754666,154.013212 85.8300702,149.146436 86.953256,144.310364 C88.8499952,136.144034 89.5472155,127.632464 89.0101582,119.218463 C72.4240843,119.212322 55.8380103,119.205499 39.2519363,119.197994 C34.5683606,119.196629 24.7793328,116.721963 22.3237269,122.681085 C19.8088266,128.786217 23.15453,138.475419 23.15453,144.929201"/>
        <path fill="#F1AD29" d="M4.0386981,99.490931 C1.86388869,102.684731 1.36159018,106.699326 1.0119577,110.548807 C-0.852067294,131.046849 -0.137808356,151.778916 3.13224354,172.099563 C7.68428117,176.125757 21.4208164,174.095262 28.2430797,174.009975 C29.5393779,166.465894 29.5598242,161.702826 30.7211765,154.742785 C29.1059154,153.164648 24.9566707,155.226528 22.8472896,154.424155 C18.9134131,152.927211 18.8841067,147.441598 19.5629253,143.285087 C20.4584751,137.797427 21.354025,132.309768 22.2502564,126.822108 C34.0164456,126.111162 45.7826348,125.400216 57.5495056,124.68927 C66.7612649,124.131839 76.0786637,123.58123 85.1588849,125.23169 C86.9274936,142.128605 88.416669,159.141509 87.982525,176.125757 C94.0918925,176.125757 99.0855711,176.072538 105.704734,176.125757 C104.3396,149.208047 104.589727,129.94768 101.093402,105.620625 C100.2367,99.6621858 99.2177908,98.2791837 93.6911441,95.9075433 C87.9436769,93.4417468 79.970966,93.5536423 73.5767128,93.1292579 C67.8067546,92.7458108 62.1383466,94.7374157 56.3568022,94.848629 C45.8221644,95.0512692 35.2868451,95.1597533 24.7501627,95.1931855 C17.4869399,95.2163834 9.05350465,92.1706403 4.0386981,99.490931"/>
        <path fill="#E8CBAB" d="M35.757111,88.9374039 C31.7741632,91.3431588 20.2444701,94.2811001 15.6045132,94.6065525 C24.9369059,95.623847 36.2859897,96.9679586 44.9518317,100.607294 C45.6620014,100.905455 46.4007959,101.029632 47.1709415,101.053512 C49.0799485,101.113553 51.8776898,100.556122 52.5987642,100.280477 C60.1073432,97.4107648 61.0949016,96.8533338 64.8849721,95.9076797 C70.0551709,94.6174691 74.645375,93.718893 79.970966,93.5537788 C75.5484219,91.7627672 69.7498388,93.0147696 66.4975071,89.5207619 C65.2802681,88.213494 64.685961,86.4606907 64.1250497,84.7651998 C62.6822194,80.4033191 61.2387075,76.0421206 59.7958772,71.6802399 C60.6212279,74.1774217 53.4459244,77.1133161 51.887913,77.3514354 C48.1128364,77.9266059 44.4365839,77.8085697 41.8501214,75.2984244 C33.4862037,67.179172 42.3674139,84.9432775 35.757111,88.9374039"/>
        <path fill="#3C3C3B" d="M70.6150599,61.2074277 C68.4872771,69.3253156 68.3911793,77.9692491 70.3390343,86.1328503 C71.4629016,90.847475 73.2649061,95.4611208 73.4421077,100.305381 C73.6199909,105.148958 71.7021239,110.504936 67.3361479,112.600931 C68.6931036,106.688205 67.55765,101.418878 64.0749561,96.4538529 C61.1920217,92.3451019 56.6938261,87.9129453 55.2196447,83.112352 C53.1934121,76.5159711 57.3876387,69.6773773 61.9982892,64.5472379 C64.3564341,61.9231501 67.4356535,59.2458437 70.927889,59.7309519 C71.7205256,65.9520732 70.7881723,72.3847045 68.2623673,78.1241289"/>
        <path fill="#E8CBAB" d="M48.4142837,11.786016 C58.7417319,11.786016 64.2602,15.6798457 70.7553218,22.1418154 C78.0621635,29.4109343 73.5987267,42.1738532 72.5586893,51.5321445 C71.518652,60.8897535 69.4440297,64.6948854 64.6895732,69.9212278 C62.1330987,72.7315807 59.7238379,74.5812693 56.4442444,78.3052087 C53.3895606,81.7753363 47.5827991,83.0635 43.1786566,80.9252028 C40.3986354,79.5756329 36.4892945,74.9797267 33.8953351,72.2410142 C32.3516361,70.6110231 24.2651072,63.6926013 23.5099556,57.5465319 C22.3574634,48.1629959 21.1252304,48.8957755 20.540465,36.9229485 C19.9195777,24.2425866 33.0761182,11.786016 48.4142837,11.786016"/>
        <path fill="#3C3C3B" d="M47.6894608,7.30514384 C56.4888856,7.85916341 63.7800517,11.3497597 69.5268374,17.801495 C75.2743046,24.2532304 77.4368462,33.2464964 76.6796499,41.721222 C75.8870133,40.3157043 71.057587,45.4294688 70.2438225,46.8766061 C67.5680776,51.6348974 67.6839403,42.504491 60.2789561,40.3348084 C58.016909,39.6723047 53.953539,34.8287272 51.7248875,34.089807 C49.4955545,33.3515691 41.3422342,26.7865736 41.3715406,24.5138652 C41.7266255,26.2864549 36.7602086,30.5787421 35.2458161,31.6731354 C28.503975,36.5460514 24.7916006,50.4354314 23.374669,49.2114029 C22.0729184,48.0869888 22.4511758,41.2060929 20.9142923,40.2290535 C19.59414,39.7923878 19.266317,38.1644436 19.1995256,36.8203321 C18.8205867,29.1288756 20.6048709,20.369635 27.3508013,16.2533787 C28.9899165,15.2538237 31.8040149,12.4352832 33.6223764,11.785743 C39.8183001,9.57580535 41.4928556,9.51508153 47.6894608,7.30514384"/>
        <path fill="#E8CBAB" d="M77.2528291 51.6753572C76.1862115 55.7117855 74.0107205 58.6367633 72.3954594 58.2082851 70.7801982 57.7804892 70.335831 54.1616224 71.4024486 50.1258763 72.4690662 46.0887657 74.6445572 43.163788 76.2598183 43.5922662 77.8750795 44.0200621 78.3194467 47.6396111 77.2528291 51.6753572M23.9791992 50.2701125C24.8468057 54.3536188 24.2252369 57.9465586 22.5908925 58.2952088 20.9558665 58.6424945 18.9275892 55.614491 18.0593012 51.5309846 17.1923762 47.446796 17.813945 43.8545385 19.4482894 43.5058882 21.0826338 43.1579203 23.1115927 46.1866061 23.9791992 50.2701125"/>
        <path fill="#3C3C3B" d="M19.0026955 39.6179945C18.9324963 40.3180241 18.8629788 41.0276058 18.980886 41.7214949 19.1083349 42.4706494 19.4484258 43.1631739 19.7919243 43.840688 20.5198142 45.2734972 21.2797366 46.6892492 22.0730547 48.0872617 22.297283 48.48299 22.9127179 48.351308 22.9454321 47.897585 23.0435745 46.524135 23.5063434 45.1206643 23.7148961 43.7397091 24.0270436 41.6737346 23.9732016 35.9779767 22.0014925 34.6188548 18.7961874 32.4082348 19.1921649 37.7239571 19.0026955 39.6179945M76.6577723 39.6179945C76.7279714 40.3180241 76.797489 41.0276058 76.6795818 41.7214949 76.5521329 42.4706494 76.212042 43.1631739 75.8678619 43.840688 75.1406536 45.2734972 74.3800496 46.6892492 73.587413 48.0872617 73.3625033 48.48299 72.4349208 48.7422602 72.4028882 48.287855 72.3047458 46.9150873 72.1541244 45.1206643 71.9448901 43.7397091 71.6327426 41.6737346 71.6872662 35.9779767 73.6589753 34.6188548 76.8642804 32.4082348 76.4676213 37.7239571 76.6577723 39.6179945M49.6788901.449629188C50.6017017.126223672 51.617885-.197181844 52.531155.149421536 53.5759631.545832094 54.1150651 1.66342331 54.7325447 2.5961139 56.2878299 4.94455649 58.9349498 6.53565704 61.737462 6.80584393 63.1489412 10.4458617 62.1627459 14.6501334 60.1876291 18.0172351 59.7712053 18.7274992 59.2968501 19.4288934 58.6282547 19.9092256 57.5118843 20.709552 56.0472445 20.7723226 54.6746133 20.8023434 50.6494098 20.8903588 46.1314494 20.7600414 43.3255295 17.8691782 41.5207989 16.0113022 40.5816302 13.461584 38.9193425 11.4761198 37.9583643 10.3291901 35.6888202 8.9898546 35.7583378 7.28003556 35.9171377 3.42919013 46.8797856 1.43212696 49.6788901.449629188"/>
        <path fill="#FEFEFE" d="M43.2701199,66.3046125 C43.2810247,67.0298869 43.2558075,67.2284333 43.4568632,67.9264161 C43.6040769,68.4333577 44.0968338,69.2343663 44.5221177,69.5468552 C44.8969674,69.8225004 45.2350136,70.1418121 45.6957378,70.207312 C46.7828018,70.3621919 47.8712288,70.517754 48.962382,70.649436 C50.2450493,70.8049981 51.6551655,70.8984719 52.7217831,70.1684215 C53.5641724,69.5925686 54.2409464,68.7717736 54.6600964,67.8411299 C54.7480157,67.6459949 54.8236672,67.1567929 54.7875453,66.9452829 C54.7112123,66.4997475 53.9587869,66.4635861 53.5110119,66.3980863 C50.1877995,65.9054728 46.7800756,65.4149062 43.4936666,66.1115244"/>
        <path fill="#BD9699" d="M46.0994168 71.045983C46.5901291 71.2813731 47.1271864 71.3980447 47.6587913 71.5126695 48.780614 71.7548824 49.9583234 71.9957309 51.0603813 71.6750545 52.0629337 71.3830343 52.8821506 70.6563954 53.5616507 69.8628919 53.969896 69.3866534 54.3508796 68.8558317 54.4694684 68.240406 54.3979062 68.4669264 54.15255 68.5829157 53.9303664 68.6661551 50.41564 69.9918448 47.0126868 69.5292521 43.5831535 68.2806612 43.4645647 68.724832 44.2210794 69.4112159 44.4889265 69.7223402 44.9455615 70.2517973 45.462854 70.7409993 46.0994168 71.045983M57.3788468 66.5717973C57.6173874 66.5260839 57.9247641 66.3752978 57.8559281 66.1419546 55.9060285 66.3896259 53.9615812 65.7871637 52.011 65.5469976 50.5238693 65.3641438 49.0203815 65.3934823 47.5230276 65.4228208 46.9955119 65.4337374 46.4666332 65.4439718 45.9432068 65.5094716 45.2105461 65.6015808 44.493561 65.8008095 43.7609003 65.8929187 43.1686379 65.9672883 42.5702416 65.9686529 41.9779792 65.9045176 41.7114952 65.8751791 41.4068447 65.7639658 41.1587623 65.8676739 41.3271039 66.3002459 42.0822555 66.5670213 42.4802777 66.745099 43.375146 67.1442387 44.2890976 67.2875197 45.2596173 67.3932746 47.8358566 67.6750605 50.4407208 67.5706701 53.0108262 67.2650041 54.4747844 67.0910201 55.9312456 66.8501717 57.3788468 66.5717973"/>
        <g transform="translate(29.988 114.464)">
          <mask id="c" fill="white">
            <use xlink:href="#b"/>
          </mask>
          <path fill="#FFFFFF" d="M2.07987023,68.9115748 L49.1480348,68.9115748 C50.2500927,68.9115748 51.1429164,68.0164102 51.1429164,66.9131471 L51.1429164,2.57455353 C51.1429164,1.47129041 50.2500927,0.577490356 49.1480348,0.577490356 L2.07987023,0.577490356 C0.977812307,0.577490356 0.0836255455,1.47129041 0.0836255455,2.57455353 L0.0836255455,66.9131471 C0.0836255455,68.0164102 0.977812307,68.9115748 2.07987023,68.9115748" mask="url(#c)"/>
        </g>
        <path fill="#3C3C3B" d="M89.3442515,175.813473 C89.1956747,175.813473 89.0525503,175.730916 88.9823512,175.588317 C86.3290973,170.218694 83.0276944,163.535662 83.9314228,156.66773 C84.0513746,155.754143 84.246978,154.846697 84.4350844,153.967908 C84.5857058,153.27129 84.7404164,152.550109 84.8542344,151.839845 C84.9653262,151.145956 85.0423408,150.428869 85.1166291,149.735662 C85.220224,148.772269 85.3265449,147.776125 85.5282822,146.802497 C85.8942717,145.034001 86.5710457,143.275739 87.2260103,141.575472 C88.5120853,138.235662 89.7272796,135.081435 88.7288165,131.918338 C88.6613436,131.705464 88.7792508,131.478261 88.9918928,131.410714 C89.2058979,131.342485 89.4321707,131.461204 89.4996437,131.674761 C90.5826183,135.107362 89.2590584,138.543375 87.9791173,141.86681 C87.3364205,143.535692 86.6712328,145.262568 86.3195557,146.966929 C86.125997,147.901666 86.0217206,148.877341 85.9201704,149.822313 C85.844519,150.525754 85.7661413,151.253075 85.6516418,151.968115 C85.5344161,152.700213 85.3776608,153.430945 85.2249948,154.13848 C85.0402961,155.000895 84.8481005,155.892648 84.7322379,156.773485 C83.9273335,162.899085 86.5083436,168.755864 89.7061517,175.230115 C89.8056573,175.430026 89.7238719,175.672239 89.5234977,175.771171 C89.466248,175.799827 89.4049089,175.813473 89.3442515,175.813473"/>
        <path fill="#E8CBAB" d="M29.3383222,155.682571 C40.512249,157.071032 51.567587,158.288237 62.7224305,155.851779 C64.2375046,155.520868 65.8595812,155.114223 66.8519104,153.960471 C67.9457898,152.688 69.409748,150.292479 70.5963174,149.100518 C73.884771,145.79687 75.8373969,141.998561 77.2597808,143.245105 C78.2050835,144.628107 75.2642177,147.685449 74.6460566,150.883342 C76.3458293,152.301824 80.9040008,150.920868 83.9614107,150.424161 C85.1847836,156.594111 84.9666893,158.945282 83.478877,165.047685 C83.2178454,166.122292 81.0362205,168.201912 79.925984,168.450948 C79.3432632,168.580584 67.1183944,166.737036 67.1183944,166.737036 C58.3564546,164.312177 48.4467934,170.690225 33.8215238,171.921758 C31.9540911,172.078685 29.8269898,172.190581 27.5526748,172.251304 C27.5526748,172.251304 25.4998619,167.248071 25.7043254,162.943503 C25.9094703,158.638252 29.3383222,155.682571 29.3383222,155.682571"/>
        <path fill="#3C3C3B" d="M19.1697421 149.943078C18.6381372 151.846668 17.9320568 153.303357 17.0433224 154.32611 18.3518883 153.764585 19.5745797 153.007243 20.6657329 152.0766 20.051661 151.452986 19.5405025 150.738629 19.1697421 149.943078L19.1697421 149.943078zM28.5225812 173.121156C27.5261627 173.121156 26.3954799 172.185736 25.9579282 171.302171 23.4648373 166.275057 25.1121311 159.479447 29.6300915 156.154648 30.0478784 155.846253 30.4806594 155.39867 30.3232225 155.151681 30.201226 154.958593 29.7664005 154.983156 29.3990478 155.024093 26.6517408 155.348181 23.5813815 154.508282 21.4018013 152.743879 21.1816623 155.137353 20.6241587 157.482384 19.7422397 159.720296 19.6597728 159.931123 19.4212321 160.035514 19.2113163 159.95091 19.000719 159.868353 18.8978057 159.629551 18.9809542 159.419406 19.7633676 157.432577 20.2820232 155.357733 20.5266978 153.239904 18.642908 154.66862 16.4421998 155.638154 14.1072274 156.061856 13.8904962 156.098018 13.6730834 155.955419 13.6315091 155.73231 13.5899349 155.510566 13.7357855 155.297691 13.9579691 155.254707 16.2329656 154.822817 17.78348 152.61288 18.6810745 148.509587 18.6565389 148.40042 18.6347294 148.289889 18.6156462 148.177994 18.3416652 146.613503 18.5877028 145.057881 18.8248804 143.552749 19.3414914 140.287991 19.8758225 136.911337 21.3343283 133.838302 21.4222476 133.653402 21.6321634 133.559928 21.8291299 133.624063 22.0240517 133.686834 22.143322 133.884698 22.1078817 134.086656L19.7006655 147.577579C19.6440973 147.894161 19.5841213 148.201874 19.5214192 148.500717 20.5341948 152.500302 25.2900143 154.674078 29.3043131 154.210121 29.7241447 154.160996 30.5992482 154.059335 31.014309 154.710922 31.2017338 155.006353 31.4893457 155.801904 30.1153514 156.815104 25.902723 159.914748 24.3672026 166.250495 26.6912704 170.937828 27.0409028 171.643316 27.9262295 172.301043 28.5218997 172.301043L28.5341675 172.301043C28.7502172 172.297632 28.8878892 172.204158 28.9812609 171.998789 29.0759956 171.792055 29.3193071 171.70131 29.5244521 171.796149 29.7302786 171.890987 29.820924 172.133882 29.7268709 172.339934 29.500598 172.835276 29.0814479 173.112286 28.5471168 173.121156L28.5225812 173.121156zM47.6502038 107.287324C47.7940098 107.295511 47.9316818 107.262761 48.033232 107.187709 48.0843479 107.150866 48.1279667 107.102423 48.1640886 107.045111 48.0468629 106.985069 47.9180509 106.946861 47.7844682 106.930486 47.7851497 107.026689 47.8035514 107.120163 47.8396733 107.204767L47.6502038 107.287324zM47.6972304 108.109483C47.5145764 108.109483 47.3271516 108.076051 47.1444976 108.009869 46.6626454 107.833156 46.3089237 107.456532 46.1985134 107.002126L46.1426268 106.772877 46.313013 106.609127C46.5488275 106.382607 46.8412102 106.231139 47.1533577 106.156087 47.3523688 105.763088 47.6849626 105.468338 48.0768509 105.34075L48.2560972 105.282755 48.4162602 105.381687C48.8149639 105.625947 49.0650908 106.078306 49.0855372 106.590705 49.106665 107.103788 48.8933415 107.574568 48.5164473 107.850213 48.2819959 108.021468 47.995747 108.109483 47.6972304 108.109483L47.6972304 108.109483zM47.1876394 112.309184C47.4350401 112.309184 47.6619946 112.381506 47.8398777 112.511142 47.8146606 112.321465 47.6667654 112.156351 47.5270487 112.062877 47.3839243 111.965992 47.167193 111.889575 46.9818129 111.944841 46.9627296 112.072429 47.0022592 112.206158 47.0615536 112.315324 47.1031278 112.31123 47.1460652 112.309184 47.1876394 112.309184M47.6040633 113.509332C47.2789664 113.509332 46.9559142 113.380379 46.6914748 113.146354L46.1809977 112.981239C46.215075 112.876167 46.2675539 112.779282 46.3343453 112.694678 46.1223849 112.299632 46.0971677 111.852049 46.2784586 111.474061L46.3282114 111.370352 46.4249908 111.307582C46.8720842 111.016926 47.4847929 111.045582 47.9843652 111.382634 48.483256 111.719003 48.74088 112.275069 48.6406929 112.800433L48.0198056 112.681032C48.0811446 112.756084 48.1302158 112.842052 48.1649746 112.935526L48.3299085 113.376968 47.8705473 113.479993C47.782628 113.499098 47.6933456 113.509332 47.6040633 113.509332M87.6177622 171.34263C87.4064833 171.34263 87.2279186 171.180928 87.2101984 170.966006 86.8537505 166.574105 87.1086482 162.154912 87.9667131 157.831239 88.0014719 157.653844 88.1493671 157.520115 88.329295 157.503058L91.1624766 157.230824 90.0972221 157.019314C89.4851949 156.896502 88.6489395 156.729341 88.0989328 156.124832 87.7574789 155.750254 87.607539 155.181224 87.7172677 154.675647 87.8058686 154.262862 88.0519062 153.951055 88.4083542 153.79754 88.6169069 153.709525 88.8574922 153.804363 88.946093 154.012461 89.0360569 154.22056 88.9392775 154.461408 88.7320879 154.550788 88.6223592 154.597866 88.5501155 154.698163 88.5174013 154.848949 88.4642408 155.095256 88.5405738 155.393417 88.7048261 155.572859 89.0455985 155.948118 89.6092361 156.085259 90.2567036 156.214894L94.051545 156.971554C94.2512376 157.011126 94.3909543 157.191251 94.3814127 157.394573 94.370508 157.597214 94.2137527 157.762328 94.0113339 157.782114L88.7116416 158.29042C87.9155973 162.444203 87.6845536 166.684636 88.0266891 170.899824 88.0450908 171.125662 87.8774308 171.323526 87.6518394 171.341266 87.6402532 171.34263 87.6293485 171.34263 87.6177622 171.34263M72.4021385 54.5411121C72.2106244 54.5411121 72.0388751 54.4053364 72.0007086 54.2095191 71.9577713 53.9870926 72.1029403 53.7721712 72.3251239 53.7291869 73.9117602 53.4201095 75.2339571 52.0957844 75.5406523 50.5067307 75.8473474 48.917677 75.1133237 47.1942122 73.7543234 46.3167871 73.5648539 46.1946571 73.5103303 45.9408452 73.6330084 45.749804 73.7556865 45.5601273 74.0092211 45.5048618 74.1993721 45.6283563 75.8309903 46.6824946 76.7135908 48.7532451 76.3448751 50.6622928 75.9768409 52.5713406 74.3874785 54.1631234 72.4805162 54.533607 72.4546175 54.5390653 72.4280372 54.5411121 72.4021385 54.5411121M22.260684 55.0641557C22.1516368 55.0641557 22.0432712 55.0211715 21.9628489 54.9358852 19.1678338 51.9624649 18.9272485 46.9203409 21.4271547 43.6958378 21.5655083 43.5150309 21.8231323 43.4843279 22.001697 43.6228328 22.1809433 43.7620199 22.2129759 44.0199256 22.0746223 44.1980033 19.811212 47.118205 20.0293064 51.6820436 22.5585191 54.3729959 22.7139113 54.5381101 22.7057328 54.7973803 22.5414805 54.9529425 22.4624213 55.0273121 22.3608711 55.0641557 22.260684 55.0641557"/>
        <path fill="#3C3C3B" d="M23.1352423 152.065274C23.1209298 152.065274 23.1059359 152.064591 23.0916234 152.063227 22.8660321 152.039347 22.7031429 151.837389 22.726997 151.612233 23.1263822 147.863731 23.0234689 144.075656 22.4216649 140.351717 22.1442762 138.635757 21.7530695 136.888412 21.3748121 135.19838 20.4492743 131.061655 19.4917038 126.783696 20.0826032 122.513924 20.1132727 122.290133 20.3245516 122.135253 20.544009 122.163909 20.7682372 122.195295 20.9249925 122.402028 20.894323 122.626502 20.32387 126.749581 21.2644018 130.953853 22.1742641 135.01962 22.5545661 136.721251 22.9491806 138.480877 23.229977 140.221399 23.8440489 144.016297 23.9483252 147.878059 23.5421245 151.698884 23.518952 151.909029 23.3417504 152.065274 23.1352423 152.065274M4.49587835 100.399127C4.30981662 100.399127 4.14079351 100.271539 4.09717465 100.08118 3.79184258 98.7507144 4.41341143 97.2401241 5.68108473 96.2337462 6.78177956 95.3583679 8.13123824 94.9619574 9.41935789 94.6310467 13.5965459 93.5557574 16.9558802 93.2262113 19.9921622 93.5912365 21.7866696 93.8082048 23.5505075 94.2830787 25.2557326 94.74226L26.2623742 95.0117646C31.5722897 96.4104593 37.0375973 97.3492905 42.5083573 97.8009666 42.7332671 97.8200707 42.9016087 98.0179348 42.8825254 98.2437728 42.8641237 98.4689286 42.6753358 98.6470063 42.4408844 98.6183501 36.9224163 98.1632626 31.4094005 97.2162439 26.0538215 95.8045857L25.0430906 95.5337165C23.3658089 95.0820404 21.6312774 94.6146717 19.8940197 94.4058909 16.9640587 94.0531469 13.6994592 94.3765525 9.62245824 95.4252324 8.42089478 95.7343098 7.16480774 96.1006996 6.19019869 96.8757812 5.35326169 97.541014 4.62741649 98.7329749 4.89594514 99.8976441 4.94637945 100.118024 4.8087074 100.337721 4.58856844 100.388893 4.55789892 100.395716 4.52654786 100.399127 4.49587835 100.399127"/>
        <path fill="#FEFEFE" d="M42.4780286 51.1369621C42.4357728 50.4915156 42.362166 49.848116 42.2572081 49.2101748 42.1215807 48.3798277 41.9034863 47.5051318 41.2887329 46.9313258 40.5765186 46.2667752 39.5160349 46.1726192 38.542789 46.1541973 37.8476133 46.1412338 37.1531192 46.148739 36.4593066 46.1767129 35.8922613 46.1999108 35.2965912 46.2463065 34.8249622 46.5601599 34.3492439 46.8767426 34.0732183 47.4171163 33.8844304 47.9561255 33.4993576 49.0559772 33.3937181 50.2527141 33.5811429 51.4030552 33.6118125 51.5920496 33.6602021 51.7981012 33.8135497 51.9147728 33.9573557 52.0239392 34.1536406 52.0246215 34.3342499 52.0177986 37.0570214 51.9147728 39.7457155 51.2352118 42.4698501 51.2979825M56.3405814 51.1222928C56.3848818 50.4775287 56.4605333 49.8341291 56.5675358 49.1961878 56.7058894 48.366523 56.9267099 47.4925094 57.543508 46.9214326 58.2577669 46.2582466 59.3182506 46.167502 60.2921781 46.1524916 60.9859907 46.141575 61.6811664 46.1518093 62.374979 46.1818301 62.9420242 46.2063925 63.5376944 46.2548351 64.0086418 46.5700532 64.482997 46.8880003 64.7576596 47.4297387 64.9444028 47.9694302 65.3260679 49.0699641 65.4276181 50.266701 65.2367855 51.4170421 65.2054345 51.6060365 65.1556817 51.8120881 65.0023341 51.9280774 64.8585282 52.0365616 64.6622433 52.0365616 64.4816339 52.0290564 61.7588625 51.9178431 59.0722129 51.2294124 56.3480784 51.2839956"/>
        <path fill="#3C3C3B" d="M34.2881775 52.4135951C34.0605415 52.4135951 33.8588043 52.25121 33.8172301 52.0185491 33.7702035 51.7579143 33.9433158 51.5081961 34.2043475 51.4611181 36.7001645 51.0135358 39.2505051 50.8197654 41.7892594 50.8798069 42.0536988 50.8866298 42.2629331 51.1063272 42.2561176 51.3717381 42.2493022 51.6357844 42.0134877 51.8452474 41.7654054 51.8391068 39.2968501 51.778383 36.8064855 51.9694242 34.3733706 52.4060899 34.3447457 52.4115482 34.3161208 52.4135951 34.2881775 52.4135951M34.6343341 47.2670807L34.6316079 47.2670807C34.3010587 47.2650339 33.8750932 47.136081 33.4988805 46.6270926 32.9311537 46.3562234 32.4731556 45.847235 32.3054956 45.2379499 32.2707368 45.1144554 32.2891385 44.9861849 32.3477513 44.8790653 32.3054956 44.8299404 32.2646029 44.779451 32.2257548 44.7269146 32.099669 44.5611181 32.0955798 44.3325509 32.2148501 44.1619784 32.3354835 43.9914059 32.5501701 43.9184008 32.7498628 43.9791247 33.1799175 44.1128535 33.4579878 44.4253424 33.6576804 44.7726281 34.122494 45.0837524 34.6799976 45.2693353 35.2402274 45.3007206 35.2531768 45.2966269 35.2661261 45.2918508 35.2783939 45.2877571 35.3956196 45.2461374 35.5210239 45.2515957 35.6293895 45.2979915 35.8597516 45.2809342 36.086706 45.2365853 36.3041188 45.162898 36.5515196 45.078294 36.8268637 45.2120229 36.9120568 45.4631057 36.9972499 45.7141884 36.8629856 45.9864222 36.6114955 46.0717084 36.2979849 46.1781457 35.9728881 46.2402341 35.645065 46.2600205L35.0146361 47.0801332C34.9233091 47.1974871 34.7829109 47.2670807 34.6343341 47.2670807"/>
        <path fill="#3C3C3B" d="M37.7797996,51.2382139 C37.5705654,51.2382139 37.3606496,51.1856776 37.1684539,51.0649122 C37.0798531,51.0096467 36.9864815,50.9345948 36.9006068,50.8336159 C36.5911855,50.6848766 36.3342431,50.4488042 36.1815771,50.1465497 C36.0711668,49.9275346 36.0261849,49.6784987 36.0459497,49.4287805 C35.9123669,48.8597506 35.9818845,48.3275643 36.2517762,47.9243308 C36.6361674,47.3477957 37.322483,47.1567544 37.7763919,47.0291662 C37.9385995,46.9820882 38.1873634,46.9145414 38.4565736,46.9800413 C38.8021168,47.0673744 39.0754162,47.3464311 39.2280823,47.7667218 C39.3057784,47.9802786 39.3487157,48.1958823 39.3718882,48.4060276 C39.3848376,48.4490119 39.3957423,48.4919962 39.4046024,48.5370273 C39.4373165,48.7151051 39.4195964,48.8836307 39.3889268,49.0337345 C39.3875638,49.0698959 39.3862007,49.1060573 39.3848376,49.1408541 C39.3616651,49.6245978 39.2921475,50.1799819 38.9479674,50.6391632 C38.6889803,50.9850843 38.2371162,51.2382139 37.7797996,51.2382139"/>
        <path fill="#FEFEFE" d="M37.9381906,48.7496289 C37.9381906,49.0048054 38.1446987,49.2115393 38.3995964,49.2115393 C38.6544942,49.2115393 38.8610023,49.0048054 38.8610023,48.7496289 C38.8610023,48.4951347 38.6544942,48.2877185 38.3995964,48.2877185 C38.1446987,48.2877185 37.9381906,48.4951347 37.9381906,48.7496289"/>
        <path fill="#3C3C3B" d="M64.2482048 52.6075019C64.2202615 52.6075019 64.1916366 52.6054551 64.1630117 52.5999968 61.7305784 52.1633311 59.2381691 51.9729721 56.770977 52.033696 56.5099453 52.022097 56.2863986 51.8303735 56.2802647 51.5663272 56.2734493 51.3009164 56.4826835 51.081219 56.7471229 51.0743961 59.2824695 51.0143545 61.8355363 51.2067603 64.3320348 51.6550249 64.5930665 51.702103 64.7661789 51.9518211 64.7191523 52.212456 64.677578 52.4451169 64.4758408 52.6075019 64.2482048 52.6075019M65.5980043 48.0886263C65.4494275 48.0886263 65.3090293 48.019715 65.2183838 47.9023611L64.5879549 47.0815661C64.2594503 47.0617796 63.9343534 46.9996912 63.6201613 46.893254 63.3693528 46.8079677 63.2350885 46.535734 63.3202816 46.2839689 63.4054747 46.0335684 63.6780926 45.8991573 63.9289011 45.9844435 64.1456323 46.0581309 64.3725867 46.103162 64.6022673 46.119537 64.710633 46.0731413 64.8374003 46.0683652 64.9539445 46.1093026 64.9662123 46.1133964 64.9798432 46.1181724 64.9927925 46.1229484 65.5530223 46.0908808 66.110526 45.9052979 66.5753395 45.5934913 66.7757137 45.2455233 67.0537839 44.9343991 67.4838387 44.8006702 67.6808051 44.7378995 67.8988995 44.8122691 68.0181698 44.9835239 68.1374402 45.1540965 68.1333509 45.3826637 68.0072651 45.5491424 67.9677355 45.6009965 67.9268428 45.6521683 67.884587 45.7012931 67.9431999 45.8077304 67.9616016 45.9366832 67.9268428 46.0594955 67.7591828 46.6694628 67.2998216 47.1791335 66.7314133 47.4493204 66.354519 47.9589911 65.9305981 48.0865794 65.6007305 48.0886263L65.5980043 48.0886263z"/>
        <path fill="#3C3C3B" d="M60.6754107,51.4454254 C60.1894693,51.4454254 59.7157957,51.1493115 59.4670318,50.7638176 C59.1555659,50.2793916 59.1255779,49.7199137 59.1364826,49.2368523 C59.1371642,49.2020555 59.1385272,49.1665764 59.1398903,49.1310973 C59.1201255,48.9809935 59.1139916,48.8117856 59.1589736,48.6337078 C59.1705598,48.5879944 59.1855538,48.5436455 59.203274,48.5006613 C59.240759,48.2932451 59.2980087,48.0817351 59.3893357,47.8777304 C59.5726713,47.4690386 59.865054,47.2097684 60.2140049,47.1483623 C60.4900306,47.0992374 60.7299343,47.1865705 60.8894158,47.2438829 C61.3351461,47.404221 62.0057862,47.6450695 62.3479216,48.2461671 C62.588507,48.6664578 62.6205396,49.2027378 62.4474272,49.7601688 C62.4494718,50.009887 62.3860882,50.2561937 62.2606839,50.4663391 C62.0875715,50.757677 61.8135905,50.9760098 61.4946276,51.1022335 C61.4012559,51.1963895 61.303795,51.263254 61.2111049,51.3123788 C61.0386741,51.4051703 60.8567017,51.4454254 60.6754107,51.4454254"/>
        <path fill="#FEFEFE" d="M60.964931,48.9441498 C60.964931,49.1993264 61.171439,49.4060603 61.4263368,49.4060603 C61.6812345,49.4060603 61.8877426,49.1993264 61.8877426,48.9441498 C61.8877426,48.6889733 61.6812345,48.4822394 61.4263368,48.4822394 C61.171439,48.4822394 60.964931,48.6889733 60.964931,48.9441498"/>
        <path fill="#3C3C3B" d="M57.4374596 47.2131116C57.2248176 47.2131116 57.0305774 47.0711952 56.9740091 46.8562739 56.9065362 46.5997328 57.0592022 46.3370511 57.3147815 46.2695044 57.5335574 46.2115097 57.755741 46.1494213 57.9799693 46.0880152 58.9545783 45.8164637 59.96122 45.5360425 60.9814925 45.4930582 61.8456913 45.4568968 63.1699328 46.0225153 63.4657233 46.207416 63.5515979 46.2613169 63.7737815 46.2176503 63.9700664 46.1780775 64.1534019 46.1425984 64.3735409 46.1037079 64.5759597 46.106437 64.8403991 46.1125776 65.0503149 46.3315928 65.044181 46.5970036 65.0380471 46.8576384 64.8254051 47.0657369 64.565055 47.0657369 64.5568765 47.0650546 64.5486979 47.0650546 64.5405194 47.0657369 64.4328353 47.0657369 64.2972079 47.0923462 64.1540835 47.1203201 63.8017248 47.1899137 63.3621284 47.2752 62.9586539 47.0220704 62.7071639 46.8644613 61.6146476 46.4393946 61.0217036 46.4523581 60.1125229 46.4898841 59.1583602 46.7552949 58.2369116 47.011836 58.0079126 47.0759713 57.7823213 47.138742 57.5601377 47.1974189 57.5185634 47.2083356 57.4776707 47.2131116 57.4374596 47.2131116M41.3718814 47.2131116C41.3316703 47.2131116 41.2907776 47.2083356 41.2492033 47.1974189 41.0277013 47.1394243 40.80211 47.0759713 40.5737925 47.0125183 39.6523439 46.7559772 38.6981812 46.4898841 37.7883189 46.4523581 37.2083243 46.416879 36.1028587 46.8644613 35.8506871 47.0220704 35.4444864 47.2758823 35.0055715 47.1892314 34.6552575 47.1203201 34.5053177 47.0909817 34.3690087 47.0609609 34.2551907 47.0657369 34.0193762 47.0875702 33.7719755 46.8610499 33.76516 46.5970036 33.7590261 46.3315928 33.9689419 46.1125776 34.2333813 46.106437 34.4323924 46.1030256 34.6552575 46.1425984 34.8392746 46.1780775 35.0355595 46.2176503 35.2584247 46.2613169 35.3436178 46.207416 35.6407713 46.0225153 36.9704652 45.4766832 37.8285301 45.4930582 38.8488026 45.5360425 39.8561258 45.8164637 40.8307348 46.0880152 41.0549631 46.1501036 41.2757836 46.2115097 41.4945595 46.2695044 41.7501388 46.3370511 41.9028048 46.5997328 41.8353319 46.8562739 41.7787636 47.0711952 41.5845234 47.2131116 41.3718814 47.2131116M29.782962 41.0065231C29.6241621 41.0065231 29.4680883 40.9280597 29.3767613 40.7834142 29.2356815 40.5589408 29.3024729 40.2628268 29.5260196 40.1209105 31.9386882 38.5953098 34.9361221 37.9948945 37.7488575 38.475909 38.7180142 38.6417055 39.6503674 38.9255382 40.5520512 39.2011834L42.3117998 39.7367812C42.5646529 39.8138799 42.7077773 40.08202 42.6307628 40.3358319 42.5544298 40.5889615 42.2893088 40.7329247 42.0323665 40.6544614L40.2726178 40.1188636C39.3988774 39.8527705 38.4965121 39.5771253 37.5873314 39.4222454 35.0029135 38.9780745 32.2535618 39.5314118 30.0385413 40.9328357 29.9588005 40.9826429 29.8701997 41.0065231 29.782962 41.0065231M67.0648931 40.7527111C67.047173 40.7527111 67.0294528 40.7520289 67.0117326 40.749982L64.1192565 40.4299879C63.281638 40.3371965 62.3329277 40.2314415 61.4973538 39.7818123 61.4285177 39.7449686 61.3610448 39.7060781 61.2928903 39.6665053 61.1177333 39.5648441 60.9521179 39.4686411 60.8021781 39.4406672 60.5840837 39.4010944 60.3182813 39.4816047 60.0599758 39.5607503L56.738808 40.5732688C56.4832287 40.6503676 56.2174263 40.5084513 56.1404117 40.2546394 56.0627156 40.0008274 56.20584 39.7326874 56.4586931 39.6555886L59.7805424 38.6423878C60.1151809 38.5414089 60.5309232 38.4151852 60.9766535 38.49706 61.288801 38.5543724 61.546425 38.7044762 61.7733794 38.8361582L61.9512626 38.9371371C62.6225842 39.2980686 63.4377118 39.3888132 64.2242144 39.4761463L67.1166905 39.7961404C67.3797668 39.8254789 67.5699178 40.0622335 67.5406114 40.3255975 67.5133496 40.571222 67.30616 40.7527111 67.0648931 40.7527111"/>
        <path fill="#1A4D9E" d="M63.9482356 127.679262C63.9482356 127.793887 63.9066614 127.905782 63.824876 128.014949 63.7376383 128.129574 63.6258649 128.186886 63.4902375 128.186886 63.3968659 128.186886 63.3048573 128.162324 63.2121673 128.113199 62.9443202 127.987657 62.6560267 127.924887 62.3445607 127.924887 61.9635772 127.924887 61.6309834 128.005397 61.3474607 128.166417 61.0639381 128.327438 60.8451622 128.553958 60.6931777 128.845978 60.5405117 129.137998 60.4641787 129.472321 60.4641787 129.848945 60.4641787 130.493027 60.6372911 130.981546 60.9828343 131.314504 61.329059 131.647461 61.7829678 131.81394 62.3445607 131.81394 62.6778361 131.81394 62.9668111 131.75117 63.2121673 131.625628 63.3096282 131.581962 63.3968659 131.559446 63.4738805 131.559446 63.6156418 131.559446 63.7355937 131.62017 63.8337361 131.740253 63.9148399 131.843961 63.9564142 131.955857 63.9564142 132.07594 63.9564142 132.163273 63.9339232 132.242418 63.8909859 132.313377 63.847367 132.384335 63.7846649 132.438918 63.7028795 132.477126 63.2775956 132.690001 62.8250498 132.796438 62.3445607 132.796438 61.8102296 132.796438 61.3201989 132.683178 60.872424 132.456658 60.4260122 132.230137 60.0688827 131.895815 59.8017171 131.453691 59.53387 131.011567 59.4009688 130.476652 59.4009688 129.848945 59.4009688 129.292196 59.5277361 128.79276 59.7812708 128.349953 60.0348055 127.908512 60.3844379 127.563273 60.8322129 127.314919 61.2793062 127.066566 61.7829678 126.942389 62.3445607 126.942389 62.8298206 126.942389 63.2803217 127.048826 63.694701 127.261701 63.8637241 127.349034 63.9482356 127.488221 63.9482356 127.679262M70.5360475 127.106275C70.6369162 127.199066 70.688032 127.310962 70.688032 127.441962 70.688032 127.51292 70.6709934 127.586607 70.6382793 127.662341L68.6188621 132.395388C68.5691093 132.498414 68.5016364 132.578242 68.4143986 132.632825 68.3264793 132.687408 68.2337893 132.7147 68.1363284 132.7147 68.0429567 132.709241 67.9570821 132.680585 67.8787044 132.628731 67.7989637 132.576877 67.7383062 132.501825 67.6940058 132.403575L65.673907 127.654836C65.6466452 127.600253 65.6336959 127.532024 65.6336959 127.450149 65.6336959 127.302774 65.6875379 127.183374 65.7965851 127.093311 65.9056323 127.003931 66.0174056 126.9589 66.1319051 126.9589 66.2245952 126.9589 66.3125145 126.986192 66.3936183 127.040093 66.4754037 127.094676 66.5381058 127.174504 66.5817247 127.278212L68.2256107 131.150891 69.7304616 127.278212C69.7740805 127.17928 69.8374641 127.103546 69.9192495 127.048963 70.0003533 126.994379 70.0875911 126.967088 70.1809627 126.967088 70.3165901 126.967088 70.4358605 127.013483 70.5360475 127.106275"/>
        <path fill="#1A4D9E" d="M65.0791229,137.795578 C63.1292233,137.76351 61.0655056,137.618865 59.184442,136.791247 C57.1166351,135.879707 55.5456744,134.15556 54.9820369,132.18033 C54.6930619,131.167129 54.6289967,129.99359 54.7912043,128.689734 C55.143563,125.865053 56.7588241,122.638503 59.5756487,121.799286 C59.6649311,121.769947 59.7603474,121.823848 59.7869276,121.913911 C59.8141894,122.003973 59.7630736,122.098811 59.6724281,122.125421 C57.0034987,122.920971 55.4672968,126.017203 55.1292505,128.732718 C54.9724952,129.990179 55.0338343,131.118004 55.3098599,132.086856 C55.8455541,133.965883 57.3456342,135.607473 59.3221141,136.47944 C61.147291,137.282496 63.1701159,137.423047 65.0845753,137.454433 C67.142159,137.487183 68.8528364,137.375287 70.4421988,136.71483 C72.818064,135.727556 74.7032168,133.394124 75.2436819,130.770719 C75.8175426,127.989022 74.8504305,124.935774 72.8937154,123.345355 C71.0276458,121.827942 68.6354236,121.673062 65.9276462,121.636219 C63.4631802,121.59801 60.7635813,121.854551 59.5320299,124.001036 C59.4856848,124.084276 59.3814085,124.111567 59.2996231,124.064489 C59.2178377,124.018093 59.1898944,123.913703 59.236921,123.831828 C60.5557101,121.531828 63.354133,121.252772 65.9330985,121.295074 C68.7042596,121.333282 71.1578209,121.494302 73.1077205,123.079944 C75.1598519,124.747462 76.1753536,127.938532 75.5776388,130.840312 C75.0058227,133.612457 73.0886372,135.98478 70.5723739,137.029366 C69.0941032,137.644792 67.5354103,137.801036 65.7013733,137.801036 C65.4975914,137.801036 65.2897202,137.798989 65.0791229,137.795578 Z"/>
      </g>
    </g>
  </g>
</svg>
