<?xml version="1.0" encoding="UTF-8"?>
<svg width="144px" height="251px" viewBox="0 0 144 251" version="1.1" xmlns="http://www.w3.org/2000/svg" xmlns:xlink="http://www.w3.org/1999/xlink">
    <!-- Generator: Sketch 47.1 (45422) - http://www.bohemiancoding.com/sketch -->
    <title>illus/femme/1@3x</title>
    <desc>Created with Sketch.</desc>
    <defs>
        <polygon id="path-1" points="0.245534689 0.186655477 28.7485117 0.186655477 28.7485117 49.8165891 0.245534689 49.8165891"></polygon>
        <polygon id="path-3" points="69.2833526 93.8740695 0.113287598 93.8740695 0.113287598 0.786683291 69.2833526 0.786683291 69.2833526 93.8740695"></polygon>
    </defs>
    <g id="Web-Design-V1" stroke="none" stroke-width="1" fill="none" fill-rule="evenodd">
        <g id="Page1-4" transform="translate(-644.000000, -365.000000)">
            <g id="Illus" transform="translate(135.000000, 263.000000)">
                <g id="Les-trois-personnages" transform="translate(0.000000, 94.000000)">
                    <g id="Group-2" transform="translate(403.000000, 8.000000)">
                        <g id="illus/femme/1-1" transform="translate(18.000000, 0.000000)">
                            <g transform="translate(33.259016, 0.000000)" id="illus/femme">
                                <g>
                                    <g id="fond" opacity="0.519870924" transform="translate(28.888364, 58.481321) scale(-1, 1) rotate(75.000000) translate(-28.888364, -58.481321) translate(13.817872, 32.828380)">
                                        <g id="Group-3" transform="translate(0.623607, 0.650365)">
                                            <mask id="mask-2" fill="white">
                                                <use xlink:href="#path-1"></use>
                                            </mask>
                                            <g id="Clip-2"></g>
                                        </g>
                                    </g>
                                    <g id="illus/fille/emploi" transform="translate(55.168838, 0.831262)">
                                        <path d="M31.3674616,197.429065 C32.3895428,210.775913 33.3479171,224.673922 29.0186136,237.160103 C59.0116667,237.431501 89.0010267,238.353512 118.962688,239.927064 C119.430796,231.96264 115.268607,224.539153 114.674932,216.584952 C114.168047,209.803712 116.274069,203.173972 117.79565,196.586057 C120.365164,185.461515 121.309689,173.866674 120.582137,162.404743 C98.1129688,162.396378 75.6438003,162.387083 53.1746317,162.376859 C46.8297876,162.375 33.5685833,159.003899 30.2419719,167.121682 C26.8350344,175.438367 31.3674616,188.637433 31.3674616,197.429065" id="Fill-1" fill="#F1AD29"></path>
                                        <path d="M5.47122777,135.531013 C2.5250116,139.881751 1.84454738,145.350613 1.37089996,150.594548 C-1.15429629,178.517901 -0.186689098,206.760055 4.24325299,234.441752 C10.4099023,239.926414 29.0187982,237.160382 38.2609242,237.044201 C40.0170205,226.767314 40.0447191,220.27885 41.6180041,210.797569 C39.4298085,208.64776 33.8088232,211.456546 30.9512428,210.363518 C25.6220169,208.324313 25.5823154,200.851565 26.5019116,195.189378 C27.7151137,187.713842 28.9283159,180.238306 30.1424413,172.76277 C46.0821079,171.794287 62.0217745,170.825804 77.9623644,169.857321 C90.4415426,169.097964 103.063831,168.347901 115.364814,170.596231 C117.76075,193.613967 119.778137,216.789709 119.190002,239.926414 C127.466367,239.926414 134.231308,239.853917 143.198294,239.926414 C141.348945,203.257901 141.687792,177.020563 136.951318,143.881158 C135.790744,135.764304 134.410426,133.880317 126.923473,130.649561 C119.137374,127.290543 108.336736,127.442972 99.6744357,126.864856 C91.8578684,126.342508 84.1788713,129.055561 76.3466081,129.207061 C62.0753253,129.483106 47.8031192,129.630888 33.5290665,129.676431 C23.6895724,129.708032 12.2647905,125.558984 5.47122777,135.531013" id="Fill-3" fill="#F1AD29"></path>
                                        <path d="M48.4401888,121.154525 C43.0444861,124.431752 27.4252009,128.433948 21.1394473,128.877293 C33.7820478,130.263098 49.1566613,132.094107 60.8962848,137.051773 C61.8583523,137.457941 62.8591979,137.6271 63.9025148,137.659631 C66.4886482,137.741422 70.2787508,136.982065 71.2555909,136.606568 C81.4274691,132.697317 82.7653154,131.93796 87.8997272,130.649747 C94.9037999,128.892165 101.122153,127.668084 108.336736,127.443158 C102.345512,125.003361 94.4901663,126.708895 90.0842297,121.949201 C88.435235,120.168382 87.6301267,117.780635 86.8702596,115.470961 C84.9156561,109.529011 82.9601294,103.587991 81.0055259,97.6460411 C82.1236293,101.047814 72.4032395,105.047221 70.2926001,105.371598 C65.1785006,106.155121 60.1982781,105.994327 56.6943952,102.574894 C45.3637888,91.5144843 57.3951718,115.713546 48.4401888,121.154525" id="Fill-5" fill="#E8CBAB"></path>
                                        <path d="M95.662282,83.3795062 C92.7797728,94.4380574 92.649589,106.213212 95.2883499,117.334036 C96.8108539,123.756509 99.2520309,130.041425 99.4920861,136.640493 C99.7330646,143.238632 97.1349285,150.534785 91.2203372,153.390044 C93.0586062,145.335463 91.5204062,138.157349 86.8023978,131.393769 C82.8968841,125.796644 76.8031747,119.758961 74.8060999,113.219377 C72.0611608,104.233491 77.7430832,94.9176517 83.9891353,87.9291455 C87.1837163,84.3544953 91.3551374,80.7073482 96.0860718,81.3681845 C97.1598573,89.8428753 95.8967975,98.6056943 92.4750873,106.424196" id="Fill-7" fill="#3C3C3B"></path>
                                        <path d="M65.5868715,16.0554401 C79.5774744,16.0554401 87.0533479,21.3597898 95.852295,30.162575 C105.75088,40.0648952 99.704258,57.4511164 98.2953185,70.1994009 C96.886379,82.946756 94.0758863,88.1302776 87.6350201,95.2498358 C84.171762,99.0782248 80.9079343,101.597954 76.4650661,106.670871 C72.3268834,111.398035 64.4604585,113.152829 58.4941631,110.239945 C54.728066,108.4015 49.4320785,102.14075 45.9180394,98.409953 C43.8267891,96.1895059 32.8719615,86.7649211 31.848957,78.3924695 C30.2876747,65.6097954 28.6183677,66.6080207 27.8261854,50.2980982 C26.9850689,33.02434 44.8082457,16.0554401 65.5868715,16.0554401" id="Fill-9" fill="#E8CBAB"></path>
                                        <path d="M64.6049533,9.95139492 C76.5255416,10.7061053 86.4028906,15.4611522 94.188066,24.2499958 C101.974165,33.0388393 104.903762,45.2898701 103.877987,56.8345218 C102.804202,54.9198625 96.2617738,61.886062 95.1593663,63.8574175 C91.5345325,70.3393755 91.6914917,57.901526 81.6599534,54.945887 C78.5955562,54.0433947 73.0909053,47.4452559 70.0717493,46.4386657 C67.05167,45.4330048 56.00636,36.4898732 56.0460615,33.3938878 C56.5270952,35.8085891 49.799086,41.6557353 47.7475372,43.1465671 C38.6143593,49.7846721 33.5852025,68.705409 31.665684,67.0379825 C29.9022015,65.5062551 30.414627,56.1327899 28.3326096,54.8018229 C26.5441982,54.2069773 26.1000961,51.9893186 26.0096137,50.1583095 C25.4962649,39.6806621 27.9134363,27.7484314 37.0521538,22.1410823 C39.2726646,20.7794435 43.0849262,16.9399011 45.548262,16.0550683 C53.9418851,13.044592 56.210407,12.9618713 64.6049533,9.95139492" id="Fill-11" fill="#3C3C3B"></path>
                                        <path d="M104.654474,70.3944917 C103.209526,75.8930956 100.262386,79.8776316 98.0741907,79.2939394 C95.885995,78.7111766 95.2840104,73.7813938 96.7289582,68.2837193 C98.1739059,62.7841859 101.121045,58.7996499 103.309241,59.3833422 C105.497437,59.966105 106.099421,64.8968172 104.654474,70.3944917" id="Fill-13" fill="#E8CBAB"></path>
                                        <path d="M32.4846416,68.4802042 C33.6599889,74.0429399 32.8179491,78.9374038 30.6039013,79.4123508 C28.3889303,79.8854389 25.6412213,75.7605566 24.4649507,70.1978209 C23.2905267,64.6341557 24.1325666,59.7406213 26.3466143,59.2656743 C28.5606621,58.7916567 31.3092944,62.9174685 32.4846416,68.4802042" id="Fill-15" fill="#E8CBAB"></path>
                                        <path d="M25.7429678,53.9694108 C25.647869,54.9230226 25.5536935,55.8896467 25.7134225,56.8348935 C25.8860776,57.8554255 26.346799,58.7988134 26.8121368,59.7217535 C27.7982098,61.6735906 28.8276774,63.6021916 29.9023861,65.5066269 C30.2061483,66.0457057 31.0398785,65.8663226 31.0841964,65.2482408 C31.2171501,63.3772656 31.8440635,61.4653947 32.1265901,59.5841955 C32.5494566,56.7698323 32.4765167,49.0108152 29.8054407,47.1593583 C25.4632111,44.1479525 25.9996422,51.3892681 25.7429678,53.9694108" id="Fill-17" fill="#3C3C3B"></path>
                                        <path d="M103.84835,53.9694108 C103.943448,54.9230226 104.037624,55.8896467 103.877895,56.8348935 C103.70524,57.8554255 103.244518,58.7988134 102.778257,59.7217535 C101.793108,61.6735906 100.762717,63.6021916 99.6889314,65.5066269 C99.3842459,66.0457057 98.1276491,66.3988953 98.0842545,65.7798841 C97.9513009,63.9098383 97.7472539,61.4653947 97.4638041,59.5841955 C97.0409376,56.7698323 97.1148008,49.0108152 99.7858767,47.1593583 C104.128106,44.1479525 103.590752,51.3892681 103.84835,53.9694108" id="Fill-19" fill="#3C3C3B"></path>
                                        <path d="M67.3000348,0.612505067 C68.5501685,0.171947553 69.9267929,-0.268609961 71.1640006,0.203548725 C72.5794031,0.743556986 73.3097249,2.26598991 74.146225,3.53654291 C76.2531712,6.73569684 79.8392269,8.90316546 83.6357925,9.27122617 C85.5479247,14.2298218 84.211925,19.9570695 81.5362326,24.5438867 C80.9721029,25.5114402 80.3294935,26.4669109 79.4237467,27.1212411 C77.9113988,28.2114815 75.9272501,28.2969905 74.0677454,28.3378862 C68.6147988,28.4577847 62.494314,28.2802605 58.6931319,24.3421968 C56.2482618,21.8113147 54.9759691,18.3379742 52.7240665,15.6332856 C51.4222286,14.0708865 48.3476752,12.2463836 48.4418507,9.9171913 C48.6569771,4.67139676 63.5080856,1.95090764 67.3000348,0.612505067" id="Fill-21" fill="#3C3C3B"></path>
                                        <path d="M58.6180685,90.3231201 C58.6328411,91.3111215 58.5986794,91.5815903 58.8710497,92.5324138 C59.0704802,93.2229924 59.7380184,94.3141622 60.3141509,94.7398486 C60.8219601,95.1153449 61.2799115,95.5503257 61.9040551,95.6395526 C63.3767016,95.8505369 64.8511946,96.0624506 66.3293808,96.2418337 C68.0670112,96.4537475 69.9772968,96.5810816 71.4222446,95.5865741 C72.5634302,94.8021215 73.4802564,93.6839977 74.0480794,92.416233 C74.1671837,92.1504114 74.2696688,91.4839985 74.2207345,91.1958701 C74.1173261,90.5889417 73.0980147,90.5396811 72.4914136,90.4504543 C67.9894549,89.7793941 63.3730084,89.1111222 58.9209074,90.0600868" id="Fill-23" fill="#FEFEFE"></path>
                                        <path d="M62.4509194,96.7820279 C63.1156877,97.1026868 63.8432396,97.2616221 64.5634053,97.4177691 C66.0831395,97.7477225 67.6785834,98.075817 69.1715422,97.6389773 C70.5297008,97.2411743 71.6394946,96.2513141 72.560014,95.1703681 C73.1130643,94.5216146 73.629183,93.7985055 73.7898353,92.960145 C73.69289,93.2687211 73.3605058,93.426727 73.0595135,93.5401194 C68.2981106,95.3460335 63.688127,94.7158689 59.0421353,93.0149823 C58.8814829,93.6200518 59.906334,94.5550747 60.2691867,94.9789022 C60.8877906,95.7001525 61.5885672,96.3665654 62.4509194,96.7820279" id="Fill-25" fill="#BD9699"></path>
                                        <path d="M77.7311727,90.6870913 C78.054324,90.6248184 78.4707275,90.4194108 78.3774753,90.1015401 C75.7359445,90.4389291 73.1018002,89.6182281 70.4593462,89.291063 C68.4447289,89.0419714 66.4079527,89.0819376 64.3794861,89.1219038 C63.6648602,89.136775 62.9483877,89.1507166 62.2393015,89.2399435 C61.2467655,89.3654187 60.2754651,89.636817 59.2829291,89.7622923 C58.4805907,89.8636019 57.6699427,89.8654608 56.8676043,89.7780929 C56.5065982,89.7381267 56.0938878,89.5866269 55.7578105,89.7279028 C55.985863,90.3171717 57.0088675,90.6805851 57.5480685,90.9231706 C58.7603474,91.4668967 59.9984783,91.6620804 61.3132423,91.8061445 C64.8032759,92.1900058 68.3320876,92.0478006 71.8138116,91.6314086 C73.797037,91.3943999 75.7701063,91.0663053 77.7311727,90.6870913" id="Fill-27" fill="#BD9699"></path>
                                        <g id="Group-31" transform="translate(40.624729, 155.927618)">
                                            <mask id="mask-4" fill="white">
                                                <use xlink:href="#path-3"></use>
                                            </mask>
                                            <g id="Clip-30"></g>
                                            <path d="M2.81760198,93.8744412 L66.5808848,93.8744412 C68.0738436,93.8744412 69.2833526,92.6550078 69.2833526,91.1520932 L69.2833526,3.50717241 C69.2833526,2.00425786 68.0738436,0.786683291 66.5808848,0.786683291 L2.81760198,0.786683291 C1.32464317,0.786683291 0.113287598,2.00425786 0.113287598,3.50717241 L0.113287598,91.1520932 C0.113287598,92.6550078 1.32464317,93.8744412 2.81760198,93.8744412" id="Fill-29" fill="#FFFFFF" mask="url(#mask-4)"></path>
                                        </g>
                                        <path d="M121.034734,239.501006 C120.833457,239.501006 120.639566,239.388543 120.544467,239.194289 C116.950102,231.879547 112.477689,222.775621 113.70197,213.419816 C113.864469,212.175287 114.129453,210.939124 114.384281,209.741997 C114.588328,208.793032 114.797915,207.810608 114.952104,206.843054 C115.1026,205.897807 115.206932,204.920959 115.30757,203.976642 C115.44791,202.664264 115.591943,201.307272 115.865237,199.980953 C116.361043,197.571828 117.27787,195.176645 118.165151,192.860465 C119.907398,188.310826 121.553622,184.013996 120.201004,179.705083 C120.109598,179.415096 120.269327,179.10559 120.557393,179.013575 C120.847306,178.92063 121.153838,179.082354 121.245244,179.373271 C122.71235,184.049315 120.919323,188.730006 119.185385,193.257339 C118.314724,195.530764 117.413593,197.883192 116.937176,200.204949 C116.674962,201.47829 116.533698,202.807399 116.396128,204.094682 C116.293643,205.052941 116.187465,206.04373 116.032352,207.01779 C115.873547,208.015086 115.66119,209.010523 115.454373,209.974358 C115.204162,211.149178 114.943794,212.363965 114.786835,213.56388 C113.69643,221.908448 117.192927,229.886815 121.525,238.70633 C121.659801,238.978658 121.549006,239.308611 121.277559,239.443381 C121.200003,239.482417 121.116907,239.501006 121.034734,239.501006" id="Fill-32" fill="#3C3C3B"></path>
                                        <path d="M39.7446501,212.077788 C54.8819783,213.969211 69.8586541,215.627343 84.9701302,212.308291 C87.0226023,211.857509 89.2200309,211.303559 90.5643401,209.731866 C92.0462195,207.998449 94.0294449,204.735163 95.6368916,203.11142 C100.091762,198.611042 102.736986,193.436815 104.663891,195.134913 C105.944493,197.0189 101.9605,201.183749 101.123077,205.540063 C103.42576,207.472382 109.600719,205.591183 113.742595,204.914546 C115.399899,213.319528 115.104447,216.5224 113.088906,224.835367 C112.735286,226.299245 109.779837,229.132197 108.275799,229.471445 C107.486387,229.64804 90.9253462,227.136676 90.9253462,227.136676 C79.0555389,223.833424 65.6309124,232.521888 45.8180472,234.199538 C43.2882345,234.413311 40.4066486,234.56574 37.3256321,234.648461 C37.3256321,234.648461 34.5446847,227.832831 34.8216715,221.968955 C35.0995816,216.104149 39.7446501,212.077788 39.7446501,212.077788" id="Fill-34" fill="#E8CBAB"></path>
                                        <path d="M25.969266,204.259194 C25.2491003,206.852349 24.2925726,208.836716 23.0886034,210.229956 C24.8613188,209.465022 26.5176998,208.433337 27.995886,207.165572 C27.1640024,206.316058 26.4715354,205.342928 25.969266,204.259194 L25.969266,204.259194 Z M38.6395651,235.833412 C37.2897162,235.833412 35.7579792,234.559141 35.1652275,233.355508 C31.7878352,226.507348 34.0194255,217.250064 40.1399103,212.720872 C40.7058866,212.300762 41.2921753,211.691046 41.0788955,211.354586 C40.9136267,211.091553 40.3245681,211.125013 39.8269152,211.18078 C36.105136,211.622267 31.9457177,210.478118 28.9930385,208.07457 C28.694816,211.335068 27.9395654,214.529574 26.744829,217.578158 C26.633111,217.865357 26.3099597,218.007562 26.0255866,217.892311 C25.7402902,217.779848 25.6008736,217.454542 25.7135149,217.168272 C26.773451,214.461725 27.4760741,211.635279 27.807535,208.750278 C25.2555634,210.696538 22.2742622,212.017281 19.111073,212.594467 C18.817467,212.643728 18.5229377,212.449474 18.4666171,212.145545 C18.4102964,211.843475 18.6078804,211.553488 18.9088727,211.494932 C21.9908124,210.906593 24.0912955,207.896117 25.3072676,202.306427 C25.2740291,202.157716 25.2444839,202.007145 25.2186318,201.854716 C24.8474695,199.723496 25.1807769,197.604359 25.5020816,195.554 C26.2019349,191.1066 26.9257937,186.506771 28.9016328,182.320545 C29.0207372,182.068665 29.3051103,181.941331 29.5719409,182.028699 C29.8360016,182.114208 29.9975772,182.383747 29.9495662,182.658863 L26.6885084,201.036803 C26.6118754,201.468067 26.5306259,201.887247 26.4456833,202.294344 C27.8176912,207.742758 34.260404,210.703974 39.698578,210.07195 C40.2673242,210.00503 41.4528277,209.866543 42.0151109,210.754164 C42.2690154,211.156614 42.6586435,212.240348 40.7972923,213.620576 C35.0904411,217.84305 33.0102702,226.473888 36.1586868,232.859184 C36.6323342,233.820231 37.831687,234.716217 38.6386419,234.716217 L38.6552611,234.716217 C38.9479438,234.71157 39.1344482,234.584236 39.2609389,234.304472 C39.3892761,234.02285 39.7188903,233.899234 39.9968004,234.028427 C40.2756338,234.15762 40.3984313,234.488503 40.2710174,234.769196 C39.9644853,235.443974 39.3966624,235.821329 38.6728036,235.833412 L38.6395651,235.833412 Z" id="Fill-36" fill="#3C3C3B"></path>
                                        <path d="M64.5517719,146.151609 C64.7465859,146.162763 64.9330903,146.118149 65.0706605,146.01591 C65.1399072,145.96572 65.1989977,145.899729 65.247932,145.821656 C65.0891262,145.739865 64.9146246,145.687816 64.7336599,145.665509 C64.7345831,145.796561 64.759512,145.923895 64.8084463,146.039146 L64.5517719,146.151609 Z M64.6154788,147.271592 C64.3680373,147.271592 64.1141327,147.226049 63.8666912,147.135893 C63.2139257,146.895166 62.7347385,146.382112 62.5851656,145.763101 L62.5094559,145.450807 L62.7402782,145.22774 C63.0597363,144.919164 63.4558275,144.712827 63.878694,144.610587 C64.1482944,144.075226 64.5988596,143.673706 65.129751,143.499899 L65.3725761,143.420896 L65.589549,143.555666 C66.1296733,143.888408 66.4685205,144.504631 66.4962191,145.202645 C66.5248411,145.901588 66.2358516,146.542906 65.7252726,146.918402 C65.407661,147.151693 65.0198795,147.271592 64.6154788,147.271592 L64.6154788,147.271592 Z" id="Fill-38" fill="#3C3C3B"></path>
                                        <path d="M63.9251354,152.992612 C64.2602894,152.992612 64.5677448,153.091134 64.8087233,153.267728 C64.7745616,153.009342 64.5742078,152.784416 64.3849335,152.657082 C64.1910427,152.525101 63.8974367,152.421003 63.646302,152.496288 C63.6204499,152.670095 63.6740007,152.852266 63.7543269,153.000977 C63.8106475,152.995401 63.8688148,152.992612 63.9251354,152.992612 M64.4892652,154.627508 C64.0488562,154.627508 63.611217,154.451843 63.2529808,154.133043 L62.5614371,153.908117 C62.6076016,153.764982 62.6786948,153.633001 62.7691772,153.51775 C62.4820342,152.9796 62.4478725,152.369883 62.6934675,151.85497 L62.7608676,151.713694 L62.8919747,151.628185 C63.4976525,151.232241 64.3276895,151.271278 65.0044606,151.730424 C65.6803084,152.188641 66.0293117,152.94614 65.8935882,153.661814 L65.0524717,153.499161 C65.1355677,153.6014 65.2020445,153.71851 65.2491323,153.845844 L65.4725683,154.447196 L64.8502713,154.587542 C64.731167,154.613567 64.6102161,154.627508 64.4892652,154.627508" id="Fill-40" fill="#3C3C3B"></path>
                                        <path d="M118.695857,233.410624 C118.409638,233.410624 118.167736,233.190345 118.14373,232.89757 C117.66085,226.914724 118.00616,220.894701 119.168581,215.0048 C119.215669,214.763144 119.416023,214.580973 119.659771,214.557737 L123.497885,214.186888 L122.054784,213.898759 C121.22567,213.731459 120.092794,213.503745 119.3477,212.680255 C118.885132,212.169989 118.682008,211.394831 118.830658,210.706111 C118.950685,210.143796 119.283993,209.71904 119.766873,209.509914 C120.049399,209.390016 120.375321,209.519209 120.495348,209.80269 C120.617222,210.086171 120.486115,210.414265 120.205435,210.536023 C120.056786,210.600155 119.958917,210.736783 119.914599,210.942191 C119.842583,211.277721 119.945991,211.683889 120.168504,211.928333 C120.630148,212.439529 121.393709,212.626347 122.270834,212.802942 L127.411708,213.833698 C127.682232,213.887606 127.871506,214.13298 127.85858,214.409955 C127.843808,214.686 127.631451,214.910926 127.357234,214.93788 L120.177737,215.630318 C119.099335,221.288786 118.78634,227.065295 119.249831,232.807413 C119.27476,233.11506 119.047631,233.3846 118.742022,233.408765 C118.726326,233.410624 118.711553,233.410624 118.695857,233.410624" id="Fill-42" fill="#3C3C3B"></path>
                                        <path d="M98.0832389,74.2983517 C97.8237946,74.2983517 97.5911257,74.1133919 97.5394215,73.8466409 C97.4812543,73.5436414 97.6779149,73.2508658 97.9789072,73.1923107 C100.128325,72.7712716 101.919506,70.9672164 102.334986,68.8025362 C102.750466,66.6378559 101.756084,64.2900747 99.9150449,63.0948069 C99.6583705,62.928436 99.5845073,62.582682 99.7506994,62.322437 C99.9168915,62.064051 100.260355,61.9887658 100.517953,62.1569956 C102.728307,63.59299 103.923967,66.4138594 103.424468,69.0144499 C102.925891,71.6150405 100.772781,73.7834385 98.1894172,74.2881278 C98.1543322,74.2955634 98.1183239,74.2983517 98.0832389,74.2983517" id="Fill-44" fill="#3C3C3B"></path>
                                        <path d="M30.1565677,75.0108652 C30.0088414,75.0108652 29.8620384,74.9523101 29.7530902,74.8361293 C25.9666808,70.7856027 25.6407597,63.916995 29.0273848,59.5244321 C29.2148126,59.2781289 29.5638159,59.2363038 29.8057177,59.4249814 C30.0485428,59.6145884 30.0919374,59.9659191 29.9045097,60.2085045 C26.8382659,64.1865344 27.1337185,70.4036003 30.5600451,74.0693362 C30.770555,74.2942622 30.7594756,74.6474517 30.5369629,74.8593655 C30.4298613,74.9606751 30.2922912,75.0108652 30.1565677,75.0108652" id="Fill-46" fill="#3C3C3B"></path>
                                        <path d="M31.3413325,207.150143 C31.3219434,207.150143 31.3016311,207.149214 31.282242,207.147355 C30.9766332,207.114824 30.7559671,206.839708 30.7882822,206.532991 C31.3293297,201.426613 31.189913,196.266328 30.3746486,191.19341 C29.9988698,188.855853 29.4689018,186.475541 28.9564762,184.173303 C27.7026493,178.53807 26.4054279,172.710442 27.2059197,166.893968 C27.2474677,166.58911 27.5336874,166.378125 27.8309866,166.417162 C28.1347487,166.459917 28.3471053,166.741539 28.3055573,167.047327 C27.5327641,172.66397 28.8069033,178.391218 30.0394946,183.929788 C30.55469,186.247827 31.0892745,188.644869 31.4696697,191.015886 C32.3015534,196.185466 32.4428166,201.446132 31.8925362,206.65103 C31.8611444,206.9373 31.6210892,207.150143 31.3413325,207.150143" id="Fill-48" fill="#3C3C3B"></path>
                                        <path d="M6.09057024,136.768199 C5.83851226,136.768199 5.60953651,136.594393 5.55044599,136.335077 C5.13681239,134.522657 5.97885223,132.464863 7.69617034,131.09393 C9.18728257,129.90145 11.0153954,129.361442 12.7604122,128.910661 C18.4192523,127.445853 22.9701453,126.996931 27.0833992,127.494184 C29.5144199,127.789748 31.9038927,128.436643 34.2139625,129.06216 L35.5776608,129.429292 C42.7710078,131.334656 50.1748648,132.613574 57.586108,133.228868 C57.8907935,133.254892 58.1188459,133.524432 58.0929938,133.832078 C58.068065,134.138796 57.8123139,134.381381 57.4947024,134.342344 C50.0188289,133.722404 42.5503417,132.432332 35.2951343,130.509308 L33.9258963,130.140318 C31.6536813,129.525024 29.30391,128.888354 26.9504455,128.603943 C22.9812248,128.12342 18.558669,128.563977 13.0355524,129.992536 C11.4077934,130.413575 9.70617116,130.912688 8.38586745,131.968539 C7.25206819,132.874749 6.26876508,134.498491 6.63254106,136.085056 C6.70086447,136.385267 6.51436003,136.684549 6.21613758,136.754257 C6.17458957,136.763552 6.13211826,136.768199 6.09057024,136.768199" id="Fill-50" fill="#3C3C3B"></path>
                                        <path d="M57.5450216,69.6610657 C57.4877777,68.7818095 57.3880625,67.9053417 57.2458759,67.0363095 C57.0621413,65.9051734 56.7666888,64.7136234 55.9338818,63.9319591 C54.9690445,63.0266785 53.5324063,62.8984149 52.2139492,62.8733198 C51.2721941,62.8556603 50.3313623,62.8658843 49.3914538,62.9039916 C48.6232771,62.9355927 47.8163222,62.9987951 47.177406,63.4263403 C46.5329501,63.8576034 46.1590179,64.5937248 45.9032668,65.3279873 C45.3816083,66.8262547 45.2384985,68.4565033 45.492403,70.0235497 C45.5339511,70.2810063 45.5995046,70.5616991 45.8072447,70.7206344 C46.0020587,70.8693458 46.2679661,70.8702752 46.5126377,70.8609807 C50.2011785,70.7206344 53.8435548,69.7949059 57.5339422,69.880415" id="Fill-52" fill="#FEFEFE"></path>
                                        <path d="M76.3246338,69.6410826 C76.3846476,68.7627559 76.4871327,67.8862881 76.6320891,67.0172559 C76.8195169,65.8870492 77.1186626,64.6964286 77.9542394,63.9184821 C78.9218466,63.0150604 80.3584848,62.891444 81.6778652,62.8709962 C82.6177737,62.8561251 83.5595288,62.8700668 84.4994373,62.9109624 C85.267614,62.9444225 86.0745689,63.0104131 86.7125618,63.4398173 C87.3551712,63.8729392 87.7272567,64.6109196 87.980238,65.3461115 C88.49728,66.8453083 88.6348501,68.475557 88.3763291,70.0426033 C88.3338578,70.3000599 88.2664577,70.5807527 88.0587176,70.7387586 C87.8639036,70.8865405 87.5979962,70.8865405 87.3533246,70.8763166 C83.6647838,70.7248169 80.0251773,69.7870056 76.33479,69.8613613" id="Fill-54" fill="#FEFEFE"></path>
                                        <path d="M46.4502234,71.4001525 C46.1418447,71.4001525 45.8685511,71.1789443 45.8122305,70.8620031 C45.7485235,70.5069547 45.983039,70.1667774 46.3366588,70.1026456 C49.7177442,69.4929288 53.1726928,69.2289661 56.6119455,69.3107574 C56.9701817,69.3200518 57.2536315,69.6193335 57.2443986,69.9808881 C57.2351658,70.3405838 56.9157077,70.6259238 56.5796303,70.6175588 C53.2354765,70.5348381 49.8617774,70.795083 46.5656345,71.3899286 C46.5268564,71.3973642 46.4880782,71.4001525 46.4502234,71.4001525" id="Fill-56" fill="#3C3C3B"></path>
                                        <path d="M46.919162,64.3893396 L46.9154688,64.3893396 C46.4676735,64.3865512 45.8906177,64.2108859 45.380962,63.517519 C44.611862,63.1485289 43.9914116,62.455162 43.7642824,61.6251665 C43.7171947,61.4569367 43.7421235,61.2822008 43.8215264,61.1362778 C43.7642824,61.0693576 43.7088851,61.0005786 43.6562576,60.9290113 C43.4854491,60.7031558 43.4799093,60.3917913 43.641485,60.1594298 C43.8049072,59.9270682 44.0957433,59.8276175 44.3662671,59.9103382 C44.9488626,60.0925096 45.3255647,60.518196 45.5960884,60.9912841 C46.2257717,61.4151116 46.9810224,61.667921 47.7399662,61.7106755 C47.7575087,61.7050989 47.7750512,61.6985927 47.7916704,61.6930161 C47.9504762,61.6363198 48.1203614,61.6437554 48.2671644,61.7069577 C48.5792362,61.6837216 48.8866915,61.6233076 49.1812208,61.5229274 C49.5163748,61.4076761 49.8893837,61.5898475 50.0047949,61.9318837 C50.120206,62.2739199 49.938318,62.644769 49.5976243,62.7609498 C49.1729112,62.9059434 48.7325022,62.990523 48.2884,63.0174769 L47.4343574,64.1346713 C47.3106367,64.2945361 47.1204391,64.3893396 46.919162,64.3893396" id="Fill-58" fill="#3C3C3B"></path>
                                        <path d="M51.1803268,69.7989955 C50.896877,69.7989955 50.6125039,69.7274281 50.3521363,69.5629161 C50.2321087,69.487631 50.1056181,69.3853919 49.9892836,69.2478339 C49.5701103,69.0452146 49.2220302,68.7236262 49.0152134,68.3118815 C48.8656405,68.0135293 48.8047034,67.6742814 48.8314788,67.3341041 C48.6505141,66.5589459 48.7446896,65.8339779 49.1103122,65.2846751 C49.6310474,64.4992931 50.5607997,64.2390481 51.1757104,64.0652417 C51.3954532,64.0011099 51.7324538,63.9090947 52.0971531,63.9983215 C52.5652608,64.1172907 52.9354998,64.4974342 53.1423166,65.069973 C53.2475716,65.3608897 53.3057388,65.6545947 53.3371306,65.9408642 C53.3546731,65.9994193 53.3694458,66.0579744 53.3814485,66.1193178 C53.4257664,66.3619033 53.4017609,66.5914765 53.3602129,66.7959547 C53.3583663,66.8452154 53.3565197,66.894476 53.3546731,66.9418778 C53.3232813,67.6008551 53.2291058,68.3574244 52.7628447,68.9829417 C52.4119947,69.4541709 51.7998539,69.7989955 51.1803268,69.7989955" id="Fill-60" fill="#3C3C3B"></path>
                                        <path d="M51.3948992,66.4089333 C51.3948992,66.7565462 51.6746559,67.0381684 52.0199661,67.0381684 C52.3652763,67.0381684 52.645033,66.7565462 52.645033,66.4089333 C52.645033,66.0622498 52.3652763,65.7796982 52.0199661,65.7796982 C51.6746559,65.7796982 51.3948992,66.0622498 51.3948992,66.4089333" id="Fill-62" fill="#FEFEFE"></path>
                                        <path d="M87.037098,71.6643011 C86.9992431,71.6643011 86.960465,71.6615128 86.9216868,71.6540772 C83.6264673,71.0592316 80.2499983,70.7999161 76.907691,70.8826368 C76.5540712,70.8668363 76.2512323,70.6056619 76.2429227,70.2459662 C76.2336898,69.8844116 76.5171396,69.5851299 76.8753759,69.5758354 C80.3100121,69.4940442 83.7686538,69.756148 87.1506626,70.3667942 C87.5042824,70.430926 87.7387979,70.7711033 87.6750909,71.1261518 C87.6187703,71.4430929 87.3454766,71.6643011 87.037098,71.6643011" id="Fill-64" fill="#3C3C3B"></path>
                                        <path d="M88.8656725,65.5084858 C88.6643954,65.5084858 88.4741978,65.4146117 88.3514003,65.254747 L87.4973577,64.1366231 C87.0523323,64.1096692 86.6119233,64.0250896 86.1862869,63.880096 C85.8465164,63.7639152 85.6646284,63.3930662 85.7800396,63.0501005 C85.8954508,62.7089937 86.2647665,62.5258928 86.6045369,62.6420736 C86.8981429,62.7424538 87.2055983,62.8037972 87.5167468,62.826104 C87.6635498,62.7629016 87.8352816,62.7563955 87.9931641,62.8121623 C88.0097833,62.8177389 88.0282491,62.8242451 88.0457916,62.8307512 C88.8047354,62.7870672 89.559986,62.5342578 90.1896693,62.1095009 C90.4611164,61.6354833 90.8378184,61.2116559 91.420414,61.0294844 C91.6872446,60.9439753 91.9826972,61.045285 92.1442728,61.278576 C92.3058484,61.5109375 92.3003087,61.822302 92.1295002,62.0490869 C92.0759494,62.1197248 92.020552,62.1894333 91.9633081,62.2563534 C92.042711,62.401347 92.0676398,62.5770124 92.020552,62.7443127 C91.7934228,63.5752376 91.1711259,64.269534 90.4011026,64.6375947 C89.8905236,65.331891 89.3162376,65.5056974 88.8693656,65.5084858 L88.8656725,65.5084858 Z" id="Fill-66" fill="#3C3C3B"></path>
                                        <path d="M82.1970308,70.0812683 C81.5387255,70.0812683 80.8970394,69.6778886 80.5600388,69.1527515 C80.1380956,68.4928447 80.0974709,67.7306988 80.1122435,67.0726508 C80.1131668,67.0252491 80.1150134,66.9769179 80.11686,66.9285867 C80.0900846,66.7241085 80.081775,66.4936058 80.1427121,66.2510204 C80.158408,66.1887475 80.1787204,66.1283335 80.2027259,66.0697784 C80.2535068,65.7872267 80.3310631,65.4990984 80.4547839,65.221194 C80.7031487,64.6644557 81.0992398,64.3112661 81.5719639,64.2276159 C81.9458961,64.1606958 82.2708939,64.2796649 82.4869436,64.3577384 C83.0907748,64.5761583 83.9992915,64.9042528 84.4627827,65.7230949 C84.7887039,66.2956338 84.8320985,67.0261785 84.597583,67.7855361 C84.6003528,68.1257134 84.5144869,68.4612435 84.3446017,68.747513 C84.1100862,69.1443865 83.7389239,69.4418093 83.3068245,69.6137568 C83.1803339,69.7420204 83.0483035,69.8331062 82.9227362,69.9000263 C82.689144,70.026431 82.4426257,70.0812683 82.1970308,70.0812683" id="Fill-68" fill="#3C3C3B"></path>
                                        <path d="M82.5892441,66.6739184 C82.5892441,67.0215313 82.8690007,67.3031535 83.2143109,67.3031535 C83.5596211,67.3031535 83.8393778,67.0215313 83.8393778,66.6739184 C83.8393778,66.3263055 83.5596211,66.0446833 83.2143109,66.0446833 C82.8690007,66.0446833 82.5892441,66.3263055 82.5892441,66.6739184" id="Fill-70" fill="#FEFEFE"></path>
                                        <path d="M77.8105756,64.3158204 C77.5225094,64.3158204 77.2593719,64.1224956 77.1827389,63.82972 C77.0913332,63.4802482 77.2981501,63.1224114 77.6443835,63.0303962 C77.9407594,62.9513933 78.2417517,62.8668137 78.5455139,62.7831635 C79.8658176,62.4132439 81.2295159,62.0312415 82.61168,61.9726864 C83.7824109,61.9234258 85.576362,62.6939367 85.9770695,62.9458166 C86.093404,63.0192429 86.3943963,62.9597583 86.6603036,62.9058504 C86.9086684,62.8575192 87.2068909,62.8045408 87.4811078,62.8082586 C87.8393441,62.8166236 88.1237172,63.1149758 88.1154076,63.4765304 C88.107098,63.8315789 87.8190317,64.11506 87.4663352,64.11506 C87.4552557,64.1141305 87.4441762,64.1141305 87.4330968,64.11506 C87.2872171,64.11506 87.1034825,64.1513084 86.9095917,64.1894157 C86.4322512,64.2842192 85.8367296,64.4004 85.2901423,64.0555754 C84.9494485,63.8408734 83.4694158,63.2618283 82.6661541,63.2794878 C81.4344861,63.3306074 80.1418811,63.692162 78.893594,64.0416337 C78.5833688,64.1290017 78.27776,64.2145107 77.9767677,64.2944431 C77.920447,64.3093143 77.8650497,64.3158204 77.8105756,64.3158204" id="Fill-72" fill="#3C3C3B"></path>
                                        <path d="M56.0465231,64.3158204 C55.992049,64.3158204 55.9366517,64.3093143 55.880331,64.2944431 C55.580262,64.2154402 55.2746532,64.1290017 54.9653513,64.0425632 C53.7170642,63.6930914 52.4244592,63.3306074 51.1918679,63.2794878 C50.4061487,63.2311566 48.9085735,63.8408734 48.5669564,64.0555754 C48.016676,64.4013294 47.4220777,64.2832898 46.947507,64.1894157 C46.7443833,64.1494495 46.5597255,64.1085539 46.4055362,64.11506 C46.0860781,64.1448023 45.750924,63.8362261 45.7416912,63.4765304 C45.7333815,63.1149758 46.0177547,62.8166236 46.3759909,62.8082586 C46.6455914,62.8036114 46.947507,62.8575192 47.1967951,62.9058504 C47.4627024,62.9597583 47.764618,63.0192429 47.8800292,62.9458166 C48.2825833,62.6939367 50.0839208,61.9503797 51.246342,61.9726864 C52.6285061,62.0312415 53.9931277,62.4132439 55.3134314,62.7831635 C55.6171936,62.8677431 55.9163393,62.9513933 56.2127152,63.0303962 C56.5589487,63.1224114 56.7657655,63.4802482 56.6743598,63.82972 C56.5977268,64.1224956 56.3345894,64.3158204 56.0465231,64.3158204" id="Fill-74" fill="#3C3C3B"></path>
                                        <path d="M40.3470041,55.8609268 C40.1318777,55.8609268 39.9204444,55.7540405 39.7967236,55.5569979 C39.6056027,55.2512101 39.6960851,54.8478304 39.998924,54.6545056 C43.2673681,52.5762639 47.3279945,51.7583512 51.1384095,52.4136108 C52.4513269,52.6394662 53.7143866,53.0261158 54.9358984,53.4016121 L57.3198314,54.1312274 C57.6623717,54.2362548 57.8562625,54.6015272 57.7519308,54.9472812 C57.6485224,55.2921057 57.2893628,55.4882189 56.9412828,55.3813326 L54.5573498,54.6517173 C53.3736929,54.2892333 52.1512578,53.913737 50.9195899,53.7027527 C47.4184769,53.0976832 43.6939278,53.8514641 40.6932376,55.7605466 C40.5852127,55.8283962 40.4651851,55.8609268 40.3470041,55.8609268" id="Fill-76" fill="#3C3C3B"></path>
                                        <path d="M90.852868,55.5151728 C90.8288625,55.5151728 90.804857,55.5142434 90.7808515,55.5114551 L86.8624117,55.0755448 C85.7276891,54.9491401 84.4424704,54.8050759 83.3105177,54.1925708 C83.2172655,54.1423808 83.1258598,54.0894023 83.0335309,54.0354944 C82.7962455,53.8970069 82.5718862,53.765955 82.3687626,53.7278477 C82.07331,53.6739399 81.7132272,53.7836145 81.3633005,53.8914303 L76.8641118,55.2707285 C76.5178783,55.3757559 76.1577954,55.1824311 76.0534637,54.8366771 C75.9482088,54.4909231 76.1420995,54.1256507 76.4846398,54.0206233 L80.9847519,52.6403956 C81.438087,52.5028376 82.0012935,52.33089 82.6051247,52.4424236 C83.0279912,52.5204971 83.3769945,52.7249752 83.6844499,52.9043584 L83.9254284,53.0419164 C84.8348683,53.5335935 85.9391223,53.6572098 87.0045982,53.7761789 L90.923038,54.2120892 C91.2794277,54.2520554 91.5370254,54.5745733 91.497324,54.9333395 C91.4603924,55.2679401 91.1797124,55.5151728 90.852868,55.5151728" id="Fill-78" fill="#3C3C3B"></path>
                                        <path d="M86.6307295,173.930423 C86.6307295,174.08657 86.5744088,174.239 86.4636141,174.387711 C86.3454331,174.543858 86.1940136,174.621931 86.010279,174.621931 C85.8837884,174.621931 85.7591444,174.588471 85.633577,174.521551 C85.2707243,174.350533 84.8801729,174.265024 84.4582297,174.265024 C83.942111,174.265024 83.4915458,174.374699 83.1074575,174.594048 C82.7233691,174.813397 82.4269933,175.121974 82.2210997,175.519777 C82.0142829,175.917579 81.9108745,176.373008 81.9108745,176.886062 C81.9108745,177.76346 82.14539,178.428943 82.6134977,178.882513 C83.0825287,179.336083 83.6974393,179.562868 84.4582297,179.562868 C84.9097182,179.562868 85.3011929,179.477359 85.633577,179.30634 C85.7656074,179.246856 85.8837884,179.216184 85.9881201,179.216184 C86.1801643,179.216184 86.3426632,179.298905 86.4756169,179.462487 C86.5854883,179.603763 86.6418089,179.756192 86.6418089,179.919775 C86.6418089,180.038744 86.6113404,180.14656 86.5531732,180.243222 C86.4940826,180.339885 86.40914,180.41424 86.2983453,180.466289 C85.7222128,180.756277 85.1091487,180.90127 84.4582297,180.90127 C83.7343709,180.90127 83.0705259,180.746982 82.4639248,180.438406 C81.8591703,180.12983 81.3753667,179.674401 81.0134373,179.07212 C80.6505846,178.469839 80.4705432,177.741153 80.4705432,176.886062 C80.4705432,176.127634 80.642275,175.44728 80.9857386,174.844069 C81.3292023,174.242717 81.8028497,173.772418 82.4094508,173.434099 C83.0151285,173.095781 83.6974393,172.926622 84.4582297,172.926622 C85.1156117,172.926622 85.7259059,173.071615 86.2872658,173.361602 C86.5162416,173.480571 86.6307295,173.670178 86.6307295,173.930423" id="Fill-80" fill="#1A4D9E"></path>
                                        <path d="M95.5552439,173.149874 C95.6918907,173.276279 95.7611374,173.428708 95.7611374,173.607162 C95.7611374,173.703824 95.7380552,173.804205 95.6937373,173.907373 L92.9580311,180.354942 C92.890631,180.495288 92.7992253,180.604033 92.6810443,180.678389 C92.56194,180.752745 92.4363726,180.789923 92.3043423,180.789923 C92.1778516,180.782487 92.0615172,180.74345 91.9553389,180.672812 C91.847314,180.602174 91.7651413,180.499935 91.7051275,180.366095 L88.968498,173.897149 C88.9315664,173.822794 88.9140239,173.729849 88.9140239,173.618315 C88.9140239,173.417555 88.9869638,173.254902 89.1346901,173.132215 C89.2824164,173.010458 89.4338358,172.949114 89.5889484,172.949114 C89.7145157,172.949114 89.8336201,172.986292 89.9434915,173.059718 C90.0542862,173.134074 90.1392288,173.242819 90.1983193,173.384095 L92.4252932,178.659632 L94.4639159,173.384095 C94.5230065,173.249325 94.6088724,173.146157 94.7196671,173.071801 C94.8295385,172.997445 94.9477195,172.960267 95.0742102,172.960267 C95.2579447,172.960267 95.4195204,173.02347 95.5552439,173.149874" id="Fill-82" fill="#1A4D9E"></path>
                                        <path d="M88.1627434,187.711323 C85.5212127,187.667639 82.7254927,187.470596 80.1772142,186.343178 C77.3759544,185.101438 75.2477726,182.752727 74.4842123,180.06198 C74.0927377,178.681753 74.0059485,177.083105 74.2256913,175.306933 C74.7030319,171.459026 76.8912276,167.063675 80.7071823,165.920456 C80.8281332,165.88049 80.9573937,165.953916 80.9934019,166.076603 C81.0303335,166.19929 80.9610868,166.328483 80.8382893,166.364731 C77.2226884,167.448465 75.1415943,171.666292 74.6836428,175.365488 C74.4712863,177.078458 74.5543823,178.614832 74.9283145,179.934646 C75.6540199,182.494341 77.6861796,184.730589 80.3637186,185.918421 C82.8362874,187.012379 85.5766101,187.203845 88.1701297,187.2466 C90.9575401,187.291213 93.2749963,187.138784 95.428107,186.23908 C98.6466935,184.894171 101.200512,181.715465 101.93268,178.141744 C102.71009,174.352392 101.399942,170.19312 98.7491786,168.026581 C96.2212125,165.959493 92.980467,165.748508 89.3122386,165.698318 C85.9736245,165.646269 82.3164755,165.995741 80.6480917,168.919779 C80.5853081,169.033171 80.4440448,169.070349 80.3332501,169.006217 C80.2224554,168.943015 80.1846005,168.80081 80.2483075,168.689276 C82.0348723,165.556113 85.8258982,165.175969 89.3196249,165.233595 C93.0737192,165.285644 96.3975607,165.504993 99.0390914,167.665026 C101.819116,169.936593 103.194817,174.283613 102.385092,178.236548 C101.610452,182.012888 99.0132393,185.244572 95.6044552,186.667555 C93.6018407,187.505915 91.4902781,187.718758 89.0057065,187.718758 C88.729643,187.718758 88.4480398,187.71597 88.1627434,187.711323 Z" id="Fill-110" fill="#1A4D9E"></path>
                                    </g>
                                </g>
                            </g>
                        </g>
                    </g>
                </g>
            </g>
        </g>
    </g>
</svg>