<svg xmlns="http://www.w3.org/2000/svg" width="42" height="42" viewBox="0 0 42 42">
  <g fill="none" fill-rule="evenodd" opacity=".5">
    <rect width="42" height="42" fill="#A3A4A3" rx="17"/>
    <path fill="#FFFFFF" d="M20.291,26.696 L16.307,24.04 L17.694,21.96 L19.71,23.303 L25,16.25 L27,17.75 L20.291,26.696 Z M32,21 C32,19.403 31.058,18.035 29.705,17.394 C30.208,15.984 29.908,14.351 28.779,13.221 C27.649,12.092 26.016,11.792 24.606,12.295 C23.965,10.942 22.597,10 21,10 C19.404,10 18.036,10.942 17.395,12.295 C15.985,11.792 14.352,12.092 13.222,13.221 C12.093,14.351 11.793,15.984 12.296,17.394 C10.943,18.035 10,19.403 10,21 C10,22.596 10.943,23.964 12.296,24.606 C11.793,26.016 12.093,27.65 13.222,28.778 C14.352,29.907 15.985,30.208 17.395,29.705 C18.037,31.057 19.404,32 21,32 C22.597,32 23.964,31.057 24.606,29.705 C26.016,30.208 27.649,29.907 28.779,28.778 C29.908,27.65 30.208,26.016 29.705,24.606 C31.058,23.964 32,22.596 32,21 L32,21 Z"/>
  </g>
</svg>
