<svg xmlns="http://www.w3.org/2000/svg" width="19" height="13" viewBox="0 0 19 13">
  <path fill="#137F8B" fill-rule="evenodd" d="M3.855,2.442 L1.707,0.293 C1.42,0.007 0.991,-0.078 0.617,0.076 C0.244,0.231 0,0.596 0,1 L0,12 C0,12.552 0.448,13 1,13 L12,13 C12.404,13 12.769,12.756 12.924,12.383 C13.079,12.009 12.993,11.579 12.707,11.293 L9.197,7.784 C9.717,6.145 11.245,5 13,5 C15.205,5 16.998,6.793 17,8.998 C17,9.552 17.448,10 18,10 C18.552,10 19,9.552 19,9 C18.998,4.035 14.961,0 10,0 C7.704,0 5.518,0.879 3.855,2.442 Z"/>
</svg>
