<?xml version="1.0" encoding="UTF-8"?>
<svg width="31px" height="28px" viewBox="0 0 31 28" version="1.1" xmlns="http://www.w3.org/2000/svg" xmlns:xlink="http://www.w3.org/1999/xlink">
    <!-- Generator: Sketch 47.1 (45422) - http://www.bohemiancoding.com/sketch -->
    <title>ico/linkedIn@3x</title>
    <desc>Created with Sketch.</desc>
    <defs></defs>
    <g id="Web-Design-V1" stroke="none" stroke-width="1" fill="none" fill-rule="evenodd" opacity="0.32959692">
        <g id="Page4-4" transform="translate(-1023.000000, -1218.000000)" fill="#007EBB">
            <g id="Contenu-Pages" transform="translate(46.000000, 172.000000)">
                <g id="Social-Stuff" transform="translate(337.000000, 1039.000000)">
                    <g id="ico/linkedIn" style="mix-blend-mode: luminosity;" transform="translate(640.000000, 7.000000)">
                        <path d="M31,28 L24.1485771,28 L24.1485771,18.1568803 C24.1485771,15.5804572 23.0768462,13.8216047 20.7201317,13.8216047 C18.9175094,13.8216047 17.91504,15.0085164 17.448436,16.152398 C17.2734595,16.5629762 17.3007996,17.1349171 17.3007996,17.7068579 L17.3007996,28 L10.5131703,28 C10.5131703,28 10.6006585,10.5638727 10.5131703,8.97893321 L17.3007996,8.97893321 L17.3007996,11.9641416 C17.7017874,10.6588974 19.8707667,8.79605558 23.3320202,8.79605558 C27.6262347,8.79605558 31,11.5320484 31,17.4235769 L31,28 L31,28 Z M3.64898871,6.59973106 L3.60524459,6.59973106 C1.41803857,6.59973106 0,5.14567459 0,3.30255491 C0,1.42357687 1.45996002,0 3.69091016,0 C5.92003763,0 7.29068674,1.41999104 7.33443086,3.29717615 C7.33443086,5.14029583 5.92003763,6.59973106 3.64898871,6.59973106 L3.64898871,6.59973106 L3.64898871,6.59973106 Z M0.781926152,8.97893321 L6.82408278,8.97893321 L6.82408278,28 L0.781926152,28 L0.781926152,8.97893321 L0.781926152,8.97893321 Z"></path>
                    </g>
                </g>
            </g>
        </g>
    </g>
</svg>