<?xml version="1.0" encoding="UTF-8"?>
<svg width="34px" height="28px" viewBox="0 0 34 28" version="1.1" xmlns="http://www.w3.org/2000/svg" xmlns:xlink="http://www.w3.org/1999/xlink">
    <!-- Generator: Sketch 47.1 (45422) - http://www.bohemiancoding.com/sketch -->
    <title>ico/twitter@3x</title>
    <desc>Created with Sketch.</desc>
    <defs></defs>
    <g id="Web-Design-V1" stroke="none" stroke-width="1" fill="none" fill-rule="evenodd" opacity="0.32959692">
        <g id="Page4-4" transform="translate(-689.000000, -1220.000000)" fill="#00AAEC">
            <g id="Contenu-Pages" transform="translate(46.000000, 172.000000)">
                <g id="Social-Stuff" transform="translate(337.000000, 1039.000000)">
                    <g id="ico/twitter" transform="translate(306.000000, 9.000000)">
                        <path d="M34,3.31469845 C32.750719,3.87692308 31.4056465,4.25713254 29.9947174,4.42701336 C31.4355814,3.55334056 32.5411751,2.16800289 33.0620414,0.517732033 C31.7129776,1.32668834 30.2222222,1.91520404 28.6296883,2.230697 C27.3604508,0.85749368 25.546399,0 23.5387686,0 C19.6891472,0 16.5659447,3.16504153 16.5659447,7.06825569 C16.5659447,7.62239075 16.6258144,8.1603467 16.7455538,8.67807873 C10.9481716,8.38280968 5.80935611,5.57168653 2.36684862,1.2902853 C1.76615601,2.33788371 1.42290309,3.55334056 1.42290309,4.84767064 C1.42290309,7.29880823 2.65422316,9.46276634 4.52614897,10.7308053 C3.38463344,10.6964247 2.30697893,10.3748646 1.36502905,9.84904298 L1.36502905,9.93600578 C1.36502905,13.3619357 3.76979515,16.2195739 6.96284557,16.8667389 C6.37811821,17.0325749 5.76146035,17.115493 5.12484592,17.115493 C4.67582321,17.115493 4.23677878,17.0730228 3.81170394,16.9901047 C4.69977109,19.7971831 7.27416799,21.8418202 10.3275225,21.8964247 C7.94071726,23.7934272 4.93126724,24.9239437 1.66437753,24.9239437 C1.10160239,24.9239437 0.544814228,24.8915854 0,24.8268689 C3.08728062,26.8290358 6.75529729,28 10.6927276,28 C23.524799,28 30.5395316,17.2307692 30.5395316,7.88934633 C30.5395316,7.58194294 30.5335446,7.27453954 30.5215707,6.97320332 C31.8846041,5.97616468 33.0680284,4.73239437 34,3.31469845"></path>
                    </g>
                </g>
            </g>
        </g>
    </g>
</svg>