<?xml version="1.0" encoding="utf-8"?>
<!-- Generator: Adobe Illustrator 22.0.0, SVG Export Plug-In . SVG Version: 6.00 Build 0)  -->
<svg version="1.1" id="Calque_1" xmlns="http://www.w3.org/2000/svg" xmlns:xlink="http://www.w3.org/1999/xlink" x="0px" y="0px"
	 viewBox="0 0 42 42" style="enable-background:new 0 0 42 42;" xml:space="preserve">
<style type="text/css">
	.st0{fill:#137F8B;}
	.st1{enable-background:new    ;}
	.st2{fill:#FFFFFF;}
</style>
<path class="st0" d="M17,0h8c9.4,0,17,7.6,17,17v8c0,9.4-7.6,17-17,17h-8C7.6,42,0,34.4,0,25v-8C0,7.6,7.6,0,17,0z"/>
<g class="st1">
	<path class="st2" d="M22.6,13.1v14.2c0,0.7-0.6,1.3-1.3,1.3c-0.7,0-1.3-0.6-1.3-1.3V15.5l-1,0.6c-0.2,0.1-0.5,0.2-0.7,0.2
		c-0.5,0-0.9-0.2-1.1-0.7c-0.4-0.6-0.2-1.4,0.4-1.8l3-1.8c0,0,0.1,0,0.1,0c0,0,0.1,0,0.1-0.1c0,0,0.1,0,0.1,0c0,0,0.1,0,0.1,0
		c0,0,0.1,0,0.2,0c0,0,0,0,0.1,0h0c0.1,0,0.1,0,0.2,0c0,0,0.1,0,0.1,0c0.1,0,0.1,0,0.1,0c0,0,0.1,0,0.1,0c0.1,0,0.1,0.1,0.1,0.1
		c0,0,0,0,0.1,0.1c0,0,0.1,0,0.1,0.1c0,0,0.1,0.1,0.1,0.1c0,0,0,0,0.1,0.1c0,0,0.1,0.1,0.1,0.1l0,0c0,0,0,0,0,0.1c0,0,0,0.1,0,0.1
		c0,0,0,0.1,0,0.1c0,0,0,0.1,0,0.1C22.5,13,22.5,13,22.6,13.1C22.6,13.1,22.6,13.1,22.6,13.1z"/>
</g>
</svg>
