<?xml version="1.0" encoding="UTF-8"?>
<svg width="22px" height="21px" viewBox="0 0 22 21" version="1.1" xmlns="http://www.w3.org/2000/svg" xmlns:xlink="http://www.w3.org/1999/xlink">
    <!-- Generator: Sketch 47.1 (45422) - http://www.bohemiancoding.com/sketch -->
    <title>ico/rappel-validee@3x</title>
    <desc>Created with Sketch.</desc>
    <defs></defs>
    <g id="Web-Design-V1" stroke="none" stroke-width="1" fill="none" fill-rule="evenodd">
        <g id="Page4-4" transform="translate(-726.000000, -503.000000)" fill="#A3A4A3">
            <g id="Contenu-Pages" transform="translate(46.000000, 172.000000)">
                <g id="Partie-Supp">
                    <g id="Listing" transform="translate(124.000000, 313.000000)">
                        <g id="bloc/accordeon/close">
                            <g id="ligne-1" transform="translate(556.000000, 0.000000)">
                                <g id="Validé">
                                    <g id="ico/rappel-validee" transform="translate(0.000000, 18.000000)">
                                        <g id="Fill-2992">
                                            <path d="M20,2 L18,2 L18,0 L16,0 L16,5 L15,5 L15,2 L7,2 L7,0 L5,0 L5,5 L4,5 L4,2 L2,2 C0.897,2 0,2.898 0,4 L0,19 C0,20.103 0.897,21 2,21 L20,21 C21.103,21 22,20.103 22,19 L22,4 C22,2.898 21.103,2 20,2 L20,2 Z M10,16.414 L6.293,12.707 L7.707,11.293 L10,13.586 L14.293,9.293 L15.707,10.707 L10,16.414 Z"></path>
                                        </g>
                                    </g>
                                </g>
                            </g>
                        </g>
                    </g>
                </g>
            </g>
        </g>
    </g>
</svg>