<?xml version="1.0" encoding="UTF-8"?>
<svg width="42px" height="49px" viewBox="0 0 42 49" version="1.1" xmlns="http://www.w3.org/2000/svg" xmlns:xlink="http://www.w3.org/1999/xlink">
    <!-- Generator: Sketch 47.1 (45422) - http://www.bohemiancoding.com/sketch -->
    <title>ico/perso-homme@3x</title>
    <desc>Created with Sketch.</desc>
    <defs></defs>
    <g id="Symbols" stroke="none" stroke-width="1" fill="none" fill-rule="evenodd">
        <g id="Footer-Large" transform="translate(-700.000000, -39.000000)" stroke="#F0AA3A">
            <g transform="translate(0.000000, 40.000000)" id="Les-3-blocs">
                <g transform="translate(227.000000, 0.000000)">
                    <g id="2" transform="translate(323.000000, 1.000000)">
                        <g id="ico/perso-homme" transform="translate(151.000000, 0.000000)">
                            <g>
                                <path d="M3,20 L3,15.5 C3,7.8 8.8,1.4 16.4,0.6 L22,0 L22,3 L22,3 C30.3,3 37,9.7 37,18 L37,20" id="Shape" stroke-width="2"></path>
                                <g id="path-1-link" transform="translate(12.438975, 22.438975)" stroke-width="2" fill="#F0AA3A" fill-rule="nonzero">
                                    <path d="M1.92214587,0.329788471 C2.36186383,0.769506433 2.36186383,1.48242836 1.92214587,1.92214587 C1.48242791,2.36186383 0.769505982,2.36186383 0.329788471,1.92214587 C-0.10992949,1.48242791 -0.10992949,0.769505982 0.329788471,0.329788471 C0.769506433,-0.10992949 1.48242836,-0.10992949 1.92214587,0.329788471" id="path-1"></path>
                                    <path d="M1.92214587,0.329788471 C2.36186383,0.769506433 2.36186383,1.48242836 1.92214587,1.92214587 C1.48242791,2.36186383 0.769505982,2.36186383 0.329788471,1.92214587 C-0.10992949,1.48242791 -0.10992949,0.769505982 0.329788471,0.329788471 C0.769506433,-0.10992949 1.48242836,-0.10992949 1.92214587,0.329788471" id="path-1"></path>
                                </g>
                                <g id="path-1-link" transform="translate(25.000000, 22.000000)" stroke-width="2" fill="#F0AA3A" fill-rule="nonzero">
                                    <path d="M2.2457202,0.385305114 C2.75946036,0.899045265 2.75946036,1.73198058 2.2457202,2.2457202 C1.73198005,2.75946036 0.899044739,2.75946036 0.385305114,2.2457202 C-0.128435038,1.73198005 -0.128435038,0.899044739 0.385305114,0.385305114 C0.899045265,-0.128435038 1.73198058,-0.128435038 2.2457202,0.385305114" id="path-1"></path>
                                    <path d="M1.95897968,0.672045636 C2.3143572,1.02742315 2.3143572,1.60360253 1.95897968,1.95897968 C1.60360217,2.3143572 1.02742279,2.3143572 0.672045636,1.95897968 C0.316668121,1.60360217 0.316668121,1.02742279 0.672045636,0.672045636 C1.02742315,0.316668121 1.60360253,0.316668121 1.95897968,0.672045636" id="path-1"></path>
                                </g>
                                <path d="M26,34 L25.8,34.4 C24.7,36.6 22.5,38 20,38 L20,38 C17.5,38 15.3,36.6 14.2,34.4 L14,34" id="Shape" stroke-width="2"></path>
                                <path d="M4,20 L8,17 L10,12 C13.2,10.6 16.6,10 20,10 C23.4,10 26.8,10.6 30,12 L32,17 L36,20" id="Shape" stroke-width="2"></path>
                                <path d="M5,26 L5,22.5 C5,21.1 3.9,20 2.5,20 L2.5,20 C1.1,20 0,21.1 0,22.5 L0,25 C0,27.8 2.2,30 5,30 L5,30 C5,33.8 6.6,37.5 9.5,40 L13.2,43.2 C15,45 17.4,46 20,46 L20,46 C22.6,46 25,45 26.8,43.2 L30.5,40 C33.4,37.5 35,33.8 35,30 L35,30 C37.8,30 40,27.8 40,25 L40,22.5 C40,21.1 38.9,20 37.5,20 L37.5,20 C36.1,20 35,21.1 35,22.5 L35,26" id="Shape" stroke-width="2"></path>
                            </g>
                        </g>
                    </g>
                </g>
            </g>
        </g>
    </g>
</svg>