<?xml version="1.0" encoding="UTF-8"?>
<svg width="32px" height="38px" viewBox="0 0 32 38" version="1.1" xmlns="http://www.w3.org/2000/svg" xmlns:xlink="http://www.w3.org/1999/xlink">
    <!-- Generator: Sketch 47.1 (45422) - http://www.bohemiancoding.com/sketch -->
    <title>ico/viadeo@3x</title>
    <desc>Created with Sketch.</desc>
    <defs></defs>
    <g id="Web-Design-V1" stroke="none" stroke-width="1" fill="none" fill-rule="evenodd" opacity="0.32959692">
        <g id="Page4-4" transform="translate(-944.000000, -1211.000000)">
            <g id="Contenu-Pages" transform="translate(46.000000, 172.000000)">
                <g id="Social-Stuff" transform="translate(337.000000, 1039.000000)">
                    <g id="ico/viadeo" style="mix-blend-mode: luminosity;" transform="translate(561.000000, 0.000000)">
                        <g id="Shape">
                            <path d="M14.6350711,0.00770723104 C17.721327,5.27945326 19.3971564,10.0039859 19.7763033,11.1292416 L19.7763033,11.0829982 C19.0180095,2.95957672 14.6350711,0.00770723104 14.6350711,0.00770723104 L14.6350711,0.00770723104 Z M19.7763033,11.1292416 C19.8445498,12.1697178 20.9744076,30.7056085 11.321327,34.4204938 C11.321327,34.4204938 12.2085308,34.5900529 13.2094787,34.5438095 C13.2094787,34.5438095 25.4938389,26.6670194 19.8597156,11.3835802 C19.8597156,11.3835802 19.8369668,11.2910935 19.7763033,11.1292416 L19.7763033,11.1292416 Z M30.0587678,0.863209877 C28.4890995,4.25439153 25.5848341,4.87867725 25.5848341,4.87867725 C22.6805687,5.62627866 21.664455,6.76694885 21.664455,6.76694885 C18.7601896,9.7342328 21.050237,13.3335097 21.050237,13.3335097 C27.321327,11.8845503 29.6113744,6.64363316 29.6113744,6.64363316 C29.3308057,10.1658377 21.8691943,14.3200353 21.8691943,14.3200353 C24.3412322,16.778642 26.6995261,16.47806 28.2540284,15.5377778 C30.3165877,14.2892063 31.3099526,11.5531393 31.3099526,11.5531393 C33.3118483,5.47984127 30.0587678,0.863209877 30.0587678,0.863209877 L30.0587678,0.863209877 Z" fill="#FF7452"></path>
                            <path d="M22.9459716,24.2546561 C22.9459716,26.1275132 22.5061611,27.8693474 21.6265403,29.487866 C20.7469194,31.1063845 19.563981,32.3549559 18.0625592,33.2335802 C16.5687204,34.1122046 14.9232227,34.5515168 13.1412322,34.5515168 C11.3516588,34.5515168 9.71374408,34.1122046 8.21990521,33.2335802 C6.72606635,32.3549559 5.53554502,31.1063845 4.65592417,29.487866 C3.77630332,27.8693474 3.33649289,26.1275132 3.33649289,24.2546561 C3.33649289,21.3567372 4.29952607,18.882716 6.22559242,16.8325926 C8.15165877,14.7901764 10.456872,13.7651146 13.1412322,13.7651146 C14.4151659,13.7651146 15.6056872,14.0040388 16.7127962,14.4664727 C16.8265403,13.2795591 17.236019,12.177425 17.6834123,11.275679 C16.2881517,10.7592945 14.7791469,10.5049559 13.1488152,10.5049559 C9.27393365,10.5049559 6.06635071,11.9539153 3.52606635,14.8595414 C1.22085308,17.4877072 0.0606635071,20.6014286 0.0606635071,24.1775838 C0.0606635071,27.7922751 1.28151659,30.9522399 3.71563981,33.6497707 C6.15734597,36.3550088 9.29668246,37.7037743 13.1412322,37.7037743 C16.9706161,37.7037743 20.1099526,36.3550088 22.5440758,33.6497707 C24.985782,30.9445326 26.1990521,27.7845679 26.1990521,24.1775838 C26.1990521,22.2430688 25.8654028,20.447284 25.1981043,18.7979365 C24.0758294,19.4992945 23.014218,19.8615344 22.1345972,20.0542152 C22.6805687,21.3336155 22.9459716,22.7363316 22.9459716,24.2546561 L22.9459716,24.2546561 Z" fill="#2A2A2A"></path>
                        </g>
                    </g>
                </g>
            </g>
        </g>
    </g>
</svg>