<?xml version="1.0" encoding="UTF-8"?>
<svg width="20px" height="20px" viewBox="0 0 20 20" version="1.1" xmlns="http://www.w3.org/2000/svg" xmlns:xlink="http://www.w3.org/1999/xlink">
    <!-- Generator: Sketch 47.1 (45422) - http://www.bohemiancoding.com/sketch -->
    <title>ico/localisation@3x</title>
    <desc>Created with Sketch.</desc>
    <defs></defs>
    <g id="Symbols" stroke="none" stroke-width="1" fill="none" fill-rule="evenodd">
        <g id="ico/localisation" fill-rule="nonzero" fill="#185DA0">
            <g id="Shape">
                <path d="M15,12.54 L15,14.44 C16.828,14.807 18,15.368 18,16 C18,17.106 14.419,18 10,18 C5.581,18 2,17.106 2,16 C2,15.368 3.173,14.807 5,14.44 L5,12.54 C2.014,13.231 0,14.52 0,16 C0,18.21 4.477,20 10,20 C15.523,20 20,18.21 20,16 C20,14.52 17.986,13.231 15,12.54 Z"></path>
                <path d="M16,6 C16,2.687 13.314,0 10,0 C6.686,0 4,2.687 4,6 C4,10 10,17 10,17 C10,17 16,10 16,6 Z M8,6 C8,4.896 8.896,4 10,4 C11.104,4 12,4.896 12,6 C12,7.104 11.104,8 10,8 C8.896,8 8,7.104 8,6 Z"></path>
            </g>
        </g>
    </g>
</svg>