<svg xmlns="http://www.w3.org/2000/svg" width="32" height="32" viewBox="0 0 32 32">
  <g fill="#DEDEDE" fill-rule="evenodd">
    <path fill-rule="nonzero" d="M24,20.064 L24,23.104 C26.9248,23.6912 28.8,24.5888 28.8,25.6 C28.8,27.3696 23.0704,28.8 16,28.8 C8.9296,28.8 3.2,27.3696 3.2,25.6 C3.2,24.5888 5.0768,23.6912 8,23.104 L8,20.064 C3.2224,21.1696 0,23.232 0,25.6 C0,29.136 7.1632,32 16,32 C24.8368,32 32,29.136 32,25.6 C32,23.232 28.7776,21.1696 24,20.064 Z"/>
    <path fill-rule="nonzero" d="M25.6,9.6 C25.6,4.2992 21.3024,0 16,0 C10.6976,0 6.4,4.2992 6.4,9.6 C6.4,16 16,27.2 16,27.2 C16,27.2 25.6,16 25.6,9.6 Z M12.8,9.6 C12.8,7.8336 14.2336,6.4 16,6.4 C17.7664,6.4 19.2,7.8336 19.2,9.6 C19.2,11.3664 17.7664,12.8 16,12.8 C14.2336,12.8 12.8,11.3664 12.8,9.6 Z"/>
  </g>
</svg>
