<?xml version="1.0" encoding="UTF-8"?>
<svg width="161px" height="137px" viewBox="0 0 161 137" version="1.1" xmlns="http://www.w3.org/2000/svg" xmlns:xlink="http://www.w3.org/1999/xlink">
    <!-- Generator: Sketch 47.1 (45422) - http://www.bohemiancoding.com/sketch -->
    <title>logo/boussole@3x</title>
    <desc>Created with Sketch.</desc>
    <defs>
        <polygon id="path-1" points="14.5121495 0.321403929 14.5121495 14.6356071 0.277983802 14.6356071 0.277983802 0.321403929 14.5121495 0.321403929"></polygon>
    </defs>
    <g id="Symbols" stroke="none" stroke-width="1" fill="none" fill-rule="evenodd">
        <g id="bloc/header" transform="translate(-633.000000, -16.000000)">
            <g id="logo/boussole">
                <g transform="translate(637.000000, 17.000000)">
                    <g>
                        <path d="M78.5874572,30.6708166 L84.891556,0.000305561438 L85.8022943,3.20258943 L91.4615062,29.9527472 C91.4615062,29.9527472 83.9733599,26.8796722 78.5874572,30.6708166" id="Fill-1" fill="#FFFFFF"></path>
                        <path d="M90.2166112,100.158587 L83.9125124,130.829098 L83.0017741,127.626814 L77.3425622,100.876656 C77.3425622,100.876656 84.8307085,103.949731 90.2166112,100.158587" id="Fill-3" fill="#FFFFFF"></path>
                        <path d="M6.61276714,43.5921804 C6.49431852,44.1797314 6.38552126,44.7677189 6.28769148,45.3552699 C6.18898429,45.9428209 6.10036718,46.5116017 6.02227883,47.0594297 C6.57284556,46.2374695 7.06462669,45.2963402 7.4989383,44.2390977 C7.93193381,43.1805455 8.27587351,42.1525495 8.53207349,41.1533636 C8.78827347,40.1541777 8.94576626,39.2427316 9.00499057,38.4198983 C9.06377618,37.597065 9.03438338,37.0295938 8.91637346,36.7157385 C8.75844196,36.3634699 8.55181492,36.5201792 8.29605364,37.1863032 C8.03985366,37.8524271 7.79418245,38.6551806 7.55772391,39.5954368 C7.24229962,40.6932754 6.92775273,42.0255233 6.61276714,43.5921804 M6.31752298,58.2848839 C6.90801129,58.2473435 7.46910679,57.8745586 8.00080949,57.1687116 C8.53207349,56.4637377 9.01420324,55.6998341 9.44763745,54.8770008 C9.92011584,53.8978947 10.3728528,52.8000561 10.8067257,51.5847946 L11.2792041,51.5847946 C10.8848141,53.1139114 10.3728528,54.4858822 9.74332031,55.6998341 C9.19143748,56.7186633 8.50311938,57.6488796 7.67573383,58.4913561 C6.84878698,59.3338327 5.8450446,59.715348 4.66362928,59.637648 C4.15122932,59.5979251 3.72744648,59.4110961 3.39315815,59.0789071 C3.05843112,58.7467182 2.77371573,58.3739332 2.53725719,57.9627349 C2.30079865,57.5510999 2.11347435,57.139465 1.97616169,56.7282666 C1.83841033,56.3166317 1.74979321,55.9931731 1.70987164,55.7578908 C1.63178329,55.4453451 1.58308775,55.1218865 1.56246891,54.7888245 C1.54316618,54.4557626 1.51333467,54.1130973 1.4738518,53.759519 C1.43524632,53.6425326 1.41462749,53.46618 1.41462749,53.2308977 L1.41462749,52.7022764 C1.37602201,52.3111578 1.35584188,51.9287695 1.35584188,51.5559845 L1.35584188,50.527552 C1.35584188,49.7047187 1.38523468,48.8329956 1.44445899,47.9123827 C1.5032446,46.9917697 1.61204186,46.0222669 1.76909595,45.0030012 C2.32010139,40.9285577 3.10712667,37.970723 4.13192658,36.1281875 C5.1554104,34.2865251 6.39561133,33.4440486 7.85296806,33.6011945 C8.48250055,33.6793309 8.98481044,34.1394191 9.35945904,34.9818956 C9.73279154,35.8252452 9.88063297,36.9318141 9.80254462,38.3029119 C9.72314017,39.6748828 9.37876178,41.2122934 8.76853203,42.9164531 C8.15742489,44.6206129 7.20325544,46.3544558 5.90383021,48.1175453 C5.82442576,48.6269599 5.76520145,49.1267711 5.72659597,49.6165424 C5.6866744,50.1063138 5.62788879,50.5864817 5.54980044,51.0561733 C5.54980044,51.3709016 5.53927168,51.6738439 5.51996894,51.9671829 C5.4997888,52.2618315 5.4699573,52.5647738 5.43135182,52.878629 C5.39143025,53.1920478 5.36247614,53.4954266 5.3427347,53.7896386 C5.32255457,54.0829776 5.3133419,54.3675863 5.3133419,54.6417185 L5.3133419,54.9350575 L5.3133419,55.1122832 C5.27342033,55.9739664 5.32255457,56.7186633 5.46118333,57.3450642 C5.59849599,57.9723382 5.88365007,58.2848839 6.31752298,58.2848839" id="Fill-5" fill="#FFFFFF"></path>
                        <path d="M20.906708,49.4112488 C21.0251566,48.7848479 21.0343693,48.3238866 20.9365395,48.0296746 C20.8378323,47.7363356 20.7092936,47.5106567 20.5526782,47.3539473 C20.394308,47.1976744 20.1775909,47.118665 19.9025269,47.118665 C19.19359,47.158388 18.5236972,47.4329568 17.8941647,47.9414983 C17.2641935,48.4509129 16.693008,49.0781868 16.1814854,49.8215742 C15.6690854,50.5671441 15.2259999,51.379501 14.8522287,52.2617005 C14.4775801,53.1425905 14.2121674,53.9754637 14.0546746,54.758574 C13.8971818,55.5429938 13.8379575,56.1995144 13.8778791,56.7281357 C13.9164846,57.256757 14.1143376,57.5413656 14.4683674,57.5802156 C14.97989,57.6596616 15.4725485,57.4134663 15.9450269,56.8451221 C16.4175052,56.2780873 16.8105792,55.6019235 17.1264422,54.8179402 C17.5195161,53.9562569 17.8739846,52.9374278 18.1894089,51.7618893 C18.3078575,51.3310477 18.484653,50.9198493 18.7211116,50.5274211 C18.9176485,50.2140024 19.19359,49.9302667 19.5484971,49.6757777 C19.9025269,49.4208522 20.3548251,49.3326759 20.906708,49.4112488 M22.8558458,58.2851895 C23.4463341,58.2472126 24.0078683,57.8744276 24.5391323,57.1685807 C25.070835,56.4640433 25.5525261,55.6997032 25.986399,54.8768699 C26.4588774,53.8982003 26.9111756,52.7999251 27.3450485,51.5851002 L27.8175269,51.5851002 C27.4235756,53.1137804 26.9111756,54.4857513 26.2820818,55.6997032 C26.0061404,56.2091178 25.7003675,56.708929 25.3660792,57.1978273 C25.0309135,57.6884716 24.6575809,58.1193133 24.2438882,58.4912252 C23.8301954,58.8640101 23.3669297,59.1582222 22.8558458,59.3725517 C22.3438846,59.5873177 21.7928791,59.675494 21.2019521,59.6375171 C20.2569953,59.5977941 19.5278783,59.421878 19.0163557,59.1080228 C18.5043945,58.7954771 18.1306233,58.4322955 17.8941647,58.0206606 C17.6581449,57.6094622 17.5195161,57.1598504 17.4809106,56.669206 C17.4409891,56.1803077 17.4216863,55.6997032 17.4216863,55.2291386 C17.0676566,56.3265407 16.6539638,57.1397706 16.1814854,57.6683919 C15.7085683,58.1970132 15.2553927,58.5794015 14.8223972,58.8146838 C14.3108746,59.0888161 13.7791719,59.2263187 13.2281665,59.2263187 C12.4012196,59.2263187 11.6922827,59.0888161 11.1013557,58.8146838 C10.5507889,58.5794015 10.0879619,58.1677666 9.71331332,57.5802156 C9.33998082,56.9926646 9.23162227,56.1113381 9.38867636,54.9349266 C9.50668629,54.0741163 9.7826277,53.1425905 10.2156232,52.1434046 C10.6494961,51.1442187 11.2198043,50.204399 11.9287412,49.3221995 C12.6376782,48.440873 13.473399,47.6769694 14.4385359,47.0304887 C15.4036728,46.3835715 16.4767296,45.9828495 17.6581449,45.8257036 C17.8941647,45.7872902 18.3569917,45.7580436 19.0461872,45.7379638 C19.7345053,45.7183206 20.3162197,45.8462199 20.7882593,46.1194791 C21.0633234,46.2761885 21.309872,46.5996471 21.5270278,47.0894184 C21.7428675,47.5791897 21.6937332,48.3732129 21.3791864,49.4693055 L21.4384107,49.4693055 C21.6744305,49.5090285 21.8709675,49.6068081 22.0293377,49.7635175 C22.3833674,50.0376498 22.5013774,50.5082144 22.3833674,51.1743383 C22.303963,51.56633 22.2061332,52.1639208 22.0881233,52.9666744 C21.9696747,53.770301 21.900799,54.5630146 21.8810575,55.3465615 C21.8608774,56.1305448 21.9201017,56.816312 22.0582918,57.403863 C22.1960431,57.9918505 22.4614558,58.2851895 22.8558458,58.2851895" id="Fill-7" fill="#FFFFFF"></path>
                        <path d="M47.5856366,58.1841359 C48.4130221,58.4587047 49.378159,58.4010846 50.4806086,58.0134581 C51.5839356,57.6249585 52.6179481,56.9955019 53.5826463,56.1263979 C54.5477833,55.2586034 55.3633239,54.1843367 56.0297071,52.9027247 C56.6952129,51.6237319 57.0295012,50.2281891 57.0295012,48.7187156 C55.6046082,48.6746275 54.2034049,48.6973263 52.8245752,48.7876852 C51.4461842,48.8802267 50.1936997,49.0963023 49.0675604,49.4394041 C47.9409824,49.7820694 46.9876904,50.2744599 46.2072456,50.9139563 C45.425046,51.5547623 44.9424775,52.3998579 44.7595402,53.4518623 C44.6217889,54.1843367 44.6446012,54.847405 44.8284159,55.4406307 C44.966606,55.9448071 45.2302638,56.4585869 45.6211443,56.9841525 C46.0111473,57.5105912 46.6656856,57.9095672 47.5856366,58.1841359 M43.1052078,25.6047389 C43.7913324,24.9643695 46.1831172,23.5474374 47.9304537,22.8612337 C49.6760354,22.1754666 51.6063092,21.8781989 53.7203977,21.9698674 C55.3751688,22.0615358 56.8680601,22.4050742 58.2008265,22.9982999 C58.7527093,23.2728686 59.3041534,23.616407 59.8555976,24.0276054 C60.4070417,24.4388038 60.9001389,24.95302 61.3375214,25.5711272 C61.7735878,26.1879248 62.1407785,26.9199627 62.4408484,27.7654948 C62.7387247,28.6114635 62.911572,29.5831489 62.9571966,30.6805509 C62.9571966,32.1891514 62.6356305,33.5606857 61.9924984,34.7955905 C61.4406156,35.8475948 60.5211033,36.8432886 59.234839,37.7800527 C57.9485748,38.7163802 56.0406746,39.2995661 53.5137707,39.5278641 C55.0303517,39.6658033 56.385053,40.0770017 57.5809453,40.7627688 C58.5912682,41.3573041 59.56825,42.2613294 60.5101359,43.4726623 C61.451583,44.6835586 62.0376844,46.3650195 62.2680011,48.5131164 C63.0953867,48.6510556 63.9679582,48.7999077 64.8879091,48.9592361 C65.806544,49.1198741 66.7484299,49.3141239 67.7135668,49.542422 L67.6451298,50.2281891 C67.184935,50.1369572 66.6799929,50.0225899 66.1285488,49.8846508 C65.6218519,49.7942919 65.0480341,49.6917106 64.4053407,49.5764702 C63.7608924,49.4634125 63.0488846,49.3603947 62.2680011,49.2678532 C62.2680011,49.3603947 62.2789686,49.4507535 62.3026583,49.542422 C62.3254706,49.6340904 62.3373155,49.7253223 62.3373155,49.8169907 C62.3820628,52.2405295 61.9688087,54.2519968 61.0962372,55.8518291 C60.2227883,57.4529711 59.1199,58.7097016 57.7875724,59.6246399 C56.4543673,60.5387051 55.006662,61.1559392 53.4453337,61.4767787 C51.8822506,61.7963087 50.4349839,61.8879771 49.1022176,61.7513475 C47.5856366,61.6134083 46.3678093,61.2711795 45.4491744,60.7220419 C44.5292235,60.1737774 43.8290605,59.5556703 43.346492,58.8699031 C42.8639236,58.1841359 42.5419188,57.4643205 42.3813551,56.7095837 C42.219914,55.954847 42.1852569,55.2813023 42.2778223,54.6872035 C42.3695103,53.6814699 42.6919537,52.7433963 43.2433979,51.8747288 C43.7944033,51.0056247 44.6446012,50.2521975 45.7935528,49.6113915 C46.941627,48.9705856 48.4353957,48.5030766 50.2739815,48.2044994 C52.11169,47.9072318 54.3411562,47.8273493 56.9601868,47.9648519 L56.9601868,47.8963188 C56.8224355,46.3423207 56.4543673,45.107416 55.8577373,44.1920412 C55.2597911,43.277976 54.5477833,42.5581605 53.7203977,42.0317218 C52.8934509,41.5061562 51.9734999,41.1403555 50.9636157,40.9347563 C49.9519768,40.7291571 48.9640275,40.5122084 47.999768,40.2826009 C47.0341924,40.0543028 46.3796541,39.6893751 46.034837,39.1856353 C45.6904586,38.6827685 45.471548,38.1799016 45.37986,37.6757253 C45.37986,37.5390957 45.3903888,37.3570683 45.4145172,37.1278973 C45.4373295,36.8995992 45.4939217,36.694 45.5869258,36.5110997 C45.7242384,36.2365309 45.9764901,36.2138321 46.3449969,36.4421301 C46.7121877,36.8079308 47.1030681,37.0715867 47.5167609,37.2309151 C47.9304537,37.3911166 48.3204567,37.5163968 48.6889635,37.6080652 C49.1478423,37.6997337 49.5847861,37.7224325 49.9980401,37.6757253 C51.9287526,37.5853664 53.4106765,37.1514691 54.4446891,36.3731605 C55.478263,35.5970345 56.2473016,34.7733281 56.7535598,33.9042241 C57.3050039,32.8984905 57.6037577,31.7775165 57.649821,30.5426118 C57.695007,28.9427794 57.3962532,27.742796 56.7535598,26.9426615 C56.109989,26.1425271 55.3751688,25.5824766 54.5477833,25.2612006 C53.5826463,24.8962729 52.4797581,24.7369445 51.2395572,24.7823421 C49.7677234,24.8740106 48.4130221,25.124571 47.1723825,25.5357694 C45.9317429,25.9474043 44.3418992,26.928693 43.8194091,27.3617172 C43.0744989,27.9780783 40.8595097,29.6027921 39.6039543,37.1069445 C38.4624606,43.9283853 41.9382696,68.2200831 20.761411,73.8616203 C14.0379163,75.6526468 7.85709183,74.200357 4.19834555,71.9470596 C2.41898405,70.8505306 0.333849631,68.5461608 0,65.679558 L0.987071838,66.2989747 C0.987071838,66.2989747 2.62999807,68.899739 5.16962424,70.0146018 C8.17514831,71.3341907 12.9100222,71.7178885 17.4931065,71.1294645 C20.8092291,70.7034246 24.9071127,67.8774178 26.7641239,66.2291321 C32.9339809,60.7539076 34.1790075,52.042351 36.6023785,39.4300844 C38.7699883,28.1474466 42.4190832,26.2455449 43.1052078,25.6047389" id="Fill-9" fill="#FFFFFF"></path>
                        <path d="M69.5774655,56.4844723 C70.0122158,55.8554522 70.3780904,55.0592464 70.6746507,54.0949818 C70.9712109,53.1315903 71.0203452,52.1376426 70.8233695,51.1140117 C70.1504059,50.8398795 69.8047114,50.4950316 69.7849699,50.0816506 C69.7652285,49.6682696 69.7941826,49.343938 69.8740257,49.1073461 C69.5182412,49.383661 69.2414224,49.5604501 69.044008,49.6394595 C68.9251207,49.7180325 68.7961433,49.7966054 68.6583919,49.8756149 C68.5193245,49.9541878 68.3517416,50.0331973 68.1543273,50.1108972 C68.0749228,50.1903432 67.8871598,50.3867755 67.5905996,50.7010673 C67.2940393,51.0171051 66.987389,51.4300496 66.671526,51.9403372 C66.6316044,52.0202197 66.5916829,52.0787129 66.5530774,52.1175628 C66.5131558,52.1572858 66.4732342,52.216652 66.4341901,52.2943519 C66.3942685,52.3742344 66.3754045,52.4331641 66.3754045,52.471141 C66.3754045,52.5113005 66.3547856,52.5702303 66.3157414,52.6492397 C66.1968541,52.8456721 66.0683154,53.1014706 65.9301254,53.4161989 C65.7914966,53.7313637 65.6427778,54.1045852 65.4857237,54.5371729 C65.4453634,54.7344783 65.4054419,54.9112674 65.3668364,55.0679767 C65.3269148,55.2255591 65.2874319,55.4032213 65.2479491,55.5996536 L65.2479491,55.7768793 C65.1685446,56.2880399 65.1295004,56.7607871 65.1295004,57.1933748 C65.1295004,57.6259625 65.2479491,57.9808503 65.4857237,58.2549825 C65.7226209,58.5308609 65.9985624,58.667927 66.3157414,58.667927 C66.6316044,58.667927 66.9777376,58.5797507 67.3537023,58.4025251 C67.7287896,58.2257359 68.1144057,57.9699374 68.5101118,57.6355659 C68.9049406,57.3011943 69.2607251,56.917933 69.5774655,56.4844723 L69.5774655,56.4844723 Z M80.6089804,50.3470525 C80.054904,50.5443579 79.4824024,50.721147 78.8892819,50.8778564 C78.3347668,50.9965888 77.7324337,51.1140117 77.0800889,51.2327442 C76.4277441,51.3501671 75.7653092,51.4095333 75.0932229,51.4095333 C75.2121102,51.880971 75.2805472,52.3934411 75.3011661,52.9438882 C75.3204688,53.4952084 75.2507157,54.1045852 75.0932229,54.7733282 C74.8164041,55.9933914 74.361035,57.0357924 73.729309,57.9009678 C73.4520515,58.2549825 73.1260984,58.6085608 72.7505724,58.9634486 C72.374169,59.3174633 71.9297674,59.6121118 71.4160513,59.8482672 C70.9018966,60.0844225 70.3087761,60.2411319 69.6371285,60.3205779 C68.9641649,60.3987143 68.2135516,60.3594278 67.3830951,60.2022819 C66.5530774,60.0446995 65.801148,59.7304078 65.1295004,59.2580971 C64.5754241,58.8255094 64.0713594,58.2060927 63.6168677,57.3994105 C63.1632533,56.5931648 62.9351301,55.4617145 62.9351301,54.006369 C63.0145345,52.6684464 63.2716119,51.4300496 63.7059235,50.2876863 C64.1011909,49.305088 64.7237042,48.3705065 65.5743408,47.4848149 C66.4241,46.6004328 67.6594752,46.0002228 69.2809052,45.6854945 C69.5972069,45.6064851 69.8933285,45.5872784 70.170586,45.6261283 C70.3680004,45.6658513 70.5654147,45.7435512 70.7637065,45.8622837 C70.9611209,45.9801431 71.0602667,46.1966552 71.0602667,46.51182 C70.9804236,46.7471023 70.9611209,46.9238914 71.0010424,47.0426238 C71.0010424,46.9640509 71.0795695,46.9640509 71.2383784,47.0426238 C71.2769839,47.0823468 71.4458828,47.180563 71.7424431,47.3372724 C72.0390033,47.4957278 72.374169,47.7209702 72.7505724,48.0156188 C73.1260984,48.3111403 73.5117145,48.6856713 73.9074206,49.1374658 C74.3018107,49.5896967 74.6189897,50.1506202 74.855887,50.8193632 C75.4490075,50.8193632 76.0719595,50.7805133 76.7238656,50.7010673 C77.3766491,50.6233674 77.9789823,50.5238417 78.5330586,50.4064188 C79.1652233,50.2497094 79.7789626,50.091254 80.3720831,49.9336716 L80.6089804,50.3470525 Z" id="Fill-11" fill="#FFFFFF"></path>
                        <path d="M92.648493,58.1371668 C93.2416135,58.0585938 93.7952511,57.6648561 94.3089672,56.9568266 C94.8222445,56.2483606 95.2776137,55.4809649 95.6733198,54.6546394 C96.1076314,53.7108911 96.5423817,52.6492834 96.9784481,51.4680701 L97.4526813,51.4680701 C97.0569752,53.0028616 96.5423817,54.3805072 95.910217,55.5996973 C95.6333982,56.1112945 95.3267479,56.6128517 94.9915822,57.1039326 C94.6546617,57.5967596 94.2795744,58.0293472 93.8645655,58.4025687 C93.4491179,58.7766632 92.9840974,59.0726213 92.4708201,59.2873873 C91.9562266,59.5030264 91.4030277,59.5916392 90.8103459,59.5536623 C90.5326497,59.5139393 90.2856624,59.4838197 90.0685065,59.4650495 C89.850912,59.4449697 89.6429689,59.3952069 89.4455545,59.317507 L89.3867689,59.317507 L89.3275446,59.317507 L89.2678816,59.317507 C89.2678816,59.2773475 89.2472628,59.2581407 89.2086573,59.2581407 C89.1687357,59.2581407 89.1393429,59.2485374 89.1200402,59.2288941 C89.0994214,59.2083779 89.0695898,59.1987745 89.0309844,59.1987745 C88.0421577,58.7670599 87.3700715,58.0690702 87.0142869,57.1039326 C86.6580637,56.1401045 86.4409079,55.1479029 86.3615034,54.1238356 C85.9263144,55.3438987 85.3924182,56.445666 84.7606923,57.4282642 C84.1276502,58.4121721 83.4160811,58.9634922 82.6255462,59.0813516 L82.3882103,59.0813516 C81.7152466,59.1202016 81.1725764,58.9730956 80.7571289,58.6387241 C80.34212,58.3043525 80.0056382,57.9106148 79.7489995,57.4583839 C79.4919221,57.0065895 79.3142492,56.5438821 79.2151033,56.0711349 C79.1168348,55.5996973 79.0475205,55.2448095 79.0075989,55.0095272 L79.0075989,54.7733719 C78.9689934,54.4582071 78.9391619,54.1735984 78.9185431,53.9177998 C78.8988016,53.6620013 78.8891503,53.4354493 78.8891503,53.2394535 L78.8891503,52.5899171 C78.8891503,52.1970524 78.8988016,51.8229579 78.9185431,51.4680701 C78.9391619,51.1140554 78.9483746,50.7805569 78.9483746,50.4658286 C79.027779,49.8368086 79.096216,49.1872723 79.155879,48.5172197 C79.2151033,47.8493497 79.2848564,47.1600904 79.3633834,46.4524974 C79.403305,46.3734879 79.4625293,46.2163421 79.5414951,45.9797502 C79.5414951,45.9409003 79.5805392,45.8719307 79.6599437,45.7737145 C79.7389094,45.6754983 79.8770995,45.6466882 80.0753913,45.6855382 C80.2324454,45.7243881 80.47022,45.7737145 80.7865217,45.8322077 C81.1028234,45.8915739 81.4393052,45.9797502 81.7950898,46.0984827 C82.151313,46.2163421 82.48604,46.3542812 82.8032191,46.5118636 C83.1195208,46.669446 83.3757208,46.8654419 83.5740126,47.1020337 C83.8117872,47.416762 83.909617,47.7502605 83.8705728,48.1042752 C83.7911684,48.6167454 83.7227314,49.1073898 83.6635071,49.580137 C83.6038441,50.0524477 83.5345297,50.5046786 83.4560026,50.9372663 C83.3757208,51.2533041 83.3270252,51.557556 83.3072838,51.851768 C83.2871037,52.1477261 83.2379694,52.451978 83.1594424,52.7667063 C83.1594424,52.9640116 83.1388235,53.2006035 83.0997794,53.4747358 C83.0203749,53.9867694 82.9611506,54.6546394 82.9221064,55.4809649 L82.9221064,55.5403311 L82.9221064,55.8349796 L82.9221064,56.4251497 C82.9221064,56.8586104 82.9414092,57.1833786 82.9808921,57.3994542 C83.0203749,57.6159663 83.0791605,57.7639453 83.1594424,57.8416452 C83.2379694,57.9603777 83.3371153,57.9992276 83.4560026,57.9603777 C83.731944,57.9603777 84.0285043,57.6260061 84.3456834,56.9568266 C84.6615464,56.2880836 84.9774094,55.5014811 85.2941497,54.5965828 C85.6104514,53.6912479 85.8964829,52.7872225 86.153999,51.8810146 C86.4110764,50.9769893 86.5992781,50.28773 86.7177267,49.8162923 L86.7177267,49.7569261 L86.7177267,49.6975599 C86.7563322,49.541287 86.8458267,49.2466385 86.9844554,48.8127413 C87.1226455,48.3801536 87.3108472,47.9379625 87.5477444,47.4848585 C87.7850804,47.0326276 88.101382,46.6100798 88.4970882,46.2163421 C88.8919169,45.8234774 89.3867689,45.5668058 89.9798894,45.4489463 C90.4541226,45.3703734 90.8489513,45.4489463 91.1656917,45.6855382 C91.4819934,45.8828436 91.6995879,46.1482455 91.8184752,46.481744 C91.9369239,46.8161155 92.0057995,47.1710033 92.025541,47.5442248 C92.0452824,47.9183193 92.0158896,48.2819374 91.9369239,48.6359521 C91.8570807,48.9899669 91.7785537,49.2854884 91.6995879,49.5207708 C91.6201835,49.7569261 91.4714647,50.3082462 91.2547475,51.1734216 C91.0367143,52.03947 90.8787829,52.9640116 90.7805144,53.9470464 C90.6813685,54.9309543 90.7212901,55.8458925 90.898963,56.6914247 C91.0770746,57.5373933 91.521915,58.0184343 92.2330454,58.1371668 C92.3124499,58.1371668 92.3817642,58.1467701 92.4409885,58.1664134 C92.5006516,58.1869296 92.5686498,58.1768898 92.648493,58.1371668" id="Fill-13" fill="#FFFFFF"></path>
                        <path d="M97.0965019,58.9635359 C97.4913306,59.1599682 97.9563511,59.2084215 98.4902473,59.1102054 C99.0237048,59.0132987 99.3294777,58.6291643 99.4097596,57.9604213 C98.9736932,57.9211348 98.49946,57.8718085 97.9861827,57.8124423 C97.4715892,57.7530761 96.9583118,57.6256133 96.4437184,57.4283079 C96.167777,57.350608 95.9497438,57.390331 95.7918123,57.5470403 C95.6338808,57.7046227 95.7128465,57.9407781 96.0291482,58.2546333 C96.305967,58.5706712 96.6617516,58.8059535 97.0965019,58.9635359 L97.0965019,58.9635359 Z M103.829648,54.9323075 C104.264398,54.4595603 104.597809,54.1766977 104.961052,53.7650628 C105.55812,53.089772 105.882319,52.5903973 106.113513,52.2708673 C106.854036,51.2472365 107.018548,50.4488481 107.184376,49.8551859 L107.718272,49.8551859 C107.594559,50.4898807 107.533141,51.4519627 106.545631,52.7619482 C105.712981,53.8663346 105.578739,54.0348299 105.084765,54.6044837 C104.589913,55.1754471 103.758579,55.9341125 103.086931,56.4845596 C102.769752,57.7443457 102.19725,58.6483711 101.366794,59.1988182 L101.307131,59.2581844 L100.951346,59.4349735 C100.634606,59.6314059 100.29944,59.7793849 99.9432171,59.8776011 C99.5874325,59.9753807 99.1320634,60.0251436 98.5793032,60.0251436 C97.6690036,59.9854206 96.9684019,59.7985916 96.4735499,59.4650931 C95.9795753,59.1298486 95.672925,58.8849629 95.5540376,58.7273805 C95.119726,58.2546333 95.0012774,57.8622051 95.1986918,57.5470403 C95.3969835,57.2318755 95.6935438,57.0358797 96.0883725,56.9568703 C96.6810543,56.9568703 97.2443433,57.0153634 97.7786782,57.1340959 C98.3125744,57.2515188 98.8758634,57.272035 99.4689839,57.1930256 C99.5080281,56.8381378 99.5176794,56.3667002 99.4983767,55.7765301 C99.4781966,55.1867965 99.4097596,54.5372602 99.2908723,53.8292307 C99.1724237,53.1207647 99.0035247,52.3935284 98.7868076,51.6457759 C98.5687744,50.89846 98.2621241,50.2100737 97.8672953,49.5801806 C97.7878909,49.9739184 97.6988351,50.3964662 97.6005666,50.8486971 C97.5014207,51.3018011 97.4123649,51.6846259 97.3333991,51.9997907 L96.859166,51.9997907 C96.9385704,51.4881935 97.0368389,50.89846 97.1557262,50.2292804 C97.2741748,49.5605374 97.3531406,48.8917944 97.3930622,48.2226148 C97.1947704,47.5141488 97.0460516,46.8947321 96.9477831,46.3639282 C96.8499533,45.8322513 96.7999417,45.44899 96.7999417,45.2128347 C96.7999417,44.6226646 97.0460516,44.0132877 97.5409036,43.3833947 C98.0348782,42.7543746 98.7569761,42.4003599 99.7063198,42.3217869 C100.25908,42.282937 100.763145,42.3711133 101.218075,42.5871889 C101.672567,42.803701 101.998959,43.0887461 102.19725,43.4427609 C102.31526,43.6400663 102.384136,43.8557054 102.404316,44.0918607 C102.424058,44.328016 102.413529,44.5440916 102.374923,44.740524 C102.335002,44.9378294 102.245946,45.1050151 102.107756,45.2420812 C101.969127,45.3808934 101.781803,45.4297833 101.544467,45.3900603 C101.465063,45.3900603 101.523848,45.2722009 101.72214,45.0360455 C101.919554,44.7998902 101.900252,44.4262322 101.663354,43.9150716 C101.583511,43.7186392 101.435231,43.5903034 101.218075,43.5309372 C101.000919,43.471571 100.832898,43.4824839 100.714011,43.5601838 C100.278822,43.7963391 100.159934,44.2097201 100.358226,44.7998902 C100.39727,44.9971956 100.596001,45.4297833 100.951346,46.0985263 C101.307131,46.7672693 101.682657,47.5935948 102.078363,48.5766296 C102.473192,49.5605374 102.799584,50.633058 103.0571,51.792882 C103.3133,52.9535789 103.383491,54.1443955 103.264604,55.3635856 L103.829648,54.9323075 Z" id="Fill-15" fill="#FFFFFF"></path>
                        <path d="M106.05113,58.9635359 C106.445959,59.1599682 106.910979,59.2084215 107.444875,59.1102054 C107.978333,59.0132987 108.284106,58.6291643 108.364388,57.9604213 C107.928321,57.9211348 107.454088,57.8718085 106.940811,57.8124423 C106.426217,57.7530761 105.91294,57.6256133 105.398346,57.4283079 C105.122405,57.350608 104.904372,57.390331 104.74644,57.5470403 C104.588509,57.7046227 104.667475,57.9407781 104.983776,58.2546333 C105.260595,58.5706712 105.61638,58.8059535 106.05113,58.9635359 M106.34769,48.2226148 C106.149398,47.5141488 106.00068,46.8947321 105.902411,46.3639282 C105.804581,45.8322513 105.75457,45.44899 105.75457,45.2128347 C105.75457,44.6226646 106.00068,44.0132877 106.495532,43.3833947 C106.989506,42.7543746 107.711604,42.4003599 108.660948,42.3217869 C109.213708,42.282937 109.717773,42.3711133 110.172703,42.5871889 C110.627195,42.803701 110.953587,43.0887461 111.151878,43.4427609 C111.269888,43.6400663 111.338764,43.8557054 111.358944,44.0918607 C111.378686,44.328016 111.368157,44.5440916 111.329551,44.740524 C111.28963,44.9378294 111.200574,45.1050151 111.062384,45.2420812 C110.923755,45.3808934 110.736431,45.4297833 110.499095,45.3900603 C110.41969,45.3900603 110.478476,45.2722009 110.676768,45.0360455 C110.874182,44.7998902 110.854879,44.4262322 110.617982,43.9150716 C110.538139,43.7186392 110.389859,43.5903034 110.172703,43.5309372 C109.955547,43.471571 109.787526,43.4824839 109.668638,43.5601838 C109.233449,43.7963391 109.114562,44.2097201 109.312854,44.7998902 C109.351898,44.9971956 109.550629,45.4297833 109.905974,46.0985263 C110.261759,46.7672693 110.637285,47.5935948 111.032991,48.5766296 C111.42782,49.5605374 111.754212,50.633058 112.011728,51.792882 C112.267928,52.9535789 112.338119,54.1443955 112.219232,55.3635856 L112.575017,55.0095709 C113.009767,54.5372602 113.394944,54.0850293 113.731865,53.6515685 C114.067031,53.2198539 114.353939,52.8457594 114.591714,52.5305946 C114.867656,52.1377299 115.12561,51.7837151 115.362508,51.4681138 L115.896404,51.4681138 C115.659068,52.020307 115.362508,52.5899608 115.006723,53.1801309 C114.689544,53.6912915 114.284625,54.2330083 113.79065,54.8026621 C113.295798,55.373189 112.713207,55.9341125 112.041559,56.4845596 C111.72438,57.7443457 111.151878,58.6483711 110.321422,59.1988182 L110.261759,59.2581844 L109.905974,59.4349735 C109.588795,59.6314059 109.254068,59.7793849 108.897845,59.8776011 C108.54206,59.9753807 108.086691,60.0251436 107.533931,60.0251436 C106.623632,59.9854206 105.92303,59.7985916 105.428178,59.4650931 C104.934203,59.1298486 104.627553,58.8849629 104.508666,58.7273805 C104.074354,58.2546333 103.955905,57.8622051 104.15332,57.5470403 C104.351612,57.2318755 104.648172,57.0358797 105.043001,56.9568703 C105.635682,56.9568703 106.198971,57.0153634 106.733306,57.1340959 C107.267202,57.2515188 107.830491,57.272035 108.423612,57.1930256 C108.462656,56.8381378 108.472307,56.3667002 108.453005,55.7765301 C108.432825,55.1867965 108.364388,54.5372602 108.2455,53.8292307 C108.127052,53.1207647 107.958153,52.3935284 107.741436,51.6457759 C107.523402,50.89846 107.216752,50.2100737 106.821923,49.5801806" id="Fill-17" fill="#FFFFFF"></path>
                        <path d="M121.114285,56.4844723 C121.549035,55.8554522 121.91491,55.0592464 122.21147,54.0949818 C122.50803,53.1315903 122.557165,52.1376426 122.360189,51.1140117 C121.687225,50.8398795 121.341531,50.4950316 121.321789,50.0816506 C121.302048,49.6682696 121.331002,49.343938 121.410845,49.1073461 C121.055061,49.383661 120.778242,49.5604501 120.580827,49.6394595 C120.46194,49.7180325 120.332963,49.7966054 120.195211,49.8756149 C120.056144,49.9541878 119.888561,50.0331973 119.691147,50.1108972 C119.611742,50.1903432 119.423979,50.3867755 119.127419,50.7010673 C118.830859,51.0171051 118.524208,51.4300496 118.208345,51.9403372 C118.168424,52.0202197 118.128502,52.0787129 118.089897,52.1175628 C118.049975,52.1572858 118.010054,52.216652 117.971009,52.2943519 C117.931088,52.3742344 117.912224,52.4331641 117.912224,52.471141 C117.912224,52.5113005 117.891605,52.5702303 117.852561,52.6492397 C117.733673,52.8456721 117.605135,53.1014706 117.466945,53.4161989 C117.328316,53.7313637 117.179597,54.1045852 117.022543,54.5371729 C116.982183,54.7344783 116.942261,54.9112674 116.903656,55.0679767 C116.863734,55.2255591 116.824251,55.4032213 116.785207,55.5996536 L116.785207,55.7768793 C116.705364,56.2880399 116.66632,56.7607871 116.66632,57.1933748 C116.66632,57.6259625 116.785207,57.9808503 117.022543,58.2549825 C117.25944,58.5308609 117.535382,58.667927 117.852561,58.667927 C118.168424,58.667927 118.514557,58.5797507 118.890522,58.4025251 C119.265609,58.2257359 119.651225,57.9699374 120.046931,57.6355659 C120.44176,57.3011943 120.797544,56.917933 121.114285,56.4844723 L121.114285,56.4844723 Z M132.1458,50.3470525 C131.591723,50.5443579 131.019222,50.721147 130.426101,50.8778564 C129.871586,50.9965888 129.269253,51.1140117 128.616908,51.2327442 C127.964563,51.3501671 127.302128,51.4095333 126.630042,51.4095333 C126.74893,51.880971 126.817367,52.3934411 126.837985,52.9438882 C126.857288,53.4952084 126.787535,54.1045852 126.630042,54.7733282 C126.353223,55.9933914 125.897854,57.0357924 125.266128,57.9009678 C124.988871,58.2549825 124.662918,58.6085608 124.287392,58.9634486 C123.910988,59.3174633 123.466587,59.6121118 122.952871,59.8482672 C122.438716,60.0844225 121.845595,60.2411319 121.173948,60.3205779 C120.500984,60.3987143 119.750371,60.3594278 118.919914,60.2022819 C118.089897,60.0446995 117.337967,59.7304078 116.66632,59.2580971 C116.112243,58.8255094 115.608179,58.2060927 115.153687,57.3994105 C114.700073,56.5931648 114.471949,55.4617145 114.471949,54.006369 C114.551354,52.6684464 114.808431,51.4300496 115.242743,50.2876863 C115.63801,49.305088 116.260524,48.3705065 117.11116,47.4848149 C117.960919,46.6004328 119.196295,46.0002228 120.817725,45.6854945 C121.134026,45.6064851 121.430148,45.5872784 121.707405,45.6261283 C121.90482,45.6658513 122.102234,45.7435512 122.300526,45.8622837 C122.49794,45.9801431 122.597086,46.1966552 122.597086,46.51182 C122.517243,46.7471023 122.49794,46.9238914 122.537862,47.0426238 C122.537862,46.9640509 122.616389,46.9640509 122.775198,47.0426238 C122.813803,47.0823468 122.982702,47.180563 123.279262,47.3372724 C123.575823,47.4957278 123.910988,47.7209702 124.287392,48.0156188 C124.662918,48.3111403 125.048534,48.6856713 125.44424,49.1374658 C125.83863,49.5896967 126.155809,50.1506202 126.392706,50.8193632 C126.985827,50.8193632 127.608779,50.7805133 128.260685,50.7010673 C128.913468,50.6233674 129.515802,50.5238417 130.069878,50.4064188 C130.702043,50.2497094 131.315782,50.091254 131.908902,49.9336716 L132.1458,50.3470525 Z" id="Fill-19" fill="#FFFFFF"></path>
                        <path d="M135.763659,43.4425863 C135.644772,44.0327564 135.535536,44.6229265 135.437267,45.2130966 C135.338122,45.8032667 135.249066,46.3737935 135.170539,46.9238041 C135.723738,46.0987882 136.217712,45.1537303 136.65334,44.0921226 C137.08809,43.0292053 137.433346,41.9968442 137.690862,40.9937296 C137.94794,39.9901786 138.10631,39.0756768 138.165534,38.2493514 C138.224758,37.4225894 138.194927,36.8529356 138.076917,36.5382073 C137.918108,36.1841926 137.710604,36.341775 137.453965,37.010518 C137.196449,37.6792611 136.9499,38.4855067 136.712564,39.4292551 C136.395824,40.5318953 136.079522,41.8693814 135.763659,43.4425863 M135.467099,58.195529 C136.06022,58.1575521 136.623508,57.7834576 137.157405,57.0745551 C137.690862,56.3669621 138.175185,55.6000029 138.610374,54.7732409 C139.084608,53.7906426 139.539099,52.6880024 139.974727,51.4679392 L140.44896,51.4679392 C140.053254,53.0031672 139.539099,54.3808127 138.906935,55.6000029 C138.352858,56.6223241 137.661469,57.5569056 136.831013,58.4024378 C136.000556,59.2484064 134.992866,59.6316678 133.806625,59.5535313 C133.292031,59.5138084 132.866932,59.3261063 132.530889,58.9926079 C132.194846,58.6591094 131.908815,58.2850149 131.671479,57.8716339 C131.433704,57.4586894 131.245941,57.0453085 131.10819,56.632364 C130.97,56.218983 130.880944,55.8942149 130.841022,55.6580595 C130.762057,55.3442043 130.713361,55.0194361 130.692742,54.6850646 C130.673439,54.3506931 130.643608,54.0062817 130.603686,53.6513939 C130.564642,53.533971 130.544462,53.3567454 130.544462,53.1205901 L130.544462,52.5897862 C130.505857,52.1969215 130.485238,51.8132236 130.485238,51.4386926 L130.485238,50.4063315 C130.485238,49.580006 130.515069,48.7052273 130.574294,47.7806857 C130.633079,46.8561441 130.742754,45.8827126 130.900247,44.8590818 C131.453446,40.7680507 132.24398,37.7979935 133.272729,35.9480373 C134.300599,34.098954 135.545626,33.2529854 137.009125,33.4105678 C137.640851,33.4891407 138.145354,33.950975 138.521319,34.7969437 C138.896406,35.6437854 139.045125,36.7547194 138.966598,38.131492 C138.886755,39.5091376 138.54106,41.0530958 137.928198,42.7638034 C137.314897,44.4749474 136.35678,46.2162111 135.05209,47.9867214 C134.972247,48.497882 134.912584,48.9994393 134.873979,49.4913932 C134.834057,49.9833471 134.774833,50.4656977 134.696306,50.9371353 C134.696306,51.2531732 134.685777,51.557425 134.666474,51.8520736 C134.645855,52.1475951 134.616024,52.451847 134.577418,52.7670118 C134.537497,53.0817401 134.508104,53.385992 134.488801,53.6815135 C134.468182,53.9761621 134.45897,54.2620803 134.45897,54.5370856 L134.45897,54.8317341 L134.45897,55.0098328 C134.418609,55.8750082 134.468182,56.6223241 134.60725,57.2513442 C134.745001,57.8816738 135.031471,58.195529 135.467099,58.195529" id="Fill-21" fill="#FFFFFF"></path>
                        <g id="Group-25" transform="translate(138.628756, 45.271983)">
                            <mask id="mask-2" fill="white">
                                <use xlink:href="#path-1"></use>
                            </mask>
                            <g id="Clip-24"></g>
                            <path d="M8.34409114,1.47507601 C8.06639493,1.39737611 7.77027338,1.53444224 7.45441039,1.88845699 C7.13723131,2.24203522 6.83145839,2.72525881 6.53489814,3.33376259 C6.23877658,3.94444895 5.96151907,4.64243858 5.7044417,5.42904102 C5.44692562,6.2165165 5.23942119,7.02232566 5.08192839,7.84865109 C5.67461019,7.61249575 6.18832625,7.27899727 6.62395395,6.84553654 C6.94025564,6.53124478 7.22628712,6.20691314 7.4838032,5.8721051 C7.74088057,5.53773359 7.94838501,5.23260867 8.1067552,4.95760337 C8.18528225,4.80002097 8.25503533,4.6725582 8.31425964,4.57346899 C8.37348395,4.47612585 8.42261819,4.38794955 8.46210106,4.30806706 C8.6998757,3.71789697 8.83806576,3.12772688 8.87754863,2.53755679 C8.91659281,1.94738669 8.73891988,1.59380846 8.34409114,1.47507601 M11.1908063,11.8619823 C11.6255566,11.3892351 12.010734,10.8296212 12.3472158,10.1800849 C12.6828202,9.53054855 12.9697291,8.91113186 13.2075038,8.32139829 C13.4834452,7.61249575 13.7409613,6.90490276 13.9782972,6.19600023 L14.5121934,6.19600023 C14.2748574,7.17990806 13.9576784,8.12496593 13.5628496,9.02899127 C13.2461092,9.81646675 12.8311004,10.6222759 12.317823,11.4486013 C11.8032296,12.2749268 11.1908063,12.9441063 10.4787985,13.455267 C9.80627356,13.9655546 9.11488457,14.2903227 8.40331545,14.4286984 C7.69130763,14.5666376 6.99904125,14.6356071 6.3273937,14.6356071 C5.57546431,14.6356071 4.82441232,14.5365179 4.07379902,14.3400856 C3.48067852,14.1825032 2.91695083,13.9463478 2.38349333,13.6324926 C1.84959714,13.3173278 1.40475677,12.8856131 1.04897221,12.33342 C0.693187649,11.7829729 0.45585171,11.0950231 0.337403089,10.2686977 C0.21851577,9.44193573 0.278178779,8.45933745 0.51507602,7.31784722 C0.950703724,5.23260867 1.61226121,3.70916664 2.50194196,2.7435925 C3.3916227,1.78020094 4.29051613,1.12106126 5.20037701,0.767483028 C6.22824782,0.334895336 7.35526451,0.217035924 8.58098838,0.413468277 C8.97581712,0.530891172 9.33204037,0.708116806 9.64834206,0.944272146 C9.885678,1.18042749 10.0936211,1.50519564 10.2712941,1.91857662 C10.448967,2.33152107 10.4985399,2.9120878 10.4200129,3.65853075 L10.4200129,3.71789697 C10.3796526,3.83575638 10.3498211,4.00381517 10.3309571,4.21945424 C10.3103382,4.43640286 10.261204,4.64243858 10.1822383,4.83887093 L10.0045653,5.37054783 C9.96464375,5.56785322 9.86549787,5.82277876 9.70800507,6.13750704 C9.39082599,6.72767713 8.93721164,7.21963104 8.34409114,7.61249575 C7.71104907,8.04595648 7.078007,8.34147804 6.44628102,8.4981874 C5.81323895,8.6557698 5.2986455,8.75485901 4.90381676,8.79283593 C4.90381676,9.06871426 4.88319793,9.26514661 4.84459245,9.38300602 C4.765188,10.2887774 4.83450238,11.0064103 5.05253558,11.5372142 C5.26925269,12.068018 5.59520575,12.4726687 6.03083345,12.7468009 L6.09005776,12.7468009 C6.16902351,12.8262469 6.24798925,12.8856131 6.3273937,12.9235901 C7.19645562,13.3570508 7.97777781,13.4845136 8.6700442,13.3077244 C9.36099448,13.1304988 9.92516087,12.8856131 10.3603499,12.5695753 L10.4200129,12.5695753 C10.8543245,12.2557201 11.1109632,12.0195647 11.1908063,11.8619823" id="Fill-23" fill="#FFFFFF" mask="url(#mask-2)"></path>
                        </g>
                        <path d="M43.2908212,74.1377605 C43.232913,74.3957417 43.1824626,74.6615801 43.1394702,74.9339663 C43.096039,75.2072255 43.04515,75.472191 42.9881192,75.7301721 C43.420676,75.1858362 43.7808475,74.5830072 44.0695112,73.9229945 C44.3572975,73.2629818 44.5884916,72.6173741 44.7613389,71.985735 C44.9346248,71.3545323 45.0350868,70.7805133 45.0640409,70.2641145 C45.0925563,69.7472792 45.0640409,69.3600892 44.9776173,69.102108 C44.8622396,68.8436903 44.7108885,68.9589307 44.5235642,69.4465194 C44.3353625,69.9345447 44.1559348,70.5220957 43.9826489,71.2109185 C43.7514547,72.0149816 43.521138,72.9905956 43.2908212,74.1377605 M39.4408023,80.8094762 C39.3828941,79.8910459 39.3763136,79.080435 39.4193061,78.3772072 C39.4627373,77.6744159 39.4842335,77.2946467 39.4842335,77.2370265 C38.9069061,77.6674316 38.3879257,78.2693877 37.9268535,79.0446407 C37.4653426,79.8194572 37.105171,80.5938372 36.8454614,81.3686537 C36.5857519,82.1439067 36.4488779,82.832293 36.4344009,83.435122 C36.4199238,84.0370781 36.5708361,84.3531159 36.8888926,84.3814895 C37.1766789,84.4395461 37.4508655,84.3461316 37.7105751,84.1016825 C37.9702846,83.8581064 38.2080593,83.5420685 38.4243377,83.1548785 C38.6406161,82.7676885 38.8353983,82.3586727 39.0082455,81.9282676 C39.1810928,81.4978625 39.3249859,81.1255141 39.4408023,80.8094762 M43.0311116,84.8978883 C43.4636684,84.8699512 43.874729,84.5971285 44.2638547,84.0802932 C44.653419,83.5638944 45.0061327,83.0047169 45.3237505,82.4018879 C45.6698837,81.685128 46.0006624,80.8810649 46.3187189,79.9910081 L46.6648521,79.9910081 C46.4051425,81.1106725 46.0445323,82.1006916 45.58346,82.9615018 C45.1794186,83.7079447 44.6749153,84.3889102 44.0695112,85.0057078 C43.4636684,85.6225054 42.7424479,85.9158444 41.9067271,85.8883439 L41.8198648,85.8883439 C41.3583539,85.8302872 40.9832666,85.6081004 40.6954803,85.2213469 C40.4068166,84.8332839 40.1764999,84.4028788 40.0032139,83.9301316 C39.829928,83.4560748 39.7070924,83.0047169 39.6355845,82.5743118 C39.5631992,82.1439067 39.5127489,81.857552 39.4842335,81.7135016 C39.4552794,81.857552 39.3973712,82.0430714 39.3113862,82.272679 C39.2245239,82.5027231 39.1231845,82.7314577 39.0082455,82.9615018 C38.8924291,83.1911094 38.7919671,83.3988912 38.7055435,83.5852837 C38.6191199,83.7725492 38.5607729,83.8794957 38.5322575,83.9078692 C38.2435939,84.396331 37.9553689,84.7547109 37.6671439,84.9843185 C37.3784802,85.2139261 37.105171,85.3715085 36.8454614,85.4579388 C36.5278437,85.572306 36.2400574,85.6155211 35.9803478,85.5871476 C35.3749437,85.5871476 34.8555246,85.4863123 34.4229678,85.2855148 C34.0198038,85.1135274 33.6811285,84.8118946 33.4065032,84.3814895 C33.1327552,83.9510843 33.0537895,83.3059132 33.1687285,82.4442299 C33.2551521,81.8139003 33.4573922,81.1320618 33.7741326,80.4000239 C34.0921891,79.6684225 34.5098301,78.9800363 35.0288106,78.3339921 C35.547791,77.6888209 36.1602142,77.129207 36.8669577,76.6555868 C37.5737011,76.1819665 38.3594103,75.8886276 39.2245239,75.7733872 C39.2819934,75.7733872 39.3469208,75.766403 39.4193061,75.7515614 C39.490814,75.7375929 39.5706571,75.7301721 39.6570807,75.7301721 C39.6851574,75.6446149 39.7005119,75.5516369 39.7005119,75.4503651 C39.7005119,75.3504029 39.7145502,75.2565519 39.7439431,75.1709947 C40.1471071,72.186969 40.723557,70.0209749 41.4741703,68.6717029 C42.2234675,67.3228674 43.1320123,66.7060698 44.1989273,66.8208736 C44.6889536,66.8784938 45.0859758,67.1866743 45.3886779,67.7462883 C45.6913799,68.3059022 45.8282539,69.0375036 45.7997385,69.9415289 C45.7707843,70.8446812 45.532571,71.8718042 45.0859758,73.0189691 C44.6385033,74.1670071 43.9102636,75.3290136 42.9012568,76.5054251 C42.8433486,76.9074567 42.793337,77.3016309 42.7499058,77.6888209 C42.7069134,78.0760109 42.6560243,78.4710582 42.5985548,78.8722167 C42.4831771,80.1066849 42.3963148,81.2115078 42.3392839,82.1862488 L42.3392839,82.4442299 C42.280937,83.0763056 42.3024333,83.6433403 42.4037726,84.1448976 C42.5046733,84.6473279 42.7134938,84.8978883 43.0311116,84.8978883" id="Fill-26" fill="#FFFFFF"></path>
                        <path d="M51.4224067,76.5478545 C51.2201667,76.4911074 51.0047657,76.5910696 50.7740102,76.8490508 C50.5432547,77.1074685 50.3190798,77.4597372 50.1028014,77.9036743 C49.8874003,78.3489209 49.6851603,78.857899 49.4982747,79.4314815 C49.310073,80.005937 49.1578446,80.5939245 49.0437829,81.196317 C49.4754624,81.0243296 49.8505497,80.7807535 50.1681674,80.4647156 C50.3989229,80.2355446 50.6073047,79.9989527 50.7955064,79.7549401 C50.9819533,79.5109274 51.1346205,79.2883041 51.2499982,79.0875066 C51.307029,78.9727028 51.3583567,78.8801613 51.4009105,78.8076996 C51.443903,78.7365475 51.4794375,78.6723796 51.5092691,78.6138864 C51.6816776,78.1834813 51.783017,77.7530761 51.8115324,77.322671 C51.8400478,76.8922659 51.710193,76.6342848 51.4224067,76.5478545 M53.4987672,84.1235956 C53.8155076,83.7787477 54.0975908,83.3706049 54.3428233,82.8969847 C54.5876171,82.4233645 54.797315,81.97157 54.9697236,81.5411649 C55.1706475,81.0243296 55.3588492,80.5079308 55.5312578,79.9910954 L55.9216995,79.9910954 C55.7479749,80.7087283 55.5172194,81.3979876 55.2289944,82.0571273 C54.998239,82.6315828 54.6946595,83.2195703 54.321327,83.8219628 C53.9449236,84.4247919 53.4987672,84.9128171 52.9802254,85.2856021 C52.4884443,85.6579505 51.985257,85.8945424 51.4667153,85.9953777 C50.9464188,86.0962129 50.4419154,86.1464123 49.9514503,86.1464123 C49.4043932,86.1464123 48.8555813,86.0739506 48.3085241,85.9307732 C47.8750899,85.8159695 47.464468,85.6435455 47.0753424,85.4148109 C46.6862167,85.1847668 46.3615797,84.8700385 46.1018702,84.4675705 C45.8425993,84.0659754 45.6693134,83.5639817 45.5828897,82.9611526 C45.4964661,82.35876 45.5398973,81.6415637 45.7127445,80.809127 C46.0303623,79.2883041 46.5129308,78.17737 47.161766,77.4732692 C47.8110399,76.7704779 48.4664556,76.2898734 49.1306453,76.0314557 C49.8790651,75.7162909 50.7011862,75.6302972 51.5961314,75.7734745 C51.8843563,75.8594683 52.1436272,75.9882406 52.3743827,76.1606645 C52.5467912,76.3330885 52.6994583,76.5696803 52.8288744,76.8713131 C52.9587292,77.1725094 52.9942638,77.5959303 52.9359169,78.1402661 L52.9359169,78.1834813 C52.9074015,78.269475 52.8859052,78.3921361 52.8718669,78.5497185 C52.8560737,78.7077374 52.8205392,78.857899 52.7635083,79.0010764 L52.6336535,79.3891394 C52.6051381,79.5331898 52.5327529,79.7187092 52.4173751,79.9483168 C52.186181,80.3787219 51.8558409,80.7375384 51.4224067,81.0243296 C50.9604571,81.3403674 50.4989462,81.5560065 50.0383127,81.6699373 C49.5768017,81.7851776 49.2017144,81.8572028 48.9139282,81.8851398 C48.9139282,82.0863738 48.898135,82.2295512 48.8700583,82.3155449 C48.8130275,82.9764307 48.8626004,83.4993772 49.0222867,83.8865672 C49.1806569,84.2737572 49.4184315,84.5688423 49.7347332,84.7687668 L49.7790418,84.7687668 C49.8360726,84.8268234 49.8931034,84.8700385 49.9514503,84.8979756 C50.5858085,85.2140134 51.155678,85.3069914 51.6606201,85.1777826 C52.1651234,85.0490102 52.5753066,84.8700385 52.8933631,84.6395579 L52.9359169,84.6395579 C53.2539734,84.4108234 53.4404203,84.2383994 53.4987672,84.1235956" id="Fill-28" fill="#FFFFFF"></path>
                        <path d="M54.9849903,85.2415576 C55.4070183,85.3157654 55.3017307,85.3432659 55.6180323,85.4580697 C55.9062573,85.6012471 56.24581,85.6366049 56.6349357,85.5650162 C57.0240613,85.4943006 57.2473589,85.2140571 57.3057058,84.7260318 L57.3482596,84.1668544 C57.376775,83.9080002 57.3846716,83.5640253 57.3706332,83.1336202 C57.3557175,82.7032151 57.3057058,82.2295949 57.2188435,81.713196 C57.1324199,81.1963607 57.0091456,80.6659933 56.8512141,80.1207844 C56.6928439,79.5755755 56.4691076,79.0735817 56.1813213,78.61393 C56.1225357,78.9011578 56.058047,79.2097748 55.9861005,79.5393447 C55.9141539,79.8697875 55.8492265,80.149158 55.7913183,80.3787656 L55.4456238,80.3787656 C55.503532,80.0059806 55.5754786,79.5755755 55.6619022,79.0875502 C55.7487645,78.5999615 55.8057953,78.1119362 55.8347495,77.6243475 C55.6899789,77.1070756 55.5820591,76.6557177 55.5105512,76.2685277 C55.4386046,75.8804647 55.4021926,75.6010942 55.4021926,75.4291068 C55.4021926,74.9987017 55.5820591,74.5538915 55.943108,74.0946764 C56.3028409,73.6358977 56.8297179,73.37748 57.5215456,73.3202964 C57.925587,73.2919228 58.2927777,73.3565272 58.6248725,73.5136731 C58.95609,73.671692 59.1943033,73.8794738 59.3386351,74.1378915 C59.4250588,74.2815053 59.4750704,74.4390877 59.4899861,74.6115117 C59.5040245,74.7834991 59.4970053,74.9410815 59.4684899,75.0842589 C59.4390971,75.2283093 59.3741697,75.3500973 59.2737077,75.4500596 C59.1719297,75.5517679 59.0359331,75.5871257 58.8626472,75.5578791 C58.8043002,75.5578791 58.8477314,75.4723219 58.9925019,75.299898 C59.1363951,75.127474 59.121918,74.8550878 58.9490708,74.4823029 C58.8911626,74.3391255 58.782804,74.245711 58.6248725,74.2020594 C58.4656249,74.1588443 58.3441054,74.1667015 58.2568044,74.2234487 C57.9391866,74.3958726 57.852763,74.6970689 57.9975335,75.127474 C58.0260489,75.2715244 58.1708195,75.5871257 58.4300903,76.0747145 C58.6893612,76.5627397 58.9631091,77.1655688 59.2517728,77.8823286 C59.5395591,78.5999615 59.7777724,79.3817623 59.9659741,80.2277309 C60.1532984,81.0745726 60.2037488,81.9432401 60.1168864,82.8324239 L59.9870317,83.650019 C59.7562762,84.5688859 59.3386351,85.2280256 58.7332311,85.6296206 L58.6893612,85.6728357 L58.4300903,85.8016081 C58.1993349,85.9452219 57.9541024,86.0530415 57.6948315,86.1246302 C57.4355606,86.1962188 57.1034658,86.2320132 56.6998631,86.2320132 C56.0365508,86.2032031 55.5254669,86.06701 55.164418,85.8238704 C54.8042465,85.5789847 54.5805102,85.4004495 54.4936479,85.2856458" id="Fill-30" fill="#FFFFFF"></path>
                        <path d="M82.0979673,81.1049978 L82.1874618,81.7863998 C80.6893061,82.2250987 74.4632956,86.6832401 71.3779284,89.1347159 C70.2930268,89.9968356 69.6841131,90.8825273 69.6841131,90.8825273 C69.3134128,91.3251549 69.0984505,91.7747667 69.0392262,92.2331089 C68.9795632,92.6901415 68.9944789,93.0520135 69.0830961,93.317852 C69.1725906,93.4950776 69.2612077,93.6277786 69.3507022,93.7159549 C69.4099265,93.8050042 69.5060015,93.9080221 69.6398046,94.026318 C69.7731689,94.1441774 69.9447001,94.2327902 70.1513271,94.2925929 L70.1960744,94.2925929 L70.2846915,94.3362446 C70.3447932,94.3362446 70.374186,94.3506496 70.374186,94.3807692 L70.4180559,94.3807692 C70.7150548,94.439699 71.0414466,94.4689455 71.3976698,94.4689455 C71.6946688,94.4100158 71.9021732,94.3506496 72.0210605,94.2925929 C72.1697794,94.2327902 72.2807701,94.1817178 72.3544715,94.1371931 C72.4286115,94.0926685 72.4952937,94.040723 72.5549567,93.9822298 L72.6435738,93.8931805 C73.1186844,93.4505529 73.4823656,92.7787543 73.7346173,91.8782211 C73.9868689,90.9772513 74.1724384,90.0108042 74.2904484,88.97757 L74.3799429,88.3136286 C74.4391672,87.6051626 74.4913723,86.800663 74.5352422,85.9001298 C74.5799894,85.0000331 74.6321946,84.1510088 74.6914189,83.3534935 C74.7506432,82.4093086 74.7953905,81.4494092 74.8247833,80.4751047 C74.8247833,80.2389494 74.8322411,80.0097783 74.8467182,79.788901 C74.8620726,79.5671507 74.8844463,75.6991795 74.9134004,75.4927072 C74.9436706,75.0208331 75.5109079,69.6948972 75.5556551,69.1924669 C75.6004024,68.6913461 75.6670846,68.1740743 75.7561404,67.6428339 C75.7561404,67.5834677 75.7859719,67.4656083 75.8451962,67.2883826 C75.874589,67.259136 75.9193363,67.2071906 75.9789993,67.1334193 C76.0373462,67.0596481 76.1417564,67.0378223 76.2904753,67.0670688 C76.4677095,67.0963154 76.7199612,67.1486974 77.0472303,67.2220321 C77.3727447,67.2962399 76.9726516,67.1727058 77.2999207,67.3054068 C77.6258738,67.4381077 77.9000604,67.6153334 78.123358,67.8366472 C78.3453395,68.0583975 78.4414145,68.3316567 78.4128991,68.6555518 C78.3527974,69.0401227 78.2931343,69.4085425 78.2347874,69.7634303 C78.1746857,70.1178815 77.8693515,74.6668183 77.8096885,74.9915865 C77.7495868,75.2286148 77.8316234,79.7234236 77.8171464,79.9443009 C77.8017919,80.1660512 77.779857,80.3943492 77.7504642,80.6309411 C77.6908012,80.8670964 77.7127361,81.1163472 77.6978204,81.3380975 C77.6824659,81.5594113 77.660531,81.7737408 77.6311382,81.9802131 L77.6311382,82.2015269 C77.6311382,82.23121 77.6236803,82.2539088 77.6092032,82.2683139 C77.5938488,82.2831554 77.5872683,82.3058543 77.5872683,82.3346643 L77.5872683,82.6005028 L77.5420824,83.0902741 C77.5118122,83.5621483 77.5271666,84.2911306 77.6311382,84.6014937 L77.628506,85.9664803 C77.5398889,86.6749463 77.4065245,87.4427785 77.2284129,88.269104 L77.0950485,89.0220947 C76.7677793,90.2622376 76.3448739,91.4137677 75.8263322,92.476685 C75.3073517,93.5396023 74.6019244,94.2925929 73.7118049,94.7352205 C73.6530193,94.7937137 73.4156834,94.9045889 72.9997971,95.0674095 C72.5847882,95.229357 72.036415,95.2957075 71.3529226,95.2664609 C70.9975767,95.2363413 70.6861007,95.1848323 70.4180559,95.1119341 C70.1513271,95.0372898 69.9144299,94.9412562 69.7064868,94.8233968 C69.4695895,94.6754178 69.2546272,94.4981921 69.0611611,94.2925929 C68.8681337,94.0852477 68.7273115,93.8198458 68.637817,93.4950776 C68.4605827,92.9634007 68.4377704,92.4247395 68.5711348,91.8782211 C68.7049379,91.3317026 69.064232,90.8912576 69.4173844,90.3726762 C70.7326028,88.4397819 82.0979673,81.1049978 82.0979673,81.1049978" id="Fill-32" fill="#FFFFFF"></path>
                        <path d="M87.4199515,76.3561802 C87.2115697,76.297687 86.9895882,76.4007049 86.7518136,76.6661068 C86.5144776,76.9319453 86.2850383,77.2942538 86.0621794,77.7512864 C85.8397592,78.2091921 85.631816,78.7330117 85.4396661,79.3231818 C85.2462,79.9142249 85.0900233,80.5192365 84.9715747,81.1390897 C85.4168537,80.9618641 85.8024698,80.7117402 86.1288616,80.3860991 C86.3661975,80.1508167 86.5811598,79.9068041 86.7746259,79.6558072 C86.9667759,79.4048103 87.1229526,79.1760758 87.2418399,78.9696035 C87.3010642,78.8513076 87.3532693,78.7557105 87.3971392,78.6815027 C87.4418865,78.608168 87.4787371,78.5418175 87.5085686,78.4820148 C87.6866803,78.0393872 87.7902131,77.5963231 87.8204833,77.1536956 C87.8494374,76.7106315 87.7160731,76.4452295 87.4199515,76.3561802 M89.555975,84.150616 C89.881928,83.7961647 90.1714691,83.376236 90.4237208,82.8886472 C90.6759725,82.401495 90.8918122,81.9366051 91.0690464,81.4939775 C91.2765509,80.9618641 91.4700169,80.4306237 91.6476899,79.8989468 L92.0486604,79.8989468 C91.8705488,80.6370959 91.6327741,81.346435 91.3366526,82.0247814 C91.0984392,82.6158245 90.7869632,83.2208362 90.4017859,83.8406894 C90.0157311,84.4609791 89.555975,84.9629729 89.0220788,85.3466707 C88.516698,85.7294956 87.998595,85.9730717 87.4646988,86.0769626 C86.9303639,86.1804169 86.4109448,86.2323624 85.9064414,86.2323624 C85.3427137,86.2323624 84.778986,86.1577181 84.2152583,86.0106121 C83.7699792,85.8923162 83.3475125,85.7150905 82.946542,85.4793717 C82.5464488,85.2427798 82.2125992,84.9188847 81.9449931,84.5046307 C81.6782643,84.0916863 81.5001527,83.5752874 81.4110969,82.9549977 C81.3224798,82.3351445 81.3667883,81.5974319 81.5448999,80.7409868 C81.8717304,79.1760758 82.3683372,78.0328395 83.0360365,77.3082223 C83.703297,76.5853513 84.3780155,76.0907783 85.0610692,75.8249398 C85.8318626,75.5006082 86.6781122,75.4119954 87.5980632,75.5595379 C87.8941847,75.6477142 88.1613521,75.7804152 88.3986881,75.9576408 C88.5767997,76.1353029 88.7329764,76.3788791 88.8667795,76.6888057 C89.0001439,76.9987323 89.0365558,77.4343756 88.9773315,77.9948625 L88.9773315,78.0393872 C88.9479387,78.1275635 88.9251264,78.2537167 88.9106493,78.4156643 C88.8952949,78.5784849 88.8584442,78.7330117 88.7996586,78.8805542 L88.6658555,79.2795301 C88.6364627,79.4275092 88.5614453,79.6187033 88.4434353,79.8552952 C88.2060994,80.2979228 87.8647919,80.6672156 87.4199515,80.9618641 C86.9448409,81.2875053 86.4697304,81.5092556 85.9954972,81.6266785 C85.5208253,81.7445379 85.1343318,81.8191822 84.8382103,81.8475558 C84.8382103,82.054901 84.8228558,82.202007 84.793463,82.2906198 C84.7342387,82.9702758 84.7864439,83.5089369 84.9496397,83.9070398 C85.1123969,84.3055793 85.3576294,84.6089581 85.6835825,84.8145573 L85.7283297,84.8145573 C85.7879927,84.8743601 85.8463397,84.9188847 85.9064414,84.9476948 C86.5592249,85.2728995 87.1448875,85.3684966 87.6647453,85.2357956 C88.1832871,85.1030946 88.6061925,84.9188847 88.9334617,84.6818564 L88.9773315,84.6818564 C89.3037233,84.4461375 89.496312,84.2689119 89.555975,84.150616" id="Fill-34" fill="#FFFFFF"></path>
                        <path d="M101.483663,84.903694 C101.928504,84.8447642 102.343513,84.5492427 102.730006,84.0180023 C103.115183,83.4863254 103.45693,82.9105603 103.75349,82.2902706 C104.079882,81.5818046 104.406273,80.7851623 104.732665,79.8990341 L105.088888,79.8990341 C104.791889,81.0510007 104.406273,82.0846714 103.93204,82.9996097 C103.723658,83.3833075 103.493342,83.7595846 103.241967,84.1280044 C102.989716,84.4981703 102.707194,84.8225019 102.395718,85.1027454 C102.08468,85.3838619 101.735038,85.6056122 101.350299,85.7666868 C100.964683,85.9286343 100.548797,85.9949848 100.103956,85.9666112 C99.8964518,85.9369281 99.7108823,85.9142293 99.5481251,85.9002608 C99.3844906,85.8849827 99.2283139,85.8478788 99.0800337,85.7893856 L99.0352865,85.7893856 L98.9914166,85.7893856 L98.9466694,85.7893856 C98.9466694,85.759266 98.9313149,85.7448609 98.9019221,85.7448609 C98.8725293,85.7448609 98.8501557,85.7374402 98.8352399,85.7230351 C98.8198855,85.7077571 98.7979505,85.7003363 98.7685577,85.7003363 C98.0267184,85.3764411 97.5226537,84.8526215 97.2550476,84.1280044 C96.9883188,83.4051334 96.8246843,82.6604365 96.7663373,81.8921677 C96.4390682,82.8075425 96.0389751,83.6343044 95.5643032,84.3720171 C95.0891926,85.1101662 94.5557351,85.5239837 93.9617372,85.61216 L93.7840643,85.61216 C93.2791222,85.6414066 92.8715712,85.5309679 92.5596565,85.279971 C92.2481805,85.0289741 91.9959288,84.7338891 91.8029014,84.3942794 C91.6111902,84.0551062 91.4773871,83.7080757 91.4028083,83.3531879 C91.3295457,82.9996097 91.2764631,82.7333347 91.247509,82.5565456 L91.247509,82.37932 C91.2181162,82.1431646 91.1953039,81.9292716 91.1803881,81.7372044 C91.1659111,81.5455738 91.1580145,81.3753324 91.1580145,81.2282264 L91.1580145,80.7406376 C91.1580145,80.4459891 91.1659111,80.1653091 91.1803881,79.8990341 C91.1953039,79.6331957 91.2027618,79.3830718 91.2027618,79.1469165 C91.2628635,78.6746058 91.3141912,78.1874536 91.3580611,77.6845867 C91.4028083,77.183466 91.4550135,76.6661941 91.5142378,76.1349537 C91.5440693,76.076024 91.5883778,75.9577281 91.6476021,75.7805025 C91.6476021,75.7512559 91.6769949,75.6997469 91.7362193,75.6259757 C91.7958823,75.5522044 91.8989764,75.5303786 92.048134,75.5596252 C92.1665826,75.5884353 92.3442555,75.6259757 92.5824688,75.6696273 C92.8193661,75.714152 93.0716178,75.7805025 93.3392239,75.8695518 C93.6059527,75.9577281 93.8577657,76.0611825 94.095979,76.1794784 C94.3328762,76.2977743 94.5254649,76.4453168 94.6741837,76.6225425 C94.8522954,76.8586978 94.9259967,77.1092582 94.8966039,77.3746601 C94.8369409,77.759231 94.7851745,78.1276508 94.7408659,78.4821021 C94.6965574,78.8365533 94.6443522,79.1757265 94.5846892,79.5004947 C94.5254649,79.7375231 94.4881755,79.9658211 94.4741372,80.1871349 C94.4587827,80.4088852 94.4214934,80.6371833 94.3627077,80.8737751 C94.3627077,81.0217541 94.3473533,81.1989798 94.3179605,81.404579 C94.2587362,81.7891499 94.2139889,82.2902706 94.1845961,82.9105603 L94.1845961,82.955085 L94.1845961,83.1759623 L94.1845961,83.6190264 C94.1845961,83.944231 94.1990732,84.1878072 94.2293434,84.3497547 C94.2587362,84.5125753 94.302606,84.6234505 94.3627077,84.6819437 C94.4214934,84.770993 94.4960721,84.8002396 94.5846892,84.770993 C94.7921937,84.770993 95.0146139,84.5199961 95.2528272,84.0180023 C95.4897244,83.5160085 95.7270604,82.9258384 95.964835,82.246619 C96.2017322,81.5673996 96.4171333,80.8890532 96.6101606,80.2089607 C96.8027493,79.5306143 96.944449,79.0133425 97.0330661,78.6593277 L97.0330661,78.614803 L97.0330661,78.5702784 C97.0624589,78.4528555 97.1291411,78.2319782 97.2331126,77.906337 C97.3366455,77.5820054 97.4783452,77.2498165 97.6564568,76.9097702 C97.8345684,76.570597 98.0714657,76.2532497 98.3684646,75.9577281 C98.6645862,75.6630796 99.0352865,75.4705759 99.4814429,75.381963 C99.8367888,75.3230333 100.13291,75.381963 100.371562,75.5596252 C100.608021,75.7076042 100.771656,75.9066557 100.860273,76.1567795 C100.949767,76.4077764 101.001095,76.6740514 101.016449,76.9542949 C101.031365,77.2354114 101.008553,77.5082341 100.949767,77.7736361 C100.889665,78.039038 100.830441,78.2612248 100.771656,78.4375774 C100.711554,78.614803 100.601002,79.0286205 100.438245,79.6777203 C100.27461,80.3276932 100.155723,81.0217541 100.081583,81.7594668 C100.007004,82.4976159 100.036835,83.1842561 100.170638,83.8189509 C100.304003,84.4536456 100.638291,84.8146446 101.172187,84.903694 C101.231412,84.903694 101.283617,84.9111147 101.328364,84.9255198 C101.372234,84.9407978 101.424439,84.9338136 101.483663,84.903694" id="Fill-36" fill="#FFFFFF"></path>
                        <path d="M114.657212,84.903694 C115.10293,84.8447642 115.517938,84.5492427 115.903555,84.0180023 C116.289171,83.4863254 116.630478,82.9105603 116.927038,82.2902706 C117.25343,81.5818046 117.579822,80.7851623 117.906652,79.8990341 L118.262437,79.8990341 C117.965438,81.0510007 117.579822,82.0846714 117.105589,82.9996097 C116.898084,83.3833075 116.667767,83.7595846 116.415516,84.1280044 C116.163264,84.4981703 115.88162,84.8225019 115.570144,85.1027454 C115.258229,85.3838619 114.909464,85.6056122 114.523847,85.7666868 C114.138231,85.9286343 113.723223,85.9949848 113.277943,85.9666112 C113.07,85.9369281 112.884431,85.9142293 112.721674,85.9002608 C112.558039,85.8849827 112.40274,85.8478788 112.25446,85.7893856 L112.209712,85.7893856 L112.164965,85.7893856 L112.120218,85.7893856 L112.076348,85.7448609 C112.046078,85.7448609 112.024143,85.7374402 112.009666,85.7230351 C111.994311,85.7077571 111.972376,85.7003363 111.942984,85.7003363 C111.497705,85.5239837 111.134023,85.251161 110.85194,84.8809951 C110.569418,84.5125753 110.362791,84.1061786 110.229427,83.663551 C110.096063,83.2204869 110.013587,82.7560336 109.984633,82.2684448 C109.954363,81.7812926 109.939886,81.3316807 109.939886,80.9182998 C109.969279,80.7707573 109.984633,80.6232147 109.984633,80.4752357 C109.984633,80.3276932 109.99911,80.1805872 110.02938,80.0326081 C110.057896,79.6777203 110.102643,79.3677937 110.162745,79.1023918 C110.19126,78.8959196 110.214072,78.7256782 110.229427,78.5929772 C110.243904,78.4602763 110.251362,78.3494011 110.251362,78.2612248 L110.251362,78.2167001 L110.251362,78.1276508 C110.251362,78.0691576 110.243904,78.0324903 110.229427,78.0172122 C110.214072,78.0028071 110.206615,77.9801083 110.206615,77.9508617 L110.206615,77.906337 C110.14739,77.906337 110.087727,77.9216151 110.02938,77.9508617 C109.969279,77.9801083 109.909616,78.0102279 109.85083,78.039038 L109.85083,78.0835627 C109.55427,78.2612248 109.145841,78.7038524 108.626422,79.4123184 C108.107442,80.1207844 107.684536,81.2282264 107.358145,82.7333347 L107.358145,83.2204869 C107.358145,83.3977126 107.343229,83.5906528 107.314275,83.796252 L107.314275,84.5492427 C107.314275,84.8146446 107.254173,85.0665145 107.135724,85.3022334 C107.017276,85.5383887 106.868996,85.759266 106.690884,85.9666112 C106.542165,86.1141538 106.393885,86.2389974 106.246044,86.3433248 C106.096886,86.4459062 105.963522,86.5270982 105.845512,86.5860279 C105.726186,86.6449576 105.615195,86.6152745 105.511224,86.4978516 C105.407252,86.3795557 105.325654,86.2468547 105.26643,86.0993122 C105.147542,85.9513332 105.058925,85.759266 104.999262,85.5239837 C104.969431,85.4056877 104.925122,85.2428671 104.865898,85.0363949 C104.806674,84.8892889 104.754468,84.6898009 104.710599,84.4383675 C104.665851,84.1878072 104.614524,83.8997064 104.554422,83.5753747 C104.495636,83.2204869 104.458347,82.873893 104.442992,82.5342833 C104.428954,82.1946736 104.406142,81.8921677 104.37631,81.6263293 C104.347356,81.3019976 104.332002,81.0064761 104.332002,80.7406376 C104.332002,80.4459891 104.33946,80.1653091 104.353937,79.8990341 C104.36973,79.6331957 104.37631,79.3830718 104.37631,79.1469165 C104.406142,78.6746058 104.450889,78.1874536 104.509675,77.6845867 C104.569776,77.183466 104.629001,76.6661941 104.687786,76.1349537 C104.717618,76.076024 104.732534,76.0175308 104.732534,75.9577281 C104.732534,75.8987984 104.761926,75.8403052 104.821151,75.7805025 C104.821151,75.7512559 104.850543,75.6997469 104.910645,75.6259757 C104.969431,75.5522044 105.073402,75.5303786 105.222121,75.5596252 C105.400233,75.5884353 105.652046,75.6412537 105.978876,75.714152 C106.304391,75.7883597 106.630782,75.8913776 106.957613,76.0240786 C107.284005,76.1567795 107.559069,76.3344417 107.78105,76.555319 C108.003909,76.7770693 108.099545,77.050765 108.070591,77.3746601 C108.010489,77.7291114 107.959162,78.0765784 107.914414,78.4157516 C107.870106,78.7557978 107.817901,79.0875502 107.759115,79.4123184 C108.1149,78.7920287 108.567198,78.1874536 109.116449,77.5964104 C109.664822,77.0062403 110.325502,76.4605949 111.096734,75.9577281 C111.334509,75.8106221 111.70477,75.6478015 112.209712,75.4705759 C112.714216,75.2933502 113.159056,75.3230333 113.545111,75.5596252 C113.781569,75.7076042 113.945204,75.9066557 114.034699,76.1567795 C114.123316,76.4077764 114.174643,76.6740514 114.189998,76.9542949 C114.204914,77.2354114 114.182979,77.5082341 114.123316,77.7736361 C114.064091,78.039038 114.004867,78.2612248 113.945204,78.4375774 C113.88598,78.614803 113.77455,79.0286205 113.611793,79.6777203 C113.448158,80.3276932 113.329271,81.0217541 113.255131,81.7594668 C113.18143,82.4976159 113.211261,83.1842561 113.344626,83.8189509 C113.47799,84.4536456 113.81184,84.8146446 114.346175,84.903694 C114.40496,84.903694 114.457165,84.9111147 114.501913,84.9255198 C114.54666,84.9407978 114.597988,84.9338136 114.657212,84.903694" id="Fill-38" fill="#FFFFFF"></path>
                        <path d="M123.15805,76.3561802 C122.949668,76.297687 122.727687,76.4007049 122.489912,76.6661068 C122.252576,76.9319453 122.023137,77.2942538 121.800278,77.7512864 C121.577858,78.2091921 121.369914,78.7330117 121.177765,79.3231818 C120.984298,79.9142249 120.828122,80.5192365 120.709673,81.1390897 C121.154952,80.9618641 121.540568,80.7117402 121.86696,80.3860991 C122.104296,80.1508167 122.319258,79.9068041 122.512724,79.6558072 C122.704874,79.4048103 122.861051,79.1760758 122.979938,78.9696035 C123.039163,78.8513076 123.091368,78.7557105 123.135238,78.6815027 C123.179985,78.608168 123.216836,78.5418175 123.246667,78.4820148 C123.424779,78.0393872 123.528312,77.5963231 123.558582,77.1536956 C123.587536,76.7106315 123.454172,76.4452295 123.15805,76.3561802 M125.294073,84.150616 C125.620026,83.7961647 125.909568,83.376236 126.161819,82.8886472 C126.414071,82.401495 126.629911,81.9366051 126.807145,81.4939775 C127.014649,80.9618641 127.208115,80.4306237 127.385788,79.8989468 L127.786759,79.8989468 C127.608647,80.6370959 127.370873,81.346435 127.074751,82.0247814 C126.836538,82.6158245 126.525062,83.2208362 126.139884,83.8406894 C125.75383,84.4609791 125.294073,84.9629729 124.760177,85.3466707 C124.254796,85.7294956 123.736693,85.9730717 123.202797,86.0769626 C122.668462,86.1804169 122.149043,86.2323624 121.64454,86.2323624 C121.080812,86.2323624 120.517084,86.1577181 119.953357,86.0106121 C119.508078,85.8923162 119.085611,85.7150905 118.68464,85.4793717 C118.284547,85.2427798 117.950698,84.9188847 117.683092,84.5046307 C117.416363,84.0916863 117.238251,83.5752874 117.149195,82.9549977 C117.060578,82.3351445 117.104887,81.5974319 117.282998,80.7409868 C117.609829,79.1760758 118.106436,78.0328395 118.774135,77.3082223 C119.441395,76.5853513 120.116114,76.0907783 120.799168,75.8249398 C121.569961,75.5006082 122.416211,75.4119954 123.336162,75.5595379 C123.632283,75.6477142 123.899451,75.7804152 124.136787,75.9576408 C124.314898,76.1353029 124.471075,76.3788791 124.604878,76.6888057 C124.738242,76.9987323 124.774654,77.4343756 124.71543,77.9948625 L124.71543,78.0393872 C124.686037,78.1275635 124.663225,78.2537167 124.648748,78.4156643 C124.633393,78.5784849 124.596543,78.7330117 124.537757,78.8805542 L124.403954,79.2795301 C124.374561,79.4275092 124.299544,79.6187033 124.181534,79.8552952 C123.944198,80.2979228 123.60289,80.6672156 123.15805,80.9618641 C122.682939,81.2875053 122.207829,81.5092556 121.733596,81.6266785 C121.258924,81.7445379 120.87243,81.8191822 120.576309,81.8475558 C120.576309,82.054901 120.560954,82.202007 120.531561,82.2906198 C120.472337,82.9702758 120.524542,83.5089369 120.687738,83.9070398 C120.850495,84.3055793 121.095728,84.6089581 121.421681,84.8145573 L121.466428,84.8145573 C121.526091,84.8743601 121.584438,84.9188847 121.64454,84.9476948 C122.297323,85.2728995 122.882986,85.3684966 123.402844,85.2357956 C123.921386,85.1030946 124.344291,84.9188847 124.67156,84.6818564 L124.71543,84.6818564 C125.041822,84.4461375 125.23441,84.2689119 125.294073,84.150616" id="Fill-40" fill="#FFFFFF"></path>
                        <path d="M126.678343,85.2791417 C126.988064,85.3406905 127.149067,85.4057314 127.474581,85.5240273 C127.770702,85.6711333 128.120345,85.7078007 128.520877,85.6340294 C128.92097,85.5611312 129.15041,85.2730304 129.210511,84.7710366 L129.25482,84.1952716 C129.284213,83.9289966 129.292109,83.5749819 129.277193,83.1323543 C129.261839,82.6892902 129.210511,82.202138 129.121455,81.6708976 C129.0324,81.1392207 128.905616,80.5935753 128.742859,80.0322153 C128.580101,79.4712918 128.349785,78.9548929 128.053663,78.4821457 C127.993561,78.7776673 127.926879,79.0950147 127.852739,79.4341879 C127.778599,79.7742341 127.711917,80.0614619 127.652693,80.2980537 L127.296908,80.2980537 C127.356571,79.9143558 127.430272,79.4712918 127.519328,78.969298 C127.608823,78.4673042 127.66717,77.9657469 127.69744,77.4637531 C127.548721,76.9316397 127.436853,76.4671863 127.36359,76.0686469 C127.289889,75.669671 127.252161,75.3820067 127.252161,75.2047811 C127.252161,74.7621535 127.436853,74.3046844 127.808869,73.8319372 C128.179131,73.3596265 128.720924,73.0942246 129.432931,73.0352948 C129.848379,73.0060483 130.226099,73.0723987 130.567845,73.2343463 C130.908714,73.3971669 131.153507,73.6106234 131.302665,73.8764618 C131.391282,74.0244409 131.44261,74.1863884 131.457964,74.3636141 C131.472441,74.5408397 131.465422,74.7027873 131.436029,74.8503298 C131.405759,74.9983088 131.339077,75.1240255 131.235983,75.2266069 C131.131134,75.3309343 130.99075,75.3676017 130.812639,75.337482 C130.752537,75.337482 130.797284,75.2493057 130.946003,75.0720801 C131.094283,74.8948545 131.079806,74.614611 130.901256,74.2309131 C130.842031,74.0833706 130.730602,73.987337 130.567845,73.9428123 C130.40421,73.8982877 130.279181,73.9061449 130.189687,73.9646381 C129.862417,74.1418638 129.7738,74.4517904 129.922519,74.8948545 C129.951912,75.0428335 130.100631,75.3676017 130.367798,75.8695954 C130.634527,76.3715892 130.916171,76.9914424 131.21317,77.729155 C131.509292,78.4673042 131.754086,79.2722403 131.947552,80.1426539 C132.140579,81.013504 132.192784,81.9074895 132.10329,82.8224277 L131.969925,83.6635947 C131.732151,84.6090891 131.302665,85.2874355 130.679274,85.7003799 L130.634527,85.7449046 L130.367798,85.8776056 C130.130024,86.0251481 129.877772,86.1360232 129.611043,86.2097945 C129.344314,86.2831292 129.002568,86.3206696 128.587559,86.3206696 C127.904944,86.29055 127.378945,86.1504283 127.007367,85.9003044 C126.637105,85.6484345 126.406789,85.4646611 126.317294,85.3463652" id="Fill-42" fill="#FFFFFF"></path>
                        <path d="M66.5449176,74.5097161 C66.5449176,74.5097161 72.8077787,73.7798608 75.8453278,67.2879898 L77.3834051,70.4867815 C77.3834051,70.4867815 71.6614593,76.0248643 66.9217597,75.1369901 C66.9217597,75.1369901 66.756809,74.9903206 66.5449176,74.5097161" id="Fill-44" fill="#FFFFFF"></path>
                    </g>
                </g>
            </g>
        </g>
    </g>
</svg>